<?xml version="1.0" standalone="no"?>
<!DOCTYPE svg PUBLIC "-//W3C//DTD SVG 20010904//EN"
 "http://www.w3.org/TR/2001/REC-SVG-20010904/DTD/svg10.dtd">
<svg version="1.0" xmlns="http://www.w3.org/2000/svg"
 width="1216.000000pt" height="1216.000000pt" viewBox="0 0 1216.000000 1216.000000"
 preserveAspectRatio="xMidYMid meet">
<metadata>
Created by potrace 1.14, written by Peter Selinger 2001-2017
</metadata>
<g transform="translate(0.000000,1216.000000) scale(0.100000,-0.100000)"
fill="#000000" stroke="none">
<path d="M2820 9330 c-17 -19 -111 -153 -208 -299 -97 -146 -179 -268 -182
-271 -14 -14 -70 -102 -70 -109 0 -5 -3 -11 -7 -13 -10 -4 -153 -215 -153
-225 0 -3 -7 -13 -15 -22 -9 -9 -43 -59 -78 -111 -34 -52 -64 -97 -67 -100 -4
-3 -17 -23 -30 -45 -13 -22 -28 -44 -32 -50 -26 -31 -108 -158 -108 -166 0 -5
-4 -9 -8 -9 -5 0 -19 -19 -32 -42 -13 -24 -26 -45 -30 -48 -3 -3 -24 -32 -45
-65 -22 -33 -43 -64 -48 -70 -4 -5 -22 -32 -39 -60 -18 -27 -35 -52 -38 -55
-3 -3 -17 -23 -30 -45 -13 -22 -28 -44 -33 -50 -5 -5 -40 -57 -78 -115 -38
-58 -73 -104 -77 -104 -29 6 -324 -151 -443 -235 -20 -14 -47 -33 -59 -41 -34
-22 -150 -120 -190 -160 -224 -224 -419 -586 -515 -954 -30 -114 -39 -158 -60
-285 -50 -295 -52 -806 -5 -1101 6 -36 12 -76 14 -90 5 -42 17 -104 23 -120 3
-8 8 -31 10 -50 2 -19 9 -40 15 -47 6 -8 8 -16 5 -19 -3 -3 4 -31 15 -62 11
-32 22 -68 24 -82 3 -13 10 -30 16 -37 6 -7 7 -13 3 -13 -4 0 -2 -7 5 -15 7
-8 9 -15 4 -15 -4 0 -3 -5 4 -12 7 -7 12 -17 12 -24 0 -7 19 -52 41 -101 23
-48 40 -88 38 -88 -2 0 6 -14 19 -32 12 -17 22 -34 22 -38 0 -11 106 -168 160
-235 83 -105 248 -258 331 -309 21 -12 39 -27 39 -32 0 -5 5 -9 11 -9 6 0 23
-9 38 -19 91 -65 382 -189 521 -221 124 -29 152 -35 220 -44 25 -3 55 -8 68
-11 142 -27 561 -22 732 9 19 4 49 9 65 12 47 7 153 30 158 34 1 1 10 3 20 5
101 19 387 136 460 187 15 11 27 17 27 13 0 -3 15 5 33 19 19 15 37 26 42 26
4 0 59 39 122 86 113 85 269 232 348 327 22 27 45 54 50 60 16 18 127 186 146
221 66 120 130 263 167 373 33 97 85 288 98 363 4 25 8 47 9 50 1 3 5 30 9 60
5 30 10 62 11 71 5 27 16 112 22 179 8 89 8 601 -1 675 -3 33 -9 78 -11 100
-11 94 -20 153 -33 200 l-8 30 125 43 c114 38 172 52 285 66 21 3 57 8 80 12
47 7 107 7 151 0 31 -5 103 -13 190 -22 84 -8 112 -13 201 -35 78 -20 85 -24
80 -43 -20 -70 -56 -252 -52 -262 3 -7 2 -15 -2 -18 -6 -7 -7 -11 -17 -86 -3
-25 -8 -56 -10 -70 -19 -109 -25 -592 -11 -750 12 -127 13 -136 31 -270 2 -14
10 -59 19 -100 9 -41 17 -84 19 -95 2 -11 6 -27 10 -35 3 -8 10 -37 17 -65 6
-27 16 -59 20 -70 5 -11 16 -45 26 -75 36 -116 136 -331 195 -416 16 -23 29
-47 29 -53 0 -6 3 -11 8 -11 4 0 18 -17 32 -38 14 -20 29 -42 35 -48 5 -6 28
-33 50 -59 42 -49 140 -146 175 -174 12 -9 33 -26 48 -39 51 -43 197 -136 287
-182 79 -41 211 -98 240 -104 6 -2 42 -12 80 -24 89 -27 226 -58 290 -66 28
-4 64 -9 80 -11 131 -19 374 -24 540 -11 55 5 114 9 131 10 17 2 36 6 42 10 7
4 12 5 12 3 0 -2 21 0 48 5 26 5 58 11 72 14 172 30 488 153 637 247 24 15 45
27 48 27 2 0 13 6 22 14 10 8 56 43 103 78 99 74 131 101 214 183 124 123 259
298 318 410 8 17 28 53 43 80 69 125 156 354 190 500 1 6 4 17 7 25 5 13 11
39 33 150 3 14 8 41 11 60 2 19 7 46 9 60 3 14 7 48 11 75 3 28 8 59 10 70 24
117 23 662 -1 845 -3 19 -7 55 -10 80 -3 25 -8 52 -10 60 -2 8 -6 31 -9 50 -7
46 -12 67 -24 115 -6 22 -13 51 -16 65 -6 32 -41 147 -54 181 -8 21 -7 32 7
55 15 24 115 159 148 199 5 6 20 26 33 45 13 19 28 40 33 45 5 6 47 62 93 125
47 63 93 125 102 137 9 12 143 191 297 398 154 207 331 444 393 527 61 82 112
152 112 154 0 2 7 12 16 22 9 9 72 94 142 187 69 94 132 176 139 183 7 7 13
17 13 22 0 5 6 15 13 22 7 7 79 102 160 211 133 178 167 216 167 188 0 -5 10
-13 22 -17 13 -4 39 -17 58 -29 77 -49 235 -139 242 -138 3 2 12 -4 18 -12 7
-8 19 -15 26 -15 8 0 14 -4 14 -8 0 -5 16 -14 35 -22 19 -8 35 -18 35 -22 0
-5 5 -6 10 -3 6 3 10 2 10 -4 0 -5 9 -12 19 -16 11 -3 36 -17 55 -30 20 -13
36 -21 36 -17 0 4 4 3 8 -3 4 -5 16 -15 27 -21 11 -6 52 -29 90 -51 81 -45
117 -47 153 -6 26 30 29 79 7 110 -8 12 -41 36 -73 54 -31 18 -185 107 -342
197 -157 91 -298 173 -315 182 -16 10 -55 32 -85 50 -58 34 -102 44 -135 28
-11 -5 -57 -60 -102 -121 -45 -62 -89 -121 -98 -132 -9 -11 -47 -63 -86 -115
-39 -52 -79 -104 -88 -116 -10 -12 -20 -25 -22 -30 -4 -9 -146 -200 -164 -220
-5 -6 -17 -22 -25 -34 -13 -19 -118 -161 -170 -230 -24 -32 -408 -548 -435
-584 -11 -15 -27 -36 -35 -46 -8 -11 -53 -71 -100 -136 -47 -64 -97 -130 -112
-148 -15 -17 -28 -37 -28 -43 0 -7 -3 -13 -7 -13 -5 0 -21 -20 -38 -45 -16
-24 -33 -45 -37 -45 -5 0 -8 -6 -8 -14 0 -8 -4 -16 -8 -18 -4 -1 -41 -48 -82
-103 -40 -55 -85 -115 -99 -134 -14 -18 -36 -47 -48 -65 -11 -17 -34 -47 -51
-66 l-29 -35 -46 92 c-140 278 -327 477 -607 644 -71 43 -261 139 -274 139 -3
0 -25 9 -49 19 -38 18 -161 59 -197 66 -33 7 -167 34 -205 41 -22 4 -44 8 -50
9 -88 19 -534 27 -650 12 -131 -17 -239 -37 -335 -64 -30 -9 -56 -15 -57 -15
-6 3 -199 -69 -223 -82 -14 -8 -29 -15 -35 -16 -5 -1 -30 -11 -55 -22 -25 -12
-47 -20 -49 -19 -2 2 -7 -1 -10 -6 -3 -5 -28 -20 -56 -34 -56 -29 -207 -119
-215 -128 -3 -4 -29 -22 -57 -40 -29 -18 -53 -37 -53 -42 0 -5 -5 -9 -10 -9
-23 0 -200 -174 -271 -266 -60 -77 -150 -214 -141 -214 4 0 2 -4 -4 -8 -15
-10 -95 -171 -139 -277 -20 -49 -40 -93 -43 -97 -4 -3 -41 2 -82 13 -41 11
-82 21 -90 23 -8 2 -46 7 -85 10 -38 4 -79 9 -90 11 -11 3 -47 7 -80 10 -33 4
-80 9 -105 12 -74 8 -156 4 -244 -13 -11 -2 -55 -8 -97 -14 -43 -6 -104 -20
-136 -31 -32 -11 -66 -22 -75 -24 -9 -2 -26 -9 -37 -15 -12 -6 -21 -8 -21 -5
0 3 -13 -1 -29 -10 -31 -15 -39 -11 -46 22 -4 20 -80 238 -94 268 -89 196
-167 332 -251 436 -80 99 -217 224 -310 285 -25 16 -46 32 -48 37 -2 4 -8 7
-12 7 -5 0 -28 13 -52 28 -54 36 -227 123 -293 147 -27 10 -54 22 -60 25 -5 4
-23 11 -40 15 -16 5 -34 10 -40 11 -234 75 -438 102 -750 99 -132 -2 -251 -5
-265 -8 -14 -3 -46 -8 -71 -11 -26 -3 -53 -8 -60 -10 -8 -3 -30 -7 -49 -10
-19 -3 -50 -10 -67 -15 -18 -5 -35 -6 -38 -1 -3 5 -2 10 2 12 5 1 42 54 83
117 41 63 80 119 85 125 6 6 16 23 24 38 8 15 22 36 31 46 9 10 19 22 21 28 2
5 67 102 144 216 77 114 144 217 150 228 5 11 13 20 17 20 5 0 8 6 8 14 0 8 3
16 8 18 8 3 152 214 152 223 0 3 8 15 18 26 11 10 25 32 33 47 8 15 22 36 32
46 9 11 17 25 17 32 0 7 4 14 8 16 5 2 31 37 58 78 27 41 51 77 54 80 3 3 45
66 94 140 49 74 93 137 97 138 5 2 9 9 9 16 0 7 8 21 18 32 11 11 21 25 23 30
3 9 209 -118 262 -161 9 -8 20 -15 22 -15 3 0 29 -16 58 -35 28 -20 59 -40 67
-46 137 -92 241 -155 261 -157 73 -6 122 66 88 130 -6 11 -113 87 -237 169
-125 81 -231 152 -237 156 -15 12 -99 67 -110 73 -5 3 -43 27 -83 53 -40 27
-88 51 -107 54 -30 5 -39 1 -65 -27z"/>
</g>
</svg>
