<?xml version="1.0" standalone="no"?>
<svg viewBox="0 0 200 200" xmlns="http://www.w3.org/2000/svg">
  <path fill="#292836" d="M32.3,-68.6C34,-55.1,21.9,-30.4,16.1,-17.1C10.4,-3.8,10.9,-1.9,18,4.1C25,10,38.5,20,43.6,32.2C48.7,44.3,45.4,58.6,36.7,69.9C28.1,81.2,14,89.5,6.6,78C-0.7,66.5,-1.5,35.1,-3.6,20.1C-5.8,5,-9.4,6.2,-19.6,5.6C-29.8,5,-46.6,2.5,-52.5,-3.4C-58.4,-9.3,-53.4,-18.6,-43.5,-19.9C-33.7,-21.1,-19,-14.3,-10.9,-24.1C-2.9,-33.9,-1.4,-60.4,7,-72.4C15.4,-84.5,30.7,-82.1,32.3,-68.6Z" transform="translate(100 100)" />
</svg>
