<?xml version="1.0" standalone="no"?>
<svg viewBox="0 0 200 200" xmlns="http://www.w3.org/2000/svg">
  <path fill="#292836" d="M44.5,-70C56.2,-70.2,63.4,-55.5,63,-41.3C62.6,-27.2,54.7,-13.6,51.9,-1.6C49.1,10.4,51.5,20.7,51.4,34C51.3,47.3,48.7,63.5,39.7,71.8C30.7,80,15.4,80.3,3.1,74.8C-9.1,69.4,-18.2,58.3,-32.3,53C-46.5,47.8,-65.7,48.4,-76.1,40.5C-86.5,32.7,-88.2,16.3,-83.2,2.9C-78.2,-10.6,-66.7,-21.2,-57.7,-31.5C-48.6,-41.8,-42.1,-51.8,-33,-53C-23.8,-54.2,-11.9,-46.6,2.2,-50.5C16.4,-54.3,32.7,-69.7,44.5,-70Z" transform="translate(100 100)" />
</svg>
