<svg width="344" height="193" viewBox="0 0 344 193" fill="none" xmlns="http://www.w3.org/2000/svg">
<g clip-path="url(#clip0_2_2)">
<path d="M257.973 91.1808C257.122 92.322 257.359 93.9356 258.502 94.7857C259.644 95.6349 261.262 95.3982 262.111 94.257L257.973 91.1808ZM135.048 94.0153L135.331 91.4551C135.117 91.4308 134.898 91.4342 134.684 91.4652L135.048 94.0153ZM113.596 96.7224C112.244 97.173 111.513 98.6314 111.962 99.9807C112.413 101.331 113.873 102.06 115.225 101.61L113.596 96.7224ZM317.411 15.769L318.701 13.5388C317.568 12.8848 316.123 13.1823 315.342 14.2309L317.411 15.769ZM79.5851 2.57602L81.001 0.423731C79.8195 -0.352461 78.2306 -0.0326325 77.4435 1.14055L79.5851 2.57602ZM126.019 95.3026L125.655 92.7533C125.5 92.7751 125.35 92.8103 125.203 92.859L126.019 95.3026ZM146.656 95.3026L147.283 92.8045C147.169 92.7759 147.056 92.7558 146.94 92.7424L146.656 95.3026ZM340.13 31.851C341.363 32.563 342.942 32.1414 343.653 30.9096C344.366 29.6779 343.945 28.1026 342.71 27.3909L340.13 31.851ZM98.2665 17.9212C99.4563 18.7027 101.055 18.3726 101.84 17.184C102.621 15.9953 102.29 14.3981 101.099 13.6167L98.2665 17.9212ZM262.111 94.257L319.479 17.307L315.342 14.2309L257.973 91.1808L262.111 94.257ZM39.1617 67.3313L81.7261 4.01148L77.4435 1.14055L34.8795 64.4603L39.1617 67.3313ZM115.225 101.61L126.834 97.7461L125.203 92.859L113.596 96.7224L115.225 101.61ZM126.382 97.8527L135.411 96.5646L134.684 91.4652L125.655 92.7533L126.382 97.8527ZM134.763 96.5747L146.372 97.8627L146.94 92.7424L135.331 91.4551L134.763 96.5747ZM146.029 97.8015L151.189 99.0896L152.442 94.0917L147.283 92.8045L146.029 97.8015ZM151.189 99.0896L156.347 100.378L157.601 95.3798L152.442 94.0917L151.189 99.0896ZM342.71 27.3909L318.701 13.5388L316.121 17.9992L340.13 31.851L342.71 27.3909ZM101.099 13.6167L81.001 0.423731L78.1687 4.7283L98.2665 17.9212L101.099 13.6167ZM25.0716 73.0766L21.9864 68.9484L21.958 68.969L25.0716 73.0766ZM102.322 75.4722L98.5249 78.9597C98.5501 78.9867 98.5736 79.0133 98.5996 79.0398L102.322 75.4722ZM111.918 92.7197L107.035 94.3795C107.045 94.4106 107.055 94.4408 107.066 94.4718L111.918 92.7197ZM19.074 169.373L15.2509 172.833C15.269 172.854 15.2896 172.874 15.3077 172.895L19.074 169.373ZM156.975 97.8787L161.912 99.3757C161.943 99.2742 161.969 99.1709 161.995 99.0677L156.975 97.8787ZM173.196 73.0766L170.111 68.9484L170.082 68.969L173.196 73.0766ZM250.445 75.4722L246.649 78.9602C246.674 78.9867 246.7 79.0133 246.724 79.0398L250.445 75.4722ZM260.042 92.7197L255.158 94.3795C255.169 94.4106 255.179 94.4408 255.19 94.4718L260.042 92.7197ZM247.807 167.936L244.107 164.346L244.105 164.348L247.807 167.936ZM167.197 169.373L163.375 172.833C163.396 172.854 163.413 172.874 163.431 172.895L167.197 169.373ZM10.3186 124.1C10.3186 112.635 12.0805 102.96 15.4366 94.9468L5.91771 90.971C1.91667 100.524 0 111.61 0 124.1H10.3186ZM15.4366 94.9468C18.8624 86.7686 23.173 80.9716 28.1853 77.1846L21.958 68.969C15.1348 74.1249 9.84906 81.5829 5.91771 90.971L15.4366 94.9468ZM28.1569 77.2047C38.6871 69.3578 49.9319 65.5324 62.0177 65.5324V55.2295C47.5531 55.2295 34.1675 59.8678 21.9864 68.9484L28.1569 77.2047ZM62.0177 65.5324C71.2653 65.5324 78.731 66.9741 84.6022 69.6258L88.8535 60.2387C81.29 56.8218 72.2817 55.2295 62.0177 55.2295V65.5324ZM84.6022 69.6258C90.8991 72.4702 95.4524 75.6247 98.5249 78.9597L106.12 71.9843C101.835 67.335 95.9919 63.4628 88.8535 60.2387L84.6022 69.6258ZM98.5996 79.0398C101.742 82.3061 104.62 87.3006 107.035 94.3795L116.801 91.0591C114.098 83.1268 110.579 76.6227 106.044 71.9047L98.5996 79.0398ZM107.066 94.4718C109.537 101.291 110.838 109.457 110.838 119.069H121.156C121.156 108.56 119.737 99.1592 116.77 90.9676L107.066 94.4718ZM110.838 119.069C110.838 139.637 105.619 154.442 95.981 164.346L103.385 171.526C115.498 159.073 121.156 141.3 121.156 119.069H110.838ZM95.981 164.346C86.3306 174.27 73.9587 179.314 58.419 179.314V189.617C76.4662 189.617 91.6038 183.641 103.385 171.526L95.981 164.346ZM58.419 179.314C42.7191 179.314 31.0952 174.653 22.8403 165.852L15.3077 172.895C25.9255 184.216 40.5315 189.617 58.419 189.617V179.314ZM22.897 165.915C14.7969 156.99 10.3186 143.348 10.3186 124.1H0C0 144.776 4.79815 161.316 15.2509 172.833L22.897 165.915ZM158.442 124.1C158.442 115.187 159.81 106.283 161.912 99.3757L152.037 96.3817C149.622 104.322 148.124 114.242 148.124 124.1H158.442ZM156.975 97.8787C161.995 99.0677 161.995 99.0677 161.995 99.0677V99.0719L161.992 99.0761L161.99 99.0845C161.99 99.0904 161.987 99.1005 161.987 99.1005C161.984 99.1097 161.982 99.1181 161.982 99.1248C161.976 99.1382 161.974 99.1475 161.974 99.1475C161.974 99.1475 161.979 99.1273 161.995 99.0786C162.023 98.9796 162.087 98.7774 162.199 98.4527C162.42 97.8015 162.835 96.6779 163.56 94.9459L154.042 90.971C153.247 92.8716 152.747 94.2075 152.437 95.1087C152.282 95.5602 152.174 95.9067 152.097 96.1627C152.061 96.2911 152.03 96.3976 152.006 96.4849C151.996 96.5285 151.986 96.5671 151.975 96.6015C151.972 96.6183 151.967 96.6343 151.965 96.6485C151.962 96.6561 151.959 96.6628 151.959 96.6703L151.957 96.6804L151.954 96.6846C151.954 96.6846 151.954 96.6896 156.975 97.8787ZM163.56 94.9459C166.986 86.7686 171.297 80.9716 176.309 77.1846L170.082 68.969C163.259 74.1249 157.973 81.5829 154.042 90.971L163.56 94.9459ZM176.283 77.2047C186.81 69.3578 198.055 65.5324 210.141 65.5324V55.2295C195.676 55.2295 182.294 59.8678 170.111 68.9484L176.283 77.2047ZM210.141 65.5324C219.39 65.5324 226.855 66.9741 232.726 69.6258L236.98 60.2387C229.414 56.8218 220.405 55.2295 210.141 55.2295V65.5324ZM232.726 69.6258C239.023 72.4702 243.575 75.6248 246.649 78.9602L254.243 71.9843C249.958 67.335 244.115 63.4628 236.98 60.2387L232.726 69.6258ZM246.724 79.0398C249.865 82.3061 252.744 87.3006 255.158 94.3795L264.925 91.0591C262.222 83.1268 258.703 76.6227 254.168 71.9047L246.724 79.0398ZM255.19 94.4718C257.661 101.291 258.962 109.457 258.962 119.069H269.28C269.28 108.56 267.861 99.1592 264.894 90.9676L255.19 94.4718ZM258.962 119.069C258.962 139.637 253.743 154.442 244.107 164.346L251.508 171.526C263.622 159.073 269.28 141.299 269.28 119.069H258.962ZM244.105 164.348C234.457 174.271 222.082 179.314 206.543 179.314V189.617C224.59 189.617 239.727 183.641 251.508 171.526L244.105 164.348ZM206.543 179.314C190.843 179.314 179.219 174.653 170.964 165.852L163.431 172.895C174.05 184.216 188.655 189.617 206.543 189.617V179.314ZM171.021 165.915C162.921 156.99 158.442 143.348 158.442 124.1H148.124C148.124 144.776 152.921 161.316 163.375 172.833L171.021 165.915Z" fill="#292836"/>
<path d="M34.0777 78.9804C41.8774 72.1429 51.1339 68.3119 60.3031 68.126C60.8067 68.1159 61.3104 68.1444 61.8093 68.2107L71.6226 69.5183C92.0594 72.2413 95.6052 111.875 76.5532 104.503C61.9213 98.8395 57.4154 97.0966 57.4154 97.0958C57.4149 97.0958 57.4149 97.0958 57.4149 97.0958C48.4865 93.6402 39.1105 100.128 34.8965 110.983C32.1916 117.951 28.9102 126.404 25.2908 135.729C24.4279 137.951 23.5544 139.723 22.6786 141.106C11.3294 159.024 10.1145 116.44 20.221 97.6681L22.1493 94.0867C25.2749 88.2807 29.3375 83.136 34.0777 78.9804Z" fill="#292836"/>
<path d="M181.119 78.9804C188.918 72.1429 198.174 68.3119 207.343 68.126C207.847 68.1159 208.351 68.1444 208.85 68.2107L218.663 69.5183C239.1 72.2413 242.645 111.875 223.593 104.503C208.962 98.8395 204.456 97.0966 204.455 97.0958C195.527 93.6402 186.151 100.128 181.937 110.983C179.232 117.951 175.95 126.404 172.331 135.729C171.468 137.951 170.595 139.723 169.719 141.106C158.37 159.024 157.154 116.44 167.261 97.6681L169.189 94.0867C172.315 88.2807 176.378 83.136 181.119 78.9804Z" fill="#292836"/>
</g>
<defs>
<clipPath id="clip0_2_2">
<rect width="344" height="193" fill="white"/>
</clipPath>
</defs>
</svg>
