<svg width="50" height="50" viewBox="0 0 75 75" fill="none" xmlns="http://www.w3.org/2000/svg">
<path d="M37.5 7.03125C20.673 7.03125 7.03125 20.673 7.03125 37.5C7.03125 51.8871 17.0063 63.9375 30.416 67.132C29.7223 66.9668 29.0344 66.7816 28.3594 66.5707V59.5898C28.3594 59.5898 27.2168 59.9707 25.6934 59.9707C21.4312 59.9707 19.6605 56.168 19.2187 54.2578C18.9504 53.0941 18.2496 51.9914 17.4973 51.3176C16.5984 50.516 16.1777 50.5137 16.1719 50.2395C16.1602 49.6641 16.943 49.6875 17.3145 49.6875C19.2187 49.6875 20.6625 51.7137 21.3328 52.7613C22.9934 55.3477 24.7758 55.7812 25.6934 55.7812C26.8359 55.7812 27.8227 55.6102 28.5023 55.282C28.8164 53.0695 29.8008 51.0984 31.4062 49.6875C24.2613 48.259 19.2187 44.1609 19.2187 37.5C19.2187 34.0688 20.5957 30.9152 22.8902 28.3688C22.6559 27.7043 22.2656 26.3602 22.2656 24.1699C22.2656 22.7227 22.3664 20.9461 23.0273 19.2187C23.0273 19.2187 27.3727 19.2492 31.4707 23.1305C33.3621 22.5797 35.3859 22.2656 37.5 22.2656C39.6141 22.2656 41.6379 22.5797 43.5293 23.1305C47.6273 19.2492 51.9727 19.2187 51.9727 19.2187C52.6371 20.9461 52.7344 22.7227 52.7344 24.1699C52.7344 26.5313 52.4203 27.9082 52.2281 28.5023C54.4523 31.0254 55.7812 34.1297 55.7812 37.5C55.7812 44.1609 50.7387 48.259 43.5938 49.6875C45.5016 51.3633 46.6406 53.8043 46.6406 56.543V66.5707C45.9656 66.7828 45.2789 66.9668 44.584 67.132C57.9937 63.9375 67.9688 51.8871 67.9688 37.5C67.9688 20.673 54.327 7.03125 37.5 7.03125ZM39.6246 67.8867C38.9227 67.9359 38.2148 67.9688 37.5 67.9688C38.2148 67.9688 38.9215 67.9348 39.6246 67.8867ZM44.2805 67.2023C42.9164 67.5129 41.5184 67.7309 40.091 67.8516C41.5184 67.7309 42.9164 67.5117 44.2805 67.2023ZM37.5 67.9688C36.7852 67.9688 36.0773 67.9359 35.3754 67.8867C36.0785 67.9348 36.7852 67.9688 37.5 67.9688ZM34.9078 67.8516C33.4816 67.7309 32.0824 67.5129 30.7195 67.2023C32.0836 67.5117 33.4816 67.7309 34.9078 67.8516Z" fill="#04CFB1"/>
</svg>
