<svg width="76" height="42" viewBox="0 0 76 42" fill="none" xmlns="http://www.w3.org/2000/svg">
<path d="M2.97687 20.798C2.17486 22.7158 1.77385 24.9824 1.77385 27.5977C1.77385 31.9565 2.78509 35.2518 4.80757 37.4835C6.86492 39.6803 9.72428 40.7787 13.3857 40.7787C17.047 40.7787 20.0459 39.5757 22.3822 37.1696C24.7534 34.7287 25.939 31.1719 25.939 26.4993C25.939 24.3024 25.6426 22.3846 25.0498 20.7457C24.4919 19.1068 23.7945 17.8514 22.9576 16.9797C22.1556 16.1079 21.0223 15.3408 19.5577 14.6782C18.0932 14.0157 16.2973 13.6844 14.1703 13.6844C11.276 13.6844 8.591 14.6085 6.1152 16.4566C4.825 17.433 3.77889 18.8801 2.97687 20.798Z" fill="#04CFB1"/>
<path d="M34.8731 21.8722C34.3804 23.4933 34.0683 25.5484 34.0683 27.5977C34.0683 31.9565 35.0795 35.2518 37.102 37.4835C39.1593 39.6803 42.0187 40.7787 45.6801 40.7787C49.3415 40.7787 52.3403 39.5757 54.6766 37.1696C57.0478 34.7287 58.2334 31.1719 58.2334 26.4993C58.2334 24.3024 57.937 22.3846 57.3442 20.7457C56.7863 19.1068 56.0889 17.8514 55.252 16.9797C54.45 16.1079 53.3167 15.3408 51.8521 14.6782C50.3876 14.0157 48.5917 13.6844 46.4647 13.6844C43.5704 13.6844 40.8854 14.6085 38.4096 16.4566C37.1194 17.433 36.0733 18.8801 35.2713 20.798C34.94 21.591 34.8731 21.8722 34.8731 21.8722Z" fill="#04CFB1"/>
<path d="M56.8931 20.4098C56.7075 20.659 56.7593 21.0113 57.0084 21.1968C57.2576 21.3823 57.6102 21.3307 57.7953 21.0815L56.8931 20.4098ZM30.0925 21.0286L30.1544 20.4696C30.1077 20.4643 30.0599 20.4651 30.0132 20.4718L30.0925 21.0286ZM25.4154 21.6198C25.1207 21.7181 24.9615 22.0366 25.0593 22.3312C25.1578 22.626 25.4761 22.7852 25.7708 22.687L25.4154 21.6198ZM69.852 3.94324L70.1332 3.45626C69.8863 3.31345 69.5713 3.37843 69.4009 3.6074L69.852 3.94324ZM18.0004 1.0625L18.3091 0.592539C18.0515 0.423054 17.7051 0.49289 17.5335 0.74906L18.0004 1.0625ZM28.124 21.3098L28.0447 20.753C28.011 20.7578 27.9783 20.7656 27.9463 20.7762L28.124 21.3098ZM32.6234 21.3098L32.7601 20.7642C32.7353 20.758 32.7106 20.7536 32.6853 20.7508L32.6234 21.3098ZM74.8052 7.45483C75.0741 7.61029 75.4183 7.51822 75.5735 7.24927C75.7287 6.98032 75.6371 6.63634 75.3677 6.48094L74.8052 7.45483ZM22.0734 4.41319C22.3327 4.58383 22.6814 4.51175 22.8524 4.2522C23.0228 3.99265 22.9508 3.64391 22.691 3.47327L22.0734 4.41319ZM57.7953 21.0815L70.303 4.27907L69.4009 3.6074L56.8931 20.4098L57.7953 21.0815ZM9.18717 15.2021L18.4672 1.37594L17.5335 0.74906L8.25354 14.5752L9.18717 15.2021ZM25.7708 22.687L28.3017 21.8433L27.9463 20.7762L25.4154 21.6198L25.7708 22.687ZM28.2033 21.8666L30.1718 21.5854L30.0132 20.4718L28.0447 20.753L28.2033 21.8666ZM30.0306 21.5876L32.5615 21.8688L32.6853 20.7508L30.1544 20.4696L30.0306 21.5876ZM32.4867 21.8554L33.6116 22.1366L33.8849 21.0454L32.7601 20.7642L32.4867 21.8554ZM33.6116 22.1366L34.7364 22.4179L35.0098 21.3266L33.8849 21.0454L33.6116 22.1366ZM75.3677 6.48094L70.1332 3.45626L69.5707 4.43021L74.8052 7.45483L75.3677 6.48094ZM22.691 3.47327L18.3091 0.592539L17.6916 1.53246L22.0734 4.41319L22.691 3.47327ZM6.1152 16.4566L5.44254 15.5552L5.43636 15.5597L6.1152 16.4566ZM22.9576 16.9797L22.1297 17.7412C22.1353 17.7471 22.1404 17.7529 22.146 17.7587L22.9576 16.9797ZM25.0498 20.7457L23.9851 21.1082C23.9874 21.1149 23.9896 21.1216 23.9919 21.1283L25.0498 20.7457ZM4.80757 37.4835L3.97406 38.2388C3.97799 38.2434 3.98249 38.2479 3.98642 38.2524L4.80757 37.4835ZM34.8731 21.8722L35.9496 22.1991C35.9563 22.1769 35.962 22.1544 35.9676 22.1318L34.8731 21.8722ZM38.4096 16.4566L37.737 15.5552L37.7308 15.5597L38.4096 16.4566ZM55.252 16.9797L54.4241 17.7413C54.4297 17.7471 54.4353 17.7529 54.4404 17.7587L55.252 16.9797ZM57.3442 20.7457L56.2795 21.1082C56.2818 21.1149 56.284 21.1216 56.2863 21.1283L57.3442 20.7457ZM54.6766 37.1696L53.8701 36.3858L53.8695 36.386L54.6766 37.1696ZM37.102 37.4835L36.2685 38.2388C36.273 38.2434 36.2769 38.2479 36.2808 38.2524L37.102 37.4835ZM2.8987 27.5977C2.8987 25.0943 3.28283 22.9819 4.01455 21.232L1.9392 20.364C1.06688 22.4499 0.649002 24.8705 0.649002 27.5977H2.8987ZM4.01455 21.232C4.76145 19.4463 5.70126 18.1805 6.79405 17.3536L5.43636 15.5597C3.94874 16.6855 2.79633 18.314 1.9392 20.364L4.01455 21.232ZM6.78786 17.358C9.08368 15.6446 11.5353 14.8093 14.1703 14.8093V12.5596C11.0167 12.5596 8.09831 13.5724 5.44254 15.5552L6.78786 17.358ZM14.1703 14.8093C16.1865 14.8093 17.8142 15.1241 19.0943 15.7031L20.0212 13.6534C18.3721 12.9073 16.4081 12.5596 14.1703 12.5596V14.8093ZM19.0943 15.7031C20.4672 16.3242 21.4598 17.013 22.1297 17.7412L23.7855 16.2181C22.8513 15.2029 21.5774 14.3574 20.0212 13.6534L19.0943 15.7031ZM22.146 17.7587C22.831 18.4719 23.4587 19.5625 23.9851 21.1082L26.1145 20.3832C25.525 18.6511 24.7579 17.2309 23.7692 16.2007L22.146 17.7587ZM23.9919 21.1283C24.5307 22.6172 24.8141 24.4004 24.8141 26.4993H27.0638C27.0638 24.2045 26.7545 22.1519 26.1077 20.3631L23.9919 21.1283ZM24.8141 26.4993C24.8141 30.9903 23.6764 34.223 21.5751 36.3858L23.1893 37.9534C25.8304 35.2344 27.0638 31.3535 27.0638 26.4993H24.8141ZM21.5751 36.3858C19.4711 38.5526 16.7737 39.6539 13.3857 39.6539V41.9036C17.3204 41.9036 20.6207 40.5988 23.1893 37.9534L21.5751 36.3858ZM13.3857 39.6539C9.96275 39.6539 7.42847 38.6363 5.62871 36.7146L3.98642 38.2524C6.30136 40.7243 9.48581 41.9036 13.3857 41.9036V39.6539ZM5.64108 36.7281C3.87506 34.7794 2.8987 31.8006 2.8987 27.5977H0.649002C0.649002 32.1124 1.69511 35.7241 3.97406 38.2388L5.64108 36.7281ZM35.1931 27.5977C35.1931 25.6517 35.4912 23.7073 35.9496 22.1991L33.7966 21.5453C33.2702 23.2793 32.9434 25.4451 32.9434 27.5977H35.1931ZM34.8731 21.8722C35.9676 22.1318 35.9676 22.1318 35.9676 22.1318V22.1328L35.967 22.1337L35.9665 22.1356C35.9665 22.1369 35.9659 22.1391 35.9659 22.1391C35.9653 22.1411 35.9648 22.1429 35.9648 22.1444C35.9636 22.1473 35.9631 22.1492 35.9631 22.1492C35.9631 22.1492 35.9642 22.1449 35.9676 22.1342C35.9738 22.1126 35.9878 22.0684 36.012 21.9975C36.0604 21.8554 36.1509 21.61 36.309 21.2319L34.2336 20.364C34.0604 20.7789 33.9513 21.0707 33.8838 21.2675C33.85 21.366 33.8264 21.4416 33.8096 21.4976C33.8017 21.5256 33.7949 21.5489 33.7899 21.5679C33.7876 21.5774 33.7854 21.5859 33.7831 21.5933C33.7826 21.597 33.7814 21.6005 33.7809 21.6037C33.7803 21.6053 33.7797 21.6068 33.7797 21.6084L33.7792 21.6106L33.7786 21.6116C33.7786 21.6116 33.7786 21.6127 34.8731 21.8722ZM36.309 21.2319C37.0559 19.4463 37.9957 18.1805 39.0885 17.3536L37.7308 15.5597C36.2432 16.6855 35.0908 18.314 34.2336 20.364L36.309 21.2319ZM39.0828 17.358C41.3781 15.6446 43.8297 14.8093 46.4647 14.8093V12.5596C43.3111 12.5596 40.3933 13.5724 37.737 15.5552L39.0828 17.358ZM46.4647 14.8093C48.481 14.8093 50.1086 15.1241 51.3887 15.7031L52.3161 13.6534C50.6665 12.9073 48.7025 12.5596 46.4647 12.5596V14.8093ZM51.3887 15.7031C52.7616 16.3242 53.7542 17.013 54.4241 17.7413L56.0799 16.2181C55.1457 15.2029 53.8718 14.3574 52.3161 13.6534L51.3887 15.7031ZM54.4404 17.7587C55.1254 18.4719 55.7531 19.5625 56.2795 21.1082L58.4089 20.3832C57.8194 18.6511 57.0523 17.2309 56.0636 16.2007L54.4404 17.7587ZM56.2863 21.1283C56.8251 22.6172 57.1086 24.4004 57.1086 26.4993H59.3583C59.3583 24.2045 59.0489 22.1519 58.4021 20.3631L56.2863 21.1283ZM57.1086 26.4993C57.1086 30.9903 55.9708 34.223 53.8701 36.3858L55.4837 37.9534C58.1248 35.2344 59.3583 31.3534 59.3583 26.4993H57.1086ZM53.8695 36.386C51.7661 38.5528 49.0681 39.6539 45.6801 39.6539V41.9036C49.6148 41.9036 52.9151 40.5988 55.4837 37.9534L53.8695 36.386ZM45.6801 39.6539C42.2572 39.6539 39.7229 38.6363 37.9231 36.7146L36.2808 38.2524C38.5958 40.7243 41.7802 41.9036 45.6801 41.9036V39.6539ZM37.9355 36.7281C36.1695 34.7794 35.1931 31.8006 35.1931 27.5977H32.9434C32.9434 32.1124 33.9895 35.7241 36.2685 38.2388L37.9355 36.7281Z" fill="#008470"/>
<path d="M8.07876 17.7457C9.77927 16.2527 11.7974 15.4162 13.7965 15.3756C13.9063 15.3734 14.0161 15.3796 14.1249 15.3941L16.2644 15.6796C20.7202 16.2742 21.4931 24.9285 17.3394 23.3186C14.1493 22.0821 13.1669 21.7014 13.1669 21.7013C13.1668 21.7013 13.1668 21.7013 13.1668 21.7013C11.2202 20.9468 9.17602 22.3632 8.25726 24.7336C7.66753 26.2551 6.95212 28.1009 6.163 30.1369C5.97488 30.6222 5.78442 31.0091 5.59347 31.311C3.11909 35.2235 2.85422 25.9252 5.05766 21.8263L5.47809 21.0442C6.15954 19.7765 7.04528 18.6531 8.07876 17.7457Z" fill="white"/>
<path d="M40.137 17.7457C41.8375 16.2527 43.8556 15.4162 45.8547 15.3756C45.9645 15.3734 46.0743 15.3796 46.1831 15.3941L48.3226 15.6796C52.7784 16.2742 53.5513 24.9285 49.3976 23.3186C46.2075 22.0821 45.2251 21.7014 45.225 21.7013C45.225 21.7013 45.225 21.7013 45.225 21.7013C43.2784 20.9468 41.2342 22.3632 40.3155 24.7336C39.7257 26.2551 39.0103 28.1009 38.2212 30.1369C38.0331 30.6222 37.8426 31.0091 37.6517 31.311C35.1773 35.2235 34.9124 25.9252 37.1159 21.8263L37.5363 21.0442C38.2177 19.7765 39.1035 18.6531 40.137 17.7457Z" fill="white"/>
</svg>
