<svg width="41" height="23" viewBox="0 0 41 23" fill="none" xmlns="http://www.w3.org/2000/svg">
<path d="M30.7468 10.8661C30.6453 11.0021 30.6736 11.1944 30.8098 11.2957C30.946 11.3969 31.1388 11.3687 31.24 11.2327L30.7468 10.8661ZM16.0958 11.2039L16.1296 10.8988C16.1041 10.8959 16.078 10.8963 16.0524 10.9L16.0958 11.2039ZM13.539 11.5265C13.3779 11.5802 13.2908 11.754 13.3443 11.9148C13.3981 12.0757 13.5721 12.1626 13.7332 12.109L13.539 11.5265ZM37.831 1.87921L37.9847 1.61343C37.8497 1.53549 37.6775 1.57095 37.5844 1.69591L37.831 1.87921ZM9.48543 0.306987L9.65419 0.0504965C9.51337 -0.0420031 9.324 -0.00388883 9.23019 0.135921L9.48543 0.306987ZM15.0197 11.3573L14.9763 11.0535C14.9579 11.0561 14.94 11.0603 14.9225 11.0661L15.0197 11.3573ZM17.4793 11.3573L17.5541 11.0596C17.5405 11.0562 17.527 11.0538 17.5132 11.0522L17.4793 11.3573ZM40.5387 3.79572C40.6857 3.88057 40.8739 3.83032 40.9587 3.68353C41.0436 3.53675 40.9935 3.34902 40.8462 3.2642L40.5387 3.79572ZM11.712 2.13569C11.8538 2.22882 12.0444 2.18948 12.1379 2.04783C12.231 1.90617 12.1916 1.71584 12.0496 1.62271L11.712 2.13569ZM31.24 11.2327L38.0775 2.06249L37.5844 1.69591L30.7468 10.8661L31.24 11.2327ZM4.66753 8.02394L9.74061 0.478052L9.23019 0.135921L4.15715 7.6818L4.66753 8.02394ZM13.7332 12.109L15.1168 11.6485L14.9225 11.0661L13.539 11.5265L13.7332 12.109ZM15.063 11.6612L16.1391 11.5077L16.0524 10.9L14.9763 11.0535L15.063 11.6612ZM16.0619 11.5089L17.4455 11.6624L17.5132 11.0522L16.1296 10.8988L16.0619 11.5089ZM17.4046 11.6551L18.0196 11.8086L18.169 11.213L17.5541 11.0596L17.4046 11.6551ZM18.0196 11.8086L18.6344 11.9621L18.7839 11.3665L18.169 11.213L18.0196 11.8086ZM40.8462 3.2642L37.9847 1.61343L37.6772 2.14498L40.5387 3.79572L40.8462 3.2642ZM12.0496 1.62271L9.65419 0.0504965L9.31662 0.563476L11.712 2.13569L12.0496 1.62271ZM2.98819 8.70861L2.62047 8.21665L2.61709 8.21911L2.98819 8.70861ZM12.1954 8.9941L11.7428 9.4097C11.7458 9.41292 11.7486 9.41609 11.7517 9.41925L12.1954 8.9941ZM13.3391 11.0495L12.7571 11.2473C12.7583 11.251 12.7595 11.2546 12.7608 11.2583L13.3391 11.0495ZM2.27335 20.1844L1.8177 20.5967C1.81985 20.5992 1.82231 20.6016 1.82446 20.6041L2.27335 20.1844ZM18.7092 11.6643L19.2977 11.8427C19.3013 11.8306 19.3044 11.8183 19.3075 11.806L18.7092 11.6643ZM20.6425 8.70861L20.2748 8.21665L20.2714 8.21911L20.6425 8.70861ZM29.8496 8.9941L29.3971 9.40976C29.4001 9.41292 29.4032 9.41609 29.406 9.41925L29.8496 8.9941ZM30.9934 11.0495L30.4113 11.2473C30.4126 11.251 30.4138 11.2546 30.4151 11.2583L30.9934 11.0495ZM29.5351 20.0131L29.0942 19.5853L29.0939 19.5855L29.5351 20.0131ZM19.9276 20.1844L19.472 20.5967C19.4745 20.5992 19.4766 20.6016 19.4787 20.6041L19.9276 20.1844ZM1.22983 14.7891C1.22983 13.4228 1.43983 12.2699 1.83983 11.3149L0.705308 10.8411C0.22844 11.9796 0 13.3007 0 14.7891H1.22983ZM1.83983 11.3149C2.24814 10.3403 2.7619 9.64946 3.35929 9.19816L2.61709 8.21911C1.80386 8.83354 1.17387 9.72232 0.705308 10.8411L1.83983 11.3149ZM3.35591 9.20056C4.61096 8.26544 5.95118 7.80956 7.39164 7.80956V6.58175C5.66767 6.58175 4.07229 7.1345 2.62047 8.21665L3.35591 9.20056ZM7.39164 7.80956C8.49383 7.80956 9.38364 7.98137 10.0834 8.29737L10.5901 7.17871C9.68863 6.77151 8.61497 6.58175 7.39164 6.58175V7.80956ZM10.0834 8.29737C10.8339 8.63635 11.3766 9.01227 11.7428 9.4097L12.648 8.57844C12.1373 8.02438 11.4409 7.56293 10.5901 7.17871L10.0834 8.29737ZM11.7517 9.41925C12.1262 9.8085 12.4693 10.4037 12.7571 11.2473L13.9211 10.8516C13.5989 9.9063 13.1795 9.1312 12.639 8.56895L11.7517 9.41925ZM12.7608 11.2583C13.0553 12.0709 13.2103 13.0441 13.2103 14.1896H14.4401C14.4401 12.9372 14.271 11.8169 13.9174 10.8407L12.7608 11.2583ZM13.2103 14.1896C13.2103 16.6407 12.5883 18.405 11.4396 19.5853L12.322 20.4409C13.7658 18.9569 14.4401 16.8389 14.4401 14.1896H13.2103ZM11.4396 19.5853C10.2894 20.7679 8.81484 21.369 6.96273 21.369V22.5968C9.1137 22.5968 10.9179 21.8847 12.322 20.4409L11.4396 19.5853ZM6.96273 21.369C5.09152 21.369 3.70611 20.8136 2.72224 19.7648L1.82446 20.6041C3.08996 21.9532 4.83079 22.5968 6.96273 22.5968V21.369ZM2.729 19.7722C1.76358 18.7086 1.22983 17.0829 1.22983 14.7891H0C0 17.2531 0.571872 19.2242 1.8177 20.5967L2.729 19.7722ZM18.8841 14.7891C18.8841 13.727 19.0471 12.6658 19.2977 11.8427L18.1207 11.4859C17.8329 12.4322 17.6543 13.6143 17.6543 14.7891H18.8841ZM18.7092 11.6643C19.3075 11.806 19.3075 11.806 19.3075 11.806V11.8065L19.3072 11.807L19.3069 11.808C19.3069 11.8087 19.3066 11.8099 19.3066 11.8099C19.3062 11.811 19.306 11.812 19.306 11.8128C19.3053 11.8144 19.305 11.8155 19.305 11.8155C19.305 11.8155 19.3056 11.8131 19.3075 11.8073C19.3109 11.7955 19.3185 11.7714 19.3318 11.7327C19.3582 11.6551 19.4077 11.5212 19.4941 11.3148L18.3596 10.8411C18.2649 11.0676 18.2053 11.2268 18.1684 11.3342C18.1499 11.388 18.137 11.4293 18.1278 11.4598C18.1235 11.4751 18.1198 11.4878 18.117 11.4982C18.1158 11.5034 18.1146 11.508 18.1133 11.5121C18.113 11.5141 18.1124 11.516 18.1121 11.5177C18.1118 11.5186 18.1114 11.5194 18.1114 11.5203L18.1112 11.5215L18.1108 11.522C18.1108 11.522 18.1108 11.5226 18.7092 11.6643ZM19.4941 11.3148C19.9024 10.3403 20.4162 9.64946 21.0136 9.19816L20.2714 8.21911C19.4582 8.83354 18.8282 9.72232 18.3596 10.8411L19.4941 11.3148ZM21.0105 9.20056C22.2652 8.26544 23.6054 7.80956 25.0459 7.80956V6.58175C23.3219 6.58175 21.7269 7.1345 20.2748 8.21665L21.0105 9.20056ZM25.0459 7.80956C26.1482 7.80956 27.0379 7.98137 27.7377 8.29737L28.2447 7.17871C27.3429 6.77151 26.2692 6.58175 25.0459 6.58175V7.80956ZM27.7377 8.29737C28.4882 8.63635 29.0308 9.01228 29.3971 9.40976L30.3022 8.57844C29.7915 8.02438 29.0951 7.56293 28.2447 7.17871L27.7377 8.29737ZM29.406 9.41925C29.7804 9.8085 30.1236 10.4037 30.4113 11.2473L31.5754 10.8516C31.2532 9.9063 30.8338 9.1312 30.2933 8.56895L29.406 9.41925ZM30.4151 11.2583C30.7096 12.0709 30.8646 13.0441 30.8646 14.1896H32.0944C32.0944 12.9372 31.9253 11.8169 31.5717 10.8407L30.4151 11.2583ZM30.8646 14.1896C30.8646 16.6407 30.2426 18.405 29.0942 19.5853L29.9763 20.4409C31.4201 18.9569 32.0944 16.8388 32.0944 14.1896H30.8646ZM29.0939 19.5855C27.944 20.768 26.4691 21.369 24.617 21.369V22.5968C26.768 22.5968 28.5721 21.8847 29.9763 20.4409L29.0939 19.5855ZM24.617 21.369C22.7458 21.369 21.3604 20.8136 20.3765 19.7648L19.4787 20.6041C20.7443 21.9532 22.4851 22.5968 24.617 22.5968V21.369ZM20.3833 19.7722C19.4179 18.7086 18.8841 17.0829 18.8841 14.7891H17.6543C17.6543 17.2531 18.2261 19.2242 19.472 20.5967L20.3833 19.7722Z" fill="#008470"/>
<path d="M4.06159 9.41217C4.9912 8.59734 6.09445 8.1408 7.18729 8.11864C7.24731 8.11744 7.30734 8.12083 7.36681 8.12874L8.53641 8.28456C10.9722 8.60907 11.3948 13.3323 9.12407 12.4537C7.38015 11.7788 6.84311 11.5711 6.84311 11.571C6.84305 11.571 6.84305 11.571 6.84305 11.571C5.77891 11.1592 4.66143 11.9323 4.15917 13.226C3.83679 14.0563 3.44569 15.0637 3.01431 16.1749C2.91147 16.4398 2.80735 16.6509 2.70297 16.8157C1.35031 18.951 1.20551 13.8763 2.41006 11.6392L2.63989 11.2124C3.01242 10.5205 3.49662 9.9074 4.06159 9.41217Z" fill="white"/>
<path d="M21.5868 9.41217C22.5164 8.59734 23.6196 8.1408 24.7124 8.11864C24.7725 8.11744 24.8325 8.12083 24.892 8.12874L26.0616 8.28456C28.4974 8.60907 28.9199 13.3323 26.6492 12.4537C24.9053 11.7788 24.3683 11.5711 24.3682 11.571C23.3041 11.1592 22.1866 11.9323 21.6843 13.226C21.3619 14.0563 20.9708 15.0637 20.5395 16.1749C20.4366 16.4398 20.3325 16.6509 20.2281 16.8157C18.8755 18.951 18.7306 13.8763 19.9352 11.6392L20.165 11.2124C20.5375 10.5205 21.0218 9.9074 21.5868 9.41217Z" fill="white"/>
</svg>
