<svg width="583" height="413" viewBox="0 0 583 413" fill="none" xmlns="http://www.w3.org/2000/svg">
<g clip-path="url(#clip0_72_35)">
<path d="M202.705 54.2119C201.565 53.7228 200.648 52.8377 200.128 51.7252C199.607 50.6127 199.52 49.3504 199.883 48.1786C199.941 47.999 199.978 47.8131 199.993 47.625C200.026 47.0881 199.883 46.555 199.584 46.1046C199.286 45.6542 198.849 45.3105 198.337 45.1243C197.825 44.9382 197.265 44.9195 196.742 45.0711C196.218 45.2227 195.758 45.5364 195.43 45.9659C195.317 46.1183 195.222 46.2832 195.149 46.4574C194.652 47.5806 193.754 48.4847 192.626 48.9976C191.497 49.5105 190.216 49.5964 189.027 49.239C188.845 49.1812 188.657 49.1448 188.466 49.1305C187.921 49.0978 187.38 49.2389 186.923 49.5329C186.466 49.8269 186.117 50.2581 185.929 50.7627C185.74 51.2674 185.721 51.8185 185.875 52.3346C186.028 52.8506 186.347 53.3041 186.782 53.6279C186.937 53.7393 187.104 53.8322 187.281 53.9049C188.421 54.3941 189.338 55.2792 189.858 56.3917C190.379 57.5042 190.466 58.7665 190.103 59.9382C190.045 60.1179 190.008 60.3037 189.993 60.4919C189.96 61.0288 190.103 61.5619 190.401 62.0123C190.7 62.4627 191.137 62.8064 191.649 62.9925C192.161 63.1787 192.72 63.1974 193.244 63.0458C193.768 62.8942 194.228 62.5804 194.556 62.1509C194.669 61.9985 194.763 61.8336 194.837 61.6594C195.333 60.5362 196.231 59.6322 197.36 59.1192C198.489 58.6063 199.77 58.5204 200.958 58.8778C201.141 58.9356 201.329 58.972 201.52 58.9863C202.065 59.019 202.606 58.8779 203.063 58.584C203.52 58.29 203.868 57.8587 204.057 57.3541C204.246 56.8495 204.265 56.2983 204.111 55.7823C203.957 55.2662 203.639 54.8127 203.203 54.4889C203.049 54.3776 202.881 54.2846 202.705 54.2119Z" fill="#CBCBCB"/>
<path d="M299.189 275.656C298.049 275.167 297.132 274.282 296.612 273.169C296.091 272.057 296.004 270.794 296.367 269.623C296.425 269.443 296.462 269.257 296.477 269.069C296.51 268.532 296.367 267.999 296.069 267.549C295.77 267.098 295.333 266.754 294.821 266.568C294.309 266.382 293.75 266.364 293.226 266.515C292.702 266.667 292.242 266.98 291.914 267.41C291.801 267.562 291.707 267.727 291.633 267.901C291.137 269.025 290.239 269.929 289.11 270.442C287.981 270.955 286.7 271.04 285.512 270.683C285.329 270.625 285.141 270.589 284.95 270.575C284.405 270.542 283.864 270.683 283.407 270.977C282.95 271.271 282.602 271.702 282.413 272.207C282.224 272.711 282.205 273.263 282.359 273.779C282.513 274.295 282.831 274.748 283.267 275.072C283.421 275.183 283.589 275.276 283.765 275.349C284.905 275.838 285.822 276.723 286.342 277.836C286.863 278.948 286.95 280.211 286.587 281.382C286.529 281.562 286.492 281.748 286.477 281.936C286.444 282.473 286.587 283.006 286.886 283.456C287.184 283.907 287.621 284.25 288.133 284.437C288.645 284.623 289.205 284.641 289.728 284.49C290.252 284.338 290.712 284.024 291.04 283.595C291.153 283.443 291.248 283.278 291.321 283.103C291.818 281.98 292.716 281.076 293.844 280.563C294.973 280.05 296.254 279.964 297.443 280.322C297.625 280.38 297.813 280.416 298.004 280.43C298.549 280.463 299.09 280.322 299.547 280.028C300.004 279.734 300.353 279.303 300.541 278.798C300.73 278.294 300.749 277.742 300.595 277.226C300.442 276.71 300.123 276.257 299.688 275.933C299.533 275.822 299.366 275.729 299.189 275.656Z" fill="#04CFB1"/>
<path d="M57.4816 173.386C56.3421 172.896 55.4248 172.011 54.9044 170.899C54.384 169.786 54.2968 168.524 54.6594 167.352C54.7181 167.173 54.7551 166.987 54.7696 166.799C54.8027 166.262 54.6596 165.729 54.3613 165.278C54.063 164.828 53.6255 164.484 53.1135 164.298C52.6015 164.112 52.0424 164.093 51.5188 164.245C50.9952 164.396 50.5351 164.71 50.2066 165.14C50.0936 165.292 49.9993 165.457 49.9255 165.631C49.4293 166.754 48.5313 167.658 47.4026 168.171C46.2738 168.684 44.9932 168.77 43.8043 168.413C43.6221 168.355 43.4335 168.318 43.2426 168.304C42.6979 168.271 42.157 168.413 41.7001 168.707C41.2431 169.001 40.8944 169.432 40.7055 169.936C40.5167 170.441 40.4977 170.992 40.6515 171.508C40.8053 172.024 41.1236 172.478 41.5593 172.802C41.7139 172.913 41.8813 173.006 42.0581 173.079C43.1976 173.568 44.1148 174.453 44.6352 175.565C45.1556 176.678 45.2428 177.94 44.8802 179.112C44.8215 179.292 44.7845 179.477 44.77 179.666C44.7369 180.202 44.88 180.736 45.1783 181.186C45.4766 181.636 45.9141 181.98 46.4261 182.166C46.9381 182.352 47.4972 182.371 48.0208 182.219C48.5444 182.068 49.0045 181.754 49.333 181.325C49.446 181.172 49.5403 181.007 49.6141 180.833C50.1103 179.71 51.0083 178.806 52.137 178.293C53.2658 177.78 54.5464 177.694 55.7353 178.051C55.9175 178.109 56.1061 178.146 56.297 178.16C56.8417 178.193 57.3826 178.052 57.8395 177.758C58.2965 177.464 58.6453 177.032 58.8341 176.528C59.023 176.023 59.0419 175.472 58.8881 174.956C58.7343 174.44 58.416 173.986 57.9803 173.663C57.8256 173.551 57.6583 173.458 57.4816 173.386Z" fill="#04CFB1"/>
<path d="M558.628 105.46C563.196 105.46 566.898 101.81 566.898 97.3085C566.898 92.8067 563.196 89.1572 558.628 89.1572C554.061 89.1572 550.358 92.8067 550.358 97.3085C550.358 101.81 554.061 105.46 558.628 105.46Z" fill="#F1F1F1"/>
<path d="M445.438 45.4407C450.005 45.4407 453.708 41.7912 453.708 37.2894C453.708 32.7875 450.005 29.1381 445.438 29.1381C440.87 29.1381 437.168 32.7875 437.168 37.2894C437.168 41.7912 440.87 45.4407 445.438 45.4407Z" fill="#04CFB1"/>
<path d="M193.81 216.208C198.378 216.208 202.08 212.559 202.08 208.057C202.08 203.555 198.378 199.906 193.81 199.906C189.243 199.906 185.54 203.555 185.54 208.057C185.54 212.559 189.243 216.208 193.81 216.208Z" fill="#CBCBCB"/>
<path d="M199.934 380.861C198.598 380.863 197.317 381.387 196.372 382.318C195.427 383.249 194.896 384.512 194.895 385.829V396.204C194.896 397.521 195.427 398.784 196.372 399.715C197.317 400.646 198.598 401.17 199.934 401.172H281.022C282.358 401.17 283.639 400.646 284.584 399.715C285.529 398.784 286.06 397.521 286.062 396.205V385.829C286.06 384.512 285.529 383.249 284.584 382.318C283.639 381.387 282.358 380.863 281.022 380.861H199.934Z" fill="#E5E5E5"/>
<path d="M246.566 373.951C246.064 373.666 245.468 373.588 244.908 373.736C244.348 373.884 243.871 374.245 243.581 374.74L240.567 379.884L237.615 374.132C237.353 373.622 236.896 373.236 236.346 373.058C235.795 372.88 235.195 372.925 234.678 373.183C234.161 373.44 233.769 373.89 233.588 374.433C233.407 374.976 233.453 375.567 233.715 376.077L236.013 380.554H235.17V401.48H246.41V380.554H245.223L247.366 376.894C247.656 376.399 247.735 375.811 247.585 375.259C247.435 374.708 247.068 374.237 246.566 373.951Z" fill="#04CFB1"/>
<path d="M114.533 377.866C147.318 377.866 173.895 351.671 173.895 319.357C173.895 287.043 147.318 260.848 114.533 260.848C81.7484 260.848 55.1713 287.043 55.1713 319.357C55.1713 351.671 81.7484 377.866 114.533 377.866Z" fill="#2F2E41"/>
<path d="M105.516 365.275H87.4821V397.122H105.516V365.275Z" fill="#2F2E41"/>
<path d="M141.584 365.275H123.55V397.122H141.584V365.275Z" fill="#2F2E41"/>
<path d="M102.51 403.047C110.81 403.047 117.539 400.56 117.539 397.492C117.539 394.425 110.81 391.938 102.51 391.938C94.2105 391.938 87.4821 394.425 87.4821 397.492C87.4821 400.56 94.2105 403.047 102.51 403.047Z" fill="#2F2E41"/>
<path d="M138.578 402.307C146.878 402.307 153.607 399.82 153.607 396.752C153.607 393.684 146.878 391.197 138.578 391.197C130.278 391.197 123.55 393.684 123.55 396.752C123.55 399.82 130.278 402.307 138.578 402.307Z" fill="#2F2E41"/>
<path d="M178.501 293.789C191.357 281.108 198.504 267.604 194.466 263.626C190.427 259.648 176.731 266.703 163.875 279.384C151.019 292.065 143.872 305.57 147.911 309.548C151.949 313.526 165.645 306.47 178.501 293.789Z" fill="#2F2E41"/>
<path d="M61.5484 348.099C71.9219 333.374 76.5293 318.835 71.8393 315.625C67.1494 312.416 54.938 321.751 44.5645 336.476C34.191 351.201 29.5836 365.74 34.2735 368.949C38.9635 372.159 51.1749 362.824 61.5484 348.099Z" fill="#2F2E41"/>
<path d="M112.035 331.062C123.24 331.062 132.324 322.109 132.324 311.065C132.324 300.021 123.24 291.068 112.035 291.068C100.831 291.068 91.7473 300.021 91.7473 311.065C91.7473 322.109 100.831 331.062 112.035 331.062Z" fill="white"/>
<path d="M118.927 310.938C122.662 310.938 125.69 307.954 125.69 304.272C125.69 300.591 122.662 297.607 118.927 297.607C115.192 297.607 112.164 300.591 112.164 304.272C112.164 307.954 115.192 310.938 118.927 310.938Z" fill="#3F3D56"/>
<path d="M136.36 348.048C138.35 355.115 131.1 361.886 120.167 363.172C109.234 364.458 98.7579 359.773 96.7676 352.707L96.7605 352.682C94.7809 345.614 103.236 343.113 114.171 341.834C125.105 340.554 134.38 340.981 136.36 348.048Z" fill="white"/>
<path d="M93.7626 284.922C83.9727 288.79 73.6466 291.181 63.1331 292.013C62.3998 292.064 61.6689 291.885 61.045 291.502C60.4212 291.118 59.9362 290.55 59.6595 289.879L50.6453 267.783C50.3054 266.947 50.3158 266.012 50.6742 265.184C51.0326 264.356 51.7096 263.701 52.5568 263.364L108.826 241.064C109.674 240.729 110.622 240.739 111.462 241.092C112.303 241.446 112.966 242.113 113.308 242.948L122.317 265.032C122.594 265.709 122.643 266.457 122.455 267.164C122.268 267.871 121.854 268.5 121.276 268.958C112.949 275.579 103.678 280.958 93.7626 284.922Z" fill="#04CFB1"/>
<path opacity="0.2" d="M112.669 243.201L114.175 246.895L88.0199 269.487C87.5298 269.906 86.9063 270.143 86.2576 270.156L52.6678 270.92L51.2846 267.529C51.0141 266.86 51.0231 266.113 51.3096 265.451C51.5961 264.789 52.1369 264.265 52.8139 263.995L109.083 241.694C109.761 241.428 110.519 241.436 111.191 241.719C111.863 242.001 112.394 242.534 112.669 243.201Z" fill="black"/>
<path d="M85.4255 265.554C85.0419 265.706 84.6336 265.789 84.2202 265.799L34.0261 266.943C33.3164 266.959 32.619 266.759 32.0292 266.369C31.4393 265.98 30.9858 265.42 30.7307 264.767C30.4757 264.114 30.4314 263.4 30.604 262.721C30.7767 262.042 31.1578 261.433 31.6952 260.976L67.083 230.878C67.6556 230.394 68.3723 230.107 69.1251 230.059L121.058 226.956C121.776 226.913 122.489 227.092 123.098 227.468C123.707 227.845 124.181 228.399 124.454 229.054C124.727 229.71 124.786 230.433 124.622 231.122C124.457 231.812 124.078 232.434 123.538 232.9L86.4105 264.958C86.1186 265.21 85.7855 265.412 85.4255 265.554Z" fill="#04CFB1"/>
<path d="M45.2932 280.154L44.0141 280.661L36.5587 262.384L75.5631 246.925L76.0772 248.186L38.3505 263.138L45.2932 280.154Z" fill="#3F3D56"/>
<path d="M45.1677 284.385C46.6902 284.385 47.9244 283.168 47.9244 281.668C47.9244 280.167 46.6902 278.951 45.1677 278.951C43.6452 278.951 42.411 280.167 42.411 281.668C42.411 283.168 43.6452 284.385 45.1677 284.385Z" fill="#3F3D56"/>
<path d="M340.523 181.118C331.575 175.614 323.521 168.811 316.632 160.939C316.157 160.386 315.872 159.699 315.818 158.976C315.763 158.254 315.942 157.533 316.328 156.916L329.099 136.699C329.583 135.935 330.354 135.392 331.244 135.188C332.134 134.984 333.07 135.136 333.846 135.611L385.329 167.205C386.104 167.682 386.656 168.442 386.863 169.319C387.07 170.196 386.915 171.119 386.433 171.884L373.67 192.089C373.278 192.71 372.694 193.189 372.005 193.458C371.315 193.726 370.556 193.769 369.84 193.579C359.501 190.864 349.623 186.666 340.523 181.118Z" fill="#04CFB1"/>
<path opacity="0.2" d="M385.848 171.524L383.714 174.904L349.771 167.437C349.138 167.294 348.576 166.938 348.182 166.43L327.724 140.16L329.684 137.058C330.072 136.448 330.689 136.014 331.401 135.851C332.112 135.688 332.86 135.809 333.481 136.187L384.965 167.782C385.584 168.164 386.025 168.772 386.19 169.474C386.355 170.175 386.233 170.912 385.848 171.524Z" fill="black"/>
<path d="M351.46 163.05C351.109 162.835 350.8 162.56 350.547 162.237L319.975 122.983C319.542 122.428 319.295 121.755 319.265 121.055C319.236 120.356 319.426 119.665 319.81 119.077C320.194 118.488 320.753 118.031 321.411 117.768C322.069 117.504 322.793 117.448 323.484 117.605L369.024 127.985C369.758 128.155 370.417 128.555 370.9 129.126L404.105 168.606C404.564 169.152 404.838 169.825 404.889 170.531C404.94 171.238 404.766 171.942 404.391 172.547C404.016 173.151 403.459 173.624 402.797 173.901C402.135 174.177 401.402 174.243 400.701 174.089L352.529 163.482C352.151 163.399 351.789 163.253 351.46 163.05Z" fill="#04CFB1"/>
<path d="M315.809 139.746L314.639 139.027L325.202 122.305L360.89 144.206L360.161 145.358L325.643 124.176L315.809 139.746Z" fill="#3F3D56"/>
<path d="M314.495 143.257C316.018 143.257 317.252 142.04 317.252 140.54C317.252 139.039 316.018 137.823 314.495 137.823C312.973 137.823 311.739 139.039 311.739 140.54C311.739 142.04 312.973 143.257 314.495 143.257Z" fill="#3F3D56"/>
<path d="M484.133 311.297C516.918 311.297 543.495 285.101 543.495 252.788C543.495 220.474 516.918 194.278 484.133 194.278C451.349 194.278 424.772 220.474 424.772 252.788C424.772 285.101 451.349 311.297 484.133 311.297Z" fill="#2F2E41"/>
<path d="M525.286 283.125L509.898 292.395L526.748 319.568L542.135 310.299L525.286 283.125Z" fill="#2F2E41"/>
<path d="M494.511 301.664L479.123 310.933L495.972 338.107L511.36 328.837L494.511 301.664Z" fill="#2F2E41"/>
<path d="M532.447 323.079C539.529 318.813 543.955 313.233 542.331 310.615C540.708 307.997 533.652 309.334 526.569 313.6C519.487 317.866 515.062 323.446 516.685 326.064C518.308 328.681 525.365 327.345 532.447 323.079Z" fill="#2F2E41"/>
<path d="M501.28 340.985C508.362 336.719 512.787 331.139 511.164 328.522C509.541 325.904 502.484 327.24 495.402 331.506C488.32 335.772 483.894 341.353 485.518 343.97C487.141 346.588 494.197 345.251 501.28 340.985Z" fill="#2F2E41"/>
<path d="M450.756 242.979C454.795 239.001 447.647 225.496 434.791 212.815C421.936 200.134 408.24 193.079 404.201 197.057C400.162 201.035 407.309 214.539 420.165 227.22C433.021 239.901 446.717 246.957 450.756 242.979Z" fill="#2F2E41"/>
<path d="M564.393 302.38C569.083 299.171 564.475 284.632 554.102 269.907C543.728 255.182 531.517 245.847 526.827 249.056C522.137 252.266 526.744 266.805 537.118 281.53C547.491 296.255 559.703 305.59 564.393 302.38Z" fill="#2F2E41"/>
<path d="M465.956 256.342C477.161 256.342 486.244 247.389 486.244 236.345C486.244 225.301 477.161 216.348 465.956 216.348C454.751 216.348 445.667 225.301 445.667 236.345C445.667 247.389 454.751 256.342 465.956 256.342Z" fill="white"/>
<path d="M459.064 236.218C462.799 236.218 465.827 233.233 465.827 229.552C465.827 225.871 462.799 222.886 459.064 222.886C455.329 222.886 452.301 225.871 452.301 229.552C452.301 233.233 455.329 236.218 459.064 236.218Z" fill="#3F3D56"/>
<path d="M439.83 269.701C435.983 275.914 441.109 284.319 451.279 288.474C461.449 292.629 472.813 290.961 476.66 284.749L476.674 284.727C480.511 278.51 473.058 273.859 462.884 269.71C452.71 265.561 443.667 263.485 439.83 269.701Z" fill="white"/>
</g>
<defs>
<clipPath id="clip0_72_35">
<rect width="583" height="413" fill="white"/>
</clipPath>
</defs>
</svg>
