<svg width="159" height="110" fill="none" xmlns="http://www.w3.org/2000/svg"><mask id="a" maskUnits="userSpaceOnUse" x=".338" y=".25" width="159" height="110" fill="#000"><path fill="#fff" d="M.338.25h159v110h-159z"/><path d="M14.203 24.71c0 .392-.016.782-.049 1.173 0 .358-.016.732-.049 1.123-.032.39-.048.781-.048 1.172v1.172a4.3 4.3 0 0 1-.293 1.61c-.196.49-.668.733-1.416.733-.26 0-.7-.049-1.319-.146a15.155 15.155 0 0 1-1.855-.44 9.793 9.793 0 0 1-1.66-.683c-.489-.293-.733-.619-.733-.977 0-.13.065-.537.196-1.22.162-.684.341-1.416.537-2.198.195-.814.374-1.546.537-2.197.163-.684.276-1.058.342-1.123v.049c.162-.358.325-.57.488-.635.163-.065.423-.098.781-.098.39 0 .846.05 1.367.147.521.065 1.01.212 1.465.44.488.195.895.471 1.22.83.326.325.49.748.49 1.269Zm8.692 31.202c0 .195-.163.651-.489 1.367a45.8 45.8 0 0 1-1.123 2.393c-.456.911-.944 1.872-1.465 2.88-.52.977-.976 1.856-1.367 2.637-.195.391-.358.75-.488 1.075-.13.293-.244.52-.342.683l.44 2.637c.585 3.743 1.139 7.503 1.66 11.28.52 3.775.781 7.584.781 11.425 0 1.14-.033 2.311-.098 3.516a18.909 18.909 0 0 1-.44 3.613 11.85 11.85 0 0 1-1.171 3.32 8.016 8.016 0 0 1-2.246 2.783 9.042 9.042 0 0 1-2.442 1.368 7.183 7.183 0 0 1-2.734.537c-1.79 0-3.271-.391-4.443-1.172a8.43 8.43 0 0 1-2.735-2.93c-.683-1.204-1.155-2.555-1.416-4.052a22.358 22.358 0 0 1-.44-4.395c0-2.572.261-5.127.782-7.666a60.769 60.769 0 0 1 1.953-7.52 92.75 92.75 0 0 1 2.735-7.275 747.411 747.411 0 0 1 3.125-7.031c-.489-2.93-.88-5.827-1.172-8.692a242.206 242.206 0 0 1-.733-8.935l-.146-2.344a134.555 134.555 0 0 0-.244-3.613 67.835 67.835 0 0 1-.098-3.662c0-.651.098-1.205.293-1.66.228-.489.716-.733 1.465-.733.358 0 .7.033 1.025.098.326.065.668.179 1.026.341v-.048c.618.293 1.09.635 1.416 1.025.325.358.57.749.732 1.172.163.423.26.879.293 1.367.065.489.098.993.098 1.514v.781c.097 2.279.211 4.41.341 6.397.163 1.953.375 4.069.635 6.347a9.037 9.037 0 0 1 1.026-1.611c.423-.52.992-.781 1.709-.781.358 0 .78.114 1.27.342.52.227.992.52 1.415.878.456.358.83.75 1.123 1.172.326.423.489.814.489 1.172Zm-8.936 35.205c0-2.148-.114-4.346-.342-6.592a108.79 108.79 0 0 0-.781-6.64 75.49 75.49 0 0 0-2.54 8.203c-.715 2.897-1.073 5.713-1.073 8.447 0 .553.016 1.156.048 1.807.033.683.114 1.367.245 2.05.13.684.309 1.335.537 1.954.228.618.537 1.123.927 1.513.033.033.13.049.293.049.424 0 .782-.228 1.075-.683.293-.424.537-.977.732-1.66.195-.684.342-1.45.44-2.296.13-.846.227-1.676.293-2.49.065-.781.097-1.513.097-2.197.033-.651.049-1.14.049-1.465ZM49.457 58.89c0 .326-.098.717-.293 1.172-.163.424-.39.88-.684 1.368-.26.455-.553.927-.878 1.416-.326.488-.635.927-.928 1.318l-.733 1.025-.732 1.27-.635 1.172c.033.65.082 1.35.147 2.1.065.748.13 1.464.195 2.148.358 3.353.667 6.77.928 10.254.293 3.483.44 6.9.44 10.254 0 1.79-.147 3.597-.44 5.42-.293 1.855-.847 3.515-1.66 4.98a9.837 9.837 0 0 1-3.272 3.662c-1.4.944-3.19 1.416-5.371 1.416-1.497 0-2.767-.276-3.809-.83a7.046 7.046 0 0 1-2.539-2.246c-.618-.911-1.074-1.986-1.367-3.223a16.678 16.678 0 0 1-.44-3.857c0-2.637.31-5.306.928-8.008a64.424 64.424 0 0 1 2.393-8.008 86.428 86.428 0 0 1 3.418-7.763 185.263 185.263 0 0 1 3.857-7.227v-.195c0-.098-.016-.244-.048-.44a34.613 34.613 0 0 1-1.465 2.442 11.818 11.818 0 0 1-1.807 2.197 8.89 8.89 0 0 1-2.197 1.611c-.781.424-1.66.635-2.637.635-1.367 0-2.506-.325-3.418-.976a7.37 7.37 0 0 1-2.197-2.49 12.103 12.103 0 0 1-1.123-3.321 18.423 18.423 0 0 1-.342-3.418c0-1.237.065-2.458.195-3.662.163-1.204.342-2.376.537-3.516.326-1.823.733-3.792 1.221-5.908a61.816 61.816 0 0 1 1.904-6.347 45.001 45.001 0 0 1 2.588-5.958c1.01-1.855 2.181-3.434 3.516-4.736l.39-.342c.424-.423.912-.83 1.466-1.22.553-.424 1.123-.635 1.708-.635.358 0 .668.098.928.293.293.195.537.456.733.781.195.293.341.619.439.977.13.358.195.7.195 1.025 0 .39-.146.814-.44 1.27h.099c1.985 0 3.32.911 4.004 2.734.358.325.618.716.78 1.172.196.456.294.944.294 1.465 0 .26-.017.553-.05.879a6.29 6.29 0 0 1-.146.83c-.065.293-.114.57-.146.83-.033.26-.049.504-.049.732 0 .749.016 1.677.049 2.783.032 1.107.081 2.263.146 3.467.066 1.205.13 2.393.196 3.565.097 1.139.179 2.132.244 2.978.228-.293.488-.553.781-.781a1.91 1.91 0 0 1 1.123-.342c.358 0 .765.13 1.22.39.49.261.929.587 1.32.977.422.39.764.814 1.025 1.27.292.423.439.814.439 1.172ZM36.029 38.774v-.634c.033-.228.082-.472.147-.733l-.342.44c-.26.293-.505.57-.732.83-.228.26-.44.537-.635.83-.847 1.237-1.595 2.848-2.246 4.834a55.655 55.655 0 0 0-1.563 6.201 75.103 75.103 0 0 0-.976 6.348c-.196 2.083-.293 3.873-.293 5.37 0 .75.016 1.498.049 2.247.032.749.195 1.481.488 2.197.456-.488.83-1.009 1.123-1.562.293-.586.57-1.189.83-1.807.716-1.595 1.335-3.45 1.855-5.566a68.42 68.42 0 0 0 1.27-6.543c.325-2.247.57-4.444.732-6.592.163-2.181.26-4.134.293-5.86Zm3.711 52.149c0-2.214-.049-4.297-.146-6.25a167.87 167.87 0 0 0-.44-6.201 182.62 182.62 0 0 0-1.806 4.492 70.617 70.617 0 0 0-1.563 4.883 56.31 56.31 0 0 0-1.123 4.931 26.216 26.216 0 0 0-.44 4.639v.342c0 .749.05 1.546.147 2.392.098.879.407 1.595.928 2.149h.537c.651 0 1.188-.228 1.611-.684.456-.423.83-.976 1.123-1.66.293-.683.521-1.448.684-2.295.163-.846.277-1.693.342-2.539.065-.846.097-1.644.097-2.392.033-.75.05-1.351.05-1.807ZM63.178 72.416c0 .456-.114.83-.342 1.123-.228.293-.52.52-.879.684-.325.195-.7.325-1.123.39a4.46 4.46 0 0 1-1.074.147c-1.14 0-2.132-.326-2.979-.977-.846-.65-1.578-1.497-2.197-2.539-.619-1.009-1.123-2.165-1.514-3.467a46.663 46.663 0 0 1-.976-3.955 45.404 45.404 0 0 1-.586-3.808c-.13-1.237-.228-2.295-.293-3.174a168.777 168.777 0 0 1-.635-9.229 296.891 296.891 0 0 1-.146-9.277c0-8.366.293-16.65.879-24.854v-.439a2.48 2.48 0 0 0 .048-.488c.033-.684.065-1.465.098-2.344.032-.911.081-1.807.146-2.686.066-.878.13-1.676.196-2.392.097-.749.211-1.27.342-1.563v.05c.13-.457.309-.798.537-1.026.228-.228.618-.342 1.172-.342 1.171 0 2.164.39 2.978 1.172.814.781 1.22 1.758 1.22 2.93 0 .26-.015.52-.048.78 0 .229-.016.457-.049.684l-.098.684v.537c-.097 1.27-.179 2.54-.244 3.809-.032 1.237-.081 2.49-.146 3.76-.163 2.799-.293 5.598-.39 8.398a357.077 357.077 0 0 0-.098 8.398c0 1.205.016 2.783.048 4.737.033 1.953.098 4.085.196 6.396.097 2.279.228 4.639.39 7.08.196 2.442.44 4.77.733 6.983a73.714 73.714 0 0 0 1.025 6.005c.423 1.79.912 3.174 1.465 4.15.293.131.57.343.83.636.293.26.537.57.733.927.227.326.406.668.537 1.026.162.39.244.749.244 1.074ZM85.785 50.98c0 2.833-.244 5.665-.732 8.497a22.971 22.971 0 0 1-2.881 7.959 19.418 19.418 0 0 1-1.563 2.197 13.178 13.178 0 0 1-1.953 1.855 7.805 7.805 0 0 1-2.295 1.368 6.356 6.356 0 0 1-2.588.537c-1.432 0-2.685-.342-3.76-1.026-1.041-.65-1.953-1.514-2.734-2.588a18.083 18.083 0 0 1-1.904-3.71 32.91 32.91 0 0 1-1.172-4.249 53.005 53.005 0 0 1-.586-4.248 51.403 51.403 0 0 1-.146-3.613c0-1.172.049-2.458.146-3.857.098-1.4.26-2.832.489-4.297.26-1.465.585-2.914.976-4.346.423-1.432.96-2.767 1.611-4.004a14.801 14.801 0 0 1 2.344-3.37 10.336 10.336 0 0 1 3.174-2.392v.05c1.042-.554 2.083-.83 3.125-.83.651 0 1.156.146 1.514.439.358.26.52.716.488 1.367 1.79.325 3.239 1.188 4.346 2.588 1.106 1.4 1.953 3.027 2.539 4.883a26.287 26.287 0 0 1 1.22 5.712c.228 1.953.342 3.646.342 5.078ZM74.75 38.773c-.553 0-1.074-.211-1.563-.634-.618.944-1.139 2.034-1.562 3.271a27.729 27.729 0 0 0-1.025 3.76 37.847 37.847 0 0 0-.489 3.857 49.156 49.156 0 0 0-.146 3.663c0 .944.049 2.164.146 3.662a42.39 42.39 0 0 0 .537 4.443 26.36 26.36 0 0 0 1.172 4.2c.521 1.301 1.189 2.261 2.002 2.88 1.01-.586 1.84-1.514 2.49-2.783a19.456 19.456 0 0 0 1.612-4.248c.39-1.53.65-3.076.781-4.639.163-1.562.244-2.897.244-4.004 0-.814-.049-1.872-.146-3.174a42.291 42.291 0 0 0-.489-3.955 21.707 21.707 0 0 0-.976-3.808c-.39-1.172-.895-2.051-1.514-2.637-.293.098-.65.146-1.074.146ZM96.088 58.305c0 1.562-.016 2.995-.049 4.297 0 1.302.033 2.734.098 4.296l.879-.634.537-.342c1.595-1.27 2.978-2.816 4.15-4.639a30.477 30.477 0 0 0 2.979-5.908 33.758 33.758 0 0 0 1.709-6.397c.39-2.213.586-4.313.586-6.298 0-.39-.017-.928-.049-1.612 0-.716-.065-1.416-.196-2.1-.13-.683-.325-1.269-.586-1.757-.26-.52-.634-.781-1.123-.781-.781 0-1.578.472-2.392 1.416-.814.944-1.579 2.067-2.295 3.369a48.305 48.305 0 0 0-1.855 3.955c-.554 1.302-.96 2.327-1.221 3.076 0 .033-.017.049-.05.049v.098c-.194.455-.406.944-.634 1.464a7.038 7.038 0 0 0-.39 1.465c-.066.456-.114.977-.147 1.563a29.95 29.95 0 0 0-.049 1.758v.976c.033.293.05.57.05.83v1.026c.032.293.048.57.048.83Zm2.685 44.629c0 .716-.195 1.204-.585 1.464-.391.261-.912.391-1.563.391-.781 0-1.644-.13-2.588-.391-.944-.227-1.693-.667-2.246-1.318-.163-.228-.325-.895-.488-2.002-.13-1.107-.26-2.409-.39-3.906-.131-1.465-.245-2.995-.343-4.59a227.053 227.053 0 0 0-.293-4.15l-.195-2.588a373.228 373.228 0 0 1-.586-20.899c0-4.069.065-8.056.195-11.963.163-3.938.326-7.926.489-11.962l.195-5.127v-1.514c.033-.52.098-1.026.195-1.514.163-.423.358-.748.586-.976.26-.26.668-.391 1.221-.391 1.4 0 2.425.423 3.076 1.27.651.813 1.025 1.822 1.123 3.027 1.042-1.432 2.279-2.572 3.711-3.418 1.465-.846 3.141-1.27 5.029-1.27 1.595 0 2.93.358 4.004 1.075a7.994 7.994 0 0 1 2.637 2.783c.651 1.107 1.107 2.36 1.367 3.76a19.3 19.3 0 0 1 .44 4.052c0 2.572-.228 5.144-.684 7.715a37.25 37.25 0 0 1-2.148 7.422 34.869 34.869 0 0 1-3.614 6.787 28.48 28.48 0 0 1-5.175 5.664c-.261.228-.57.472-.928.733-.358.26-.733.504-1.123.732a8.42 8.42 0 0 1-1.22.586c-.391.163-.75.244-1.075.244-.358 0-.667-.081-.928-.244a2.963 2.963 0 0 1-.683-.586c.065 2.246.146 4.574.244 6.983.13 2.408.276 4.817.44 7.226.162 2.442.357 4.85.585 7.227.26 2.376.57 4.67.928 6.884.098.424.179.863.244 1.319.098.488.146.976.146 1.465ZM135.59 62.065c0 .976-.277 1.985-.83 3.027a11.672 11.672 0 0 1-2.051 2.88 11.175 11.175 0 0 1-2.93 2.1c-1.074.554-2.148.83-3.222.83-1.53 0-2.849-.293-3.955-.879a9.844 9.844 0 0 1-2.881-2.441 14.294 14.294 0 0 1-2.002-3.516 28.148 28.148 0 0 1-1.172-4.004 37.644 37.644 0 0 1-.635-4.15c-.098-1.4-.146-2.67-.146-3.809 0-.976.048-2.132.146-3.466.13-1.335.326-2.718.586-4.15a32.953 32.953 0 0 1 1.172-4.249c.488-1.4 1.09-2.653 1.807-3.76.748-1.106 1.627-2.001 2.636-2.685 1.042-.684 2.23-1.025 3.565-1.025 1.041 0 1.969.211 2.783.634a6.015 6.015 0 0 1 2.1 1.71 6.868 6.868 0 0 1 1.318 2.392 8.37 8.37 0 0 1 .488 2.832c0 1.27-.293 2.653-.879 4.15a22.292 22.292 0 0 1-2.295 4.346 22.112 22.112 0 0 1-3.125 3.809c-1.139 1.106-2.278 1.953-3.418 2.539.065.586.196 1.448.391 2.588.195 1.106.456 2.213.781 3.32.358 1.107.765 2.067 1.221 2.88.488.815 1.058 1.221 1.709 1.221.325 0 .602-.097.83-.292.26-.196.488-.456.684-.782.195-.325.358-.683.488-1.074.163-.39.309-.765.439-1.123l.293-.684c.065-.097.098-.162.098-.195a.569.569 0 0 0 .098-.146c.228-.424.439-.814.634-1.172.228-.358.538-.668.928-.928h-.049c.131-.13.261-.195.391-.195a2.26 2.26 0 0 1 .439-.05c.358 0 .749.115 1.172.343.423.227.814.52 1.172.879.358.325.651.7.879 1.123.228.39.342.78.342 1.172Zm-9.668-21.534c0-.325-.016-.667-.049-1.025a2.6 2.6 0 0 0-.244-.928c-.456.553-.863 1.22-1.221 2.002a17.305 17.305 0 0 0-.83 2.393 30.851 30.851 0 0 0-.586 2.49 38.4 38.4 0 0 0-.293 2.344 18.223 18.223 0 0 0 2.246-3.418c.651-1.302.977-2.588.977-3.858ZM154.389 35.209c0 .39-.147.716-.44.976-.26.261-.586.489-.976.684a5.237 5.237 0 0 1-1.221.342 6.142 6.142 0 0 1-.977.098c-.39 0-.765-.033-1.123-.098l-1.074-.293c-.358-.098-.7-.18-1.025-.244a3.558 3.558 0 0 0-1.026-.147c-.488 0-.976.082-1.465.245-.488.162-.927.39-1.318.683-.39.293-.716.651-.976 1.074a2.937 2.937 0 0 0-.342 1.416c0 .782.163 1.563.488 2.344.326.749.749 1.514 1.27 2.295a36.556 36.556 0 0 0 1.855 2.393c.716.78 1.465 1.578 2.246 2.392.944 1.042 1.888 2.1 2.832 3.174a25.075 25.075 0 0 1 2.588 3.37 18.176 18.176 0 0 1 1.904 3.71 11.57 11.57 0 0 1 .733 4.102c0 1.237-.212 2.343-.635 3.32a6.682 6.682 0 0 1-1.709 2.49c-.716.684-1.595 1.205-2.637 1.563-1.009.39-2.116.586-3.32.586-.326 0-.83-.066-1.514-.196-.651-.13-1.399-.309-2.246-.537-.846-.26-1.725-.537-2.636-.83a29.7 29.7 0 0 1-2.442-.928 17.11 17.11 0 0 1-1.807-1.025c-.455-.358-.683-.684-.683-.977 0-.39.179-.78.537-1.172a6.02 6.02 0 0 1 1.27-1.123 7.918 7.918 0 0 1 1.513-.878c.554-.228 1.009-.342 1.367-.342.489 0 .993.114 1.514.342.553.227 1.107.488 1.66.78a23.9 23.9 0 0 0 1.856.88c.651.26 1.318.39 2.002.39.52 0 .813-.179.879-.537.097-.358.146-.765.146-1.22a8.84 8.84 0 0 0-.586-3.223 16.43 16.43 0 0 0-1.514-3.028 21.58 21.58 0 0 0-2.148-2.832 220.921 220.921 0 0 0-2.441-2.783 186.437 186.437 0 0 1-2.491-2.734 27.068 27.068 0 0 1-2.099-2.783 17.104 17.104 0 0 1-1.514-2.979 9.567 9.567 0 0 1-.537-3.222c0-1.4.309-2.653.928-3.76a9.96 9.96 0 0 1 2.392-2.93 10.99 10.99 0 0 1 3.369-1.855 11.21 11.21 0 0 1 3.809-.684c.423 0 1.074.098 1.953.293.879.163 1.742.407 2.588.732.846.326 1.595.717 2.246 1.172.651.456.977.96.977 1.514Z"/></mask><path d="M14.203 24.71c0 .392-.016.782-.049 1.173 0 .358-.016.732-.049 1.123-.032.39-.048.781-.048 1.172v1.172a4.3 4.3 0 0 1-.293 1.61c-.196.49-.668.733-1.416.733-.26 0-.7-.049-1.319-.146a15.155 15.155 0 0 1-1.855-.44 9.793 9.793 0 0 1-1.66-.683c-.489-.293-.733-.619-.733-.977 0-.13.065-.537.196-1.22.162-.684.341-1.416.537-2.198.195-.814.374-1.546.537-2.197.163-.684.276-1.058.342-1.123v.049c.162-.358.325-.57.488-.635.163-.065.423-.098.781-.098.39 0 .846.05 1.367.147.521.065 1.01.212 1.465.44.488.195.895.471 1.22.83.326.325.49.748.49 1.269Zm8.692 31.202c0 .195-.163.651-.489 1.367a45.8 45.8 0 0 1-1.123 2.393c-.456.911-.944 1.872-1.465 2.88-.52.977-.976 1.856-1.367 2.637-.195.391-.358.75-.488 1.075-.13.293-.244.52-.342.683l.44 2.637c.585 3.743 1.139 7.503 1.66 11.28.52 3.775.781 7.584.781 11.425 0 1.14-.033 2.311-.098 3.516a18.909 18.909 0 0 1-.44 3.613 11.85 11.85 0 0 1-1.171 3.32 8.016 8.016 0 0 1-2.246 2.783 9.042 9.042 0 0 1-2.442 1.368 7.183 7.183 0 0 1-2.734.537c-1.79 0-3.271-.391-4.443-1.172a8.43 8.43 0 0 1-2.735-2.93c-.683-1.204-1.155-2.555-1.416-4.052a22.358 22.358 0 0 1-.44-4.395c0-2.572.261-5.127.782-7.666a60.769 60.769 0 0 1 1.953-7.52 92.75 92.75 0 0 1 2.735-7.275 747.411 747.411 0 0 1 3.125-7.031c-.489-2.93-.88-5.827-1.172-8.692a242.206 242.206 0 0 1-.733-8.935l-.146-2.344a134.555 134.555 0 0 0-.244-3.613 67.835 67.835 0 0 1-.098-3.662c0-.651.098-1.205.293-1.66.228-.489.716-.733 1.465-.733.358 0 .7.033 1.025.098.326.065.668.179 1.026.341v-.048c.618.293 1.09.635 1.416 1.025.325.358.57.749.732 1.172.163.423.26.879.293 1.367.065.489.098.993.098 1.514v.781c.097 2.279.211 4.41.341 6.397.163 1.953.375 4.069.635 6.347a9.037 9.037 0 0 1 1.026-1.611c.423-.52.992-.781 1.709-.781.358 0 .78.114 1.27.342.52.227.992.52 1.415.878.456.358.83.75 1.123 1.172.326.423.489.814.489 1.172Zm-8.936 35.205c0-2.148-.114-4.346-.342-6.592a108.79 108.79 0 0 0-.781-6.64 75.49 75.49 0 0 0-2.54 8.203c-.715 2.897-1.073 5.713-1.073 8.447 0 .553.016 1.156.048 1.807.033.683.114 1.367.245 2.05.13.684.309 1.335.537 1.954.228.618.537 1.123.927 1.513.033.033.13.049.293.049.424 0 .782-.228 1.075-.683.293-.424.537-.977.732-1.66.195-.684.342-1.45.44-2.296.13-.846.227-1.676.293-2.49.065-.781.097-1.513.097-2.197.033-.651.049-1.14.049-1.465ZM49.457 58.89c0 .326-.098.717-.293 1.172-.163.424-.39.88-.684 1.368-.26.455-.553.927-.878 1.416-.326.488-.635.927-.928 1.318l-.733 1.025-.732 1.27-.635 1.172c.033.65.082 1.35.147 2.1.065.748.13 1.464.195 2.148.358 3.353.667 6.77.928 10.254.293 3.483.44 6.9.44 10.254 0 1.79-.147 3.597-.44 5.42-.293 1.855-.847 3.515-1.66 4.98a9.837 9.837 0 0 1-3.272 3.662c-1.4.944-3.19 1.416-5.371 1.416-1.497 0-2.767-.276-3.809-.83a7.046 7.046 0 0 1-2.539-2.246c-.618-.911-1.074-1.986-1.367-3.223a16.678 16.678 0 0 1-.44-3.857c0-2.637.31-5.306.928-8.008a64.424 64.424 0 0 1 2.393-8.008 86.428 86.428 0 0 1 3.418-7.763 185.263 185.263 0 0 1 3.857-7.227v-.195c0-.098-.016-.244-.048-.44a34.613 34.613 0 0 1-1.465 2.442 11.818 11.818 0 0 1-1.807 2.197 8.89 8.89 0 0 1-2.197 1.611c-.781.424-1.66.635-2.637.635-1.367 0-2.506-.325-3.418-.976a7.37 7.37 0 0 1-2.197-2.49 12.103 12.103 0 0 1-1.123-3.321 18.423 18.423 0 0 1-.342-3.418c0-1.237.065-2.458.195-3.662.163-1.204.342-2.376.537-3.516.326-1.823.733-3.792 1.221-5.908a61.816 61.816 0 0 1 1.904-6.347 45.001 45.001 0 0 1 2.588-5.958c1.01-1.855 2.181-3.434 3.516-4.736l.39-.342c.424-.423.912-.83 1.466-1.22.553-.424 1.123-.635 1.708-.635.358 0 .668.098.928.293.293.195.537.456.733.781.195.293.341.619.439.977.13.358.195.7.195 1.025 0 .39-.146.814-.44 1.27h.099c1.985 0 3.32.911 4.004 2.734.358.325.618.716.78 1.172.196.456.294.944.294 1.465 0 .26-.017.553-.05.879a6.29 6.29 0 0 1-.146.83c-.065.293-.114.57-.146.83-.033.26-.049.504-.049.732 0 .749.016 1.677.049 2.783.032 1.107.081 2.263.146 3.467.066 1.205.13 2.393.196 3.565.097 1.139.179 2.132.244 2.978.228-.293.488-.553.781-.781a1.91 1.91 0 0 1 1.123-.342c.358 0 .765.13 1.22.39.49.261.929.587 1.32.977.422.39.764.814 1.025 1.27.292.423.439.814.439 1.172ZM36.029 38.774v-.634c.033-.228.082-.472.147-.733l-.342.44c-.26.293-.505.57-.732.83-.228.26-.44.537-.635.83-.847 1.237-1.595 2.848-2.246 4.834a55.655 55.655 0 0 0-1.563 6.201 75.103 75.103 0 0 0-.976 6.348c-.196 2.083-.293 3.873-.293 5.37 0 .75.016 1.498.049 2.247.032.749.195 1.481.488 2.197.456-.488.83-1.009 1.123-1.562.293-.586.57-1.189.83-1.807.716-1.595 1.335-3.45 1.855-5.566a68.42 68.42 0 0 0 1.27-6.543c.325-2.247.57-4.444.732-6.592.163-2.181.26-4.134.293-5.86Zm3.711 52.149c0-2.214-.049-4.297-.146-6.25a167.87 167.87 0 0 0-.44-6.201 182.62 182.62 0 0 0-1.806 4.492 70.617 70.617 0 0 0-1.563 4.883 56.31 56.31 0 0 0-1.123 4.931 26.216 26.216 0 0 0-.44 4.639v.342c0 .749.05 1.546.147 2.392.098.879.407 1.595.928 2.149h.537c.651 0 1.188-.228 1.611-.684.456-.423.83-.976 1.123-1.66.293-.683.521-1.448.684-2.295.163-.846.277-1.693.342-2.539.065-.846.097-1.644.097-2.392.033-.75.05-1.351.05-1.807ZM63.178 72.416c0 .456-.114.83-.342 1.123-.228.293-.52.52-.879.684-.325.195-.7.325-1.123.39a4.46 4.46 0 0 1-1.074.147c-1.14 0-2.132-.326-2.979-.977-.846-.65-1.578-1.497-2.197-2.539-.619-1.009-1.123-2.165-1.514-3.467a46.663 46.663 0 0 1-.976-3.955 45.404 45.404 0 0 1-.586-3.808c-.13-1.237-.228-2.295-.293-3.174a168.777 168.777 0 0 1-.635-9.229 296.891 296.891 0 0 1-.146-9.277c0-8.366.293-16.65.879-24.854v-.439a2.48 2.48 0 0 0 .048-.488c.033-.684.065-1.465.098-2.344.032-.911.081-1.807.146-2.686.066-.878.13-1.676.196-2.392.097-.749.211-1.27.342-1.563v.05c.13-.457.309-.798.537-1.026.228-.228.618-.342 1.172-.342 1.171 0 2.164.39 2.978 1.172.814.781 1.22 1.758 1.22 2.93 0 .26-.015.52-.048.78 0 .229-.016.457-.049.684l-.098.684v.537c-.097 1.27-.179 2.54-.244 3.809-.032 1.237-.081 2.49-.146 3.76-.163 2.799-.293 5.598-.39 8.398a357.077 357.077 0 0 0-.098 8.398c0 1.205.016 2.783.048 4.737.033 1.953.098 4.085.196 6.396.097 2.279.228 4.639.39 7.08.196 2.442.44 4.77.733 6.983a73.714 73.714 0 0 0 1.025 6.005c.423 1.79.912 3.174 1.465 4.15.293.131.57.343.83.636.293.26.537.57.733.927.227.326.406.668.537 1.026.162.39.244.749.244 1.074ZM85.785 50.98c0 2.833-.244 5.665-.732 8.497a22.971 22.971 0 0 1-2.881 7.959 19.418 19.418 0 0 1-1.563 2.197 13.178 13.178 0 0 1-1.953 1.855 7.805 7.805 0 0 1-2.295 1.368 6.356 6.356 0 0 1-2.588.537c-1.432 0-2.685-.342-3.76-1.026-1.041-.65-1.953-1.514-2.734-2.588a18.083 18.083 0 0 1-1.904-3.71 32.91 32.91 0 0 1-1.172-4.249 53.005 53.005 0 0 1-.586-4.248 51.403 51.403 0 0 1-.146-3.613c0-1.172.049-2.458.146-3.857.098-1.4.26-2.832.489-4.297.26-1.465.585-2.914.976-4.346.423-1.432.96-2.767 1.611-4.004a14.801 14.801 0 0 1 2.344-3.37 10.336 10.336 0 0 1 3.174-2.392v.05c1.042-.554 2.083-.83 3.125-.83.651 0 1.156.146 1.514.439.358.26.52.716.488 1.367 1.79.325 3.239 1.188 4.346 2.588 1.106 1.4 1.953 3.027 2.539 4.883a26.287 26.287 0 0 1 1.22 5.712c.228 1.953.342 3.646.342 5.078ZM74.75 38.773c-.553 0-1.074-.211-1.563-.634-.618.944-1.139 2.034-1.562 3.271a27.729 27.729 0 0 0-1.025 3.76 37.847 37.847 0 0 0-.489 3.857 49.156 49.156 0 0 0-.146 3.663c0 .944.049 2.164.146 3.662a42.39 42.39 0 0 0 .537 4.443 26.36 26.36 0 0 0 1.172 4.2c.521 1.301 1.189 2.261 2.002 2.88 1.01-.586 1.84-1.514 2.49-2.783a19.456 19.456 0 0 0 1.612-4.248c.39-1.53.65-3.076.781-4.639.163-1.562.244-2.897.244-4.004 0-.814-.049-1.872-.146-3.174a42.291 42.291 0 0 0-.489-3.955 21.707 21.707 0 0 0-.976-3.808c-.39-1.172-.895-2.051-1.514-2.637-.293.098-.65.146-1.074.146ZM96.088 58.305c0 1.562-.016 2.995-.049 4.297 0 1.302.033 2.734.098 4.296l.879-.634.537-.342c1.595-1.27 2.978-2.816 4.15-4.639a30.477 30.477 0 0 0 2.979-5.908 33.758 33.758 0 0 0 1.709-6.397c.39-2.213.586-4.313.586-6.298 0-.39-.017-.928-.049-1.612 0-.716-.065-1.416-.196-2.1-.13-.683-.325-1.269-.586-1.757-.26-.52-.634-.781-1.123-.781-.781 0-1.578.472-2.392 1.416-.814.944-1.579 2.067-2.295 3.369a48.305 48.305 0 0 0-1.855 3.955c-.554 1.302-.96 2.327-1.221 3.076 0 .033-.017.049-.05.049v.098c-.194.455-.406.944-.634 1.464a7.038 7.038 0 0 0-.39 1.465c-.066.456-.114.977-.147 1.563a29.95 29.95 0 0 0-.049 1.758v.976c.033.293.05.57.05.83v1.026c.032.293.048.57.048.83Zm2.685 44.629c0 .716-.195 1.204-.585 1.464-.391.261-.912.391-1.563.391-.781 0-1.644-.13-2.588-.391-.944-.227-1.693-.667-2.246-1.318-.163-.228-.325-.895-.488-2.002-.13-1.107-.26-2.409-.39-3.906-.131-1.465-.245-2.995-.343-4.59a227.053 227.053 0 0 0-.293-4.15l-.195-2.588a373.228 373.228 0 0 1-.586-20.899c0-4.069.065-8.056.195-11.963.163-3.938.326-7.926.489-11.962l.195-5.127v-1.514c.033-.52.098-1.026.195-1.514.163-.423.358-.748.586-.976.26-.26.668-.391 1.221-.391 1.4 0 2.425.423 3.076 1.27.651.813 1.025 1.822 1.123 3.027 1.042-1.432 2.279-2.572 3.711-3.418 1.465-.846 3.141-1.27 5.029-1.27 1.595 0 2.93.358 4.004 1.075a7.994 7.994 0 0 1 2.637 2.783c.651 1.107 1.107 2.36 1.367 3.76a19.3 19.3 0 0 1 .44 4.052c0 2.572-.228 5.144-.684 7.715a37.25 37.25 0 0 1-2.148 7.422 34.869 34.869 0 0 1-3.614 6.787 28.48 28.48 0 0 1-5.175 5.664c-.261.228-.57.472-.928.733-.358.26-.733.504-1.123.732a8.42 8.42 0 0 1-1.22.586c-.391.163-.75.244-1.075.244-.358 0-.667-.081-.928-.244a2.963 2.963 0 0 1-.683-.586c.065 2.246.146 4.574.244 6.983.13 2.408.276 4.817.44 7.226.162 2.442.357 4.85.585 7.227.26 2.376.57 4.67.928 6.884.098.424.179.863.244 1.319.098.488.146.976.146 1.465ZM135.59 62.065c0 .976-.277 1.985-.83 3.027a11.672 11.672 0 0 1-2.051 2.88 11.175 11.175 0 0 1-2.93 2.1c-1.074.554-2.148.83-3.222.83-1.53 0-2.849-.293-3.955-.879a9.844 9.844 0 0 1-2.881-2.441 14.294 14.294 0 0 1-2.002-3.516 28.148 28.148 0 0 1-1.172-4.004 37.644 37.644 0 0 1-.635-4.15c-.098-1.4-.146-2.67-.146-3.809 0-.976.048-2.132.146-3.466.13-1.335.326-2.718.586-4.15a32.953 32.953 0 0 1 1.172-4.249c.488-1.4 1.09-2.653 1.807-3.76.748-1.106 1.627-2.001 2.636-2.685 1.042-.684 2.23-1.025 3.565-1.025 1.041 0 1.969.211 2.783.634a6.015 6.015 0 0 1 2.1 1.71 6.868 6.868 0 0 1 1.318 2.392 8.37 8.37 0 0 1 .488 2.832c0 1.27-.293 2.653-.879 4.15a22.292 22.292 0 0 1-2.295 4.346 22.112 22.112 0 0 1-3.125 3.809c-1.139 1.106-2.278 1.953-3.418 2.539.065.586.196 1.448.391 2.588.195 1.106.456 2.213.781 3.32.358 1.107.765 2.067 1.221 2.88.488.815 1.058 1.221 1.709 1.221.325 0 .602-.097.83-.292.26-.196.488-.456.684-.782.195-.325.358-.683.488-1.074.163-.39.309-.765.439-1.123l.293-.684c.065-.097.098-.162.098-.195a.569.569 0 0 0 .098-.146c.228-.424.439-.814.634-1.172.228-.358.538-.668.928-.928h-.049c.131-.13.261-.195.391-.195a2.26 2.26 0 0 1 .439-.05c.358 0 .749.115 1.172.343.423.227.814.52 1.172.879.358.325.651.7.879 1.123.228.39.342.78.342 1.172Zm-9.668-21.534c0-.325-.016-.667-.049-1.025a2.6 2.6 0 0 0-.244-.928c-.456.553-.863 1.22-1.221 2.002a17.305 17.305 0 0 0-.83 2.393 30.851 30.851 0 0 0-.586 2.49 38.4 38.4 0 0 0-.293 2.344 18.223 18.223 0 0 0 2.246-3.418c.651-1.302.977-2.588.977-3.858ZM154.389 35.209c0 .39-.147.716-.44.976-.26.261-.586.489-.976.684a5.237 5.237 0 0 1-1.221.342 6.142 6.142 0 0 1-.977.098c-.39 0-.765-.033-1.123-.098l-1.074-.293c-.358-.098-.7-.18-1.025-.244a3.558 3.558 0 0 0-1.026-.147c-.488 0-.976.082-1.465.245-.488.162-.927.39-1.318.683-.39.293-.716.651-.976 1.074a2.937 2.937 0 0 0-.342 1.416c0 .782.163 1.563.488 2.344.326.749.749 1.514 1.27 2.295a36.556 36.556 0 0 0 1.855 2.393c.716.78 1.465 1.578 2.246 2.392.944 1.042 1.888 2.1 2.832 3.174a25.075 25.075 0 0 1 2.588 3.37 18.176 18.176 0 0 1 1.904 3.71 11.57 11.57 0 0 1 .733 4.102c0 1.237-.212 2.343-.635 3.32a6.682 6.682 0 0 1-1.709 2.49c-.716.684-1.595 1.205-2.637 1.563-1.009.39-2.116.586-3.32.586-.326 0-.83-.066-1.514-.196-.651-.13-1.399-.309-2.246-.537-.846-.26-1.725-.537-2.636-.83a29.7 29.7 0 0 1-2.442-.928 17.11 17.11 0 0 1-1.807-1.025c-.455-.358-.683-.684-.683-.977 0-.39.179-.78.537-1.172a6.02 6.02 0 0 1 1.27-1.123 7.918 7.918 0 0 1 1.513-.878c.554-.228 1.009-.342 1.367-.342.489 0 .993.114 1.514.342.553.227 1.107.488 1.66.78a23.9 23.9 0 0 0 1.856.88c.651.26 1.318.39 2.002.39.52 0 .813-.179.879-.537.097-.358.146-.765.146-1.22a8.84 8.84 0 0 0-.586-3.223 16.43 16.43 0 0 0-1.514-3.028 21.58 21.58 0 0 0-2.148-2.832 220.921 220.921 0 0 0-2.441-2.783 186.437 186.437 0 0 1-2.491-2.734 27.068 27.068 0 0 1-2.099-2.783 17.104 17.104 0 0 1-1.514-2.979 9.567 9.567 0 0 1-.537-3.222c0-1.4.309-2.653.928-3.76a9.96 9.96 0 0 1 2.392-2.93 10.99 10.99 0 0 1 3.369-1.855 11.21 11.21 0 0 1 3.809-.684c.423 0 1.074.098 1.953.293.879.163 1.742.407 2.588.732.846.326 1.595.717 2.246 1.172.651.456.977.96.977 1.514Z" fill="#0E0D0D"/><path d="M14.203 24.71c0 .392-.016.782-.049 1.173 0 .358-.016.732-.049 1.123-.032.39-.048.781-.048 1.172v1.172a4.3 4.3 0 0 1-.293 1.61c-.196.49-.668.733-1.416.733-.26 0-.7-.049-1.319-.146a15.155 15.155 0 0 1-1.855-.44 9.793 9.793 0 0 1-1.66-.683c-.489-.293-.733-.619-.733-.977 0-.13.065-.537.196-1.22.162-.684.341-1.416.537-2.198.195-.814.374-1.546.537-2.197.163-.684.276-1.058.342-1.123v.049c.162-.358.325-.57.488-.635.163-.065.423-.098.781-.098.39 0 .846.05 1.367.147.521.065 1.01.212 1.465.44.488.195.895.471 1.22.83.326.325.49.748.49 1.269Zm8.692 31.202c0 .195-.163.651-.489 1.367a45.8 45.8 0 0 1-1.123 2.393c-.456.911-.944 1.872-1.465 2.88-.52.977-.976 1.856-1.367 2.637-.195.391-.358.75-.488 1.075-.13.293-.244.52-.342.683l.44 2.637c.585 3.743 1.139 7.503 1.66 11.28.52 3.775.781 7.584.781 11.425 0 1.14-.033 2.311-.098 3.516a18.909 18.909 0 0 1-.44 3.613 11.85 11.85 0 0 1-1.171 3.32 8.016 8.016 0 0 1-2.246 2.783 9.042 9.042 0 0 1-2.442 1.368 7.183 7.183 0 0 1-2.734.537c-1.79 0-3.271-.391-4.443-1.172a8.43 8.43 0 0 1-2.735-2.93c-.683-1.204-1.155-2.555-1.416-4.052a22.358 22.358 0 0 1-.44-4.395c0-2.572.261-5.127.782-7.666a60.769 60.769 0 0 1 1.953-7.52 92.75 92.75 0 0 1 2.735-7.275 747.411 747.411 0 0 1 3.125-7.031c-.489-2.93-.88-5.827-1.172-8.692a242.206 242.206 0 0 1-.733-8.935l-.146-2.344a134.555 134.555 0 0 0-.244-3.613 67.835 67.835 0 0 1-.098-3.662c0-.651.098-1.205.293-1.66.228-.489.716-.733 1.465-.733.358 0 .7.033 1.025.098.326.065.668.179 1.026.341v-.048c.618.293 1.09.635 1.416 1.025.325.358.57.749.732 1.172.163.423.26.879.293 1.367.065.489.098.993.098 1.514v.781c.097 2.279.211 4.41.341 6.397.163 1.953.375 4.069.635 6.347a9.037 9.037 0 0 1 1.026-1.611c.423-.52.992-.781 1.709-.781.358 0 .78.114 1.27.342.52.227.992.52 1.415.878.456.358.83.75 1.123 1.172.326.423.489.814.489 1.172Zm-8.936 35.205c0-2.148-.114-4.346-.342-6.592a108.79 108.79 0 0 0-.781-6.64 75.49 75.49 0 0 0-2.54 8.203c-.715 2.897-1.073 5.713-1.073 8.447 0 .553.016 1.156.048 1.807.033.683.114 1.367.245 2.05.13.684.309 1.335.537 1.954.228.618.537 1.123.927 1.513.033.033.13.049.293.049.424 0 .782-.228 1.075-.683.293-.424.537-.977.732-1.66.195-.684.342-1.45.44-2.296.13-.846.227-1.676.293-2.49.065-.781.097-1.513.097-2.197.033-.651.049-1.14.049-1.465ZM49.457 58.89c0 .326-.098.717-.293 1.172-.163.424-.39.88-.684 1.368-.26.455-.553.927-.878 1.416-.326.488-.635.927-.928 1.318l-.733 1.025-.732 1.27-.635 1.172c.033.65.082 1.35.147 2.1.065.748.13 1.464.195 2.148.358 3.353.667 6.77.928 10.254.293 3.483.44 6.9.44 10.254 0 1.79-.147 3.597-.44 5.42-.293 1.855-.847 3.515-1.66 4.98a9.837 9.837 0 0 1-3.272 3.662c-1.4.944-3.19 1.416-5.371 1.416-1.497 0-2.767-.276-3.809-.83a7.046 7.046 0 0 1-2.539-2.246c-.618-.911-1.074-1.986-1.367-3.223a16.678 16.678 0 0 1-.44-3.857c0-2.637.31-5.306.928-8.008a64.424 64.424 0 0 1 2.393-8.008 86.428 86.428 0 0 1 3.418-7.763 185.263 185.263 0 0 1 3.857-7.227v-.195c0-.098-.016-.244-.048-.44a34.613 34.613 0 0 1-1.465 2.442 11.818 11.818 0 0 1-1.807 2.197 8.89 8.89 0 0 1-2.197 1.611c-.781.424-1.66.635-2.637.635-1.367 0-2.506-.325-3.418-.976a7.37 7.37 0 0 1-2.197-2.49 12.103 12.103 0 0 1-1.123-3.321 18.423 18.423 0 0 1-.342-3.418c0-1.237.065-2.458.195-3.662.163-1.204.342-2.376.537-3.516.326-1.823.733-3.792 1.221-5.908a61.816 61.816 0 0 1 1.904-6.347 45.001 45.001 0 0 1 2.588-5.958c1.01-1.855 2.181-3.434 3.516-4.736l.39-.342c.424-.423.912-.83 1.466-1.22.553-.424 1.123-.635 1.708-.635.358 0 .668.098.928.293.293.195.537.456.733.781.195.293.341.619.439.977.13.358.195.7.195 1.025 0 .39-.146.814-.44 1.27h.099c1.985 0 3.32.911 4.004 2.734.358.325.618.716.78 1.172.196.456.294.944.294 1.465 0 .26-.017.553-.05.879a6.29 6.29 0 0 1-.146.83c-.065.293-.114.57-.146.83-.033.26-.049.504-.049.732 0 .749.016 1.677.049 2.783.032 1.107.081 2.263.146 3.467.066 1.205.13 2.393.196 3.565.097 1.139.179 2.132.244 2.978.228-.293.488-.553.781-.781a1.91 1.91 0 0 1 1.123-.342c.358 0 .765.13 1.22.39.49.261.929.587 1.32.977.422.39.764.814 1.025 1.27.292.423.439.814.439 1.172ZM36.029 38.774v-.634c.033-.228.082-.472.147-.733l-.342.44c-.26.293-.505.57-.732.83-.228.26-.44.537-.635.83-.847 1.237-1.595 2.848-2.246 4.834a55.655 55.655 0 0 0-1.563 6.201 75.103 75.103 0 0 0-.976 6.348c-.196 2.083-.293 3.873-.293 5.37 0 .75.016 1.498.049 2.247.032.749.195 1.481.488 2.197.456-.488.83-1.009 1.123-1.562.293-.586.57-1.189.83-1.807.716-1.595 1.335-3.45 1.855-5.566a68.42 68.42 0 0 0 1.27-6.543c.325-2.247.57-4.444.732-6.592.163-2.181.26-4.134.293-5.86Zm3.711 52.149c0-2.214-.049-4.297-.146-6.25a167.87 167.87 0 0 0-.44-6.201 182.62 182.62 0 0 0-1.806 4.492 70.617 70.617 0 0 0-1.563 4.883 56.31 56.31 0 0 0-1.123 4.931 26.216 26.216 0 0 0-.44 4.639v.342c0 .749.05 1.546.147 2.392.098.879.407 1.595.928 2.149h.537c.651 0 1.188-.228 1.611-.684.456-.423.83-.976 1.123-1.66.293-.683.521-1.448.684-2.295.163-.846.277-1.693.342-2.539.065-.846.097-1.644.097-2.392.033-.75.05-1.351.05-1.807ZM63.178 72.416c0 .456-.114.83-.342 1.123-.228.293-.52.52-.879.684-.325.195-.7.325-1.123.39a4.46 4.46 0 0 1-1.074.147c-1.14 0-2.132-.326-2.979-.977-.846-.65-1.578-1.497-2.197-2.539-.619-1.009-1.123-2.165-1.514-3.467a46.663 46.663 0 0 1-.976-3.955 45.404 45.404 0 0 1-.586-3.808c-.13-1.237-.228-2.295-.293-3.174a168.777 168.777 0 0 1-.635-9.229 296.891 296.891 0 0 1-.146-9.277c0-8.366.293-16.65.879-24.854v-.439a2.48 2.48 0 0 0 .048-.488c.033-.684.065-1.465.098-2.344.032-.911.081-1.807.146-2.686.066-.878.13-1.676.196-2.392.097-.749.211-1.27.342-1.563v.05c.13-.457.309-.798.537-1.026.228-.228.618-.342 1.172-.342 1.171 0 2.164.39 2.978 1.172.814.781 1.22 1.758 1.22 2.93 0 .26-.015.52-.048.78 0 .229-.016.457-.049.684l-.098.684v.537c-.097 1.27-.179 2.54-.244 3.809-.032 1.237-.081 2.49-.146 3.76-.163 2.799-.293 5.598-.39 8.398a357.077 357.077 0 0 0-.098 8.398c0 1.205.016 2.783.048 4.737.033 1.953.098 4.085.196 6.396.097 2.279.228 4.639.39 7.08.196 2.442.44 4.77.733 6.983a73.714 73.714 0 0 0 1.025 6.005c.423 1.79.912 3.174 1.465 4.15.293.131.57.343.83.636.293.26.537.57.733.927.227.326.406.668.537 1.026.162.39.244.749.244 1.074ZM85.785 50.98c0 2.833-.244 5.665-.732 8.497a22.971 22.971 0 0 1-2.881 7.959 19.418 19.418 0 0 1-1.563 2.197 13.178 13.178 0 0 1-1.953 1.855 7.805 7.805 0 0 1-2.295 1.368 6.356 6.356 0 0 1-2.588.537c-1.432 0-2.685-.342-3.76-1.026-1.041-.65-1.953-1.514-2.734-2.588a18.083 18.083 0 0 1-1.904-3.71 32.91 32.91 0 0 1-1.172-4.249 53.005 53.005 0 0 1-.586-4.248 51.403 51.403 0 0 1-.146-3.613c0-1.172.049-2.458.146-3.857.098-1.4.26-2.832.489-4.297.26-1.465.585-2.914.976-4.346.423-1.432.96-2.767 1.611-4.004a14.801 14.801 0 0 1 2.344-3.37 10.336 10.336 0 0 1 3.174-2.392v.05c1.042-.554 2.083-.83 3.125-.83.651 0 1.156.146 1.514.439.358.26.52.716.488 1.367 1.79.325 3.239 1.188 4.346 2.588 1.106 1.4 1.953 3.027 2.539 4.883a26.287 26.287 0 0 1 1.22 5.712c.228 1.953.342 3.646.342 5.078ZM74.75 38.773c-.553 0-1.074-.211-1.563-.634-.618.944-1.139 2.034-1.562 3.271a27.729 27.729 0 0 0-1.025 3.76 37.847 37.847 0 0 0-.489 3.857 49.156 49.156 0 0 0-.146 3.663c0 .944.049 2.164.146 3.662a42.39 42.39 0 0 0 .537 4.443 26.36 26.36 0 0 0 1.172 4.2c.521 1.301 1.189 2.261 2.002 2.88 1.01-.586 1.84-1.514 2.49-2.783a19.456 19.456 0 0 0 1.612-4.248c.39-1.53.65-3.076.781-4.639.163-1.562.244-2.897.244-4.004 0-.814-.049-1.872-.146-3.174a42.291 42.291 0 0 0-.489-3.955 21.707 21.707 0 0 0-.976-3.808c-.39-1.172-.895-2.051-1.514-2.637-.293.098-.65.146-1.074.146ZM96.088 58.305c0 1.562-.016 2.995-.049 4.297 0 1.302.033 2.734.098 4.296l.879-.634.537-.342c1.595-1.27 2.978-2.816 4.15-4.639a30.477 30.477 0 0 0 2.979-5.908 33.758 33.758 0 0 0 1.709-6.397c.39-2.213.586-4.313.586-6.298 0-.39-.017-.928-.049-1.612 0-.716-.065-1.416-.196-2.1-.13-.683-.325-1.269-.586-1.757-.26-.52-.634-.781-1.123-.781-.781 0-1.578.472-2.392 1.416-.814.944-1.579 2.067-2.295 3.369a48.305 48.305 0 0 0-1.855 3.955c-.554 1.302-.96 2.327-1.221 3.076 0 .033-.017.049-.05.049v.098c-.194.455-.406.944-.634 1.464a7.038 7.038 0 0 0-.39 1.465c-.066.456-.114.977-.147 1.563a29.95 29.95 0 0 0-.049 1.758v.976c.033.293.05.57.05.83v1.026c.032.293.048.57.048.83Zm2.685 44.629c0 .716-.195 1.204-.585 1.464-.391.261-.912.391-1.563.391-.781 0-1.644-.13-2.588-.391-.944-.227-1.693-.667-2.246-1.318-.163-.228-.325-.895-.488-2.002-.13-1.107-.26-2.409-.39-3.906-.131-1.465-.245-2.995-.343-4.59a227.053 227.053 0 0 0-.293-4.15l-.195-2.588a373.228 373.228 0 0 1-.586-20.899c0-4.069.065-8.056.195-11.963.163-3.938.326-7.926.489-11.962l.195-5.127v-1.514c.033-.52.098-1.026.195-1.514.163-.423.358-.748.586-.976.26-.26.668-.391 1.221-.391 1.4 0 2.425.423 3.076 1.27.651.813 1.025 1.822 1.123 3.027 1.042-1.432 2.279-2.572 3.711-3.418 1.465-.846 3.141-1.27 5.029-1.27 1.595 0 2.93.358 4.004 1.075a7.994 7.994 0 0 1 2.637 2.783c.651 1.107 1.107 2.36 1.367 3.76a19.3 19.3 0 0 1 .44 4.052c0 2.572-.228 5.144-.684 7.715a37.25 37.25 0 0 1-2.148 7.422 34.869 34.869 0 0 1-3.614 6.787 28.48 28.48 0 0 1-5.175 5.664c-.261.228-.57.472-.928.733-.358.26-.733.504-1.123.732a8.42 8.42 0 0 1-1.22.586c-.391.163-.75.244-1.075.244-.358 0-.667-.081-.928-.244a2.963 2.963 0 0 1-.683-.586c.065 2.246.146 4.574.244 6.983.13 2.408.276 4.817.44 7.226.162 2.442.357 4.85.585 7.227.26 2.376.57 4.67.928 6.884.098.424.179.863.244 1.319.098.488.146.976.146 1.465ZM135.59 62.065c0 .976-.277 1.985-.83 3.027a11.672 11.672 0 0 1-2.051 2.88 11.175 11.175 0 0 1-2.93 2.1c-1.074.554-2.148.83-3.222.83-1.53 0-2.849-.293-3.955-.879a9.844 9.844 0 0 1-2.881-2.441 14.294 14.294 0 0 1-2.002-3.516 28.148 28.148 0 0 1-1.172-4.004 37.644 37.644 0 0 1-.635-4.15c-.098-1.4-.146-2.67-.146-3.809 0-.976.048-2.132.146-3.466.13-1.335.326-2.718.586-4.15a32.953 32.953 0 0 1 1.172-4.249c.488-1.4 1.09-2.653 1.807-3.76.748-1.106 1.627-2.001 2.636-2.685 1.042-.684 2.23-1.025 3.565-1.025 1.041 0 1.969.211 2.783.634a6.015 6.015 0 0 1 2.1 1.71 6.868 6.868 0 0 1 1.318 2.392 8.37 8.37 0 0 1 .488 2.832c0 1.27-.293 2.653-.879 4.15a22.292 22.292 0 0 1-2.295 4.346 22.112 22.112 0 0 1-3.125 3.809c-1.139 1.106-2.278 1.953-3.418 2.539.065.586.196 1.448.391 2.588.195 1.106.456 2.213.781 3.32.358 1.107.765 2.067 1.221 2.88.488.815 1.058 1.221 1.709 1.221.325 0 .602-.097.83-.292.26-.196.488-.456.684-.782.195-.325.358-.683.488-1.074.163-.39.309-.765.439-1.123l.293-.684c.065-.097.098-.162.098-.195a.569.569 0 0 0 .098-.146c.228-.424.439-.814.634-1.172.228-.358.538-.668.928-.928h-.049c.131-.13.261-.195.391-.195a2.26 2.26 0 0 1 .439-.05c.358 0 .749.115 1.172.343.423.227.814.52 1.172.879.358.325.651.7.879 1.123.228.39.342.78.342 1.172Zm-9.668-21.534c0-.325-.016-.667-.049-1.025a2.6 2.6 0 0 0-.244-.928c-.456.553-.863 1.22-1.221 2.002a17.305 17.305 0 0 0-.83 2.393 30.851 30.851 0 0 0-.586 2.49 38.4 38.4 0 0 0-.293 2.344 18.223 18.223 0 0 0 2.246-3.418c.651-1.302.977-2.588.977-3.858ZM154.389 35.209c0 .39-.147.716-.44.976-.26.261-.586.489-.976.684a5.237 5.237 0 0 1-1.221.342 6.142 6.142 0 0 1-.977.098c-.39 0-.765-.033-1.123-.098l-1.074-.293c-.358-.098-.7-.18-1.025-.244a3.558 3.558 0 0 0-1.026-.147c-.488 0-.976.082-1.465.245-.488.162-.927.39-1.318.683-.39.293-.716.651-.976 1.074a2.937 2.937 0 0 0-.342 1.416c0 .782.163 1.563.488 2.344.326.749.749 1.514 1.27 2.295a36.556 36.556 0 0 0 1.855 2.393c.716.78 1.465 1.578 2.246 2.392.944 1.042 1.888 2.1 2.832 3.174a25.075 25.075 0 0 1 2.588 3.37 18.176 18.176 0 0 1 1.904 3.71 11.57 11.57 0 0 1 .733 4.102c0 1.237-.212 2.343-.635 3.32a6.682 6.682 0 0 1-1.709 2.49c-.716.684-1.595 1.205-2.637 1.563-1.009.39-2.116.586-3.32.586-.326 0-.83-.066-1.514-.196-.651-.13-1.399-.309-2.246-.537-.846-.26-1.725-.537-2.636-.83a29.7 29.7 0 0 1-2.442-.928 17.11 17.11 0 0 1-1.807-1.025c-.455-.358-.683-.684-.683-.977 0-.39.179-.78.537-1.172a6.02 6.02 0 0 1 1.27-1.123 7.918 7.918 0 0 1 1.513-.878c.554-.228 1.009-.342 1.367-.342.489 0 .993.114 1.514.342.553.227 1.107.488 1.66.78a23.9 23.9 0 0 0 1.856.88c.651.26 1.318.39 2.002.39.52 0 .813-.179.879-.537.097-.358.146-.765.146-1.22a8.84 8.84 0 0 0-.586-3.223 16.43 16.43 0 0 0-1.514-3.028 21.58 21.58 0 0 0-2.148-2.832 220.921 220.921 0 0 0-2.441-2.783 186.437 186.437 0 0 1-2.491-2.734 27.068 27.068 0 0 1-2.099-2.783 17.104 17.104 0 0 1-1.514-2.979 9.567 9.567 0 0 1-.537-3.222c0-1.4.309-2.653.928-3.76a9.96 9.96 0 0 1 2.392-2.93 10.99 10.99 0 0 1 3.369-1.855 11.21 11.21 0 0 1 3.809-.684c.423 0 1.074.098 1.953.293.879.163 1.742.407 2.588.732.846.326 1.595.717 2.246 1.172.651.456.977.96.977 1.514Z" stroke="#929090" stroke-width="4" mask="url(#a)"/></svg>