<svg width="238" height="107" fill="none" xmlns="http://www.w3.org/2000/svg"><path d="M12.203 23.71c0 .392-.016.782-.049 1.173 0 .358-.016.732-.049 1.123-.032.39-.048.781-.048 1.172v1.172a4.3 4.3 0 0 1-.293 1.61c-.196.49-.668.733-1.416.733-.26 0-.7-.049-1.319-.146a15.154 15.154 0 0 1-1.855-.44 9.793 9.793 0 0 1-1.66-.683c-.489-.293-.733-.619-.733-.977 0-.13.065-.537.196-1.22.162-.684.341-1.416.537-2.198.195-.814.374-1.546.537-2.197.163-.684.276-1.058.342-1.123v.049c.162-.358.325-.57.488-.635.163-.065.423-.098.781-.098.39 0 .846.05 1.367.147.521.065 1.01.212 1.465.44.488.195.895.471 1.22.83.326.325.49.748.49 1.269Zm8.692 31.202c0 .195-.163.651-.489 1.367a45.8 45.8 0 0 1-1.123 2.393c-.456.911-.944 1.872-1.465 2.88-.52.977-.976 1.856-1.367 2.637-.195.391-.358.75-.488 1.075-.13.293-.244.52-.342.683l.44 2.637c.585 3.743 1.139 7.503 1.66 11.28.52 3.775.781 7.584.781 11.425 0 1.14-.033 2.311-.098 3.516a18.909 18.909 0 0 1-.44 3.613 11.852 11.852 0 0 1-1.171 3.32 8.016 8.016 0 0 1-2.246 2.783 9.042 9.042 0 0 1-2.442 1.368 7.183 7.183 0 0 1-2.734.537c-1.79 0-3.271-.391-4.443-1.172a8.43 8.43 0 0 1-2.735-2.93c-.683-1.204-1.155-2.555-1.416-4.052a22.358 22.358 0 0 1-.44-4.395c0-2.572.261-5.127.782-7.666a60.769 60.769 0 0 1 1.953-7.52 92.75 92.75 0 0 1 2.735-7.275 746.373 746.373 0 0 1 3.125-7.031c-.489-2.93-.88-5.827-1.172-8.692a242.206 242.206 0 0 1-.733-8.935l-.146-2.344a134.555 134.555 0 0 0-.244-3.613 67.835 67.835 0 0 1-.098-3.662c0-.651.098-1.205.293-1.66.228-.489.716-.733 1.465-.733.358 0 .7.033 1.025.098a4.74 4.74 0 0 1 1.026.341v-.048c.618.293 1.09.635 1.416 1.025.325.358.57.749.732 1.172.163.423.26.879.293 1.367.065.489.098.993.098 1.514v.781c.097 2.279.211 4.41.341 6.397.163 1.953.375 4.069.635 6.347a9.037 9.037 0 0 1 1.026-1.611c.423-.52.993-.781 1.709-.781.358 0 .78.114 1.27.342.52.227.992.52 1.415.878.456.358.83.75 1.123 1.172.326.423.489.814.489 1.172Zm-8.936 35.205c0-2.148-.114-4.346-.342-6.592a108.79 108.79 0 0 0-.781-6.64 75.495 75.495 0 0 0-2.54 8.203c-.715 2.897-1.073 5.713-1.073 8.447 0 .553.016 1.156.048 1.807.033.683.114 1.367.245 2.05.13.684.309 1.335.537 1.954.228.618.537 1.123.927 1.513.033.033.13.049.293.049.424 0 .782-.228 1.075-.683.293-.424.537-.977.732-1.66.195-.684.342-1.45.44-2.296.13-.846.227-1.676.293-2.49.065-.781.097-1.513.097-2.197.033-.651.049-1.14.049-1.465Zm35.498-32.226c0 .325-.098.716-.293 1.172-.163.423-.39.878-.684 1.367-.26.455-.553.927-.878 1.416-.326.488-.635.927-.928 1.318l-.733 1.025-.732 1.27-.635 1.172c.033.65.082 1.35.147 2.1.065.748.13 1.464.195 2.148.358 3.353.667 6.77.928 10.254.293 3.483.44 6.9.44 10.254 0 1.79-.147 3.597-.44 5.42-.293 1.855-.847 3.515-1.66 4.98a9.837 9.837 0 0 1-3.272 3.662c-1.4.944-3.19 1.416-5.371 1.416-1.497 0-2.767-.276-3.809-.83a7.046 7.046 0 0 1-2.539-2.246c-.618-.911-1.074-1.986-1.367-3.223a16.676 16.676 0 0 1-.44-3.857c0-2.637.31-5.306.928-8.008a64.424 64.424 0 0 1 2.393-8.008 86.428 86.428 0 0 1 3.418-7.763 185.263 185.263 0 0 1 3.857-7.227v-.195c0-.098-.016-.244-.048-.44a34.613 34.613 0 0 1-1.465 2.442 11.818 11.818 0 0 1-1.807 2.197 8.89 8.89 0 0 1-2.197 1.611c-.781.424-1.66.635-2.637.635-1.367 0-2.506-.325-3.418-.976a7.37 7.37 0 0 1-2.197-2.49 12.103 12.103 0 0 1-1.123-3.321 18.423 18.423 0 0 1-.342-3.418c0-1.237.065-2.458.195-3.662.163-1.204.342-2.376.537-3.516.326-1.823.733-3.792 1.221-5.908a61.816 61.816 0 0 1 1.904-6.347 45.001 45.001 0 0 1 2.588-5.958c1.01-1.855 2.181-3.434 3.516-4.736l.39-.342c.424-.423.912-.83 1.466-1.22.553-.424 1.123-.635 1.708-.635.358 0 .668.098.928.293.293.195.537.456.733.781.195.293.341.618.439.977.13.358.195.7.195 1.025 0 .39-.146.814-.44 1.27h.099c1.985 0 3.32.911 4.004 2.734.358.325.618.716.78 1.172.196.456.294.944.294 1.465 0 .26-.017.553-.05.879a6.29 6.29 0 0 1-.146.83c-.065.293-.114.57-.146.83-.033.26-.049.504-.049.732 0 .749.016 1.677.049 2.783.032 1.107.081 2.263.146 3.467.066 1.205.13 2.393.196 3.565.097 1.139.179 2.132.244 2.978.228-.293.488-.553.781-.781a1.91 1.91 0 0 1 1.123-.342c.358 0 .765.13 1.22.39.49.261.929.587 1.32.977.422.39.764.814 1.025 1.27.292.423.439.814.439 1.172ZM34.029 37.773v-.634c.033-.228.082-.472.147-.733l-.342.44c-.26.293-.505.57-.732.83-.228.26-.44.537-.635.83-.847 1.237-1.595 2.848-2.246 4.834a55.655 55.655 0 0 0-1.563 6.201 75.103 75.103 0 0 0-.976 6.348c-.196 2.083-.293 3.873-.293 5.37 0 .75.016 1.498.049 2.247.032.749.195 1.481.488 2.197.456-.488.83-1.009 1.123-1.562.293-.586.57-1.189.83-1.807.716-1.595 1.334-3.45 1.855-5.566a68.42 68.42 0 0 0 1.27-6.543c.325-2.247.57-4.444.732-6.592.163-2.181.26-4.134.293-5.86Zm3.711 52.149c0-2.214-.049-4.297-.146-6.25a167.87 167.87 0 0 0-.44-6.201 182.62 182.62 0 0 0-1.806 4.492 70.617 70.617 0 0 0-1.563 4.883 56.31 56.31 0 0 0-1.123 4.931 26.216 26.216 0 0 0-.44 4.639v.342c0 .749.05 1.546.147 2.392.098.879.407 1.595.928 2.149h.537c.651 0 1.188-.228 1.611-.684.456-.423.83-.976 1.123-1.66.293-.683.521-1.448.684-2.295.163-.846.277-1.693.342-2.539.065-.846.097-1.644.097-2.392.033-.75.05-1.351.05-1.807Zm23.438-18.506c0 .456-.114.83-.342 1.123-.228.293-.52.52-.879.684-.325.195-.7.325-1.123.39a4.46 4.46 0 0 1-1.074.147c-1.14 0-2.132-.326-2.979-.977-.846-.65-1.578-1.497-2.197-2.539-.619-1.009-1.123-2.165-1.514-3.467a46.663 46.663 0 0 1-.976-3.955 45.404 45.404 0 0 1-.586-3.808c-.13-1.237-.228-2.295-.293-3.174a168.777 168.777 0 0 1-.635-9.229 296.891 296.891 0 0 1-.146-9.277c0-8.366.293-16.65.879-24.854v-.439a2.48 2.48 0 0 0 .048-.488c.033-.684.065-1.465.098-2.344.032-.911.081-1.807.146-2.686.066-.878.13-1.676.196-2.392.097-.749.211-1.27.342-1.563v.05c.13-.457.309-.798.537-1.026.228-.228.618-.342 1.172-.342 1.171 0 2.164.39 2.978 1.172.814.781 1.22 1.758 1.22 2.93 0 .26-.015.52-.048.78 0 .229-.016.457-.049.684l-.098.684v.537c-.097 1.27-.179 2.54-.244 3.809-.032 1.237-.081 2.49-.146 3.76-.163 2.799-.293 5.598-.39 8.398a357.077 357.077 0 0 0-.098 8.398c0 1.205.016 2.783.048 4.737.033 1.953.098 4.085.196 6.396.097 2.279.228 4.639.39 7.08.196 2.442.44 4.77.733 6.983a73.714 73.714 0 0 0 1.025 6.005c.423 1.79.912 3.174 1.465 4.15.293.131.57.343.83.636.293.26.537.57.733.927.227.326.406.668.537 1.026.162.39.244.749.244 1.074Zm22.607-21.435c0 2.831-.244 5.663-.732 8.496a22.971 22.971 0 0 1-2.881 7.959 19.418 19.418 0 0 1-1.563 2.197 13.178 13.178 0 0 1-1.953 1.855 7.805 7.805 0 0 1-2.295 1.368 6.356 6.356 0 0 1-2.588.537c-1.432 0-2.685-.342-3.76-1.026-1.041-.65-1.953-1.514-2.734-2.588a18.083 18.083 0 0 1-1.904-3.71 32.91 32.91 0 0 1-1.172-4.249 53.005 53.005 0 0 1-.586-4.248 51.403 51.403 0 0 1-.146-3.613c0-1.172.049-2.458.146-3.857.098-1.4.26-2.832.489-4.297.26-1.465.585-2.914.976-4.346.423-1.432.96-2.767 1.611-4.004a14.801 14.801 0 0 1 2.344-3.37 10.336 10.336 0 0 1 3.174-2.392v.05c1.042-.554 2.083-.83 3.125-.83.651 0 1.156.146 1.514.439.358.26.52.716.488 1.367 1.79.325 3.239 1.188 4.346 2.588 1.106 1.4 1.953 3.027 2.539 4.883a26.287 26.287 0 0 1 1.22 5.712c.228 1.953.342 3.646.342 5.078ZM72.75 37.773c-.553 0-1.074-.211-1.563-.634-.618.944-1.139 2.034-1.562 3.271a27.729 27.729 0 0 0-1.025 3.76 37.847 37.847 0 0 0-.489 3.857 49.156 49.156 0 0 0-.146 3.663c0 .944.049 2.164.146 3.662a42.39 42.39 0 0 0 .537 4.443 26.36 26.36 0 0 0 1.172 4.2c.521 1.301 1.189 2.262 2.002 2.88 1.01-.586 1.84-1.514 2.49-2.783a19.456 19.456 0 0 0 1.612-4.248c.39-1.53.65-3.076.781-4.639.163-1.562.244-2.897.244-4.004 0-.814-.049-1.872-.146-3.174a42.291 42.291 0 0 0-.489-3.955 21.707 21.707 0 0 0-.976-3.808c-.39-1.172-.895-2.051-1.514-2.637-.293.098-.65.146-1.074.146Zm21.338 19.532c0 1.562-.016 2.995-.049 4.297 0 1.302.033 2.734.098 4.296l.879-.634.537-.342c1.595-1.27 2.978-2.816 4.15-4.639a30.482 30.482 0 0 0 2.979-5.908 33.758 33.758 0 0 0 1.709-6.397c.39-2.213.586-4.313.586-6.298 0-.39-.017-.928-.049-1.612 0-.716-.065-1.416-.196-2.1-.13-.683-.325-1.269-.586-1.757-.26-.52-.634-.781-1.123-.781-.781 0-1.578.472-2.392 1.416-.814.944-1.579 2.067-2.295 3.369a48.337 48.337 0 0 0-1.855 3.955c-.554 1.302-.96 2.327-1.221 3.076 0 .033-.017.049-.05.049v.098c-.194.455-.406.944-.634 1.464a7.038 7.038 0 0 0-.39 1.465c-.066.456-.114.977-.147 1.563a29.95 29.95 0 0 0-.049 1.758v.976c.033.293.05.57.05.83v1.026c.032.293.048.57.048.83Zm2.685 44.629c0 .716-.195 1.204-.585 1.464-.391.261-.912.391-1.563.391-.781 0-1.644-.13-2.588-.391-.944-.227-1.693-.667-2.246-1.318-.163-.228-.325-.895-.488-2.002-.13-1.107-.26-2.409-.39-3.906-.131-1.465-.245-2.995-.343-4.59a227.053 227.053 0 0 0-.293-4.15l-.195-2.588a373.228 373.228 0 0 1-.586-20.899c0-4.069.065-8.056.195-11.963.163-3.938.326-7.926.489-11.962l.195-5.127v-1.514c.033-.52.098-1.026.195-1.514.163-.423.358-.748.586-.976.26-.26.668-.391 1.221-.391 1.4 0 2.425.423 3.076 1.27.651.813 1.025 1.822 1.123 3.027 1.042-1.432 2.279-2.572 3.711-3.418 1.465-.846 3.141-1.27 5.029-1.27 1.595 0 2.93.358 4.004 1.075a7.994 7.994 0 0 1 2.637 2.783c.651 1.107 1.107 2.36 1.367 3.76a19.3 19.3 0 0 1 .44 4.052c0 2.572-.228 5.144-.684 7.715a37.25 37.25 0 0 1-2.148 7.422 34.869 34.869 0 0 1-3.614 6.787 28.48 28.48 0 0 1-5.175 5.664c-.26.228-.57.472-.928.733-.358.26-.733.504-1.123.732-.39.228-.798.423-1.22.586-.391.163-.75.244-1.075.244-.358 0-.667-.081-.928-.244a2.963 2.963 0 0 1-.683-.586c.065 2.246.146 4.574.244 6.983.13 2.408.276 4.817.44 7.226.162 2.442.357 4.85.585 7.227.26 2.376.57 4.67.928 6.884.098.424.179.863.244 1.319.098.488.146.976.146 1.465Zm36.817-40.87c0 .977-.277 1.986-.83 3.028a11.672 11.672 0 0 1-2.051 2.88 11.175 11.175 0 0 1-2.93 2.1c-1.074.554-2.148.83-3.222.83-1.53 0-2.849-.293-3.955-.879a9.844 9.844 0 0 1-2.881-2.441 14.294 14.294 0 0 1-2.002-3.516 28.148 28.148 0 0 1-1.172-4.004 37.644 37.644 0 0 1-.635-4.15c-.098-1.4-.146-2.67-.146-3.809 0-.976.048-2.132.146-3.466.13-1.335.326-2.718.586-4.15a32.953 32.953 0 0 1 1.172-4.249c.488-1.4 1.09-2.653 1.807-3.76.748-1.106 1.627-2.001 2.636-2.685 1.042-.684 2.23-1.025 3.565-1.025 1.041 0 1.969.211 2.783.634a6.015 6.015 0 0 1 2.1 1.71 6.868 6.868 0 0 1 1.318 2.392 8.37 8.37 0 0 1 .488 2.832c0 1.27-.293 2.653-.879 4.15a22.292 22.292 0 0 1-2.295 4.346 22.112 22.112 0 0 1-3.125 3.809c-1.139 1.106-2.278 1.953-3.418 2.539.065.586.196 1.448.391 2.588.195 1.106.456 2.213.781 3.32.358 1.107.765 2.067 1.221 2.88.488.815 1.058 1.221 1.709 1.221.325 0 .602-.097.83-.292.26-.196.488-.456.684-.782.195-.325.358-.683.488-1.074.163-.39.309-.765.439-1.123l.293-.684c.065-.097.098-.162.098-.195a.569.569 0 0 0 .098-.146c.228-.424.439-.814.634-1.172.228-.358.538-.668.928-.928h-.049c.131-.13.261-.195.391-.195a2.26 2.26 0 0 1 .439-.05c.358 0 .749.115 1.172.343.423.227.814.52 1.172.879.358.325.651.7.879 1.123.228.39.342.78.342 1.172Zm-9.668-21.533c0-.325-.016-.667-.049-1.025a2.6 2.6 0 0 0-.244-.928c-.456.553-.863 1.22-1.221 2.002a17.305 17.305 0 0 0-.83 2.393 30.851 30.851 0 0 0-.586 2.49 38.4 38.4 0 0 0-.293 2.344 18.223 18.223 0 0 0 2.246-3.418c.651-1.302.977-2.588.977-3.858Zm28.467-5.322c0 .39-.147.716-.44.976-.26.261-.586.489-.976.684a5.237 5.237 0 0 1-1.221.342 6.142 6.142 0 0 1-.977.098c-.39 0-.765-.033-1.123-.098l-1.074-.293c-.358-.098-.7-.18-1.025-.244a3.558 3.558 0 0 0-1.026-.147c-.488 0-.976.082-1.465.245-.488.162-.927.39-1.318.683-.39.293-.716.651-.976 1.074a2.937 2.937 0 0 0-.342 1.416c0 .782.163 1.563.488 2.344.326.749.749 1.514 1.27 2.295a36.556 36.556 0 0 0 1.855 2.393c.716.78 1.465 1.578 2.246 2.392.944 1.042 1.888 2.1 2.832 3.174a25.075 25.075 0 0 1 2.588 3.37 18.176 18.176 0 0 1 1.904 3.71 11.57 11.57 0 0 1 .733 4.102c0 1.237-.212 2.343-.635 3.32a6.682 6.682 0 0 1-1.709 2.49c-.716.684-1.595 1.205-2.637 1.563-1.009.39-2.116.586-3.32.586-.326 0-.83-.066-1.514-.196-.651-.13-1.399-.309-2.246-.537-.846-.26-1.725-.537-2.636-.83a29.7 29.7 0 0 1-2.442-.928 17.11 17.11 0 0 1-1.807-1.025c-.455-.358-.683-.684-.683-.977 0-.39.179-.78.537-1.172a6.02 6.02 0 0 1 1.27-1.123 7.918 7.918 0 0 1 1.513-.878c.554-.228 1.009-.342 1.367-.342.489 0 .993.114 1.514.342.553.227 1.107.488 1.66.78a23.9 23.9 0 0 0 1.856.88c.651.26 1.318.39 2.002.39.52 0 .813-.179.879-.537.097-.358.146-.765.146-1.22a8.84 8.84 0 0 0-.586-3.223 16.43 16.43 0 0 0-1.514-3.028 21.58 21.58 0 0 0-2.148-2.832 220.921 220.921 0 0 0-2.441-2.783 186.437 186.437 0 0 1-2.491-2.734 27.068 27.068 0 0 1-2.099-2.783 17.104 17.104 0 0 1-1.514-2.979 9.567 9.567 0 0 1-.537-3.222c0-1.4.309-2.653.928-3.76a9.96 9.96 0 0 1 2.392-2.93 10.99 10.99 0 0 1 3.369-1.855 11.21 11.21 0 0 1 3.809-.684c.423 0 1.074.098 1.953.293.879.163 1.742.407 2.588.732.846.326 1.595.717 2.246 1.172.651.456.977.96.977 1.514Zm40.869 34.277c0 .358-.082.668-.244.928a2.212 2.212 0 0 1-.635.586 2.78 2.78 0 0 1-.781.293 3.217 3.217 0 0 1-.782.098c-.39 0-.813-.05-1.269-.147a10.711 10.711 0 0 1-1.367-.39 7.883 7.883 0 0 1-1.27-.684 3.319 3.319 0 0 1-.83-.977c-.195-.358-.342-.797-.439-1.318l-.196-1.66a16.857 16.857 0 0 1-1.172 2.295 8.513 8.513 0 0 1-1.562 2.002 7.38 7.38 0 0 1-2.1 1.318c-.748.358-1.595.537-2.539.537-1.66 0-3.011-.39-4.052-1.172a8.395 8.395 0 0 1-2.393-2.93 13.906 13.906 0 0 1-1.123-3.906 36.317 36.317 0 0 1-.244-4.101c0-1.074.049-2.295.146-3.662.098-1.367.228-2.767.391-4.2.163-1.432.358-2.815.586-4.15.228-1.367.472-2.572.732-3.613a94.511 94.511 0 0 1 1.172-3.955 21.853 21.853 0 0 1 1.807-4.053 11.968 11.968 0 0 1 2.734-3.223c1.074-.879 2.36-1.367 3.858-1.465a144.475 144.475 0 0 0-.44-7.275 653.94 653.94 0 0 0-.537-6.885l-.488-5.42-.196-1.953a24.991 24.991 0 0 1-.195-3.174c0-.748.195-1.27.586-1.562.423-.293.96-.44 1.611-.44 1.433 0 2.523.212 3.272.635.749.423 1.269.993 1.562 1.71.326.715.505 1.562.537 2.538.033.944.049 1.97.049 3.076 0 .717.082 1.53.244 2.442l.245 1.807.39 4.98.195 2.344.196 2.343 1.025 10.499 1.953 19.629.147 1.806c.13 1.335.244 2.718.342 4.15.13 1.433.358 2.849.683 4.249.098.358.179.7.244 1.025.098.326.147.667.147 1.025Zm-11.377-28.564c0-.358-.016-.749-.049-1.172v-2.588c-.228.326-.521.781-.879 1.367a10.314 10.314 0 0 0-.83 1.514c-.521 1.14-.993 2.604-1.416 4.395a80.373 80.373 0 0 0-1.123 5.566 89.491 89.491 0 0 0-.684 5.664c-.162 1.823-.244 3.353-.244 4.59v1.562c.033.586.098 1.188.196 1.807.097.586.244 1.156.439 1.709.195.553.456 1.01.781 1.367.489-.618.928-1.562 1.319-2.832.39-1.302.716-2.767.976-4.394.293-1.66.537-3.402.733-5.225.195-1.823.341-3.58.439-5.274.13-1.725.212-3.287.244-4.687.065-1.432.098-2.555.098-3.37Zm33.74 21.143c0 .976-.277 1.985-.83 3.027a11.646 11.646 0 0 1-2.051 2.88 11.186 11.186 0 0 1-2.929 2.1c-1.075.554-2.149.83-3.223.83-1.53 0-2.848-.293-3.955-.879a9.844 9.844 0 0 1-2.881-2.441 14.294 14.294 0 0 1-2.002-3.516 28.279 28.279 0 0 1-1.172-4.004 37.883 37.883 0 0 1-.635-4.15c-.097-1.4-.146-2.67-.146-3.809 0-.976.049-2.132.146-3.466.131-1.335.326-2.718.586-4.15a32.953 32.953 0 0 1 1.172-4.249c.488-1.4 1.091-2.653 1.807-3.76.749-1.106 1.627-2.001 2.637-2.685 1.041-.684 2.229-1.025 3.564-1.025 1.042 0 1.969.211 2.783.634a6.006 6.006 0 0 1 2.1 1.71 6.852 6.852 0 0 1 1.318 2.392c.326.911.488 1.855.488 2.832 0 1.27-.293 2.653-.878 4.15a22.292 22.292 0 0 1-2.295 4.346 22.205 22.205 0 0 1-3.125 3.809c-1.14 1.106-2.279 1.953-3.418 2.539.065.586.195 1.448.39 2.588a30.68 30.68 0 0 0 .782 3.32c.358 1.107.764 2.067 1.22 2.88.488.815 1.058 1.221 1.709 1.221.326 0 .602-.097.83-.292.261-.196.489-.456.684-.782.195-.325.358-.683.488-1.074.163-.39.309-.765.44-1.123l.293-.684c.065-.097.097-.162.097-.195a.569.569 0 0 0 .098-.146c.228-.424.439-.814.635-1.172.228-.358.537-.668.927-.928h-.048c.13-.13.26-.195.39-.195a2.26 2.26 0 0 1 .44-.05c.358 0 .748.115 1.172.343.423.227.813.52 1.171.879.358.325.651.7.879 1.123.228.39.342.78.342 1.172Zm-9.668-21.534c0-.325-.016-.667-.049-1.025a2.58 2.58 0 0 0-.244-.928c-.456.553-.862 1.22-1.221 2.002a17.305 17.305 0 0 0-.83 2.393 31.281 31.281 0 0 0-.586 2.49c-.13.846-.227 1.627-.293 2.344a18.227 18.227 0 0 0 2.247-3.418c.651-1.302.976-2.588.976-3.858Zm29.981-4.931c0 4.492-.358 8.919-1.075 13.28a199.208 199.208 0 0 1-2.49 13.038 6.1 6.1 0 0 0-.244 1.074c-.195.944-.407 1.92-.635 2.93a12.929 12.929 0 0 1-.976 2.93A6.915 6.915 0 0 1 228.756 70c-.716.586-1.514.879-2.393.879a2.92 2.92 0 0 1-1.123-.244c-.39-.163-.814-.375-1.269-.635-.651-.456-1.14-1.074-1.465-1.856a22.257 22.257 0 0 1-.83-2.49l-.098-.341v.048a89.198 89.198 0 0 1-1.416-6.347c-.358-2.116-.716-4.248-1.074-6.397-.195-1.334-.391-2.653-.586-3.955a76.107 76.107 0 0 0-.684-3.955l-.683-2.88c-.163-.652-.342-1.352-.537-2.1a79.51 79.51 0 0 0-.489-2.198 38.83 38.83 0 0 1-.39-1.806c-.098-.554-.147-.928-.147-1.123 0-.619.196-1.026.586-1.221a2.937 2.937 0 0 1 1.416-.342c1.042 0 1.953.228 2.735.684.813.455 1.399 1.204 1.757 2.246.196.553.358 1.14.489 1.758.162.618.293 1.237.39 1.855a133.868 133.868 0 0 1 1.563 6.836c.521 2.376.96 4.671 1.318 6.885l.44 2.49c.032.163.048.293.048.39v.245a.537.537 0 0 1 .049.244c.033.098.065.244.098.44.716-3.451 1.318-6.902 1.807-10.352A75.57 75.57 0 0 0 229 36.26c0-.716-.049-1.416-.146-2.1-.066-.683-.147-1.4-.245-2.148a426.1 426.1 0 0 1-.293-2.1 25.956 25.956 0 0 1-.097-2.246c0-.684.211-1.156.635-1.416.423-.26.944-.39 1.562-.39a13.2 13.2 0 0 1 2.051.146c.618.098 1.155.293 1.611.586.456.26.83.65 1.123 1.172.293.488.488 1.139.586 1.953.065.748.098 1.562.098 2.441.032.847.049 1.66.049 2.442Z" fill="#0E0D0D"/><path d="m12.154 24.883-.996-.083-.004.041v.042h1ZM9.03 30.547l-.164.986.008.002.156-.988Zm-1.855-.44-.301.954.007.002.006.002.288-.958Zm-1.66-.683-.515.857.022.013.022.012.47-.882Zm-.537-2.197-.973-.232-.006.022-.004.023.983.187Zm.537-2.198.97.243.002-.01-.972-.233Zm.537-2.197.97.243.003-.011-.973-.232Zm.342-1.123h1v-2.414l-1.708 1.707.708.707Zm0 .049h-1l1.91.414-.91-.414Zm2.636-.586-.184.983.03.005.03.004.124-.992Zm1.465.44-.447.894.037.018.039.016.371-.929Zm1.22.83-.74.672.017.018.017.016.707-.707Zm8.692 33.837-.91-.414-.005.01-.004.01.92.394Zm-2.588 5.274.883.47.006-.012-.889-.458Zm-1.855 3.71.914.407.007-.017.007-.018-.928-.371Zm-.342.684-.857-.514-.19.316.06.363.987-.165Zm.44 2.637.988-.155-.002-.01-.986.165Zm2.343 26.22-.998-.053-.001.013v.014l1 .027Zm-.44 3.614-.975-.217-.003.013-.003.013.982.191Zm-1.171 3.32-.883-.469-.009.016-.008.017.9.436Zm-2.246 2.783.616.788.009-.007-.625-.781Zm-2.442 1.368-.347-.938-.015.006-.015.006.377.926Zm-7.177-.635.554-.832-.005-.004-.55.836Zm-2.735-2.93-.87.494.87-.494ZM.777 98.272l.986-.172-.003-.012-.002-.013-.98.197ZM1.12 86.21l.98.2.002-.011-.982-.19Zm4.688-14.795-.916-.401-.005.01.92.391Zm3.125-7.031.911.41.125-.276-.05-.299-.986.165ZM7.76 55.693l-.995.101v.001l.995-.102Zm-.733-8.935-.998.062v.002l.998-.064Zm-.146-2.344-.999.054v.008l.999-.062Zm-.244-3.613-.999.054v.013l.002.014.997-.081Zm.195-5.323-.906-.422-.007.014-.006.015.919.393Zm3.516-.293-.414.91 1.414.644v-1.553h-1Zm0-.048.428-.904-1.428-.676v1.58h1Zm1.416 1.025-.768.64.013.017.015.016.74-.673Zm1.025 2.54-.998.066.002.033.005.032.991-.132Zm.098 2.294h-1v.043l1-.043Zm.341 6.397-.997.065v.009l.001.009.997-.083Zm.635 6.347-.993.114.382 3.345 1.506-3.012-.895-.447Zm1.026-1.611-.776-.63-.005.005.78.625Zm2.978-.44-.423.907.011.005.011.005.401-.916Zm1.416.88-.646.763.014.011.014.012.618-.787Zm1.123 1.171-.822.57.014.02.016.02.792-.61Zm-8.789 29.785-.996.087v.007l.001.007.995-.1Zm-.781-6.64.989-.148-.57-3.818L9.9 76.534l.936.35Zm-2.54 8.203-.97-.243v.003l.97.24ZM7.272 95.342l1-.048v-.002l-1 .05Zm.782 4.004-.939.345.939-.345Zm.927 1.513-.707.707.707-.707Zm1.368-.634-.823-.57-.01.014-.009.015.842.541Zm1.171-3.956-.988-.151-.003.018-.002.019.994.114Zm.293-2.49-.996-.083v.004l.996.08Zm.098-2.197-.999-.05v.05h1Zm-.707-67.871c0 .363-.015.726-.045 1.089l1.993.166c.035-.418.052-.837.052-1.255h-2Zm-.049 1.172c0 .328-.015.674-.045 1.04l1.993.166c.035-.416.052-.818.052-1.206h-2Zm-.045 1.04c-.035.418-.052.836-.052 1.255h2c0-.363.015-.726.045-1.09l-1.993-.165Zm-.052 1.255V28.35h2V27.178h-2Zm0 1.172c0 .473-.079.882-.222 1.24l1.857.742c.248-.619.365-1.284.365-1.982h-2Zm-.222 1.24c-.007.017-.011.02-.009.018.002-.002-.002.003-.022.014-.048.025-.18.071-.456.071v2c.951 0 1.933-.332 2.344-1.36l-1.857-.743Zm-.487.103c-.174 0-.544-.036-1.163-.134l-.312 1.976c.619.097 1.128.158 1.475.158v-2Zm-1.154-.133a14.14 14.14 0 0 1-1.733-.41l-.575 1.915a16.13 16.13 0 0 0 1.979.468l.329-1.973Zm-1.719-.406a8.791 8.791 0 0 1-1.49-.613l-.942 1.765c.55.294 1.162.544 1.83.755l.602-1.907Zm-1.447-.588a.957.957 0 0 1-.264-.206c-.008-.01-.002-.006.005.013a.226.226 0 0 1 .012.074h-2c0 .883.616 1.473 1.218 1.834l1.03-1.715Zm-.247-.119c0 .031-.002.031.005-.029.006-.05.016-.12.032-.216.03-.189.077-.45.14-.788l-1.964-.375c-.066.346-.117.63-.151.847-.03.188-.062.402-.062.561h2Zm.168-.989c.162-.68.34-1.408.535-2.186l-1.94-.485c-.197.784-.376 1.52-.54 2.208l1.945.463Zm.537-2.195c.195-.812.373-1.541.535-2.188l-1.94-.485c-.164.654-.344 1.39-.54 2.206l1.945.467Zm.538-2.2c.08-.334.143-.575.191-.733.024-.08.04-.122.046-.137l-.016.032c-.007.013-.053.098-.145.191l-1.415-1.414c-.108.109-.172.22-.198.269a1.68 1.68 0 0 0-.079.168 3.654 3.654 0 0 0-.106.308c-.066.217-.141.505-.224.853l1.946.464ZM5.393 21.71v.049h2v-.049h-2Zm1.91.463c.03-.067.057-.12.08-.16a.658.658 0 0 1 .046-.072c.008-.01.002 0-.023.021a.56.56 0 0 1-.154.09l-.743-1.856a1.603 1.603 0 0 0-.665.526 3.187 3.187 0 0 0-.362.623l1.82.828Zm-.05-.12c-.028.01-.014 0 .07-.01.077-.01.188-.017.34-.017v-2c-.381 0-.804.03-1.154.17l.743 1.857Zm.41-.027c.31 0 .702.04 1.182.13l.369-1.966a8.53 8.53 0 0 0-1.552-.164v2Zm1.242.14c.412.05.79.165 1.142.34l.894-1.788a5.497 5.497 0 0 0-1.788-.537l-.248 1.984Zm1.218.375c.36.144.637.338.852.574l1.48-1.345a4.252 4.252 0 0 0-1.59-1.086l-.742 1.857Zm.885.608c.113.113.195.27.195.563h2c0-.748-.243-1.438-.781-1.977l-1.414 1.414Zm8.887 31.764c0-.07.011-.097-.001-.047-.01.04-.03.104-.063.2-.068.19-.178.454-.335.8l1.82.828c.169-.37.303-.691.398-.956.08-.223.18-.534.18-.825h-2Zm-.408.973c-.283.66-.648 1.44-1.098 2.34l1.789.894c.461-.923.845-1.739 1.147-2.446l-1.838-.788Zm-1.098 2.34c-.454.907-.94 1.863-1.46 2.87l1.778.916a252.486 252.486 0 0 0 1.47-2.892l-1.788-.894Zm-1.453 2.857c-.524.983-.984 1.87-1.38 2.66l1.79.895c.385-.772.837-1.643 1.355-2.614l-1.765-.94Zm-1.38 2.66c-.204.41-.379.794-.522 1.15l1.857.743c.118-.294.269-.627.455-.998l-1.79-.895Zm-.507 1.116a5.672 5.672 0 0 1-.285.575l1.715 1.029c.128-.214.26-.484.398-.792l-1.828-.813Zm-.414 1.254.44 2.636 1.972-.328-.44-2.637-1.972.329Zm.438 2.627a625.434 625.434 0 0 1 1.657 11.26l1.981-.272a627.008 627.008 0 0 0-1.662-11.298l-1.976.31Zm1.657 11.26a82.53 82.53 0 0 1 .772 11.29h2c0-3.886-.264-7.74-.79-11.562L16.73 80Zm.772 11.29c0 1.12-.032 2.274-.096 3.462l1.997.108c.066-1.222.099-2.412.099-3.57h-2Zm-.097 3.49a17.915 17.915 0 0 1-.416 3.422l1.952.434a19.91 19.91 0 0 0 .463-3.804l-2-.053Zm-.422 3.448a10.86 10.86 0 0 1-1.073 3.042l1.766.938a12.86 12.86 0 0 0 1.27-3.598l-1.963-.382Zm-1.09 3.075a7.02 7.02 0 0 1-1.97 2.439l1.249 1.561a9.011 9.011 0 0 0 2.52-3.127l-1.799-.873Zm-1.962 2.432a8.032 8.032 0 0 1-2.173 1.217l.695 1.875a10.02 10.02 0 0 0 2.71-1.517l-1.232-1.575Zm-2.203 1.229a6.192 6.192 0 0 1-2.357.463v2a8.193 8.193 0 0 0 3.112-.611l-.755-1.852Zm-2.357.463c-1.646 0-2.92-.359-3.889-1.004l-1.109 1.664c1.376.917 3.064 1.34 4.998 1.34v-2Zm-3.894-1.008a7.436 7.436 0 0 1-2.414-2.587l-1.74.987a9.44 9.44 0 0 0 3.056 3.272l1.098-1.672Zm-2.414-2.587c-.622-1.096-1.058-2.336-1.3-3.73l-1.97.342c.277 1.599.785 3.061 1.53 4.375l1.74-.987Zm-1.305-3.756c-.28-1.401-.42-2.8-.42-4.198h-2c0 1.532.153 3.063.459 4.59l1.96-.392Zm-.42-4.198c0-2.504.253-4.992.76-7.465L.14 86.01a39.055 39.055 0 0 0-.802 7.867h2ZM2.1 86.4a59.767 59.767 0 0 1 1.921-7.396l-1.9-.625a61.77 61.77 0 0 0-1.985 7.643l1.964.378Zm1.921-7.396a91.754 91.754 0 0 1 2.705-7.197l-1.84-.782a93.771 93.771 0 0 0-2.765 7.354l1.9.625Zm2.7-7.187c1.04-2.373 2.081-4.713 3.121-7.021l-1.823-.822a748.34 748.34 0 0 0-3.13 7.04l1.833.803Zm3.196-7.597c-.485-2.91-.873-5.785-1.163-8.628l-1.99.203a139.72 139.72 0 0 0 1.18 8.754l1.973-.329Zm-1.163-8.627a241.19 241.19 0 0 1-.73-8.899l-1.996.127a243.2 243.2 0 0 0 .736 8.973l1.99-.201Zm-.73-8.898-.146-2.343-1.996.124.146 2.344 1.996-.125ZM7.88 44.36a135.6 135.6 0 0 0-.246-3.64l-1.993.162c.097 1.195.178 2.39.242 3.586l1.997-.108Zm-.244-3.613a66.84 66.84 0 0 1-.096-3.608h-2c0 1.254.033 2.493.1 3.716l1.996-.108Zm-.096-3.608c0-.556.084-.968.212-1.267l-1.838-.787c-.263.612-.374 1.308-.374 2.054h2Zm.2-1.238a.14.14 0 0 1 .077-.077c.064-.032.207-.078.48-.078v-2c-.96 0-1.915.333-2.37 1.31l1.812.845Zm.558-.155c.297 0 .573.027.83.078l.391-1.96a6.217 6.217 0 0 0-1.221-.118v2Zm.83.078c.237.048.506.135.807.272l.828-1.82a5.727 5.727 0 0 0-1.244-.413l-.392 1.961Zm2.22-.639v-.048h-2v.048h2Zm-1.427.855c.53.252.87.515 1.075.762l1.537-1.28c-.445-.534-1.05-.954-1.756-1.289l-.856 1.808Zm1.104.795c.248.272.423.558.539.858l1.866-.718a4.72 4.72 0 0 0-.925-1.486l-1.48 1.346Zm.539.858c.124.322.202.679.228 1.075l1.996-.133a5.645 5.645 0 0 0-.358-1.66l-1.866.718Zm.235 1.14c.059.442.089.903.089 1.382h2c0-.563-.035-1.112-.107-1.646l-1.982.264Zm.089 1.382v.781h2v-.781h-2Zm0 .824c.099 2.285.213 4.425.344 6.419l1.995-.13c-.13-1.978-.243-4.103-.34-6.375l-1.998.086Zm.345 6.437c.164 1.965.376 4.09.638 6.378l1.987-.227c-.26-2.27-.47-4.376-.632-6.318l-1.993.167Zm2.526 6.711a8.05 8.05 0 0 1 .912-1.433l-1.562-1.25a10.037 10.037 0 0 0-1.14 1.789l1.79.894Zm.907-1.427c.219-.27.494-.412.933-.412v-2c-.994 0-1.858.378-2.485 1.15l1.552 1.262Zm.933-.412c.157 0 .43.053.846.248l.846-1.813c-.56-.261-1.133-.435-1.692-.435v2Zm.868.258c.435.19.824.432 1.171.726l1.292-1.527a6.74 6.74 0 0 0-1.661-1.032l-.802 1.833Zm1.2.749c.386.304.689.623.918.954l1.644-1.138a6.427 6.427 0 0 0-1.327-1.389l-1.236 1.573Zm.948.995c.254.33.28.51.28.562h2c0-.663-.298-1.265-.695-1.782l-1.585 1.22Zm-6.655 35.767a66.3 66.3 0 0 0-.347-6.693l-1.99.202c.225 2.215.337 4.378.337 6.491h2Zm-.346-6.678c-.197-2.266-.46-4.5-.788-6.702l-1.978.295c.322 2.16.58 4.354.774 6.58l1.992-.173ZM9.9 76.534a76.492 76.492 0 0 0-2.573 8.311l1.94.485a74.48 74.48 0 0 1 2.505-8.094L9.9 76.534Zm-2.574 8.314c-.734 2.969-1.103 5.865-1.103 8.687h2c0-2.646.346-5.381 1.045-8.207l-1.942-.48Zm-1.103 8.687c0 .573.016 1.192.05 1.857l1.997-.1a35.354 35.354 0 0 1-.047-1.757h-2Zm.05 1.854c.034.732.121 1.462.26 2.19l1.965-.373a13.681 13.681 0 0 1-.228-1.912l-1.997.095Zm.26 2.19c.14.735.334 1.44.581 2.112L8.991 99a11.295 11.295 0 0 1-.493-1.794l-1.965.374Zm.581 2.112c.269.729.649 1.365 1.16 1.875l1.414-1.414c-.27-.27-.51-.643-.697-1.152l-1.877.691Zm1.16 1.875c.257.258.575.306.64.316.126.021.253.026.36.026v-2c-.057 0-.06-.003-.031.002.014.002.062.01.125.034.056.021.189.077.32.208l-1.415 1.414Zm1 .342c.858 0 1.496-.491 1.915-1.143l-1.683-1.081a.683.683 0 0 1-.184.21.074.074 0 0 1-.049.014v2Zm1.896-1.114c.374-.54.657-1.203.872-1.955l-1.923-.55c-.176.616-.381 1.06-.594 1.366l1.645 1.139Zm.872-1.955c.213-.745.368-1.565.47-2.455l-1.986-.23a13.39 13.39 0 0 1-.407 2.136l1.923.55Zm.466-2.417c.134-.87.234-1.724.301-2.563l-1.993-.16a33.457 33.457 0 0 1-.285 2.419l1.977.304Zm.301-2.56c.067-.805.101-1.565.101-2.28h-2c0 .652-.03 1.357-.094 2.114l1.993.166Zm.1-2.23c.033-.655.05-1.163.05-1.515h-2c0 .3-.015.768-.048 1.415l1.998.1Zm34.255-32.57-.92-.393-.007.017-.006.017.933.36Zm-.684 1.368-.857-.515-.005.01-.006.009.868.496Zm-1.806 2.734-.8-.6-.007.01-.007.009.814.581Zm-.733 1.025-.813-.58-.029.039-.024.042.866.5Zm-.732 1.27-.866-.5-.007.012-.006.012.879.476Zm-.635 1.172-.88-.476-.133.246.014.28 1-.05Zm.342 4.248-.995.095v.011l.995-.106Zm.928 10.254-.998.074.001.01.997-.084Zm0 15.674-.988-.159v.003l.988.156Zm-1.66 4.98-.875-.486-.006.012-.006.012.887.462Zm-14.99 2.002-.828.562.004.006.823-.568Zm1.513-23.096-.934-.357-.004.01.938.347Zm3.418-7.763-.892-.452-.002.005.894.447Zm3.857-7.227.872.491.128-.229v-.262h-1Zm-.048-.635.986-.164-.479-2.872-1.387 2.56.88.476Zm-1.465 2.442-.837-.547-.005.008.842.539Zm-1.807 2.197-.69-.724-.008.008-.009.009.707.707Zm-2.197 1.611-.462-.887-.007.004-.007.004.476.88Zm-8.252-2.832-.889.459.006.011.006.011.877-.48Zm-1.123-3.32-.983.186.983-.186Zm-.147-7.08-.99-.134-.002.013-.002.013.994.108Zm.537-3.516-.984-.175-.001.006.985.17Zm1.221-5.908-.972-.236-.002.011.974.225Zm1.904-6.347.942.338.001-.005-.942-.334Zm2.588-5.958-.878-.477-.007.012.885.465Zm3.516-4.736-.659-.752-.02.017-.02.02.699.715Zm.39-.342.66.753.024-.022.024-.024-.707-.707Zm1.466-1.22.576.817.016-.011.015-.012-.607-.794Zm2.636-.342-.6.8.022.017.024.015.554-.832Zm.733.781-.858.514.012.02.014.02.832-.554Zm.439.977-.965.263.011.04.014.038.94-.341Zm-.244 2.294-.841-.54-.99 1.54h1.83v-1Zm4.102 2.735-.937.351.085.226.179.163.672-.74Zm.78 1.172-.941.336.01.03.013.028.919-.394Zm.245 2.343.994.111v-.011l-.994-.1Zm-.147.83-.97-.242-.003.013-.003.013.976.217Zm.196 11.378-.999.055.001.015.001.015.997-.085Zm.244 2.978-.997.077.198 2.579 1.588-2.042-.79-.614Zm.781-.781-.573-.82-.021.015-.02.016.614.789Zm2.344.049-.496.868.012.007.013.007.47-.882Zm1.318.976-.707.707.014.014.015.014.678-.735Zm1.026 1.27-.869.496.022.037.024.036.823-.57ZM34.029 37.773l1 .02v-.02h-1Zm0-.634-.99-.142-.01.07v.072h1Zm.147-.733.97.243-1.76-.857.79.614Zm-.342.44.747.664.022-.024.02-.026-.789-.614Zm-1.367 1.66.825.565.007-.01-.832-.555ZM30.22 43.34l-.95-.312-.004.01.954.302Zm-1.563 6.201.981.193v-.003l-.98-.19Zm-.976 6.348-.994-.11-.001.009-.001.007.996.094Zm.244 9.814-.926.379.591 1.445 1.066-1.142-.731-.682Zm1.123-1.562.884.468.005-.01.005-.011-.894-.447Zm.83-1.807-.912-.41-.005.011-.005.01.922.389Zm1.855-5.566-.97-.24.97.24Zm1.27-6.543-.99-.144.99.144Zm.732-6.592.998.075-.998-.075Zm3.858 40.039.998-.05-.998.05Zm-.44-6.201.996-.088-1.918-.298.922.386Zm-1.806 4.492-.933-.362-.004.012-.004.011.94.339Zm-1.563 4.883-.963-.27-.001.005.964.265ZM32.37 99.15l.994-.11v-.004l-.994.114Zm.928 2.149-.728.685.296.315h.432v-1Zm2.148-.684-.68-.733-.027.026-.026.027.733.68Zm2.246-8.886-.999-.044v.044h1Zm8.766-33.838c0 .138-.045.388-.212.778l1.838.787c.224-.521.374-1.053.374-1.565h-2Zm-.226.813a7.909 7.909 0 0 1-.608 1.211l1.715 1.03a9.902 9.902 0 0 0 .76-1.523l-1.867-.718Zm-.619 1.23c-.248.433-.528.886-.843 1.357l1.665 1.11c.336-.506.642-.997.915-1.475l-1.737-.992Zm-.843 1.357c-.317.476-.615.9-.895 1.273l1.6 1.2c.306-.408.626-.863.96-1.364l-1.664-1.109Zm-.909 1.292-.732 1.025 1.627 1.163.733-1.026-1.628-1.162Zm-.785 1.107-.732 1.27 1.732.999.733-1.27-1.733-1Zm-.745 1.293-.635 1.172 1.758.952.635-1.172-1.758-.952Zm-.755 1.698c.034.665.083 1.377.15 2.136l1.992-.173a56.297 56.297 0 0 1-.144-2.063l-1.998.1Zm.15 2.136c.065.751.13 1.47.195 2.157l1.991-.19c-.064-.68-.13-1.394-.194-2.14l-1.992.173Zm.197 2.168c.357 3.342.665 6.75.925 10.222l1.994-.149a325.365 325.365 0 0 0-.93-10.285l-1.99.212Zm.925 10.232c.291 3.456.436 6.846.436 10.17h2c0-3.382-.148-6.828-.443-10.338l-1.993.168Zm.436 10.17c0 1.735-.142 3.489-.427 5.261l1.975.317c.301-1.873.452-3.733.452-5.578h-2Zm-.427 5.264c-.277 1.753-.796 3.3-1.547 4.65l1.749.972c.877-1.579 1.465-3.353 1.773-5.31l-1.975-.312Zm-1.559 4.674a8.847 8.847 0 0 1-2.944 3.295l1.118 1.658a10.837 10.837 0 0 0 3.6-4.028l-1.774-.925Zm-2.944 3.295c-1.193.804-2.773 1.245-4.812 1.245v2c2.323 0 4.323-.503 5.93-1.587l-1.118-1.658Zm-4.812 1.245c-1.377 0-2.476-.254-3.34-.713l-.938 1.766c1.22.648 2.66.947 4.278.947v-2Zm-3.34-.713a6.048 6.048 0 0 1-2.184-1.931l-1.647 1.136a8.044 8.044 0 0 0 2.893 2.561l.939-1.766Zm-2.18-1.924c-.54-.797-.953-1.755-1.222-2.892l-1.946.461c.317 1.337.816 2.527 1.513 3.554l1.655-1.123Zm-1.222-2.892a15.68 15.68 0 0 1-.412-3.627h-2c0 1.408.154 2.772.466 4.088l1.946-.461Zm-.412-3.627c0-2.558.3-5.152.902-7.785l-1.95-.446a36.8 36.8 0 0 0-.952 8.231h2Zm.902-7.785a63.423 63.423 0 0 1 2.356-7.883l-1.876-.695a65.42 65.42 0 0 0-2.43 8.132l1.95.446Zm2.352-7.873a85.41 85.41 0 0 1 3.378-7.674l-1.788-.894a87.427 87.427 0 0 0-3.458 7.853l1.868.715Zm3.376-7.67a184.285 184.285 0 0 1 3.837-7.187l-1.743-.982a186.23 186.23 0 0 0-3.878 7.266l1.784.904Zm3.965-7.678V65.507h-2V65.704h2Zm0-.195a3.85 3.85 0 0 0-.062-.604l-1.973.329c.014.085.024.152.03.202.005.053.005.074.005.073h2Zm-1.928-.916a33.56 33.56 0 0 1-1.422 2.37l1.674 1.095a35.523 35.523 0 0 0 1.507-2.512l-1.759-.953Zm-1.428 2.379a10.818 10.818 0 0 1-1.653 2.012l1.379 1.448a12.82 12.82 0 0 0 1.959-2.382l-1.684-1.078ZM31.956 69a7.89 7.89 0 0 1-1.951 1.431l.922 1.775a9.891 9.891 0 0 0 2.443-1.792L31.955 69Zm-1.966 1.44c-.621.335-1.334.513-2.16.513v2c1.125 0 2.17-.245 3.112-.755l-.952-1.759Zm-2.16.513c-1.206 0-2.13-.285-2.838-.79L23.83 71.79c1.115.797 2.47 1.163 4 1.163v-2Zm-2.838-.79a6.368 6.368 0 0 1-1.901-2.157l-1.754.961a8.369 8.369 0 0 0 2.493 2.823l1.162-1.627Zm-1.89-2.135a11.102 11.102 0 0 1-1.029-3.048l-1.965.372a13.098 13.098 0 0 0 1.217 3.593l1.777-.917Zm-1.029-3.048a17.426 17.426 0 0 1-.324-3.232h-2c0 1.145.121 2.347.36 3.604l1.964-.372Zm-.324-3.232c0-1.202.063-2.387.19-3.555l-1.989-.215a35.033 35.033 0 0 0-.201 3.77h2Zm.186-3.528c.162-1.194.339-2.354.532-3.48l-1.971-.339a101.257 101.257 0 0 0-.543 3.551l1.982.268Zm.53-3.474c.323-1.804.726-3.757 1.212-5.859l-1.95-.45c-.49 2.13-.901 4.116-1.23 5.958l1.969.351Zm1.209-5.848a60.824 60.824 0 0 1 1.874-6.245l-1.883-.677a62.825 62.825 0 0 0-1.935 6.45l1.944.472Zm1.875-6.25a43.99 43.99 0 0 1 2.53-5.825l-1.77-.931c-1 1.9-1.882 3.93-2.645 6.089l1.885.667Zm2.524-5.813c.967-1.779 2.081-3.275 3.335-4.498l-1.396-1.432c-1.415 1.38-2.645 3.043-3.696 4.975l1.757.955Zm3.296-4.461.39-.342-1.317-1.505-.39.341 1.317 1.506Zm.439-.388c.378-.378.821-.748 1.334-1.11l-1.153-1.634c-.594.419-1.127.862-1.596 1.33l1.415 1.414Zm1.365-1.133c.413-.316.774-.43 1.101-.43v-2c-.844 0-1.622.31-2.316.841l1.215 1.589Zm1.101-.43c.165 0 .258.041.328.094l1.2-1.6a2.501 2.501 0 0 0-1.528-.493v2Zm.373.126c.16.107.305.255.43.463l1.715-1.028a3.413 3.413 0 0 0-1.035-1.1l-1.11 1.665Zm.456.504c.132.198.235.425.306.685l1.93-.526a4.324 4.324 0 0 0-.572-1.269l-1.664 1.11Zm.331.763c.097.267.135.493.135.684h2c0-.46-.092-.918-.255-1.367l-1.88.683Zm.135.684c0 .138-.052.374-.28.729l1.682 1.081c.358-.557.598-1.167.598-1.81h-2Zm.56 2.27h.099v-2h-.098v2Zm.099 0c.838 0 1.46.19 1.926.509.465.317.857.817 1.141 1.576l1.873-.702c-.4-1.064-1.017-1.932-1.886-2.526-.868-.593-1.907-.858-3.054-.858v2Zm3.33 2.474c.237.215.405.467.513.768l1.883-.673a3.86 3.86 0 0 0-1.05-1.575l-1.345 1.48Zm.536.826c.139.325.212.678.212 1.07h2c0-.649-.123-1.272-.374-1.858l-1.838.788Zm.212 1.07c0 .22-.014.48-.044.78l1.99.199c.035-.35.054-.678.054-.978h-2Zm-.043.77a5.28 5.28 0 0 1-.123.697l1.94.485a7.27 7.27 0 0 0 .17-.962l-1.987-.22Zm-.129.723c-.07.32-.125.627-.162.923l1.984.248a7.94 7.94 0 0 1 .13-.738l-1.952-.433Zm-.162.923a6.926 6.926 0 0 0-.057.856h2c0-.18.013-.383.041-.608l-1.984-.248Zm-.057.856c0 .762.017 1.7.05 2.813l1.998-.06a96.402 96.402 0 0 1-.048-2.753h-2Zm.05 2.813c.032 1.115.081 2.28.147 3.491l1.997-.108a139.784 139.784 0 0 1-.145-3.442l-2 .059Zm.147 3.491.195 3.566 1.997-.11-.195-3.564-1.997.108Zm.197 3.596c.098 1.137.179 2.127.244 2.97l1.994-.154c-.066-.85-.147-1.846-.245-2.987l-1.993.171Zm2.03 3.507a3.44 3.44 0 0 1 .606-.606l-1.228-1.578a5.434 5.434 0 0 0-.956.956l1.578 1.228Zm.566-.576a.912.912 0 0 1 .55-.161v-2c-.615 0-1.193.17-1.697.523l1.147 1.638Zm.55-.161c.12 0 .353.047.724.259l.992-1.737c-.541-.309-1.122-.522-1.717-.522v2Zm.75.273c.4.214.76.48 1.081.801l1.414-1.414c-.46-.46-.98-.845-1.555-1.152l-.94 1.765Zm1.11.829c.355.328.63.672.835 1.03l1.737-.991a6.327 6.327 0 0 0-1.216-1.509l-1.356 1.47Zm.881 1.104c.226.326.262.52.262.603h2c0-.633-.257-1.221-.617-1.741l-1.645 1.138ZM35.03 37.773V37.138h-2V37.773h2Zm-.01-.493a6.29 6.29 0 0 1 .127-.631l-1.94-.485a8.295 8.295 0 0 0-.167.833l1.98.283Zm-1.633-1.488-.341.44 1.578 1.228.342-.44-1.579-1.228Zm-.3.39c-.261.294-.507.573-.737.835l1.505 1.317c.226-.258.468-.533.727-.824l-1.494-1.329Zm-.737.835a8.977 8.977 0 0 0-.714.934l1.664 1.11c.171-.258.357-.5.555-.727l-1.505-1.317Zm-.707.924c-.917 1.34-1.702 3.044-2.372 5.087l1.9.623c.633-1.928 1.346-3.446 2.122-4.58l-1.65-1.13Zm-2.375 5.097a56.644 56.644 0 0 0-1.59 6.313l1.963.38a54.676 54.676 0 0 1 1.534-6.09l-1.907-.603Zm-1.59 6.31a76.068 76.068 0 0 0-.99 6.432l1.989.217c.224-2.053.545-4.141.963-6.263l-1.962-.386Zm-.991 6.447c-.197 2.103-.297 3.927-.297 5.465h2c0-1.457.095-3.215.288-5.278l-1.991-.187Zm-.297 5.465c0 .763.016 1.526.05 2.29l1.998-.088a50.578 50.578 0 0 1-.048-2.202h-2Zm.05 2.29c.037.867.226 1.713.561 2.532l1.851-.757a5.512 5.512 0 0 1-.414-1.863l-1.999.087Zm2.218 2.835a8.278 8.278 0 0 0 1.276-1.776l-1.768-.936c-.249.47-.57.92-.97 1.348l1.462 1.364Zm1.286-1.797a31.48 31.48 0 0 0 .857-1.866l-1.843-.776c-.252.599-.52 1.181-.803 1.747l1.79.895Zm.848-1.844c.746-1.662 1.382-3.577 1.914-5.737l-1.942-.478c-.51 2.07-1.11 3.867-1.796 5.395l1.824.82Zm1.914-5.737a69.418 69.418 0 0 0 1.289-6.639l-1.98-.287a67.417 67.417 0 0 1-1.25 6.448l1.941.478Zm1.289-6.639c.328-2.267.575-4.487.74-6.66l-1.995-.15a96.122 96.122 0 0 1-.725 6.523l1.98.287Zm.74-6.66c.163-2.196.262-4.168.295-5.916l-2-.037a105.594 105.594 0 0 1-.29 5.803l1.995.15Zm4.006 46.214c0-2.228-.049-4.328-.148-6.3l-1.997.1c.097 1.934.145 4 .145 6.2h2Zm-.148-6.3a168.686 168.686 0 0 0-.442-6.24l-1.992.177c.195 2.203.34 4.257.437 6.164l1.998-.102Zm-2.36-6.537a183.677 183.677 0 0 0-1.817 4.516l1.865.723a182.268 182.268 0 0 1 1.797-4.467l-1.845-.772Zm-1.825 4.54a71.616 71.616 0 0 0-1.585 4.951l1.926.54c.45-1.604.963-3.209 1.54-4.814l-1.881-.678ZM32.82 86.58a57.329 57.329 0 0 0-1.143 5.02l1.968.353a55.312 55.312 0 0 1 1.103-4.844l-1.928-.529Zm-1.143 5.02a27.221 27.221 0 0 0-.455 4.815h2c0-1.398.14-2.885.423-4.462l-1.968-.354Zm-.455 4.815v.342h2v-.342h-2Zm0 .342c0 .792.051 1.628.153 2.507l1.986-.23a19.941 19.941 0 0 1-.14-2.277h-2Zm.152 2.503c.118 1.057.5 1.987 1.194 2.723l1.456-1.371c-.349-.37-.584-.873-.662-1.573l-1.988.22Zm1.922 3.038h.537v-2h-.537v2Zm.537 0c.914 0 1.722-.333 2.344-1.003l-1.465-1.361c-.225.241-.491.364-.879.364v2Zm2.292-.951c.576-.535 1.024-1.212 1.361-1.999l-1.838-.788c-.248.58-.549 1.01-.884 1.321l1.36 1.466Zm1.361-1.999c.326-.759.573-1.594.747-2.5l-1.964-.378c-.151.787-.36 1.482-.62 2.09l1.837.788Zm.747-2.5c.17-.883.289-1.767.357-2.651l-1.994-.154a21.618 21.618 0 0 1-.327 2.427l1.964.378Zm.357-2.651c.067-.869.1-1.692.1-2.47h-2c0 .72-.03 1.492-.094 2.316l1.994.154Zm.1-2.426c.032-.755.05-1.374.05-1.85h-2c0 .435-.016 1.02-.049 1.763l1.998.087Zm21.266-18.55-.414-.91-.052.024-.048.03.514.857Zm-1.123.391-.152-.988-.046.007-.045.011.243.97Zm-4.053-.83-.61.793.61-.793Zm-2.197-2.539.86-.51-.007-.012-.853.522Zm-1.514-3.467-.96.281.002.007.958-.288Zm-.976-3.955-.982.192.001.004.98-.196Zm-.586-3.808-.995.104v.003l.995-.107Zm-.293-3.174.997-.074v-.011l-.002-.012-.995.097Zm-.635-9.229-1 .032v.01l1-.042Zm.733-34.13.997.07.002-.035v-.036h-1Zm0-.44-.981-.196-.02.097v.099h1Zm.048-.488-.998-.048-.002.024v.024h1Zm.098-2.344 1 .037v-.001l-1-.036Zm.342-5.078L48.809 4l-.002.02-.002.02.996.09Zm.342-1.563h1l-1.914-.406.914.406Zm0 .05h-1l1.961.274-.961-.275Zm5.859 3.515-.992-.124-.008.062v.062h1ZM55.855 7.5l-.99-.141-.01.07V7.5h1Zm0 .537.998.077.002-.038v-.039h-1Zm-.244 3.809-.998-.052-.001.013v.012l1 .027Zm-.146 3.76.998.058v-.007l-.998-.052Zm-.39 8.398-1-.035v.011l1 .024Zm.146 19.531-1 .042v.001l1-.043Zm.39 7.08-.997.067v.013l.997-.08Zm1.758 12.988-.977.214.002.008.002.008.973-.23Zm1.465 4.15-.87.494.163.287.3.134.407-.914Zm.83.636-.747.664.039.044.044.04.664-.748Zm.733.927-.878.48.026.048.032.046.82-.574Zm.537 1.026-.94.341.008.022.008.021.924-.384Zm-.756 1.074c0 .285-.069.429-.131.51l1.578 1.227c.394-.506.553-1.11.553-1.737h-2Zm-.131.51a1.297 1.297 0 0 1-.504.386l.828 1.821a3.295 3.295 0 0 0 1.254-.98l-1.578-1.228Zm-.604.44c-.201.12-.45.211-.761.259l.304 1.977a4.063 4.063 0 0 0 1.486-.522l-1.03-1.715Zm-.852.277c-.329.082-.604.117-.831.117v2c.424 0 .864-.064 1.317-.177l-.486-1.94Zm-.831.117c-.935 0-1.71-.262-2.369-.77l-1.22 1.586c1.034.795 2.245 1.184 3.589 1.184v-2Zm-2.369-.77c-.733-.563-1.385-1.31-1.947-2.256l-1.72 1.02c.675 1.137 1.488 2.084 2.448 2.822l1.219-1.585Zm-1.954-2.268c-.568-.926-1.04-2-1.409-3.232l-1.916.575c.412 1.372.95 2.61 1.62 3.702l1.705-1.045Zm-1.407-3.226a45.683 45.683 0 0 1-.956-3.87l-1.96.392c.266 1.332.598 2.679.997 4.04l1.919-.562Zm-.955-3.865a44.448 44.448 0 0 1-.573-3.725l-1.988.215c.133 1.236.333 2.534.598 3.893l1.963-.383Zm-.573-3.722c-.13-1.23-.226-2.278-.29-3.143l-1.994.148c.066.892.164 1.96.295 3.204l1.99-.209Zm-.292-3.166a167.71 167.71 0 0 1-.63-9.173l-2 .083c.132 3.143.345 6.237.64 9.283l1.99-.193Zm-.63-9.163a296.147 296.147 0 0 1-.146-9.246h-2c0 3.07.049 6.173.147 9.309l1.999-.063Zm-.146-9.246c0-8.343.292-16.603.876-24.782l-1.995-.143a349.777 349.777 0 0 0-.881 24.925h2Zm.879-24.854V12.04h-2V12.48h2Zm-.02-.243c.045-.226.068-.454.068-.684h-2c0 .095-.01.192-.03.292l1.962.392Zm.067-.637c.033-.688.066-1.473.098-2.354l-1.998-.074c-.033.876-.065 1.654-.098 2.333l1.998.095Zm.098-2.355c.032-.9.08-1.782.145-2.648l-1.995-.147c-.066.892-.115 1.8-.148 2.723l1.998.072Zm.145-2.648c.064-.874.13-1.666.194-2.376l-1.992-.18a145.43 145.43 0 0 0-.197 2.409l1.995.147Zm.19-2.337c.097-.747.198-1.138.263-1.285l-1.827-.813c-.195.439-.322 1.09-.42 1.84l1.983.258Zm-1.65-1.692v.05h2v-.05h-2Zm1.961.324c.104-.364.219-.529.283-.593L49.973.885c-.392.391-.636.91-.792 1.457l1.923.55Zm.283-.593c-.032.032-.039.018.037-.004.078-.022.214-.045.428-.045v-2c-.641 0-1.368.123-1.88.635l1.415 1.414Zm.465-.049c.924 0 1.666.298 2.286.893L55.523 1.7C54.515.733 53.27.25 51.852.25v2Zm2.286.893c.608.585.913 1.297.913 2.209h2c0-1.433-.51-2.674-1.528-3.652l-1.386 1.443Zm.913 2.209c0 .218-.014.437-.041.657l1.984.248c.038-.301.057-.603.057-.905h-2Zm-.049.78c0 .18-.013.361-.039.543l1.98.283c.04-.274.059-.55.059-.825h-2Zm-.039.543c-.008.055-.04.287-.049.342a100.348 100.348 0 0 1-.049.342l1.98.282.05-.341.024-.171.024-.171-1.98-.283Zm-.108.825V8.037h2V7.5h-2Zm.003.46c-.098 1.278-.18 2.556-.245 3.834l1.997.103c.065-1.261.145-2.522.242-3.783l-1.994-.154Zm-.246 3.86a150.77 150.77 0 0 1-.146 3.734l1.998.103c.065-1.278.114-2.54.147-3.785l-2-.053Zm-.145 3.727a363.783 363.783 0 0 0-.392 8.422l1.999.07c.097-2.792.227-5.584.39-8.376l-1.997-.116Zm-.392 8.433a358.015 358.015 0 0 0-.098 8.422h2c0-2.824.032-5.616.097-8.375l-2-.047Zm-.098 8.422c0 1.213.016 2.798.049 4.753l2-.033c-.033-1.95-.05-3.523-.05-4.72h-2Zm.049 4.753c.032 1.963.098 4.104.196 6.422l1.998-.084a250.533 250.533 0 0 1-.195-6.371l-2 .033Zm.196 6.423c.098 2.287.228 4.655.392 7.104l1.995-.133a297.882 297.882 0 0 1-.39-7.057l-1.997.086Zm.392 7.117c.197 2.457.443 4.802.738 7.034l1.983-.263c-.29-2.194-.533-4.505-.727-6.93l-1.993.159Zm.738 7.034a74.774 74.774 0 0 0 1.04 6.088l1.954-.427a72.738 72.738 0 0 1-1.01-5.924l-1.984.263Zm1.044 6.105c.433 1.831.948 3.319 1.568 4.413l1.74-.986c-.487-.859-.948-2.138-1.362-3.887l-1.946.46Zm2.032 4.834c.137.06.302.175.489.385l1.494-1.329a3.458 3.458 0 0 0-1.17-.884l-.813 1.828Zm.572.468c.203.18.376.398.519.66l1.755-.958a4.418 4.418 0 0 0-.946-1.197L59 69.136Zm.577.754c.18.257.318.521.417.793l1.88-.683a5.413 5.413 0 0 0-.658-1.257l-1.639 1.147Zm.434.836c.126.304.167.53.167.69h2c0-.49-.122-.981-.321-1.459l-1.846.77Zm23.042-12.25-.986-.17-.001.01.987.16Zm-2.881 7.96.854.52.005-.008.004-.008-.863-.504Zm-1.563 2.197.76.65.007-.008.007-.009-.774-.633Zm-1.953 1.855-.611-.791-.02.016-.02.016.651.76Zm-2.295 1.368-.359-.934-.022.009-.021.01.402.915Zm-6.347-.489.537-.844-.007-.004-.53.848Zm-2.735-2.588-.828.56.01.015.01.014.808-.589Zm-1.904-3.71-.944.329.005.013.005.013.934-.356Zm-1.172-4.249-.984.175.002.013.002.013.98-.2Zm-.586-4.248-.997.072v.011l.002.012.995-.095Zm.489-11.767-.985-.175-.002.01-.002.011.989.154Zm.976-4.346-.959-.283-.003.01-.003.01.965.263Zm1.611-4.004.885.466.005-.01-.89-.456Zm2.344-3.37.731.683.006-.006.005-.006-.742-.67Zm3.174-2.392h1v-1.598l-1.438.7.438.898Zm0 .05h-1v1.663l1.47-.78-.47-.884Zm4.639-.391-.634.773.022.019.023.016.589-.808Zm.488 1.367-.999-.05-.044.877.864.157.179-.984Zm6.885 7.47-.954.302.002.007.003.008.949-.316Zm1.22 5.713-.995.1.001.008.001.008.993-.116ZM71.188 37.14l.654-.756-.864-.75-.627.958.837.548Zm-1.563 3.271.944.332.002-.008-.946-.324ZM68.6 44.17l-.981-.196-.002.01-.002.01.985.176Zm-.489 11.182-.998.065v.001l.998-.066Zm.537 4.443-.985.171.002.01.002.01.981-.191Zm1.172 4.2-.936.35.004.01.004.01.928-.37Zm2.002 2.88-.605.796.53.403.577-.334-.502-.865Zm2.49-2.783-.885-.465-.004.008.89.457Zm2.393-8.887-.995-.103v.01l-.001.01.996.083Zm-.39-11.133-.987.165v.004l.986-.169Zm-.977-3.808-.949.316.004.012.004.011.94-.34Zm-1.514-2.637.688-.726-.435-.412-.569.19.316.948Zm8.961 12.353c0 2.775-.239 5.55-.718 8.327l1.971.34a50.92 50.92 0 0 0 .747-8.666h-2Zm-.72 8.336a21.97 21.97 0 0 1-2.757 7.615l1.727 1.01a23.969 23.969 0 0 0 3.005-8.304l-1.974-.321Zm-2.747 7.6c-.43.707-.924 1.401-1.483 2.084l1.548 1.266c.614-.75 1.162-1.52 1.643-2.31l-1.708-1.04Zm-1.468 2.066a12.17 12.17 0 0 1-1.805 1.715l1.223 1.583c.77-.595 1.47-1.26 2.1-1.996l-1.518-1.302Zm-1.844 1.747a6.803 6.803 0 0 1-2.004 1.193l.718 1.867a8.803 8.803 0 0 0 2.587-1.541l-1.302-1.519Zm-2.047 1.211c-.684.301-1.41.453-2.186.453v2a7.356 7.356 0 0 0 2.991-.622l-.805-1.83Zm-2.186.453c-1.266 0-2.328-.3-3.222-.87l-1.074 1.688c1.254.798 2.698 1.182 4.296 1.182v-2Zm-3.23-.874c-.924-.578-1.743-1.349-2.455-2.328l-1.617 1.177c.85 1.169 1.854 2.123 3.013 2.847l1.06-1.696Zm-2.435-2.3a17.085 17.085 0 0 1-1.799-3.507l-1.868.712a19.082 19.082 0 0 0 2.01 3.916l1.657-1.121Zm-1.789-3.48a31.902 31.902 0 0 1-1.136-4.12l-1.96.402a33.897 33.897 0 0 0 1.208 4.377l1.888-.659Zm-1.131-4.094a51.979 51.979 0 0 1-.575-4.168l-1.991.19c.133 1.396.332 2.84.597 4.328l1.969-.35Zm-.573-4.144a50.477 50.477 0 0 1-.144-3.542h-2c0 1.072.05 2.3.149 3.684l1.995-.142Zm-.144-3.542c0-1.145.047-2.407.144-3.788l-1.995-.139a56.724 56.724 0 0 0-.15 3.927h2Zm.144-3.788a50.05 50.05 0 0 1 .479-4.213l-1.977-.307a52.07 52.07 0 0 0-.497 4.381l1.995.14Zm.475-4.191c.255-1.435.574-2.855.957-4.258l-1.93-.526a50.3 50.3 0 0 0-.996 4.434l1.969.35Zm.951-4.238a20.891 20.891 0 0 1 1.537-3.821l-1.77-.932a22.896 22.896 0 0 0-1.685 4.187l1.918.566Zm1.542-3.83a13.8 13.8 0 0 1 2.185-3.144l-1.462-1.364a15.8 15.8 0 0 0-2.502 3.595l1.78.912Zm2.196-3.156a9.337 9.337 0 0 1 2.87-2.163l-.876-1.799a11.336 11.336 0 0 0-3.478 2.622l1.484 1.34Zm1.432-3.063v.05h2v-.05h-2Zm1.47.932c.916-.487 1.797-.713 2.655-.713v-2c-1.226 0-2.427.327-3.594.947l.938 1.766Zm2.655-.713c.513 0 .761.116.88.213l1.267-1.547c-.597-.489-1.358-.666-2.147-.666v2Zm.925.248c.002.001.017.008.038.065.024.07.052.207.04.444l1.998.1c.04-.818-.154-1.684-.9-2.226l-1.176 1.617Zm.898 1.543c1.556.283 2.787 1.02 3.74 2.224l1.569-1.24c-1.26-1.595-2.927-2.584-4.951-2.952l-.358 1.968Zm3.74 2.224c1.025 1.296 1.817 2.813 2.37 4.564l1.907-.603c-.619-1.96-1.52-3.698-2.708-5.202l-1.569 1.24Zm2.375 4.579a25.278 25.278 0 0 1 1.174 5.496l1.99-.2a27.28 27.28 0 0 0-1.267-5.929l-1.897.633Zm1.176 5.512c.225 1.928.335 3.58.335 4.962h2c0-1.482-.118-3.215-.348-5.194l-1.987.232Zm-9.7-8.245c-.273 0-.569-.097-.908-.39l-1.31 1.511c.639.553 1.385.88 2.218.88v-2Zm-2.399-.182c-.67 1.024-1.226 2.192-1.672 3.495l1.892.648c.4-1.17.887-2.183 1.453-3.047l-1.673-1.096Zm-1.67 3.488a28.745 28.745 0 0 0-1.062 3.895l1.961.392c.252-1.258.581-2.466.989-3.624l-1.888-.663Zm-1.066 3.914a38.835 38.835 0 0 0-.5 3.96l1.994.15c.095-1.27.253-2.521.475-3.756l-1.969-.354Zm-.5 3.96a50.15 50.15 0 0 0-.15 3.736h2c0-1.11.047-2.306.144-3.587l-1.995-.15Zm-.15 3.736c0 .975.05 2.22.148 3.728l1.996-.13c-.097-1.487-.144-2.684-.144-3.597h-2Zm.148 3.73c.1 1.5.284 3.016.55 4.547l1.97-.342a41.391 41.391 0 0 1-.524-4.339l-1.995.133Zm.554 4.568c.303 1.546.707 3 1.217 4.358l1.873-.702a25.367 25.367 0 0 1-1.127-4.04l-1.963.384Zm1.225 4.378c.564 1.41 1.323 2.544 2.325 3.306l1.21-1.592c-.625-.475-1.2-1.262-1.678-2.456l-1.857.742Zm3.432 3.375c1.209-.702 2.16-1.79 2.878-3.192l-1.78-.913c-.582 1.138-1.292 1.905-2.102 2.375l1.004 1.73Zm2.874-3.183a20.447 20.447 0 0 0 1.695-4.466l-1.938-.495a18.459 18.459 0 0 1-1.528 4.031l1.77.93Zm1.695-4.466a29.17 29.17 0 0 0 .809-4.803l-1.993-.166a27.169 27.169 0 0 1-.754 4.474l1.938.495Zm.807-4.782c.165-1.584.25-2.956.25-4.108h-2c0 1.061-.079 2.36-.24 3.9l1.99.208Zm.25-4.108c0-.849-.052-1.934-.15-3.248l-1.995.15c.097 1.29.144 2.32.144 3.098h2Zm-.15-3.248a43.306 43.306 0 0 0-.5-4.049l-1.971.337c.223 1.304.381 2.592.477 3.861l1.994-.15Zm-.5-4.045a22.702 22.702 0 0 0-1.022-3.984l-1.88.68c.4 1.108.711 2.319.93 3.633l1.973-.33Zm-1.013-3.96c-.421-1.263-.996-2.309-1.775-3.047l-1.376 1.452c.458.433.893 1.146 1.253 2.227l1.898-.633Zm-2.779-3.27c-.161.054-.405.095-.758.095v2c.494 0 .966-.056 1.39-.197l-.632-1.898Zm20.531 24.924-1-.025v.025h1Zm.098 4.296-1 .042.078 1.858 1.507-1.089-.585-.81Zm.879-.634-.537-.844-.025.016-.024.017.586.81Zm.537-.342.537.844.044-.029.041-.033-.622-.782Zm4.15-4.639-.839-.544-.002.003.841.541Zm4.688-12.305-.985-.173-.002.011.987.162Zm.537-7.91h-1v.024l.001.024.999-.048Zm-.782-3.857-.894.447.006.012.006.011.882-.47Zm-3.515.635-.758-.653.758.653Zm-2.295 3.369-.876-.482-.005.008-.004.009.885.465ZM96.48 44.17l.92.391.003-.008-.923-.383Zm-1.221 3.076-.945-.328-.055.16v.168h1Zm-.05.049v-1h-1v1h1Zm0 .098.92.393.08-.188v-.205h-1Zm-.634 1.464-.916-.4-.01.024-.01.025.936.351Zm-.537 3.028.998.059v-.004l-.998-.055Zm-.049 2.734h-1v.056l.006.055.994-.11Zm.05 1.856h-1v.055l.005.055.994-.11Zm-2.003 46.923.266-.964-.016-.004-.015-.004-.235.972Zm-2.246-1.318-.814.581.025.035.027.032.762-.648Zm-.488-2.002-.993.117.001.014.002.015.99-.146Zm-.39-3.906.995-.087v-.002l-.996.089Zm-.343-4.59.998-.061v-.001l-.998.062Zm-.293-4.15-.997.075v.005l.997-.08Zm-.195-2.588-.998.056v.019l.998-.075Zm-.39-32.862-1-.04v.007l1 .033Zm.488-11.962.999.04v-.002l-1-.038Zm.195-5.127 1 .038v-.038h-1Zm0-1.514-.998-.063-.002.032v.03h1Zm.195-1.514-.933-.359-.03.08-.017.083.98.196Zm.586-.976.707.707-.707-.707Zm4.297.879-.793.61.006.007.006.007.781-.624Zm1.123 3.027-.997.08.219 2.69 1.587-2.182-.809-.588Zm3.711-3.418-.5-.866-.009.005.51.861Zm9.033-.195-.554.832.011.007.543-.84Zm2.637 2.783-.868.496.006.01.862-.506Zm1.367 3.76-.983.182.003.014.002.013.978-.21Zm-.244 11.767.984.177.001-.002-.985-.175Zm-2.148 7.422-.927-.376-.003.007.93.37Zm-3.614 6.787.823.57.004-.007-.827-.563Zm-5.175 5.664-.642-.767-.008.007-.009.008.659.752Zm-2.051 1.465-.504-.864.504.864Zm-1.22.586-.36-.933-.013.005-.012.005.384.923Zm-2.686-.586.759-.65-1.841-2.148.082 2.827 1-.029Zm.244 6.983-1 .04.001.014.999-.055Zm.44 7.226.997-.067-.998.067Zm.585 7.227-.995.095.001.014.994-.11Zm.928 6.884-.987.16.005.033.007.032.975-.225Zm.244 1.319-.99.141.004.028.005.027.981-.196Zm-3.54-43.164c0 1.555-.015 2.98-.048 4.272l2 .05c.032-1.312.049-2.753.049-4.322h-2Zm-.048 4.297c0 1.318.033 2.764.099 4.338l1.998-.083c-.065-1.552-.097-2.97-.097-4.255h-2Zm1.683 5.107.88-.635-1.172-1.621-.879.635 1.171 1.621Zm.83-.602.538-.341-1.074-1.688-.537.342 1.073 1.687Zm.623-.403c1.686-1.341 3.142-2.971 4.369-4.88l-1.682-1.082c-1.117 1.737-2.428 3.2-3.932 4.398l1.245 1.564Zm4.367-4.876a31.497 31.497 0 0 0 3.076-6.102l-1.873-.702a29.469 29.469 0 0 1-2.88 5.715l1.677 1.089Zm3.076-6.102a34.692 34.692 0 0 0 1.759-6.585l-1.973-.325a32.75 32.75 0 0 1-1.659 6.208l1.873.702Zm1.757-6.574c.4-2.263.602-4.421.602-6.472h-2c0 1.92-.189 3.961-.571 6.125l1.969.347Zm.602-6.472c0-.414-.018-.97-.05-1.66l-1.998.096c.032.678.048 1.196.048 1.564h2Zm-.049-1.612c0-.777-.071-1.54-.213-2.286l-1.965.374c.118.62.178 1.257.178 1.912h2Zm-.213-2.286c-.145-.759-.368-1.445-.686-2.042l-1.765.941c.203.38.37.866.486 1.475l1.965-.374Zm-.674-2.018a2.512 2.512 0 0 0-.8-.96 2.1 2.1 0 0 0-1.218-.374v2c.033 0 .05.004.056.006a.064.064 0 0 1 .02.01c.017.012.077.06.153.212l1.789-.894Zm-2.018-1.334c-1.208 0-2.257.728-3.15 1.763l1.515 1.306c.736-.853 1.281-1.07 1.635-1.07v-2Zm-3.15 1.763c-.867 1.005-1.67 2.188-2.413 3.54l1.752.964c.689-1.253 1.416-2.316 2.176-3.198l-1.515-1.306Zm-2.422 3.557a49.363 49.363 0 0 0-1.894 4.037l1.847.766a47.362 47.362 0 0 1 1.817-3.873l-1.77-.93Zm-1.89 4.029c-.557 1.31-.974 2.358-1.246 3.139l1.89.657c.249-.718.645-1.72 1.196-3.014l-1.84-.782Zm-1.301 3.467c0-.138.035-.425.28-.67a.952.952 0 0 1 .67-.281v2c.171 0 .483-.043.745-.305.261-.262.305-.574.305-.744h-2Zm.95.049h-1V47.344h2V47.294h-1Zm-1 .049v.049h2v-.05h-2Zm.082-.345a213.8 213.8 0 0 1-.632 1.458l1.832.801c.23-.523.442-1.013.638-1.472L94.292 47Zm-.652 1.507a8.03 8.03 0 0 0-.444 1.675l1.98.283c.052-.371.162-.789.337-1.255l-1.873-.703Zm-.444 1.675c-.07.49-.122 1.041-.155 1.648l1.996.111a17.39 17.39 0 0 1 .138-1.476l-1.98-.283Zm-.155 1.645c-.034.575-.05 1.18-.05 1.817h2c0-.602.015-1.168.046-1.7l-1.996-.117Zm-.05 1.817V54.619h2V53.643h-2Zm.005 1.087c.03.26.043.5.043.72h2c0-.303-.019-.616-.055-.941l-1.988.22Zm.043.72V56.474h2V55.449h-2Zm.006 1.135c.03.261.043.5.043.72h2c0-.302-.019-.616-.055-.94l-1.988.22Zm2.728 45.349c0 .274-.038.44-.075.532-.031.079-.058.096-.065.1l1.11 1.664c.793-.529 1.03-1.431 1.03-2.296h-2Zm-.14.632c-.174.116-.48.223-1.008.223v2c.775 0 1.51-.154 2.117-.559l-1.11-1.664Zm-1.008.223c-.672 0-1.444-.112-2.322-.355l-.532 1.928c1.01.279 1.964.427 2.854.427v-2Zm-2.353-.363c-.768-.185-1.321-.525-1.719-.994l-1.524 1.296c.709.833 1.653 1.372 2.773 1.643l.47-1.945Zm-1.667-.927c.036.05.032.063.004-.014a3.127 3.127 0 0 1-.09-.313c-.072-.291-.148-.7-.227-1.24l-1.979.292c.084.567.17 1.045.262 1.422.08.328.196.727.402 1.015l1.628-1.162Zm-.31-1.538a130.74 130.74 0 0 1-.387-3.876l-1.992.174c.13 1.504.262 2.816.394 3.936l1.986-.234Zm-.387-3.878c-.13-1.455-.242-2.975-.34-4.562l-1.996.122c.098 1.604.213 3.143.344 4.617l1.992-.177Zm-.34-4.563a230.19 230.19 0 0 0-.294-4.17l-1.993.163c.097 1.196.194 2.573.291 4.131l1.996-.124Zm-.293-4.164-.196-2.587-1.994.15.195 2.588 1.995-.15Zm-.195-2.568a372.186 372.186 0 0 1-.584-20.843h-2c0 6.985.196 13.97.588 20.955l1.996-.112Zm-.584-20.843c0-4.058.065-8.035.195-11.93l-1.999-.066c-.13 3.918-.196 7.917-.196 11.996h2Zm.195-11.921c.162-3.94.325-7.927.488-11.964l-1.999-.08c-.162 4.035-.325 8.023-.488 11.961l1.999.083Zm.488-11.966.195-5.127-1.998-.076-.196 5.127 1.999.076Zm.196-5.165V33.379h-2V34.893h2Zm-.002-1.452c.03-.478.09-.938.178-1.38l-1.961-.392a12.32 12.32 0 0 0-.213 1.647l1.996.125Zm.13-1.217c.132-.342.263-.53.36-.628l-1.414-1.414c-.358.358-.618.82-.812 1.324l1.867.718Zm.36-.628c.001-.001.022-.023.099-.048.08-.026.213-.05.415-.05v-2c-.687 0-1.404.16-1.928.684l1.414 1.414Zm.514-.098c1.194 0 1.878.352 2.284.88l1.585-1.22c-.896-1.165-2.264-1.66-3.869-1.66v2Zm2.295.894c.508.635.823 1.445.907 2.484l1.994-.162c-.111-1.37-.544-2.578-1.339-3.571l-1.562 1.25Zm2.713 2.991c.966-1.329 2.104-2.373 3.41-3.145l-1.017-1.722c-1.557.92-2.894 2.155-4.01 3.69l1.617 1.177Zm3.402-3.14c1.296-.749 2.796-1.136 4.529-1.136v-2c-2.042 0-3.895.46-5.53 1.404l1.001 1.732Zm4.529-1.136c1.445 0 2.575.323 3.45.907l1.109-1.664c-1.273-.85-2.813-1.243-4.559-1.243v2Zm3.461.914c.973.63 1.74 1.44 2.312 2.44l1.736-.992a8.99 8.99 0 0 0-2.961-3.127l-1.087 1.68Zm2.318 2.45c.586.997 1.005 2.139 1.246 3.437l1.966-.366c-.279-1.502-.772-2.867-1.488-4.084l-1.724 1.014Zm1.251 3.463c.279 1.302.418 2.582.418 3.843h2c0-1.408-.155-2.83-.462-4.262l-1.956.42Zm.418 3.843c0 2.512-.223 5.026-.669 7.54l1.97.35a45.11 45.11 0 0 0 .699-7.89h-2Zm-.668 7.538a36.217 36.217 0 0 1-2.091 7.223l1.853.752a38.15 38.15 0 0 0 2.206-7.621l-1.968-.353Zm-2.094 7.23a33.857 33.857 0 0 1-3.51 6.593l1.653 1.127a35.922 35.922 0 0 0 3.716-6.982l-1.859-.738Zm-3.506 6.587a27.49 27.49 0 0 1-4.995 5.466l1.283 1.534a29.521 29.521 0 0 0 5.357-5.862l-1.645-1.138Zm-5.012 5.48c-.233.204-.517.43-.857.677l1.176 1.617c.376-.273.71-.536.998-.788l-1.317-1.505Zm-.857.677c-.33.24-.677.466-1.04.677l1.009 1.728c.419-.245.821-.507 1.207-.788l-1.176-1.617Zm-1.04.677a7.41 7.41 0 0 1-1.075.517l.718 1.866c.473-.182.929-.4 1.366-.655l-1.008-1.728Zm-1.1.527c-.304.126-.53.167-.69.167v2c.49 0 .981-.122 1.459-.32l-.77-1.847Zm-.69.167c-.202 0-.321-.044-.398-.092l-1.06 1.696c.444.278.944.396 1.458.396v-2Zm-.398-.092a1.962 1.962 0 0 1-.454-.389l-1.519 1.302c.263.306.569.568.913.783l1.06-1.696Zm-2.213.291c.065 2.25.147 4.582.244 6.994l1.999-.081a605.575 605.575 0 0 1-.244-6.97l-1.999.057Zm.245 7.008c.13 2.413.277 4.826.44 7.24l1.996-.135a536.498 536.498 0 0 1-.439-7.213l-1.997.108Zm.44 7.239c.164 2.45.36 4.869.589 7.255l1.99-.19a249.101 249.101 0 0 1-.583-7.199l-1.996.134Zm.59 7.269c.262 2.392.574 4.704.935 6.935l1.974-.32a134.72 134.72 0 0 1-.92-6.833l-1.989.218Zm.947 7c.091.394.168.806.229 1.235l1.98-.283c-.069-.482-.155-.95-.26-1.401l-1.949.45Zm.238 1.29c.085.425.127.847.127 1.269h2c0-.556-.055-1.11-.165-1.661l-1.962.392Zm37.114-36.573-.883-.47-.006.011-.006.012.895.447Zm-2.051 2.88.707.708.007-.007.006-.007-.72-.693Zm-2.93 2.1-.447-.894-.011.005.458.89Zm-7.177-.049-.488.873.01.006.01.005.468-.884Zm-2.881-2.441-.788.616.004.006.005.006.779-.628Zm-2.002-3.516-.937.351.004.01.004.01.929-.37Zm-1.172-4.004-.979.205.001.005.978-.21Zm-.635-4.15-.997.07v.012l.002.013.995-.095Zm0-7.275-.995-.097-.001.012-.001.012.997.073Zm.586-4.15-.98-.201-.002.01-.002.011.984.18Zm1.172-4.249-.944-.33.944.33Zm1.807-3.76-.829-.56-.005.009-.006.008.84.543Zm2.636-2.685-.548-.836-.007.004-.006.004.561.828Zm6.348-.39-.461.887.007.003.007.004.447-.895Zm2.1 1.708-.792.612.016.02.016.02.76-.652Zm1.318 2.393-.952.306.005.015.005.015.942-.336Zm-2.686 11.328-.829-.56-.004.008-.005.006.838.546Zm-3.125 3.809.697.717-.697-.717Zm-3.418 2.539-.457-.89-.613.316.077.684.993-.11Zm.391 2.588-.986.169.001.004.985-.173Zm.781 3.32-.959.282.004.013.004.013.951-.308Zm1.221 2.88-.873.49.008.012.007.013.858-.514Zm2.539.928-.6-.8-.026.02-.025.021.651.76Zm1.172-1.855-.923-.385-.014.034-.012.035.949.316Zm.439-1.123-.919-.394-.011.026-.009.026.939.342Zm.293-.684-.832-.554-.051.076-.036.084.919.394Zm.098-.195-.707-.707-.293.293v.414h1Zm.098-.146-.881-.474-.007.013-.007.013.895.448Zm.634-1.172-.843-.537-.018.028-.016.03.877.479Zm.928-.928.555.832 2.748-1.832h-3.303v1Zm-.049 0-.707-.707-1.707 1.707h2.414v-1Zm.391-.195v1h.099l.097-.02-.196-.98Zm2.783 1.172-.707.707.017.017.017.016.673-.74Zm.879 1.123-.88.474.008.015.008.014.864-.503Zm-9.619-22.315.894-.447-.688-1.376-.978 1.187.772.636Zm-1.221 2.002-.909-.417-.004.01-.004.008.917.4Zm-.83 2.393.963.27.003-.01-.966-.26Zm-.586 2.49-.982-.189-.003.018-.003.019.988.152Zm-.293 2.344-.996-.09-.289 3.178 2.051-2.446-.766-.642Zm2.246-3.418.89.456.005-.01-.895-.446Zm9.645 17.675c0 .783-.221 1.632-.713 2.559l1.766.938c.614-1.156.947-2.326.947-3.497h-2Zm-.725 2.58a10.658 10.658 0 0 1-1.876 2.635l1.44 1.387a12.657 12.657 0 0 0 2.225-3.127l-1.789-.894Zm-1.863 2.622a10.183 10.183 0 0 1-2.67 1.912l.895 1.789a12.19 12.19 0 0 0 3.189-2.287l-1.414-1.415Zm-2.681 1.917c-.95.49-1.868.72-2.764.72v2c1.252 0 2.482-.325 3.68-.942l-.916-1.778Zm-2.764.72c-1.403 0-2.554-.269-3.488-.763l-.935 1.767c1.279.678 2.765.995 4.423.995v-2Zm-3.468-.753a8.846 8.846 0 0 1-2.59-2.196l-1.557 1.256a10.854 10.854 0 0 0 3.172 2.686l.975-1.746Zm-2.58-2.184a13.278 13.278 0 0 1-1.862-3.271l-1.857.743a15.286 15.286 0 0 0 2.143 3.76l1.576-1.232Zm-1.854-3.25a27.129 27.129 0 0 1-1.13-3.863l-1.956.419a29.29 29.29 0 0 0 1.213 4.145l1.873-.702Zm-1.129-3.858a36.492 36.492 0 0 1-.618-4.04l-1.991.189c.133 1.406.351 2.826.651 4.26l1.958-.41Zm-.616-4.015a53.786 53.786 0 0 1-.144-3.74h-2c0 1.168.05 2.46.149 3.879l1.995-.14Zm-.144-3.74c0-.945.047-2.075.143-3.393l-1.994-.146a49.27 49.27 0 0 0-.149 3.54h2Zm.141-3.37a50.07 50.07 0 0 1 .575-4.068l-1.968-.358a51.731 51.731 0 0 0-.597 4.233l1.99.194Zm.571-4.046c.284-1.388.662-2.761 1.136-4.12l-1.888-.658a33.868 33.868 0 0 0-1.208 4.377l1.96.4Zm1.136-4.12c.465-1.333 1.034-2.513 1.702-3.545l-1.679-1.087c-.764 1.182-1.4 2.508-1.911 3.974l1.888.659Zm1.691-3.528c.684-1.012 1.475-1.813 2.369-2.418l-1.122-1.656c-1.124.762-2.091 1.751-2.904 2.953l1.657 1.12Zm2.357-2.41c.867-.569 1.862-.861 3.016-.861v-2c-1.515 0-2.897.39-4.113 1.189l1.097 1.672Zm3.016-.861c.903 0 1.669.182 2.322.522l.922-1.775c-.974-.507-2.064-.747-3.244-.747v2Zm2.336.529a5.001 5.001 0 0 1 1.755 1.426l1.583-1.223a7.005 7.005 0 0 0-2.444-1.992l-.894 1.789Zm1.787 1.465a5.857 5.857 0 0 1 1.126 2.048l1.904-.612a7.85 7.85 0 0 0-1.511-2.737l-1.519 1.301Zm1.136 2.078c.287.803.43 1.633.43 2.496h2c0-1.09-.182-2.148-.546-3.168l-1.884.672Zm.43 2.496c0 1.116-.258 2.375-.81 3.786l1.863.729c.619-1.584.947-3.093.947-4.515h-2Zm-.81 3.786a21.296 21.296 0 0 1-2.193 4.15l1.658 1.12a23.297 23.297 0 0 0 2.398-4.541l-1.863-.73Zm-2.202 4.164a21.128 21.128 0 0 1-2.984 3.638l1.394 1.434a23.103 23.103 0 0 0 3.266-3.98l-1.676-1.092Zm-2.983 3.637c-1.085 1.054-2.146 1.836-3.179 2.367l.915 1.779c1.245-.64 2.463-1.551 3.657-2.711l-1.393-1.435Zm-3.715 3.367c.068.616.202 1.502.398 2.647l1.972-.338a47.201 47.201 0 0 1-.383-2.53l-1.987.221Zm.399 2.651c.202 1.145.471 2.288.807 3.43l1.919-.565a29.306 29.306 0 0 1-.756-3.212l-1.97.347Zm.815 3.455c.373 1.154.805 2.178 1.299 3.061l1.745-.977c-.416-.744-.799-1.641-1.141-2.7l-1.903.616Zm1.314 3.087c.579.965 1.419 1.706 2.567 1.706v-2c-.154 0-.454-.072-.852-.735l-1.715 1.03Zm2.567 1.706c.542 0 1.056-.169 1.481-.533l-1.302-1.519c-.03.027-.07.053-.179.053v2Zm1.43-.492c.38-.285.69-.649.941-1.067l-1.715-1.03c-.14.233-.285.39-.426.496l1.2 1.6Zm.941-1.067c.236-.393.428-.819.58-1.273l-1.898-.632a4.38 4.38 0 0 1-.397.876l1.715 1.029Zm.554-1.204c.168-.404.32-.792.456-1.166l-1.879-.684c-.125.342-.266.702-.423 1.08l1.846.77Zm.436-1.114.292-.684-1.838-.788-.293.684 1.839.788Zm.205-.523c.044-.065.093-.144.136-.23.02-.04.13-.249.13-.52h-2a.896.896 0 0 1 .081-.374c.01-.02.011-.018-.011.015l1.664 1.11Zm-.027-.043c.14-.14.229-.294.285-.406l-1.789-.895.014-.022a.612.612 0 0 1 .076-.091l1.414 1.414Zm.271-.38c.227-.421.438-.81.632-1.166l-1.755-.958c-.197.36-.409.752-.638 1.177l1.761.948Zm.598-1.108a2.16 2.16 0 0 1 .639-.633l-1.11-1.664c-.494.33-.906.735-1.216 1.223l1.687 1.074Zm.084-2.465h-.049v2h.049v-2Zm.658 1.707c.022-.021-.088.098-.316.098v-2c-.489 0-.859.249-1.098.488l1.414 1.414Zm-.12.078c.115-.023.194-.03.243-.03v-2a3.24 3.24 0 0 0-.635.07l.392 1.96Zm.243-.03c.146 0 .373.048.698.223l.948-1.76c-.521-.281-1.075-.462-1.646-.462v2Zm.698.223c.333.18.646.413.939.706l1.414-1.415a6.001 6.001 0 0 0-1.405-1.052l-.948 1.761Zm.973.739a3.2 3.2 0 0 1 .672.857l1.761-.948a5.205 5.205 0 0 0-1.087-1.39l-1.346 1.48Zm.688.886c.153.263.206.481.206.669h2c0-.594-.175-1.157-.478-1.676l-1.728 1.007Zm-7.462-20.865c0-.358-.018-.73-.053-1.116l-1.992.181c.03.331.045.643.045.935h2Zm-.053-1.116a3.563 3.563 0 0 0-.346-1.284l-1.789.894c.064.126.119.31.143.571l1.992-.18Zm-2.012-1.473c-.52.632-.971 1.377-1.358 2.221l1.818.834c.329-.718.693-1.308 1.084-1.783l-1.544-1.272Zm-1.366 2.24a18.185 18.185 0 0 0-.878 2.53l1.931.52c.216-.802.477-1.553.781-2.253l-1.834-.798Zm-.876 2.521a32.065 32.065 0 0 0-.605 2.571l1.964.378c.158-.82.347-1.623.567-2.41l-1.926-.539Zm-.611 2.608a39.726 39.726 0 0 0-.301 2.405l1.992.181c.063-.692.158-1.452.286-2.282l-1.977-.304Zm1.461 3.138a19.203 19.203 0 0 0 2.37-3.604l-1.78-.913a17.199 17.199 0 0 1-2.122 3.232l1.532 1.285Zm2.375-3.613c.71-1.42 1.082-2.859 1.082-4.305h-2c0 1.093-.279 2.227-.871 3.41l1.789.895Zm28.109-8.65-.664-.748-.022.02-.021.02.707.707Zm-.976.683.384.923.032-.013.031-.015-.447-.895Zm-1.221.342-.152-.989-.012.002.164.987Zm-2.1 0-.263.965.042.011.042.008.179-.984Zm-2.099-.537-.288.958.045.013.047.01.196-.981Zm-4.785 1.855-.852-.524-.015.025-.014.025.881.474Zm.146 3.76-.923.385.003.007.003.007.917-.399Zm1.27 2.295-.832.555.007.011.009.012.816-.578Zm1.855 2.393-.766.643.014.016.015.016.737-.675Zm2.246 2.392.741-.671-.01-.011-.009-.01-.722.692Zm2.832 3.174-.751.66.006.006.005.007.74-.673Zm2.588 3.37-.843.538.006.008.005.008.832-.555Zm1.904 3.71-.936.351.936-.351Zm.098 7.422-.918-.398-.005.013-.005.014.928.37Zm-1.709 2.49-.674-.738-.008.007-.008.008.69.723Zm-2.637 1.563-.325-.946-.018.006-.018.007.361.933Zm-4.834.39-.196.98.009.003.187-.983Zm-2.246-.537-.294.956.017.005.017.005.26-.966Zm-2.636-.83-.317.949.011.003.306-.952Zm-2.442-.928-.447.895.024.012.024.01.399-.917Zm-1.807-1.025-.617.786.03.024.033.022.554-.832Zm-.146-2.149.737.676.014-.014.012-.016-.763-.646Zm1.27-1.123.554.832.019-.012.018-.013-.591-.806Zm1.513-.878-.381-.925-.01.004-.01.004.401.917Zm2.881 0-.401.916.01.004.01.004.381-.924Zm1.66.78-.468.885h.002l.466-.884Zm1.856.88-.388.921.008.004.008.003.372-.928Zm2.881-.147-.965-.263-.012.042-.007.042.984.18Zm-.44-4.443-.936.351.004.01.932-.361Zm-3.662-5.86-.757.654.005.006.006.007.746-.667Zm-2.441-2.783.746-.666-.007-.007-.007-.007-.732.68Zm-2.491-2.734-.759.65.007.008.006.008.746-.666Zm-2.099-2.783-.845.535.004.006.004.007.837-.548Zm-1.514-2.979-.942.335.004.013.005.013.933-.36Zm.391-6.982.873.488.006-.011-.879-.477Zm2.392-2.93-.627-.778-.007.005-.006.005.64.768Zm3.369-1.855.324.946.007-.003.007-.002-.338-.941Zm5.762-.391-.217.976.018.004.017.003.182-.983Zm4.811 3.418c0 .104-.024.158-.104.23l1.329 1.494c.505-.45.775-1.047.775-1.724h-2Zm-.147.27c-.172.171-.405.34-.717.496l.895 1.789a4.717 4.717 0 0 0 1.236-.871l-1.414-1.415Zm-.654.467a4.232 4.232 0 0 1-.988.277l.304 1.976a6.225 6.225 0 0 0 1.453-.407l-.769-1.846Zm-1 .279c-.362.06-.628.084-.813.084v2c.336 0 .721-.042 1.141-.112l-.328-1.973Zm-.813.084c-.335 0-.649-.028-.944-.082l-.358 1.968c.422.076.856.114 1.302.114v-2Zm-.86-.063-.268-.073-.269-.073-.537-.147-.526 1.93.269.073.268.073.537.147.526-1.93Zm-1.074-.293c-.377-.103-.742-.19-1.092-.26l-.392 1.961c.3.06.62.136.958.229l.526-1.93Zm-1.001-.237a4.548 4.548 0 0 0-1.313-.189v2c.266 0 .511.036.738.105l.575-1.916Zm-1.313-.189c-.601 0-1.196.1-1.781.296l.633 1.897c.392-.13.773-.193 1.148-.193v-2Zm-1.781.296a5.613 5.613 0 0 0-1.602.832l1.2 1.6c.3-.225.643-.404 1.035-.535l-.633-1.897Zm-1.602.832a4.85 4.85 0 0 0-1.228 1.35l1.703 1.048c.196-.318.437-.582.725-.798l-1.2-1.6Zm-1.257 1.4a3.935 3.935 0 0 0-.461 1.89h2c0-.37.079-.676.222-.942l-1.761-.948Zm-.461 1.89c0 .924.193 1.836.565 2.729l1.846-.77a5.053 5.053 0 0 1-.411-1.959h-2Zm.571 2.743c.352.81.806 1.627 1.355 2.45l1.664-1.109a13.805 13.805 0 0 1-1.185-2.139l-1.834.798Zm1.371 2.474c.57.806 1.206 1.625 1.905 2.458l1.532-1.287A35.84 35.84 0 0 1 143 43.006l-1.632 1.156Zm1.934 2.49c.722.788 1.476 1.59 2.262 2.41l1.443-1.385c-.777-.809-1.52-1.6-2.231-2.376l-1.474 1.351Zm2.242 2.389a275.039 275.039 0 0 1 2.822 3.162l1.502-1.32a271.38 271.38 0 0 0-2.842-3.185l-1.482 1.343Zm2.833 3.175a24.108 24.108 0 0 1 2.485 3.234l1.686-1.076a26.133 26.133 0 0 0-2.691-3.504l-1.48 1.346Zm2.496 3.25a17.191 17.191 0 0 1 1.8 3.508l1.873-.702a19.211 19.211 0 0 0-2.009-3.915l-1.664 1.11Zm1.8 3.508c.445 1.187.669 2.435.669 3.75h2a12.6 12.6 0 0 0-.796-4.452l-1.873.702Zm.669 3.75c0 1.123-.192 2.091-.553 2.923l1.836.795c.485-1.12.717-2.366.717-3.717h-2Zm-.563 2.95a5.687 5.687 0 0 1-1.455 2.123l1.348 1.477a7.68 7.68 0 0 0 1.964-2.858l-1.857-.742Zm-1.471 2.138c-.601.573-1.351 1.023-2.272 1.34l.65 1.891c1.163-.4 2.171-.99 3.003-1.785l-1.381-1.446ZM149 69.165c-.881.341-1.864.519-2.959.519v2c1.314 0 2.545-.214 3.681-.654L149 69.165Zm-2.959.519c-.225 0-.651-.05-1.327-.178l-.374 1.965c.692.132 1.275.213 1.701.213v-2Zm-1.318-.176a34.855 34.855 0 0 1-2.182-.522l-.52 1.93c.862.233 1.632.417 2.31.553l.392-1.961Zm-2.148-.513c-.842-.259-1.717-.534-2.624-.826l-.612 1.904c.915.294 1.798.572 2.648.834l.588-1.912Zm-2.614-.823a28.56 28.56 0 0 1-2.359-.896l-.798 1.834c.779.34 1.621.659 2.524.96l.633-1.898Zm-2.311-.873a16.061 16.061 0 0 1-1.699-.963L134.842 68c.532.355 1.173.717 1.914 1.088l.894-1.79Zm-1.636-.917a1.595 1.595 0 0 1-.311-.3c-.037-.053.01-.01.01.11h-2c0 .795.582 1.383 1.066 1.762l1.235-1.572Zm-.301-.19c0-.063.024-.224.274-.497l-1.474-1.351c-.466.508-.8 1.129-.8 1.847h2Zm.3-.526c.295-.348.646-.66 1.061-.938l-1.109-1.664a7.026 7.026 0 0 0-1.478 1.31l1.526 1.291Zm1.098-.963a6.958 6.958 0 0 1 1.323-.77l-.802-1.832c-.592.26-1.16.59-1.704.99l1.183 1.612Zm1.303-.76c.503-.208.818-.267.986-.267v-2c-.547 0-1.144.168-1.748.417l.762 1.85Zm.986-.267c.33 0 .698.076 1.113.258l.802-1.833c-.627-.274-1.268-.425-1.915-.425v2Zm1.133.266c.523.215 1.047.462 1.573.74l.936-1.767a20.034 20.034 0 0 0-1.747-.822l-.762 1.85Zm1.575.742a24.91 24.91 0 0 0 1.934.915l.776-1.843a22.857 22.857 0 0 1-1.778-.842l-.932 1.77Zm1.95.922a6.35 6.35 0 0 0 2.374.462v-2a4.348 4.348 0 0 1-1.631-.319l-.743 1.857Zm2.374.462c.356 0 .767-.058 1.131-.28.406-.249.651-.637.731-1.078l-1.967-.358a.44.44 0 0 1 .194-.272c.039-.023.059-.025.044-.022a.66.66 0 0 1-.133.01v2Zm1.843-1.274c.126-.46.182-.958.182-1.483h-2c0 .386-.042.702-.111.957l1.929.526Zm.182-1.483a9.859 9.859 0 0 0-.653-3.584l-1.865.722c.343.888.518 1.84.518 2.861h2Zm-.65-3.574a17.382 17.382 0 0 0-1.605-3.212l-1.689 1.07c.583.921 1.056 1.87 1.422 2.844l1.872-.702Zm-1.605-3.212a22.617 22.617 0 0 0-2.247-2.962l-1.492 1.331a20.717 20.717 0 0 1 2.05 2.702l1.689-1.07Zm-2.236-2.95c-.817-.948-1.635-1.88-2.452-2.796l-1.492 1.332c.81.907 1.619 1.83 2.43 2.77l1.514-1.305Zm-2.466-2.81a192.318 192.318 0 0 1-2.477-2.72l-1.492 1.332c.819.916 1.653 1.833 2.504 2.749l1.465-1.361Zm-2.463-2.705a26.191 26.191 0 0 1-2.023-2.68l-1.673 1.096c.644.982 1.37 1.944 2.177 2.886l1.519-1.302Zm-2.014-2.667a16.077 16.077 0 0 1-1.426-2.805l-1.866.722a18.14 18.14 0 0 0 1.602 3.153l1.69-1.07Zm-1.417-2.778a8.58 8.58 0 0 1-.479-2.888h-2c0 1.245.196 2.433.595 3.557l1.884-.67Zm-.479-2.888c0-1.248.274-2.33.801-3.272l-1.746-.976c-.711 1.27-1.055 2.695-1.055 4.248h2Zm.807-3.283a8.957 8.957 0 0 1 2.153-2.639l-1.28-1.536a10.961 10.961 0 0 0-2.631 3.22l1.758.955Zm2.141-2.629a10.006 10.006 0 0 1 3.065-1.687l-.647-1.893a11.975 11.975 0 0 0-3.673 2.024l1.255 1.556Zm3.079-1.692a10.213 10.213 0 0 1 3.471-.625v-2c-1.392 0-2.775.25-4.146.742l.675 1.883Zm3.471-.625c.307 0 .867.076 1.736.27l.434-1.953c-.889-.198-1.63-.317-2.17-.317v2Zm1.771.276c.818.152 1.621.379 2.411.683l.718-1.867a15.616 15.616 0 0 0-2.765-.782l-.364 1.966Zm2.411.683a9.43 9.43 0 0 1 2.032 1.057l1.147-1.638a11.435 11.435 0 0 0-2.461-1.286l-.718 1.867Zm2.032 1.057c.508.356.55.595.55.695h2c0-1.007-.61-1.777-1.403-2.333l-1.147 1.638Zm42.175 35.9.813.581.018-.025.017-.026-.848-.53Zm-.635.586.496.868.017-.01.017-.01-.53-.848Zm-.781.293-.217-.976-.013.003-.013.003.243.97Zm-3.418-.44-.394.92.028.012.029.01.337-.942Zm-1.27-.683-.633.774.038.03.04.028.555-.832Zm-.83-.977-.878.48.878-.48Zm-.439-1.318-.994.117.004.034.007.033.983-.184Zm-.196-1.66.993-.117-.446-3.795-1.47 3.527.923.385Zm-1.172 2.295-.854-.52-.008.014-.008.014.87.492Zm-1.562 2.002.667.745.01-.01.011-.01-.688-.725Zm-2.1 1.318-.384-.923-.024.01-.023.01.431.903Zm-6.591-.635-.613.791.006.005.007.004.6-.8Zm-2.393-2.93-.909.418.007.015.008.015.894-.447Zm-1.123-3.906-.994.113.002.013.002.013.99-.139Zm.879-16.113.986.168v-.004l-.986-.164Zm.732-3.613-.965-.261-.003.01-.002.008.97.243Zm1.172-3.955-.949-.316-.004.012.953.304Zm1.807-4.053-.862-.508-.004.007.866.501Zm6.592-4.688.065.998.97-.063-.036-.971-.999.037Zm-.44-7.275-.997.072v.008l.001.008.996-.088Zm-.537-6.885.997-.083-.001-.006-.996.09Zm-.488-5.42.996-.09-.001-.01-.995.1Zm-.196-1.953.995-.1-.001-.011-.001-.013-.993.124Zm-.146-1.562-.998.059v.003l.998-.062Zm.537-3.174-.569-.822-.016.01-.015.012.6.8Zm4.883.195.492-.87-.492.87Zm1.562 1.71-.925.378.007.018.008.017.91-.414Zm.537 2.538-.999.034.999-.034Zm.293 5.518.991-.134-.002-.021-.004-.02-.985.175Zm.245 1.807.996-.079-.002-.028-.003-.027-.991.134Zm.39 4.98-.997.078.001.005.996-.083Zm.391 4.688-.997.083.001.007.001.007.995-.098Zm1.025 10.498-.995.097v.002l.995-.1Zm1.953 19.629.997-.081-.001-.01-.001-.008-.995.099Zm.147 1.806-.997.08.001.01.001.007.995-.097Zm.342 4.15-.998.069.001.01.001.012.996-.09Zm.683 4.249-.974.226.004.018.005.019.965-.263Zm.244 1.025-.98.196.009.046.014.045.957-.287ZM181.832 38.75h-1v.038l.003.039.997-.077Zm0-2.588h1V32.99l-1.819 2.599.819.573Zm-.879 1.367.84.543.007-.01.006-.011-.853-.522Zm-.83 1.514.91.416.004-.011.005-.011-.919-.394Zm-1.416 4.395.972.234.001-.005-.973-.23Zm-1.123 5.566-.987-.164-.002.013.989.15Zm-.684 5.664.996.089.001-.002-.997-.087Zm-.244 6.152h-1v.028l.002.028.998-.056Zm.196 1.807-.988.156.001.008.987-.164Zm1.22 3.076-.74.673.794.873.731-.926-.785-.62Zm1.319-2.832.955.294.002-.007-.957-.287Zm.976-4.394-.985-.174-.001.008-.001.008.987.158Zm.733-5.225-.995-.107.995.107Zm.439-5.274-.997-.075-.001.01v.008l.998.057Zm.244-4.687-.999-.045v.01l-.001.012 1 .023Zm10.475 25.195c0 .203-.044.321-.092.398l1.696 1.06c.277-.444.396-.944.396-1.458h-2Zm-.058.347a1.21 1.21 0 0 1-.351.319l1.06 1.696c.361-.225.672-.508.918-.853l-1.627-1.162Zm-.317.299a1.783 1.783 0 0 1-.502.185l.434 1.952a3.773 3.773 0 0 0 1.06-.4l-.992-1.737Zm-.528.19a2.204 2.204 0 0 1-.539.069v2a4.21 4.21 0 0 0 1.024-.128l-.485-1.94Zm-.539.069c-.308 0-.66-.039-1.06-.125l-.419 1.956c.512.11 1.006.169 1.479.169v-2Zm-1.06-.125a9.787 9.787 0 0 1-1.24-.354l-.673 1.883c.496.177.994.32 1.494.427l.419-1.956Zm-1.182-.332a6.863 6.863 0 0 1-1.109-.596l-1.11 1.664a8.91 8.91 0 0 0 1.431.77l.788-1.838Zm-1.031-.538a2.336 2.336 0 0 1-.585-.681l-1.756.957c.265.486.63.908 1.075 1.272l1.266-1.548Zm-.585-.681c-.133-.244-.251-.577-.335-1.024l-1.965.368c.111.595.286 1.14.544 1.613l1.756-.957Zm-.324-.957-.098-.83-.049-.415-.049-.415-1.986.234.049.415.049.415.024.207.025.208.024.207.024.208 1.987-.234Zm-2.112-1.928a15.824 15.824 0 0 1-1.103 2.16l1.709 1.04c.481-.79.895-1.6 1.24-2.43l-1.846-.77Zm-1.119 2.188a7.507 7.507 0 0 1-1.38 1.768l1.376 1.452a9.527 9.527 0 0 0 1.745-2.236l-1.741-.984Zm-1.359 1.748a6.374 6.374 0 0 1-1.817 1.141l.769 1.846a8.398 8.398 0 0 0 2.382-1.496l-1.334-1.49Zm-1.864 1.162c-.597.285-1.292.44-2.108.44v2c1.073 0 2.07-.205 2.971-.636l-.863-1.804Zm-2.108.44c-1.504 0-2.626-.353-3.452-.973l-1.2 1.6c1.257.943 2.836 1.372 4.652 1.372v-2Zm-3.44-.963a7.402 7.402 0 0 1-2.111-2.587l-1.788.895a9.398 9.398 0 0 0 2.674 3.273l1.225-1.581Zm-2.096-2.557a12.916 12.916 0 0 1-1.042-3.627l-1.98.277c.207 1.49.608 2.886 1.204 4.185l1.818-.835Zm-1.038-3.602a35.367 35.367 0 0 1-.238-3.988h-2c0 1.343.084 2.748.25 4.214l1.988-.226Zm-.238-3.988c0-1.045.047-2.242.144-3.591l-1.995-.142a52.902 52.902 0 0 0-.149 3.733h2Zm.144-3.591c.096-1.353.225-2.739.386-4.158l-1.987-.225c-.164 1.445-.296 2.859-.394 4.24l1.995.143Zm.386-4.158c.161-1.415.354-2.78.579-4.095l-1.972-.336a76.406 76.406 0 0 0-.594 4.206l1.987.225Zm.579-4.099a46.13 46.13 0 0 1 .716-3.535l-1.94-.485a47.888 47.888 0 0 0-.749 3.692l1.973.328Zm.712-3.516a93.334 93.334 0 0 1 1.159-3.913l-1.906-.607a95.583 95.583 0 0 0-1.184 3.998l1.931.522Zm1.155-3.9a20.864 20.864 0 0 1 1.723-3.868l-1.731-1.002a22.9 22.9 0 0 0-1.89 4.237l1.898.633Zm1.719-3.861a10.995 10.995 0 0 1 2.506-2.957l-1.266-1.548a12.978 12.978 0 0 0-2.963 3.489l1.723 1.016Zm2.506-2.957c.9-.736 1.983-1.155 3.29-1.24l-.131-1.996c-1.687.11-3.176.667-4.425 1.688l1.266 1.548Zm4.224-2.276c-.098-2.65-.246-5.092-.443-7.326l-1.992.176c.194 2.194.339 4.602.436 7.224l1.999-.073Zm-.442-7.31a655.01 655.01 0 0 0-.537-6.896l-1.994.166c.195 2.34.374 4.632.537 6.874l1.994-.144Zm-.538-6.902-.488-5.42-1.992.18.488 5.42 1.992-.18Zm-.489-5.43-.196-1.953-1.99.199.196 1.953 1.99-.2Zm-.198-1.978c-.063-.5-.11-1-.141-1.5l-1.996.124c.034.542.084 1.083.152 1.624l1.985-.248Zm-.141-1.497a26.873 26.873 0 0 1-.047-1.553h-2c0 .542.017 1.099.051 1.67l1.996-.117Zm-.047-1.553c0-.606.159-.742.186-.762l-1.2-1.6c-.754.566-.986 1.471-.986 2.362h2Zm.155-.74c.217-.15.541-.261 1.042-.261v-2c-.8 0-1.55.18-2.18.617l1.138 1.644Zm1.042-.261c1.362 0 2.25.205 2.78.505l.984-1.741c-.968-.547-2.261-.764-3.764-.764v2Zm2.78.505c.576.325.93.732 1.129 1.217l1.851-.757c-.388-.948-1.075-1.68-1.996-2.201l-.984 1.74Zm1.144 1.252c.26.571.419 1.283.448 2.159l1.999-.067c-.036-1.077-.235-2.058-.626-2.92l-1.821.828Zm.448 2.16c.032.93.048 1.944.048 3.041h2c0-1.116-.016-2.153-.049-3.11l-1.999.069Zm.048 3.041c0 .79.09 1.664.26 2.618l1.969-.352c-.155-.87-.229-1.622-.229-2.265h-2Zm.253 2.576.245 1.807 1.982-.268-.245-1.807-1.982.268Zm.239 1.75.39 4.981 1.994-.156-.391-4.98-1.993.156Zm.391 4.986.097 1.172.049.586.049.586 1.993-.166-.098-1.172-.048-.586a115.63 115.63 0 0 1-.049-.586l-1.993.166Zm.195 2.344.098 1.172.048.586.049.586 1.993-.167-.097-1.171a115.63 115.63 0 0 1-.049-.586l-.049-.586-1.993.166Zm.197 2.358 1.025 10.498 1.99-.195-1.025-10.498-1.99.195Zm1.025 10.5L190.7 56.33l1.99-.198-1.953-19.63-1.99.199Zm1.952 19.61.146 1.807 1.994-.162-.147-1.806-1.993.161Zm.148 1.823c.129 1.325.242 2.698.339 4.121l1.995-.136a143.69 143.69 0 0 0-.344-4.179l-1.99.194Zm.341 4.144c.134 1.478.369 2.94.705 4.384l1.948-.453a30.368 30.368 0 0 1-.662-4.112l-1.991.181Zm.714 4.42c.093.34.169.659.229.96l1.961-.393c-.07-.35-.157-.715-.26-1.093l-1.93.527Zm.252 1.05c.068.228.104.472.104.738h2c0-.45-.062-.889-.189-1.312l-1.915.574Zm-9.273-27.826c0-.388-.018-.804-.052-1.249l-1.994.154c.031.402.046.767.046 1.095h2Zm-.049-1.172V37.481h-2V38.75h2Zm0-1.27v-1.318h-2v1.319h2Zm-1.819-1.891c-.245.35-.551.826-.913 1.419l1.706 1.043a27.24 27.24 0 0 1 .845-1.315l-1.638-1.147Zm-.899 1.397a11.24 11.24 0 0 0-.91 1.663l1.838.788c.167-.39.414-.844.751-1.364l-1.679-1.087Zm-.9 1.641c-.558 1.22-1.048 2.753-1.48 4.58l1.946.46c.415-1.753.868-3.15 1.353-4.208l-1.819-.832Zm-1.479 4.576a81.087 81.087 0 0 0-1.137 5.636l1.972.33a79.072 79.072 0 0 1 1.109-5.497l-1.944-.469Zm-1.14 5.65a90.577 90.577 0 0 0-.691 5.728l1.993.174c.16-1.833.386-3.7.676-5.6l-1.978-.302Zm-.691 5.726c-.164 1.84-.248 3.402-.248 4.679h2c0-1.197.079-2.695.24-4.501l-1.992-.178Zm-.248 4.679V60.82h2V59.258h-2Zm.002 1.618c.034.622.103 1.257.206 1.907l1.975-.312a17.031 17.031 0 0 1-.184-1.706l-1.997.11Zm.207 1.915c.107.643.268 1.269.483 1.878l1.886-.666a9.08 9.08 0 0 1-.396-1.54l-1.973.328Zm.483 1.878c.23.653.552 1.231.984 1.707l1.48-1.346c-.219-.24-.418-.573-.578-1.027l-1.886.666Zm2.509 1.654c.6-.76 1.084-1.84 1.489-3.158l-1.911-.588c-.376 1.221-.771 2.03-1.148 2.507l1.57 1.239Zm1.491-3.165c.406-1.352.741-2.86 1.007-4.523l-1.975-.316c-.255 1.592-.572 3.013-.947 4.265l1.915.574Zm1.004-4.508a79.2 79.2 0 0 0 .742-5.291l-1.989-.214a76.498 76.498 0 0 1-.723 5.158l1.97.347Zm.742-5.291c.197-1.838.345-3.613.443-5.323l-1.996-.115a106.979 106.979 0 0 1-.436 5.224l1.989.213Zm.442-5.305c.131-1.739.214-3.32.247-4.74l-2-.046a89.99 89.99 0 0 1-.241 4.635l1.994.15Zm.246-4.718c.066-1.438.099-2.578.099-3.414h-2c0 .791-.032 1.897-.097 3.324l1.998.09Zm32.009 20.756-.883-.47-.006.011-.005.012.894.447Zm-2.051 2.88.707.708.007-.007.007-.007-.721-.693Zm-2.929 2.1-.448-.894-.01.005.458.89Zm-7.178-.049-.488.873.01.006.01.005.468-.884Zm-2.881-2.441-.788.616.005.006.005.006.778-.628Zm-2.002-3.516-.936.351.003.01.005.01.928-.37Zm-1.172-4.004-.979.205.001.005.978-.21Zm-.635-4.15-.997.07.001.012.001.013.995-.095Zm0-7.275-.995-.097-.001.012-.001.012.997.073Zm.586-4.15-.979-.201-.003.01-.002.011.984.18Zm1.172-4.249-.944-.33.944.33Zm1.807-3.76-.828-.56-.006.009-.006.008.84.543Zm2.637-2.685-.549-.836-.006.004-.006.004.561.828Zm6.347-.39-.461.887.007.003.007.004.447-.895Zm2.1 1.708-.791.612.015.02.017.02.759-.652Zm1.318 2.393-.952.306.005.015.005.015.942-.336Zm-2.685 11.328-.829-.56-.005.008-.004.006.838.546Zm-3.125 3.809.696.717h.001l-.697-.717Zm-3.418 2.539-.458-.89-.612.316.076.684.994-.11Zm.39 2.588-.985.169v.004l.985-.173Zm.782 3.32-.96.282.004.013.004.013.952-.308Zm1.22 2.88-.872.49.007.012.008.013.857-.514Zm2.539.928-.6-.8-.026.02-.025.021.651.76Zm1.172-1.855-.923-.385-.014.034-.012.035.949.316Zm.44-1.123-.92-.394-.011.026-.009.026.94.342Zm.293-.684-.832-.554-.051.076-.037.084.92.394Zm.097-.195-.707-.707-.293.293v.414h1Zm.098-.146-.881-.474-.007.013-.007.013.895.448Zm.635-1.172-.844-.537-.018.028-.016.03.878.479Zm.927-.928.555.832 2.748-1.832h-3.303v1Zm-.048 0-.708-.707-1.707 1.707h2.415v-1Zm.39-.195v1h.099l.097-.02-.196-.98Zm2.783 1.172-.707.707.017.017.018.016.672-.74Zm.879 1.123-.88.474.008.015.009.014.863-.503Zm-9.619-22.315.895-.447-.689-1.376-.978 1.187.772.636Zm-1.221 2.002-.909-.417-.004.01-.004.008.917.4Zm-.83 2.393.963.27.003-.01-.966-.26Zm-.586 2.49-.982-.189-.003.018-.003.019.988.152Zm-.293 2.344-.995-.09-.289 3.178 2.051-2.446-.767-.642Zm2.247-3.418.889.456.005-.01-.894-.446Zm9.644 17.675c0 .783-.221 1.632-.713 2.559l1.766.938c.614-1.156.947-2.326.947-3.497h-2Zm-.724 2.58a10.688 10.688 0 0 1-1.877 2.635l1.441 1.387a12.653 12.653 0 0 0 2.224-3.127l-1.788-.894Zm-1.864 2.622a10.183 10.183 0 0 1-2.67 1.912l.895 1.789a12.19 12.19 0 0 0 3.189-2.287l-1.414-1.415Zm-2.68 1.917c-.951.49-1.869.72-2.765.72v2c1.252 0 2.483-.325 3.681-.942l-.916-1.778Zm-2.765.72c-1.403 0-2.553-.269-3.487-.763l-.936 1.767c1.279.678 2.766.995 4.423.995v-2Zm-3.467-.753a8.85 8.85 0 0 1-2.591-2.196l-1.556 1.256a10.837 10.837 0 0 0 3.171 2.686l.976-1.746Zm-2.581-2.184a13.31 13.31 0 0 1-1.862-3.271l-1.856.743a15.283 15.283 0 0 0 2.142 3.76l1.576-1.232Zm-1.854-3.25a27.26 27.26 0 0 1-1.13-3.863l-1.956.419a29.294 29.294 0 0 0 1.214 4.145l1.872-.702Zm-1.129-3.858a36.492 36.492 0 0 1-.618-4.04l-1.991.189c.134 1.406.351 2.826.651 4.26l1.958-.41Zm-.616-4.015a54.414 54.414 0 0 1-.144-3.74h-2c0 1.168.05 2.46.149 3.879l1.995-.14Zm-.144-3.74c0-.945.047-2.075.144-3.393l-1.995-.146a49.27 49.27 0 0 0-.149 3.54h2Zm.142-3.37c.127-1.304.318-2.66.574-4.068l-1.968-.358a51.731 51.731 0 0 0-.597 4.233l1.991.194Zm.57-4.046c.284-1.388.663-2.761 1.136-4.12l-1.888-.658a33.863 33.863 0 0 0-1.207 4.377l1.959.4Zm1.136-4.12c.466-1.333 1.034-2.513 1.702-3.545l-1.679-1.087c-.764 1.182-1.4 2.508-1.911 3.974l1.888.659Zm1.691-3.528c.684-1.012 1.475-1.813 2.369-2.418l-1.121-1.656c-1.125.762-2.091 1.751-2.904 2.953l1.656 1.12Zm2.357-2.41c.867-.569 1.862-.861 3.016-.861v-2c-1.515 0-2.897.39-4.113 1.189l1.097 1.672Zm3.016-.861c.903 0 1.669.182 2.322.522l.923-1.775c-.975-.507-2.065-.747-3.245-.747v2Zm2.336.529a5.014 5.014 0 0 1 1.756 1.426l1.582-1.223a6.996 6.996 0 0 0-2.444-1.992l-.894 1.789Zm1.788 1.465c.494.577.87 1.255 1.125 2.048l1.904-.612a7.85 7.85 0 0 0-1.511-2.737l-1.518 1.301Zm1.135 2.078c.287.803.43 1.633.43 2.496h2c0-1.09-.182-2.148-.546-3.168l-1.884.672Zm.43 2.496c0 1.116-.258 2.375-.81 3.786l1.863.729c.62-1.584.947-3.093.947-4.515h-2Zm-.81 3.786a21.345 21.345 0 0 1-2.192 4.15l1.658 1.12a23.292 23.292 0 0 0 2.397-4.541l-1.863-.73Zm-2.201 4.164a21.174 21.174 0 0 1-2.984 3.638l1.394 1.434a23.15 23.15 0 0 0 3.266-3.98l-1.676-1.092Zm-2.984 3.637c-1.085 1.054-2.145 1.836-3.179 2.367l.915 1.779c1.245-.64 2.463-1.551 3.657-2.711l-1.393-1.435Zm-3.715 3.367c.068.616.203 1.502.399 2.647l1.971-.338a45.947 45.947 0 0 1-.382-2.53l-1.988.221Zm.399 2.651c.202 1.145.471 2.288.807 3.43l1.919-.565a29.773 29.773 0 0 1-.756-3.212l-1.97.347Zm.815 3.455c.374 1.154.805 2.178 1.3 3.061l1.745-.977c-.417-.744-.8-1.641-1.142-2.7l-1.903.616Zm1.315 3.087c.578.965 1.418 1.706 2.566 1.706v-2c-.154 0-.453-.072-.851-.735l-1.715 1.03Zm2.566 1.706a2.23 2.23 0 0 0 1.481-.533l-1.302-1.519c-.03.027-.07.053-.179.053v2Zm1.43-.492c.38-.285.69-.649.941-1.067l-1.715-1.03c-.139.233-.284.39-.426.496l1.2 1.6Zm.941-1.067c.236-.393.428-.819.58-1.273l-1.898-.632a4.38 4.38 0 0 1-.397.876l1.715 1.029Zm.554-1.204c.168-.404.32-.792.456-1.166l-1.879-.684c-.125.342-.265.702-.423 1.08l1.846.77Zm.436-1.114.293-.684-1.839-.788-.293.684 1.839.788Zm.206-.523c.043-.065.093-.144.135-.23.02-.04.13-.249.13-.52h-2a.974.974 0 0 1 .045-.286.753.753 0 0 1 .036-.088c.01-.02.011-.018-.01.015l1.664 1.11Zm-.028-.043c.14-.14.229-.294.285-.406l-1.789-.895c-.001.004.003-.005.014-.022a.612.612 0 0 1 .076-.091l1.414 1.414Zm.271-.38c.228-.421.438-.81.633-1.166l-1.756-.958c-.197.36-.409.752-.638 1.177l1.761.948Zm.598-1.108a2.16 2.16 0 0 1 .639-.633l-1.109-1.664c-.494.33-.907.735-1.217 1.223l1.687 1.074Zm.084-2.465h-.048v2h.048v-2Zm.659 1.707c.021-.021-.088.098-.317.098v-2c-.489 0-.858.249-1.098.488l1.415 1.414Zm-.121.078c.115-.023.194-.03.244-.03v-2c-.211 0-.425.027-.636.07l.392 1.96Zm.244-.03c.145 0 .372.048.697.223l.949-1.76c-.521-.281-1.076-.462-1.646-.462v2Zm.697.223c.333.18.646.413.939.706l1.414-1.415a6.017 6.017 0 0 0-1.404-1.052l-.949 1.761Zm.974.739c.275.25.497.534.671.857l1.761-.948a5.205 5.205 0 0 0-1.087-1.39l-1.345 1.48Zm.688.886c.152.263.205.481.205.669h2c0-.594-.175-1.157-.478-1.676l-1.727 1.007Zm-7.463-20.865c0-.358-.018-.73-.053-1.116l-1.992.181c.03.331.045.643.045.935h2Zm-.053-1.116a3.582 3.582 0 0 0-.345-1.284l-1.789.894c.063.126.119.31.142.571l1.992-.18Zm-2.012-1.473c-.52.632-.97 1.377-1.358 2.221l1.819.834c.328-.718.692-1.308 1.083-1.783l-1.544-1.272Zm-1.366 2.24a18.185 18.185 0 0 0-.878 2.53l1.931.52c.216-.802.477-1.553.782-2.253l-1.835-.798Zm-.876 2.521a32.065 32.065 0 0 0-.605 2.571l1.964.378c.158-.82.347-1.623.567-2.41l-1.926-.539Zm-.611 2.608a38.897 38.897 0 0 0-.3 2.405l1.991.181c.063-.692.158-1.452.286-2.282l-1.977-.304Zm1.462 3.138a19.248 19.248 0 0 0 2.369-3.604l-1.779-.913a17.251 17.251 0 0 1-2.123 3.232l1.533 1.285Zm2.374-3.613c.71-1.42 1.082-2.859 1.082-4.305h-2c0 1.093-.279 2.227-.871 3.41l1.789.895Zm28.988 4.045-.986-.162-.002.007.988.155Zm-2.49 13.037.956.294.011-.037.009-.037-.976-.22Zm-.244 1.074.979.203.01-.046.005-.046-.994-.11Zm-.635 2.93-.975-.22-.003.012-.002.012.98.196Zm-.976 2.93.887.46.01-.018.009-.02-.906-.422ZM228.756 70l.633.774.004-.003-.637-.771Zm-3.516.635-.384.923.384-.923ZM223.971 70l-.574.82.038.026.04.022.496-.868Zm-1.465-1.856-.929.372.003.007.003.006.923-.385Zm-.83-2.49.965-.26-.002-.007-.002-.007-.961.274Zm-.098-.341.962-.275-1.962.275h1Zm0 .048-.967.253 1.967-.253h-1Zm-1.416-6.347-.986.166.001.008.002.007.983-.181Zm-1.074-6.397-.99.145.002.01.001.01.987-.165Zm-.586-3.955-.99.145.001.003.989-.148Zm-.684-3.955.981-.196-.004-.018-.004-.017-.973.231Zm-.683-2.88.973-.232-.003-.011-.97.242Zm-.537-2.1-.979.204.005.024.006.024.968-.252Zm-.879-4.004-.985.174.002.01.983-.184Zm.439-2.344.447.894.014-.006.013-.008-.474-.88Zm4.151.342-.504.864.007.004.008.004.489-.872Zm1.757 2.246-.945.325.002.008.943-.333Zm.489 1.758-.979.206.005.024.007.024.967-.254Zm.39 1.855-.987.156.007.047.012.047.968-.25Zm1.563 6.836-.98.199.001.007.002.008.977-.214Zm1.318 6.885-.987.16.001.007.001.007.985-.174Zm.44 2.49-.985.174.002.011.002.011.981-.196Zm.048.635h-1v.236l.106.211.894-.447Zm.049.244h-1v.162l.052.154.948-.316Zm.098.44-.986.164 1.965.039-.979-.204Zm1.807-10.352.99.14v-.001l-.99-.14Zm.586-12.598-.996.095.002.023.004.024.99-.142Zm-.245-2.148.992-.13-.002-.012-.99.142Zm-.293-2.1-.996.087.002.024.004.024.99-.135Zm5.762-3.32-.541.841.022.014.023.013.496-.868Zm1.123 1.172-.871.49.006.012.008.012.857-.514Zm.586 1.953.996-.087-.001-.016-.002-.016-.993.119Zm.098 2.441h-1v.02l.001.019.999-.039Zm-.951 2.442c0 4.438-.354 8.811-1.061 13.119l1.973.324a82.852 82.852 0 0 0 1.088-13.443h-2Zm-1.063 13.126c-.68 4.34-1.506 8.664-2.477 12.972l1.951.44c.981-4.35 1.815-8.718 2.502-13.102l-1.976-.31Zm-2.458 12.898c-.14.456-.24.88-.282 1.258l1.988.22c.023-.207.086-.5.206-.89l-1.912-.588Zm-.267 1.166c-.194.937-.405 1.908-.631 2.912l1.951.44c.229-1.014.442-1.997.638-2.947l-1.958-.405Zm-.636 2.936a11.928 11.928 0 0 1-.903 2.703l1.813.845a13.884 13.884 0 0 0 1.051-3.156l-1.961-.392Zm-.884 2.664a5.903 5.903 0 0 1-1.507 1.839l1.274 1.542a7.91 7.91 0 0 0 2.008-2.458l-1.775-.923Zm-1.503 1.836c-.548.448-1.124.653-1.76.653v2c1.123 0 2.141-.381 3.026-1.105l-1.266-1.548Zm-1.76.653c-.204 0-.448-.046-.738-.167l-.769 1.846c.49.204.995.32 1.507.32v-2Zm-.738-.167c-.345-.144-.73-.336-1.158-.58l-.992 1.736c.483.277.944.508 1.381.69l.769-1.846Zm-1.081-.531c-.485-.34-.858-.803-1.115-1.421l-1.846.77c.393.944.998 1.718 1.814 2.29l1.147-1.64Zm-1.11-1.408a21.391 21.391 0 0 1-.793-2.379l-1.931.52c.238.885.527 1.752.867 2.602l1.857-.743Zm-.797-2.393-.097-.342-1.923.55.097.341 1.923-.55Zm-2.059-.067v.048h2v-.049h-2Zm1.968-.205a87.887 87.887 0 0 1-1.401-6.276l-1.966.363c.395 2.14.872 4.28 1.432 6.42l1.935-.507Zm-1.398-6.261c-.358-2.115-.716-4.247-1.074-6.394l-1.973.329c.359 2.149.717 4.282 1.075 6.399l1.972-.334Zm-1.071-6.375c-.195-1.335-.391-2.655-.586-3.958l-1.978.296c.195 1.301.39 2.618.585 3.952l1.979-.29Zm-.586-3.955a77.09 77.09 0 0 0-.692-4.006l-1.961.392a75.12 75.12 0 0 1 .674 3.904l1.979-.29Zm-.7-4.04-.683-2.882-1.946.462.683 2.88 1.946-.46Zm-.686-2.893c-.164-.655-.344-1.358-.54-2.11l-1.935.505c.195.746.373 1.442.535 2.09l1.94-.485Zm-.528-2.061a83.51 83.51 0 0 0-.495-2.225l-1.945.463c.16.673.321 1.396.482 2.17l1.958-.408Zm-.495-2.225a38.023 38.023 0 0 1-.38-1.76l-1.966.369c.101.54.235 1.16.401 1.854l1.945-.463Zm-.378-1.75c-.1-.565-.132-.854-.132-.948h-2c0 .296.066.755.162 1.296l1.97-.347Zm-.132-.948c0-.212.035-.309.048-.337.006-.011.006-.008-.001 0-.008.008-.015.011-.014.01l-.894-1.789c-.865.433-1.139 1.298-1.139 2.116h2Zm.06-.34c.266-.144.573-.223.942-.223v-2c-.672 0-1.309.149-1.89.461l.948 1.761Zm.942-.223c.892 0 1.624.194 2.231.547l1.007-1.727c-.956-.558-2.046-.82-3.238-.82v2Zm2.246.556c.562.315 1.007.845 1.301 1.699l1.891-.65c-.423-1.23-1.149-2.197-2.215-2.794l-.977 1.745Zm1.303 1.707c.18.509.331 1.052.453 1.63l1.957-.411a14.756 14.756 0 0 0-.524-1.885l-1.886.666Zm.465 1.68c.154.586.277 1.171.37 1.756l1.975-.312a19.861 19.861 0 0 0-.411-1.954l-1.934.51Zm.389 1.85c.549 2.13 1.066 4.391 1.551 6.785l1.96-.398a135.625 135.625 0 0 0-1.574-6.886l-1.937.498Zm1.554 6.8c.517 2.36.953 4.637 1.308 6.83l1.974-.319a127.888 127.888 0 0 0-1.328-6.94l-1.954.43Zm1.31 6.845.44 2.49 1.969-.348-.439-2.49-1.97.348Zm.444 2.512c.013.064.021.112.025.148.005.037.004.05.004.047h2c0-.194-.03-.398-.068-.587l-1.961.392Zm.029.195V56.426h2V56.181h-2Zm.106.691a.491.491 0 0 1-.057-.203h2c0-.202-.033-.448-.154-.691l-1.789.894Zm-.005.113c.007.022.029.106.06.288l1.972-.329a3.924 3.924 0 0 0-.135-.591l-1.897.632Zm2.025.327a165.108 165.108 0 0 0 1.818-10.415l-1.981-.28a162.73 162.73 0 0 1-1.795 10.288l1.958.407Zm1.818-10.416c.495-3.53.742-7.075.742-10.637h-2c0 3.469-.241 6.922-.723 10.359l1.981.278ZM230 36.26c0-.762-.052-1.51-.157-2.241l-1.979.283c.09.635.136 1.287.136 1.958h2Zm-.151-2.195a62.602 62.602 0 0 0-.248-2.183l-1.983.26a62.3 62.3 0 0 1 .24 2.113l1.991-.19Zm-.25-2.195c-.097-.681-.194-1.379-.292-2.093l-1.981.27c.098.718.195 1.42.293 2.106l1.98-.283Zm-.286-2.044c-.063-.72-.094-1.44-.094-2.16h-2c0 .778.034 1.555.101 2.333l1.993-.173Zm-.094-2.16c0-.481.137-.55.159-.564l-1.049-1.704c-.824.508-1.11 1.382-1.11 2.268h2Zm.159-.564c.231-.143.56-.243 1.038-.243v-2c-.758 0-1.471.16-2.087.54l1.049 1.703Zm1.038-.243c.706 0 1.337.046 1.895.135l.312-1.976a14.2 14.2 0 0 0-2.207-.159v2Zm1.895.135c.502.079.904.232 1.226.439l1.082-1.682c-.589-.38-1.262-.617-1.996-.733l-.312 1.976Zm1.271.466c.278.159.531.409.748.794l1.743-.98c-.369-.657-.865-1.188-1.499-1.55l-.992 1.736Zm.762.818c.196.327.363.827.45 1.558l1.986-.238c-.108-.897-.331-1.699-.721-2.349l-1.715 1.03Zm.447 1.525c.062.716.094 1.5.094 2.355h2c0-.903-.034-1.746-.102-2.528l-1.992.173Zm.095 2.394c.032.834.048 1.635.048 2.403h2c0-.796-.017-1.622-.05-2.48l-1.998.077ZM158.709 64.727c0-.326.114-.57.342-.733.228-.195.504-.325.83-.39a3.9 3.9 0 0 1 1.025-.147h.928c.326 0 .7.016 1.123.049.456 0 .879.065 1.27.195.39.098.716.277.976.537.293.228.44.554.44.977 0 .163-.017.52-.049 1.074 0 .52-.017 1.09-.049 1.709 0 .618-.016 1.188-.049 1.709 0 .488-.016.749-.049.781-.26.358-.602.554-1.025.586a6.84 6.84 0 0 1-1.123.098c-1.009 0-1.758-.049-2.246-.147-.489-.097-.847-.293-1.074-.586-.228-.292-.375-.7-.44-1.22a23.806 23.806 0 0 0-.244-2.051 8.257 8.257 0 0 0-.391-1.172 3.997 3.997 0 0 1-.195-1.27Z" fill="#929090"/><path d="m159.051 63.994 1.162 1.628.072-.052.067-.057-1.301-1.519Zm.83-.39.392 1.96.068-.013.066-.018-.526-1.93Zm3.076-.098-.153 1.994.076.006h.077v-2Zm1.27.195-.633 1.898.073.024.074.018.486-1.94Zm.976.537-1.414 1.415.088.087.098.077 1.228-1.579Zm.391 2.051-1.997-.117-.003.058v.06h2Zm-.049 1.709-1.997-.105-.003.052v.053h2Zm-.049 1.709-1.996-.125-.004.063v.062h2Zm-.049.781-1.414-1.414-.111.111-.092.127 1.617 1.176Zm-1.025.586-.154-1.994-.088.007-.087.014.329 1.973Zm-4.443-.635-1.579 1.228 1.579-1.228Zm-.44-1.22-1.996.125.004.061.008.062 1.984-.248Zm-.244-2.051 1.977-.304-.014-.092-.023-.09-1.94.486Zm-.391-1.172-1.897.633.023.069.028.067 1.846-.769Zm1.805-1.27c0 .07-.013.227-.102.42a1.232 1.232 0 0 1-.394.476l-2.325-3.255c-.844.603-1.179 1.508-1.179 2.36h4Zm-.357.787a.326.326 0 0 1-.071.047c-.02.009-.025.008-.008.005l-.784-3.923a3.79 3.79 0 0 0-1.74.834l2.603 3.037Zm.055.02c.21-.057.374-.076.499-.076v-4a5.89 5.89 0 0 0-1.551.217l1.052 3.859Zm.499-.076H161.834v-4H160.906v4Zm.928 0c.262 0 .583.013.97.043l.306-3.988a16.777 16.777 0 0 0-1.276-.055v4Zm1.123.049c.264 0 .471.037.637.093l1.265-3.795a5.989 5.989 0 0 0-1.902-.298v4Zm.784.135c.022.006.037.01.046.014l.013.006s-.002 0-.004-.003a.037.037 0 0 1-.007-.005l2.828-2.829a4.05 4.05 0 0 0-1.905-1.063l-.971 3.88Zm.234.176a.92.92 0 0 1-.266-.343.659.659 0 0 1-.066-.26h4c0-.941-.359-1.891-1.212-2.554l-2.456 3.157Zm-.332-.602c0 .092-.012.388-.046.957l3.993.234c.032-.538.053-.958.053-1.191h-4Zm-.049 1.074c0 .48-.015 1.014-.046 1.604l3.994.21c.034-.647.052-1.252.052-1.814h-4Zm-.049 1.709c0 .584-.015 1.112-.045 1.584l3.992.25c.036-.57.053-1.181.053-1.834h-4Zm-.049 1.709c0 .232-.004.37-.008.437-.003.04-.003.011.008-.052.005-.028.02-.117.057-.233a1.916 1.916 0 0 1 .48-.785l2.828 2.829c.364-.364.484-.77.504-.831.044-.139.066-.257.076-.322.023-.136.033-.266.039-.357.012-.193.016-.43.016-.686h-4Zm.334-.395a.657.657 0 0 1 .438-.232l.307 3.988c1.036-.08 1.902-.595 2.49-1.403l-3.235-2.353Zm.263-.21c-.293.048-.557.07-.794.07v4c.479 0 .964-.044 1.452-.125l-.658-3.946Zm-.794.07c-.983 0-1.568-.05-1.854-.108l-.784 3.923c.69.138 1.602.185 2.638.185v-4Zm-1.854-.108c-.088-.017-.101-.032-.069-.014.038.02.111.07.181.162l-3.157 2.455c.61.785 1.464 1.16 2.261 1.32l.784-3.923Zm.112.148c.035.044.036.062.023.025a1.287 1.287 0 0 1-.056-.266l-3.969.496c.092.737.323 1.53.845 2.2l3.157-2.455Zm-.022-.118a26.02 26.02 0 0 0-.263-2.23l-3.954.608c.126.82.198 1.436.225 1.872l3.992-.25Zm-.3-2.411a10.143 10.143 0 0 0-.485-1.456l-3.692 1.538c.126.303.224.6.297.888l3.88-.97Zm-.433-1.32a1.98 1.98 0 0 1-.093-.636h-4c0 .647.093 1.286.298 1.901l3.795-1.264Z" fill="#000"/></svg>