<svg width="445" height="96" viewBox="0 0 445 96" fill="none" xmlns="http://www.w3.org/2000/svg">
<g clip-path="url(#clip0_3_3)">
<mask id="mask0_3_3" style="mask-type:alpha" maskUnits="userSpaceOnUse" x="0" y="-1" width="445" height="97">
<path d="M445 -0.499878H0V95.5001H445V-0.499878Z" fill="white"/>
<path d="M17.345 31.3601L25.808 64.5611L35.015 31.2671C35.263 30.3991 35.852 29.9651 36.782 29.9651H44.222C45.152 29.9651 45.741 30.3991 45.989 31.2671L55.475 64.7472L63.752 37.5911H59.288C58.358 37.5911 57.893 37.1261 57.893 36.1961V31.3601C57.893 30.4301 58.358 29.9651 59.288 29.9651H71.192C71.936 29.9651 72.432 30.1821 72.68 30.6161C72.99 30.9881 73.145 31.3291 73.145 31.6391C73.145 31.9491 73.114 32.2281 73.052 32.4761L60.218 74.6982C59.97 75.5662 59.381 76.0002 58.451 76.0002H50.081C49.151 76.0002 48.562 75.5352 48.314 74.6052L39.479 41.7761L30.272 74.6982C30.024 75.5662 29.435 76.0002 28.505 76.0002H20.135C19.205 76.0002 18.616 75.5662 18.368 74.6982L8.231 37.5911H3.395C2.465 37.5911 2 37.1261 2 36.1961V31.3601C2 30.4301 2.465 29.9651 3.395 29.9651H15.578C16.508 29.9651 17.097 30.4301 17.345 31.3601Z" fill="black"/>
<path d="M99.3013 77.1162C91.9233 77.1162 86.4983 74.9772 83.0263 70.6992C79.6163 66.3591 77.9112 60.6552 77.9112 53.5872C77.9112 46.4572 79.7402 40.5671 83.3982 35.9171C87.0562 31.2671 92.3263 28.9421 99.2083 28.9421C102.618 28.9421 105.532 29.5931 107.95 30.8951C110.43 32.1351 112.321 33.8401 113.623 36.0101C116.103 40.2261 117.343 45.0931 117.343 50.6111C117.343 53.2151 117.219 54.6412 116.971 54.8892C116.723 55.1372 116.258 55.2612 115.576 55.2612H88.2343C88.5443 59.7252 89.6293 63.1972 91.4893 65.6772C93.4113 68.0952 96.6973 69.3042 101.347 69.3042C104.757 69.3042 108.26 68.4982 111.856 66.8862C112.724 66.4522 113.344 66.7001 113.716 67.6301L115.483 71.9081C115.793 72.6521 115.514 73.2722 114.646 73.7682C110.554 76.0002 105.439 77.1162 99.3013 77.1162ZM88.2343 48.3791H107.578C107.702 40.6291 104.664 36.7541 98.4642 36.7541C94.8062 36.7541 92.2023 37.9321 90.6523 40.2881C89.1643 42.5821 88.3583 45.2791 88.2343 48.3791Z" fill="black"/>
<path d="M128.434 68.6532V14.3411H123.412C122.482 14.3411 122.017 13.8761 122.017 12.9461V8.01712C122.017 7.08712 122.482 6.62212 123.412 6.62212H137.455C138.385 6.62212 138.85 7.08712 138.85 8.01712V36.9401C140.338 34.4601 142.322 32.5071 144.802 31.0811C147.344 29.6551 150.072 28.9421 152.986 28.9421C158.69 28.9421 163.154 30.8331 166.378 34.6151C169.602 38.3971 171.214 44.3182 171.214 52.3782C171.214 60.3762 169.354 66.5142 165.634 70.7922C161.976 75.0082 157.14 77.1162 151.126 77.1162C147.716 77.1162 144.74 76.5272 142.198 75.3492C139.718 74.1092 137.92 72.5902 136.804 70.7922L136.246 74.6052C136.184 75.5352 135.719 76.0002 134.851 76.0002H123.505C122.575 76.0002 122.11 75.5352 122.11 74.6052V70.0482C122.11 69.1182 122.575 68.6532 123.505 68.6532H128.434ZM138.85 47.9141V64.3752C139.594 65.4912 141.02 66.5761 143.128 67.6301C145.298 68.6841 147.406 69.2112 149.452 69.2112C156.954 69.2112 160.705 63.9102 160.705 53.3082C160.705 45.6202 158.969 40.7841 155.497 38.8001C154.009 37.9321 151.963 37.4981 149.359 37.4981C146.755 37.4981 144.337 38.4591 142.105 40.3811C139.935 42.2411 138.85 44.7521 138.85 47.9141Z" fill="black"/>
<path d="M193.626 8.01712V68.6532H199.485C200.415 68.6532 200.88 69.1182 200.88 70.0482V74.6052C200.88 75.5352 200.415 76.0002 199.485 76.0002H177.351C176.421 76.0002 175.956 75.5352 175.956 74.6052V70.0482C175.956 69.1182 176.421 68.6532 177.351 68.6532H183.21V14.2481H178.188C177.258 14.2481 176.793 13.7831 176.793 12.8531V8.01712C176.793 7.08712 177.258 6.62212 178.188 6.62212H192.231C193.161 6.62212 193.626 7.08712 193.626 8.01712Z" fill="black"/>
<path d="M203.788 36.5901C202.362 40.0001 201.649 44.0301 201.649 48.6801C201.649 56.4301 203.447 62.2892 207.043 66.2572C210.701 70.1632 215.785 72.1162 222.295 72.1162C228.805 72.1162 234.137 69.9772 238.291 65.6992C242.507 61.3592 244.615 55.0351 244.615 46.7271C244.615 42.8211 244.088 39.4111 243.034 36.4971C242.042 33.5831 240.802 31.3511 239.314 29.8011C237.888 28.2511 235.873 26.8871 233.269 25.7091C230.665 24.5311 227.472 23.9421 223.69 23.9421C218.544 23.9421 213.77 25.5851 209.368 28.8711C207.074 30.6071 205.214 33.1801 203.788 36.5901Z" fill="black"/>
<path d="M260.5 38.5001C259.624 41.3824 259.069 45.0365 259.069 48.6801C259.069 56.4301 260.867 62.2892 264.463 66.2572C268.121 70.1632 273.205 72.1162 279.715 72.1162C286.225 72.1162 291.557 69.9772 295.711 65.6992C299.927 61.3592 302.035 55.0351 302.035 46.7271C302.035 42.8211 301.508 39.4111 300.454 36.4971C299.462 33.5831 298.222 31.3511 296.734 29.8011C295.308 28.2511 293.293 26.8871 290.689 25.7091C288.085 24.5311 284.892 23.9421 281.11 23.9421C275.964 23.9421 271.19 25.5851 266.788 28.8711C264.494 30.6071 262.634 33.1801 261.208 36.5901C260.619 38.0001 260.5 38.5001 260.5 38.5001Z" fill="black"/>
<path d="M312.277 86.0432V33.5911H307.255C306.325 33.5911 305.86 33.1261 305.86 32.1961V27.3601C305.86 26.4301 306.325 25.9651 307.255 25.9651H319.903C320.647 25.9651 321.112 26.4301 321.298 27.3601L322.228 32.9401C325.39 27.6081 330.257 24.9421 336.829 24.9421C342.533 24.9421 346.997 26.8331 350.221 30.6151C353.445 34.3351 355.057 39.8531 355.057 47.1691C355.057 56.0351 353.166 62.5762 349.384 66.7922C345.602 71.0082 340.735 73.1162 334.783 73.1162C329.885 73.1162 325.855 71.8142 322.693 69.2102V85.9502H332.551C333.481 85.9502 333.946 86.4152 333.946 87.3452V91.9952C333.946 92.9252 333.481 93.3902 332.551 93.3902H307.348C306.418 93.3902 305.953 92.9252 305.953 91.9952V87.4382C305.953 86.5082 306.418 86.0432 307.348 86.0432H312.277ZM322.693 43.7281V61.4912C323.685 62.4832 325.204 63.3822 327.25 64.1882C329.296 64.9942 331.311 65.3972 333.295 65.3972C336.891 65.3972 339.65 64.1882 341.572 61.7702C343.556 59.2902 344.548 55.1361 344.548 49.3081C344.548 41.3721 342.812 36.5051 339.34 34.7071C337.852 33.9011 335.806 33.4981 333.202 33.4981C330.598 33.4981 328.18 34.4281 325.948 36.2881C323.778 38.0861 322.693 40.5661 322.693 43.7281Z" fill="black"/>
<path d="M382.956 73.1162C375.578 73.1162 370.153 70.9772 366.681 66.6992C363.5 61.7702 361.566 56.6551 361.566 49.5871C361.566 42.4571 363.395 36.5671 367.053 31.9171C370.711 27.2671 375.981 24.9421 382.863 24.9421C386.273 24.9421 389.187 25.5931 391.605 26.8951C394.085 28.1351 395.976 29.8401 397.278 32.0101C399.758 36.2261 400.998 41.0931 400.998 46.6111C400.998 49.2151 400.874 50.6411 400.626 50.8891C400.378 51.1371 399.913 51.2611 399.231 51.2611H371.889C372.199 55.7251 373.284 59.1972 375.144 61.6772C377.066 64.0952 380.352 65.3042 385.002 65.3042C388.412 65.3042 391.915 64.4982 395.511 62.8862C396.379 62.4522 396.999 62.7002 397.371 63.6302L399.138 67.9082C399.448 68.6522 399.169 69.2722 398.301 69.7682C394.209 72.0002 389.094 73.1162 382.956 73.1162ZM371.889 44.3791H391.233C391.357 36.6291 388.319 32.7541 382.119 32.7541C378.461 32.7541 375.857 33.9321 374.307 36.2881C372.819 38.5821 372.013 41.2791 371.889 44.3791Z" fill="black"/>
<path d="M422.411 33.9631C423.465 31.4831 425.171 29.3751 427.527 27.6391C429.883 25.8411 432.456 24.9421 435.246 24.9421C438.036 24.9421 440.175 25.1901 441.663 25.6861C442.407 25.9341 442.779 26.4921 442.779 27.3601V39.9151C442.779 40.8451 442.314 41.3101 441.384 41.3101H435.339C434.409 41.3101 433.974 40.8451 434.036 39.9151L434.409 34.5211C434.099 34.4591 433.572 34.4281 432.828 34.4281C429.976 34.4281 427.62 35.6061 425.76 37.9621C423.9 40.2561 422.97 43.3561 422.97 47.2621V64.6532H433.2C434.13 64.6532 434.595 65.1182 434.595 66.0482V70.6052C434.595 71.5352 434.13 72.0002 433.2 72.0002H407.625C406.695 72.0002 406.229 71.5352 406.229 70.6052V66.0482C406.229 65.1182 406.695 64.6532 407.625 64.6532H412.554V33.5911H407.531C406.601 33.5911 406.137 33.1261 406.137 32.1961V27.3601C406.137 26.4301 406.601 25.9651 407.531 25.9651H419.807C420.675 25.9651 421.203 26.4301 421.389 27.3601L422.411 33.9631Z" fill="black"/>
</mask>
<g mask="url(#mask0_3_3)">
<path d="M17.345 31.3601L25.808 64.5611L35.015 31.2671C35.263 30.3991 35.852 29.9651 36.782 29.9651H44.222C45.152 29.9651 45.741 30.3991 45.989 31.2671L55.475 64.7472L63.752 37.5911H59.288C58.358 37.5911 57.893 37.1261 57.893 36.1961V31.3601C57.893 30.4301 58.358 29.9651 59.288 29.9651H71.192C71.936 29.9651 72.432 30.1821 72.68 30.6161C72.99 30.9881 73.145 31.3291 73.145 31.6391C73.145 31.9491 73.114 32.2281 73.052 32.4761L60.218 74.6982C59.97 75.5662 59.381 76.0002 58.451 76.0002H50.081C49.151 76.0002 48.562 75.5352 48.314 74.6052L39.479 41.7761L30.272 74.6982C30.024 75.5662 29.435 76.0002 28.505 76.0002H20.135C19.205 76.0002 18.616 75.5662 18.368 74.6982L8.231 37.5911H3.395C2.465 37.5911 2 37.1261 2 36.1961V31.3601C2 30.4301 2.465 29.9651 3.395 29.9651H15.578C16.508 29.9651 17.097 30.4301 17.345 31.3601Z" fill="#04CFB1"/>
<path d="M99.3013 77.1162C91.9233 77.1162 86.4983 74.9772 83.0263 70.6992C79.6163 66.3591 77.9112 60.6552 77.9112 53.5872C77.9112 46.4572 79.7402 40.5671 83.3982 35.9171C87.0562 31.2671 92.3263 28.9421 99.2083 28.9421C102.618 28.9421 105.532 29.5931 107.95 30.8951C110.43 32.1351 112.321 33.8401 113.623 36.0101C116.103 40.2261 117.343 45.0931 117.343 50.6111C117.343 53.2151 117.219 54.6412 116.971 54.8892C116.723 55.1372 116.258 55.2612 115.576 55.2612H88.2343C88.5443 59.7252 89.6293 63.1972 91.4893 65.6772C93.4113 68.0952 96.6973 69.3042 101.347 69.3042C104.757 69.3042 108.26 68.4982 111.856 66.8862C112.724 66.4522 113.344 66.7001 113.716 67.6301L115.483 71.9081C115.793 72.6521 115.514 73.2722 114.646 73.7682C110.554 76.0002 105.439 77.1162 99.3013 77.1162ZM88.2343 48.3791H107.578C107.702 40.6291 104.664 36.7541 98.4642 36.7541C94.8062 36.7541 92.2023 37.9321 90.6523 40.2881C89.1643 42.5821 88.3583 45.2791 88.2343 48.3791Z" fill="#04CFB1"/>
<path d="M128.434 68.6532V14.3411H123.412C122.482 14.3411 122.017 13.8761 122.017 12.9461V8.01712C122.017 7.08712 122.482 6.62212 123.412 6.62212H137.455C138.385 6.62212 138.85 7.08712 138.85 8.01712V36.9401C140.338 34.4601 142.322 32.5071 144.802 31.0811C147.344 29.6551 150.072 28.9421 152.986 28.9421C158.69 28.9421 163.154 30.8331 166.378 34.6151C169.602 38.3971 171.214 44.3182 171.214 52.3782C171.214 60.3762 169.354 66.5142 165.634 70.7922C161.976 75.0082 157.14 77.1162 151.126 77.1162C147.716 77.1162 144.74 76.5272 142.198 75.3492C139.718 74.1092 137.92 72.5902 136.804 70.7922L136.246 74.6052C136.184 75.5352 135.719 76.0002 134.851 76.0002H123.505C122.575 76.0002 122.11 75.5352 122.11 74.6052V70.0482C122.11 69.1182 122.575 68.6532 123.505 68.6532H128.434ZM138.85 47.9141V64.3752C139.594 65.4912 141.02 66.5761 143.128 67.6301C145.298 68.6841 147.406 69.2112 149.452 69.2112C156.954 69.2112 160.705 63.9102 160.705 53.3082C160.705 45.6202 158.969 40.7841 155.497 38.8001C154.009 37.9321 151.963 37.4981 149.359 37.4981C146.755 37.4981 144.337 38.4591 142.105 40.3811C139.935 42.2411 138.85 44.7521 138.85 47.9141Z" fill="#04CFB1"/>
<path d="M193.626 8.01712V68.6532H199.485C200.415 68.6532 200.88 69.1182 200.88 70.0482V74.6052C200.88 75.5352 200.415 76.0002 199.485 76.0002H177.351C176.421 76.0002 175.956 75.5352 175.956 74.6052V70.0482C175.956 69.1182 176.421 68.6532 177.351 68.6532H183.21V14.2481H178.188C177.258 14.2481 176.793 13.7831 176.793 12.8531V8.01712C176.793 7.08712 177.258 6.62212 178.188 6.62212H192.231C193.161 6.62212 193.626 7.08712 193.626 8.01712Z" fill="#04CFB1"/>
<path d="M203.788 36.5901C202.362 40.0001 201.649 44.0301 201.649 48.6801C201.649 56.4301 203.447 62.2892 207.043 66.2572C210.701 70.1632 215.785 72.1162 222.295 72.1162C228.805 72.1162 234.137 69.9772 238.291 65.6992C242.507 61.3592 244.615 55.0351 244.615 46.7271C244.615 42.8211 244.088 39.4111 243.034 36.4971C242.042 33.5831 240.802 31.3511 239.314 29.8011C237.888 28.2511 235.873 26.8871 233.269 25.7091C230.665 24.5311 227.472 23.9421 223.69 23.9421C218.544 23.9421 213.77 25.5851 209.368 28.8711C207.074 30.6071 205.214 33.1801 203.788 36.5901Z" fill="#04CFB1"/>
<path d="M260.5 38.5001C259.624 41.3824 259.069 45.0365 259.069 48.6801C259.069 56.4301 260.867 62.2892 264.463 66.2572C268.121 70.1632 273.205 72.1162 279.715 72.1162C286.225 72.1162 291.557 69.9772 295.711 65.6992C299.927 61.3592 302.035 55.0351 302.035 46.7271C302.035 42.8211 301.508 39.4111 300.454 36.4971C299.462 33.5831 298.222 31.3511 296.734 29.8011C295.308 28.2511 293.293 26.8871 290.689 25.7091C288.085 24.5311 284.892 23.9421 281.11 23.9421C275.964 23.9421 271.19 25.5851 266.788 28.8711C264.494 30.6071 262.634 33.1801 261.208 36.5901C260.619 38.0001 260.5 38.5001 260.5 38.5001Z" fill="#04CFB1"/>
<path d="M312.277 86.0432V33.5911H307.255C306.325 33.5911 305.86 33.1261 305.86 32.1961V27.3601C305.86 26.4301 306.325 25.9651 307.255 25.9651H319.903C320.647 25.9651 321.112 26.4301 321.298 27.3601L322.228 32.9401C325.39 27.6081 330.257 24.9421 336.829 24.9421C342.533 24.9421 346.997 26.8331 350.221 30.6151C353.445 34.3351 355.057 39.8531 355.057 47.1691C355.057 56.0351 353.166 62.5762 349.384 66.7922C345.602 71.0082 340.735 73.1162 334.783 73.1162C329.885 73.1162 325.855 71.8142 322.693 69.2102V85.9502H332.551C333.481 85.9502 333.946 86.4152 333.946 87.3452V91.9952C333.946 92.9252 333.481 93.3902 332.551 93.3902H307.348C306.418 93.3902 305.953 92.9252 305.953 91.9952V87.4382C305.953 86.5082 306.418 86.0432 307.348 86.0432H312.277ZM322.693 43.7281V61.4912C323.685 62.4832 325.204 63.3822 327.25 64.1882C329.296 64.9942 331.311 65.3972 333.295 65.3972C336.891 65.3972 339.65 64.1882 341.572 61.7702C343.556 59.2902 344.548 55.1361 344.548 49.3081C344.548 41.3721 342.812 36.5051 339.34 34.7071C337.852 33.9011 335.806 33.4981 333.202 33.4981C330.598 33.4981 328.18 34.4281 325.948 36.2881C323.778 38.0861 322.693 40.5661 322.693 43.7281Z" fill="#04CFB1"/>
<path d="M382.956 73.1162C375.578 73.1162 370.153 70.9772 366.681 66.6992C363.5 61.7702 361.566 56.6551 361.566 49.5871C361.566 42.4571 363.395 36.5671 367.053 31.9171C370.711 27.2671 375.981 24.9421 382.863 24.9421C386.273 24.9421 389.187 25.5931 391.605 26.8951C394.085 28.1351 395.976 29.8401 397.278 32.0101C399.758 36.2261 400.998 41.0931 400.998 46.6111C400.998 49.2151 400.874 50.6411 400.626 50.8891C400.378 51.1371 399.913 51.2611 399.231 51.2611H371.889C372.199 55.7251 373.284 59.1972 375.144 61.6772C377.066 64.0952 380.352 65.3042 385.002 65.3042C388.412 65.3042 391.915 64.4982 395.511 62.8862C396.379 62.4522 396.999 62.7002 397.371 63.6302L399.138 67.9082C399.448 68.6522 399.169 69.2722 398.301 69.7682C394.209 72.0002 389.094 73.1162 382.956 73.1162ZM371.889 44.3791H391.233C391.357 36.6291 388.319 32.7541 382.119 32.7541C378.461 32.7541 375.857 33.9321 374.307 36.2881C372.819 38.5821 372.013 41.2791 371.889 44.3791Z" fill="#04CFB1"/>
<path d="M422.411 33.9631C423.465 31.4831 425.171 29.3751 427.527 27.6391C429.883 25.8411 432.456 24.9421 435.246 24.9421C438.036 24.9421 440.175 25.1901 441.663 25.6861C442.407 25.9341 442.779 26.4921 442.779 27.3601V39.9151C442.779 40.8451 442.314 41.3101 441.384 41.3101H435.339C434.409 41.3101 433.974 40.8451 434.036 39.9151L434.409 34.5211C434.099 34.4591 433.572 34.4281 432.828 34.4281C429.976 34.4281 427.62 35.6061 425.76 37.9621C423.9 40.2561 422.97 43.3561 422.97 47.2621V64.6532H433.2C434.13 64.6532 434.595 65.1182 434.595 66.0482V70.6052C434.595 71.5352 434.13 72.0002 433.2 72.0002H407.625C406.695 72.0002 406.229 71.5352 406.229 70.6052V66.0482C406.229 65.1182 406.695 64.6532 407.625 64.6532H412.554V33.5911H407.531C406.601 33.5911 406.137 33.1261 406.137 32.1961V27.3601C406.137 26.4301 406.601 25.9651 407.531 25.9651H419.807C420.675 25.9651 421.203 26.4301 421.389 27.3601L422.411 33.9631Z" fill="#04CFB1"/>
<path d="M299.652 35.9C299.322 36.343 299.414 36.9695 299.857 37.2993C300.3 37.6291 300.927 37.5373 301.256 37.0943L299.652 35.9ZM252 37.0001L252.11 36.0062C252.027 35.9969 251.942 35.9982 251.859 36.0102L252 37.0001ZM243.684 38.0514C243.16 38.2261 242.877 38.7924 243.051 39.3163C243.226 39.8403 243.792 40.1234 244.316 39.9488L243.684 38.0514ZM322.693 6.62212L323.193 5.75627C322.754 5.50235 322.194 5.61788 321.891 6.025L322.693 6.62212ZM230.5 1.50012L231.049 0.664525C230.591 0.363179 229.975 0.487348 229.67 0.942822L230.5 1.50012ZM248.5 37.5001L248.359 36.5102C248.299 36.5187 248.241 36.5325 248.184 36.5514L248.5 37.5001ZM256.5 37.5001L256.743 36.53C256.699 36.5191 256.655 36.5112 256.61 36.5062L256.5 37.5001ZM331.5 12.8658C331.978 13.1422 332.59 12.9785 332.866 12.5003C333.142 12.0221 332.979 11.4105 332.5 11.1342L331.5 12.8658ZM237.742 7.45771C238.203 7.76111 238.823 7.63295 239.127 7.17146C239.43 6.70997 239.302 6.08991 238.84 5.78652L237.742 7.45771ZM301.256 37.0943L323.495 7.21924L321.891 6.025L299.652 35.9L301.256 37.0943ZM214.83 26.6405L231.33 2.05742L229.67 0.942822L213.17 25.5259L214.83 26.6405ZM244.316 39.9488L248.816 38.4488L248.184 36.5514L243.684 38.0514L244.316 39.9488ZM248.641 38.4901L252.141 37.9901L251.859 36.0102L248.359 36.5102L248.641 38.4901ZM251.89 37.994L256.39 38.494L256.61 36.5062L252.11 36.0062L251.89 37.994ZM256.257 38.4703L258.257 38.9703L258.743 37.03L256.743 36.53L256.257 38.4703ZM258.257 38.9703L260.257 39.4703L260.743 37.53L258.743 37.03L258.257 38.9703ZM332.5 11.1342L323.193 5.75627L322.193 7.48796L331.5 12.8658L332.5 11.1342ZM238.84 5.78652L231.049 0.664525L229.951 2.33572L237.742 7.45771L238.84 5.78652ZM17.345 31.3601L19.283 30.8661C19.2812 30.859 19.2794 30.8519 19.2775 30.8448L17.345 31.3601ZM25.808 64.5611L23.87 65.0552C24.0939 65.9338 24.8811 66.5519 25.7878 66.561C26.6945 66.5702 27.494 65.9682 27.7357 65.0942L25.808 64.5611ZM35.015 31.2671L33.092 30.7177C33.0904 30.7231 33.0889 30.7286 33.0874 30.7341L35.015 31.2671ZM45.989 31.2671L47.9133 30.7219L47.912 30.7177L45.989 31.2671ZM55.475 64.7472L53.5508 65.2924C53.7926 66.146 54.568 66.7383 55.4553 66.7471C56.3425 66.7558 57.1294 66.179 57.3881 65.3303L55.475 64.7472ZM63.752 37.5911L65.6651 38.1742C65.8499 37.568 65.7364 36.9101 65.3592 36.4008C64.982 35.8915 64.3858 35.5911 63.752 35.5911V37.5911ZM72.68 30.6161L70.9435 31.6084C71.0016 31.7101 71.0686 31.8065 71.1436 31.8965L72.68 30.6161ZM73.052 32.4761L74.9656 33.0578C74.9753 33.0258 74.9842 32.9936 74.9923 32.9612L73.052 32.4761ZM60.218 74.6982L58.3045 74.1165C58.3012 74.1272 58.298 74.138 58.295 74.1487L60.218 74.6982ZM48.314 74.6052L50.2465 74.0898L50.2453 74.0854L48.314 74.6052ZM39.479 41.7761L41.4103 41.2564C41.1762 40.3866 40.3896 39.7806 39.4888 39.7762C38.5881 39.7717 37.7955 40.37 37.5529 41.2375L39.479 41.7761ZM30.272 74.6982L32.1951 75.2476L32.1981 75.2368L30.272 74.6982ZM18.368 74.6982L16.4387 75.2252C16.4407 75.2327 16.4428 75.2401 16.445 75.2476L18.368 74.6982ZM8.231 37.5911L10.1603 37.0641C9.92271 36.1944 9.13259 35.5911 8.231 35.5911V37.5911ZM83.0263 70.6992L81.4536 71.9348C81.4601 71.9431 81.4667 71.9513 81.4733 71.9595L83.0263 70.6992ZM83.3982 35.9171L81.8263 34.6805L83.3982 35.9171ZM107.95 30.8951L107.002 32.6561C107.02 32.6656 107.038 32.6749 107.056 32.684L107.95 30.8951ZM113.623 36.0101L115.347 34.9961C115.344 34.9911 115.341 34.9861 115.338 34.9811L113.623 36.0101ZM116.971 54.8892L115.557 53.475L116.971 54.8892ZM88.2343 55.2612V53.2612C87.6798 53.2612 87.1501 53.4914 86.7719 53.8968C86.3936 54.3023 86.2006 54.8466 86.2391 55.3997L88.2343 55.2612ZM91.4893 65.6772L89.8893 66.8772C89.9005 66.8922 89.9119 66.907 89.9236 66.9217L91.4893 65.6772ZM111.856 66.8862L112.674 68.7112C112.7 68.6997 112.725 68.6876 112.751 68.675L111.856 66.8862ZM113.716 67.6301L111.859 68.3729C111.862 68.3799 111.865 68.3868 111.868 68.3937L113.716 67.6301ZM115.483 71.9081L113.635 72.6717L113.637 72.6774L115.483 71.9081ZM114.646 73.7682L115.604 75.5239C115.616 75.5176 115.627 75.5112 115.639 75.5046L114.646 73.7682ZM88.2343 48.3791L86.2359 48.2992C86.2141 48.8431 86.4149 49.3723 86.7921 49.7648C87.1692 50.1573 87.69 50.3791 88.2343 50.3791V48.3791ZM107.578 48.3791V50.3791C108.67 50.3791 109.561 49.5031 109.578 48.4111L107.578 48.3791ZM90.6523 40.2881L88.9814 39.1889L88.9743 39.1997L90.6523 40.2881ZM128.434 68.6532V70.6532C129.539 70.6532 130.434 69.7577 130.434 68.6532H128.434ZM128.434 14.3411H130.434C130.434 13.2365 129.539 12.3411 128.434 12.3411V14.3411ZM138.85 36.9401H136.85C136.85 37.8391 137.45 38.6276 138.316 38.8676C139.183 39.1075 140.103 38.74 140.565 37.9691L138.85 36.9401ZM144.802 31.0811L143.824 29.3368C143.818 29.3403 143.811 29.3438 143.805 29.3473L144.802 31.0811ZM166.378 34.6151L164.856 35.9126L166.378 34.6151ZM165.634 70.7922L164.125 69.4798L164.124 69.4814L165.634 70.7922ZM142.198 75.3492L141.304 77.138C141.322 77.1469 141.339 77.1555 141.357 77.1638L142.198 75.3492ZM136.804 70.7922L138.504 69.7374C138.061 69.0239 137.219 68.663 136.397 68.8341C135.575 69.0051 134.947 69.6716 134.825 70.5026L136.804 70.7922ZM136.246 74.6052L134.267 74.3156C134.26 74.3675 134.254 74.4197 134.251 74.4721L136.246 74.6052ZM138.85 64.3752H136.85C136.85 64.77 136.967 65.156 137.186 65.4846L138.85 64.3752ZM143.128 67.6301L142.234 69.419C142.241 69.4224 142.248 69.4258 142.254 69.4292L143.128 67.6301ZM155.497 38.8001L154.489 40.5277C154.495 40.5307 154.5 40.5337 154.505 40.5366L155.497 38.8001ZM142.105 40.3811L143.407 41.8996L143.41 41.8967L142.105 40.3811ZM193.626 68.6532H191.626C191.626 69.7577 192.521 70.6532 193.626 70.6532V68.6532ZM183.21 68.6532V70.6532C184.314 70.6532 185.21 69.7577 185.21 68.6532H183.21ZM183.21 14.2481H185.21C185.21 13.1435 184.314 12.2481 183.21 12.2481V14.2481ZM203.788 36.5901L205.633 37.3618V37.3617L203.788 36.5901ZM209.368 28.8711L208.172 27.2684L208.161 27.2763L209.368 28.8711ZM233.269 25.7091L232.445 27.5314L233.269 25.7091ZM239.314 29.8011L237.842 31.1552C237.852 31.1657 237.861 31.176 237.871 31.1862L239.314 29.8011ZM243.034 36.4971L241.141 37.1417C241.145 37.1536 241.149 37.1655 241.153 37.1774L243.034 36.4971ZM238.291 65.6992L236.856 64.3056V64.3059L238.291 65.6992ZM207.043 66.2572L205.561 67.6002C205.568 67.6083 205.576 67.6163 205.583 67.6243L207.043 66.2572ZM260.5 38.5001L262.414 39.0814C262.426 39.0418 262.436 39.0019 262.446 38.9616L260.5 38.5001ZM261.208 36.5901L259.363 35.8185L261.208 36.5901ZM266.788 28.8711L265.592 27.2684L265.581 27.2763L266.788 28.8711ZM290.689 25.7091L291.514 23.8869L290.689 25.7091ZM296.734 29.8011L295.262 31.1553C295.272 31.1657 295.282 31.176 295.291 31.1862L296.734 29.8011ZM300.454 36.4971L298.561 37.1417C298.565 37.1536 298.569 37.1655 298.573 37.1774L300.454 36.4971ZM295.711 65.6992L294.277 64.3056L294.276 64.3059L295.711 65.6992ZM264.463 66.2572L262.981 67.6002C262.989 67.6083 262.996 67.6163 263.003 67.6243L264.463 66.2572ZM312.277 86.0432V88.0432C313.382 88.0432 314.277 87.1477 314.277 86.0432H312.277ZM312.277 33.5911H314.277C314.277 32.4866 313.382 31.5911 312.277 31.5911V33.5911ZM321.298 27.3601L323.271 27.0313C323.267 27.0101 323.263 26.989 323.259 26.9679L321.298 27.3601ZM322.228 32.9401L320.255 33.2689C320.393 34.0975 321.034 34.7514 321.86 34.906C322.686 35.0605 323.52 34.6827 323.948 33.9603L322.228 32.9401ZM350.221 30.6151L348.699 31.9126C348.702 31.9167 348.706 31.9209 348.71 31.925L350.221 30.6151ZM349.384 66.7922L350.873 68.1277L349.384 66.7922ZM322.693 69.2102L323.964 67.6663C323.367 67.1743 322.539 67.0712 321.839 67.4015C321.14 67.7318 320.693 68.4362 320.693 69.2102H322.693ZM322.693 85.9502H320.693C320.693 87.0547 321.588 87.9502 322.693 87.9502V85.9502ZM322.693 61.4912H320.693C320.693 62.0216 320.904 62.5303 321.279 62.9054L322.693 61.4912ZM327.25 64.1882L326.517 66.049L327.25 64.1882ZM341.572 61.7702L340.01 60.5208L340.006 60.5257L341.572 61.7702ZM339.34 34.7071L338.387 36.4657C338.398 36.4716 338.409 36.4774 338.42 36.4831L339.34 34.7071ZM325.948 36.2881L327.224 37.8282L327.228 37.8246L325.948 36.2881ZM366.681 66.6992L365 67.7835C365.039 67.8445 365.082 67.9032 365.128 67.9595L366.681 66.6992ZM367.053 31.9171L365.481 30.6805L367.053 31.9171ZM391.605 26.8951L390.656 28.6561C390.674 28.6656 390.692 28.6749 390.71 28.684L391.605 26.8951ZM397.278 32.0101L399.001 30.9961C398.998 30.9911 398.995 30.9861 398.993 30.9811L397.278 32.0101ZM400.626 50.8891L399.211 49.4749L400.626 50.8891ZM371.889 51.2611V49.2611C371.334 49.2611 370.804 49.4913 370.426 49.8968C370.048 50.3022 369.855 50.8465 369.893 51.3997L371.889 51.2611ZM375.144 61.6772L373.544 62.8772C373.555 62.8922 373.566 62.907 373.578 62.9217L375.144 61.6772ZM395.511 62.8862L396.329 64.7112C396.354 64.6997 396.38 64.6876 396.405 64.675L395.511 62.8862ZM397.371 63.6302L395.514 64.3729C395.516 64.3799 395.519 64.3868 395.522 64.3937L397.371 63.6302ZM399.138 67.9082L397.289 68.6717L397.291 68.6774L399.138 67.9082ZM398.301 69.7682L399.258 71.524C399.27 71.5176 399.281 71.5112 399.293 71.5047L398.301 69.7682ZM371.889 44.3791L369.89 44.2992C369.868 44.843 370.069 45.3723 370.446 45.7648C370.823 46.1573 371.344 46.3791 371.889 46.3791V44.3791ZM391.233 44.3791V46.3791C392.325 46.3791 393.215 45.5031 393.232 44.4111L391.233 44.3791ZM374.307 36.2881L372.636 35.1889L372.629 35.1997L374.307 36.2881ZM422.411 33.9631L420.435 34.2693C420.572 35.1521 421.277 35.8372 422.164 35.9477C423.05 36.0583 423.903 35.5676 424.252 34.7454L422.411 33.9631ZM427.527 27.6391L428.713 29.2492C428.722 29.2426 428.731 29.2358 428.74 29.229L427.527 27.6391ZM441.663 25.6861L441.03 27.5835L441.663 25.6861ZM434.036 39.9151L432.041 39.7775V39.7821L434.036 39.9151ZM434.409 34.5211L436.404 34.6587C436.473 33.6556 435.787 32.7571 434.801 32.56L434.409 34.5211ZM425.76 37.9621L427.313 39.2217C427.318 39.215 427.324 39.2082 427.329 39.2014L425.76 37.9621ZM422.97 64.6532H420.97C420.97 65.7577 421.865 66.6532 422.97 66.6532V64.6532ZM412.554 64.6532V66.6532C413.658 66.6532 414.554 65.7577 414.554 64.6532H412.554ZM412.554 33.5911H414.554C414.554 32.4866 413.658 31.5911 412.554 31.5911V33.5911ZM421.389 27.3601L423.365 27.0539C423.36 27.0251 423.355 26.9964 423.35 26.9679L421.389 27.3601ZM15.407 31.8541L23.87 65.0552L27.746 64.0671L19.283 30.8661L15.407 31.8541ZM27.7357 65.0942L36.9427 31.8002L33.0874 30.7341L23.8803 64.0281L27.7357 65.0942ZM36.9381 31.8166C36.955 31.7572 36.9644 31.7524 36.9473 31.779C36.9279 31.8092 36.8892 31.8565 36.8292 31.9007C36.7697 31.9446 36.719 31.9635 36.6979 31.9695C36.6807 31.9744 36.7034 31.9651 36.782 31.9651V27.9651C36.0067 27.9651 35.1779 28.1489 34.4564 28.6805C33.7291 29.2164 33.3084 29.9601 33.092 30.7177L36.9381 31.8166ZM36.782 31.9651H44.222V27.9651H36.782V31.9651ZM44.222 31.9651C44.3006 31.9651 44.3233 31.9744 44.3061 31.9695C44.2851 31.9635 44.2343 31.9446 44.1749 31.9007C44.1148 31.8565 44.0761 31.8092 44.0567 31.779C44.0396 31.7524 44.049 31.7572 44.066 31.8166L47.912 30.7177C47.6956 29.9601 47.2749 29.2164 46.5477 28.6805C45.8261 28.1489 44.9973 27.9651 44.222 27.9651V31.9651ZM44.0647 31.8123L53.5508 65.2924L57.3993 64.2019L47.9133 30.7219L44.0647 31.8123ZM57.3881 65.3303L65.6651 38.1742L61.8389 37.008L53.5619 64.164L57.3881 65.3303ZM63.752 35.5911H59.288V39.5911H63.752V35.5911ZM59.288 35.5911C59.1313 35.5911 59.3811 35.5533 59.656 35.8282C59.9308 36.103 59.893 36.3528 59.893 36.1961H55.893C55.893 36.9694 56.0877 37.9167 56.8275 38.6566C57.5674 39.3964 58.5147 39.5911 59.288 39.5911V35.5911ZM59.893 36.1961V31.3601H55.893V36.1961H59.893ZM59.893 31.3601C59.893 31.2034 59.9308 31.4532 59.656 31.7281C59.3811 32.0029 59.1313 31.9651 59.288 31.9651V27.9651C58.5147 27.9651 57.5674 28.1598 56.8275 28.8997C56.0877 29.6395 55.893 30.5868 55.893 31.3601H59.893ZM59.288 31.9651H71.192V27.9651H59.288V31.9651ZM71.192 31.9651C71.3849 31.9651 71.4009 31.9954 71.3204 31.9602C71.2746 31.9402 71.2055 31.9021 71.1305 31.8365C71.0542 31.7697 70.9906 31.6908 70.9435 31.6084L74.4165 29.6238C73.6562 28.2934 72.2707 27.9651 71.192 27.9651V31.9651ZM71.1436 31.8965C71.2155 31.9828 71.2225 32.0104 71.208 31.9785C71.1915 31.9422 71.145 31.8227 71.145 31.6391H75.145C75.145 30.6613 74.6665 29.8758 74.2165 29.3357L71.1436 31.8965ZM71.145 31.6391C71.145 31.8189 71.1267 31.931 71.1117 31.9911L74.9923 32.9612C75.1013 32.5252 75.145 32.0793 75.145 31.6391H71.145ZM71.1384 31.8945L58.3045 74.1165L62.1316 75.2798L74.9656 33.0578L71.1384 31.8945ZM58.295 74.1487C58.278 74.2081 58.2686 74.2129 58.2857 74.1863C58.3051 74.1561 58.3438 74.1088 58.4039 74.0645C58.4633 74.0207 58.5141 74.0018 58.5351 73.9957C58.5523 73.9908 58.5296 74.0002 58.451 74.0002V78.0002C59.2263 78.0002 60.0551 77.8164 60.7767 77.2848C61.5039 76.7489 61.9246 76.0051 62.1411 75.2476L58.295 74.1487ZM58.451 74.0002H50.081V78.0002H58.451V74.0002ZM50.081 74.0002C50.0139 74.0002 50.0039 73.9917 50.0329 74.0006C50.0663 74.0108 50.1223 74.0353 50.181 74.0816C50.2391 74.1275 50.2695 74.1708 50.2789 74.1865C50.2861 74.1985 50.2689 74.1738 50.2465 74.0898L46.3815 75.1205C46.5851 75.884 46.9841 76.654 47.7025 77.2212C48.4277 77.7937 49.2765 78.0002 50.081 78.0002V74.0002ZM50.2453 74.0854L41.4103 41.2564L37.5477 42.2959L46.3827 75.1249L50.2453 74.0854ZM37.5529 41.2375L28.3459 74.1595L32.1981 75.2368L41.4051 42.3148L37.5529 41.2375ZM28.349 74.1487C28.332 74.2081 28.3226 74.2129 28.3397 74.1863C28.3591 74.1561 28.3978 74.1088 28.4579 74.0645C28.5173 74.0207 28.568 74.0018 28.5891 73.9957C28.6063 73.9908 28.5836 74.0002 28.505 74.0002V78.0002C29.2803 78.0002 30.1091 77.8164 30.8307 77.2848C31.5579 76.7489 31.9786 76.0051 32.195 75.2476L28.349 74.1487ZM28.505 74.0002H20.135V78.0002H28.505V74.0002ZM20.135 74.0002C20.0564 74.0002 20.0337 73.9908 20.0509 73.9957C20.072 74.0018 20.1227 74.0207 20.1822 74.0645C20.2422 74.1088 20.2809 74.1561 20.3003 74.1863C20.3174 74.2129 20.308 74.2081 20.2911 74.1487L16.445 75.2476C16.6614 76.0051 17.0821 76.7489 17.8094 77.2848C18.5309 77.8164 19.3597 78.0002 20.135 78.0002V74.0002ZM20.2973 74.1711L10.1603 37.0641L6.3017 38.1182L16.4387 75.2252L20.2973 74.1711ZM8.231 35.5911H3.395V39.5911H8.231V35.5911ZM3.395 35.5911C3.23829 35.5911 3.48811 35.5533 3.76297 35.8282C4.03782 36.103 4 36.3528 4 36.1961H0C0 36.9694 0.194677 37.9167 0.934534 38.6566C1.67439 39.3964 2.62171 39.5911 3.395 39.5911V35.5911ZM4 36.1961V31.3601H0V36.1961H4ZM4 31.3601C4 31.2034 4.03782 31.4532 3.76297 31.7281C3.48811 32.0029 3.23829 31.9651 3.395 31.9651V27.9651C2.62171 27.9651 1.67439 28.1598 0.934534 28.8997C0.194677 29.6395 0 30.5868 0 31.3601H4ZM3.395 31.9651H15.578V27.9651H3.395V31.9651ZM15.578 31.9651C15.6451 31.9651 15.6551 31.9736 15.6261 31.9647C15.5927 31.9545 15.5367 31.93 15.478 31.8836C15.4199 31.8378 15.3895 31.7945 15.3801 31.7788C15.3729 31.7668 15.3901 31.7914 15.4125 31.8754L19.2775 30.8448C19.0739 30.0813 18.6749 29.3113 17.9565 28.7441C17.2313 28.1716 16.3825 27.9651 15.578 27.9651V31.9651ZM99.3013 75.1162C92.3077 75.1162 87.5525 73.1023 84.5792 69.4388L81.4733 71.9595C85.444 76.852 91.5388 79.1162 99.3013 79.1162V75.1162ZM84.5989 69.4635C81.5353 65.5644 79.9112 60.3344 79.9112 53.5872H75.9112C75.9112 60.976 77.6972 67.1539 81.4536 71.9348L84.5989 69.4635ZM79.9112 53.5872C79.9112 46.8106 81.643 41.3831 84.9702 37.1537L81.8263 34.6805C77.8375 39.7511 75.9112 46.1037 75.9112 53.5872H79.9112ZM84.9702 37.1537C88.1844 33.0678 92.8269 30.9421 99.2083 30.9421V26.9421C91.8256 26.9421 85.9281 29.4664 81.8263 34.6805L84.9702 37.1537ZM99.2083 30.9421C102.366 30.9421 104.938 31.5445 107.002 32.6561L108.898 29.1342C106.127 27.6417 102.87 26.9421 99.2083 26.9421V30.9421ZM107.056 32.684C109.229 33.7707 110.821 35.2262 111.908 37.0391L115.338 34.9811C113.822 32.454 111.631 30.4995 108.845 29.1063L107.056 32.684ZM111.899 37.0242C114.176 40.8949 115.343 45.4031 115.343 50.6111H119.343C119.343 44.7832 118.03 39.5573 115.347 34.9961L111.899 37.0242ZM115.343 50.6111C115.343 51.8938 115.312 52.8337 115.258 53.4604C115.23 53.7789 115.201 53.9629 115.182 54.0484C115.172 54.0916 115.175 54.0651 115.201 53.9982C115.217 53.9601 115.31 53.7217 115.557 53.475L118.385 56.3034C118.694 55.9946 118.846 55.6574 118.915 55.4837C118.996 55.2811 119.049 55.0822 119.086 54.9161C119.16 54.5832 119.208 54.2014 119.243 53.8069C119.312 53.0076 119.343 51.9324 119.343 50.6111H115.343ZM115.557 53.475C115.658 53.3738 115.754 53.3128 115.819 53.2788C115.852 53.2618 115.878 53.251 115.895 53.2447C115.911 53.2383 115.921 53.2358 115.921 53.2357C115.922 53.2356 115.915 53.2374 115.899 53.2402C115.884 53.2429 115.862 53.2463 115.832 53.2495C115.772 53.2561 115.687 53.2612 115.576 53.2612V57.2612C116.348 57.2612 117.537 57.1523 118.385 56.3034L115.557 53.475ZM115.576 53.2612H88.2343V57.2612H115.576V53.2612ZM86.2391 55.3997C86.5645 60.0864 87.7168 63.9806 89.8893 66.8772L93.0893 64.4772C91.5417 62.4137 90.524 59.364 90.2294 55.1226L86.2391 55.3997ZM89.9236 66.9217C92.3856 70.019 96.4032 71.3042 101.347 71.3042V67.3042C96.9913 67.3042 94.4369 66.1714 93.0549 64.4327L89.9236 66.9217ZM101.347 71.3042C105.08 71.3042 108.861 70.4207 112.674 68.7112L111.038 65.0611C107.66 66.5756 104.435 67.3042 101.347 67.3042V71.3042ZM112.751 68.675C112.91 68.5954 112.654 68.7733 112.229 68.6036C111.824 68.4415 111.775 68.1631 111.859 68.3729L115.573 66.8874C115.285 66.1672 114.74 65.2998 113.715 64.8897C112.671 64.472 111.671 64.7429 110.962 65.0973L112.751 68.675ZM111.868 68.3937L113.635 72.6717L117.332 71.1446L115.565 66.8666L111.868 68.3937ZM113.637 72.6774C113.636 72.6746 113.609 72.6073 113.606 72.4883C113.603 72.3617 113.63 72.2284 113.683 72.1104C113.781 71.892 113.886 71.8992 113.654 72.0317L115.639 75.5046C116.275 75.1411 116.953 74.5903 117.33 73.7519C117.739 72.8445 117.654 71.9185 117.329 71.1389L113.637 72.6774ZM113.689 72.0124C109.969 74.0413 105.207 75.1162 99.3013 75.1162V79.1162C105.671 79.1162 111.14 77.959 115.604 75.5239L113.689 72.0124ZM88.2343 50.3791H107.578V46.3791H88.2343V50.3791ZM109.578 48.4111C109.643 44.3254 108.891 40.8805 106.967 38.4264C104.972 35.8827 102.004 34.7541 98.4642 34.7541V38.7541C101.125 38.7541 102.775 39.5631 103.819 40.8943C104.933 42.3153 105.637 44.6828 105.579 48.3471L109.578 48.4111ZM98.4642 34.7541C94.3576 34.7541 91.0097 36.106 88.9814 39.1889L92.3231 41.3874C93.3948 39.7583 95.2549 38.7541 98.4642 38.7541V34.7541ZM88.9743 39.1997C87.2657 41.8339 86.3722 44.8897 86.2359 48.2992L90.2327 48.4591C90.3443 45.6686 91.0628 43.3304 92.3302 41.3765L88.9743 39.1997ZM130.434 68.6532V14.3411H126.434V68.6532H130.434ZM128.434 12.3411H123.412V16.3411H128.434V12.3411ZM123.412 12.3411C123.256 12.3411 123.505 12.3033 123.78 12.5782C124.055 12.853 124.017 13.1028 124.017 12.9461H120.017C120.017 13.7194 120.212 14.6667 120.952 15.4066C121.692 16.1464 122.639 16.3411 123.412 16.3411V12.3411ZM124.017 12.9461V8.01712H120.017V12.9461H124.017ZM124.017 8.01712C124.017 7.86041 124.055 8.11022 123.78 8.38508C123.505 8.65994 123.256 8.62212 123.412 8.62212V4.62212C122.639 4.62212 121.692 4.8168 120.952 5.55666C120.212 6.29652 120.017 7.24384 120.017 8.01712H124.017ZM123.412 8.62212H137.455V4.62212H123.412V8.62212ZM137.455 8.62212C137.612 8.62212 137.362 8.65994 137.087 8.38507C136.812 8.11021 136.85 7.8604 136.85 8.01712H140.85C140.85 7.24384 140.656 6.29653 139.916 5.55667C139.176 4.8168 138.229 4.62212 137.455 4.62212V8.62212ZM136.85 8.01712V36.9401H140.85V8.01712H136.85ZM140.565 37.9691C141.88 35.778 143.618 34.0691 145.799 32.8149L143.805 29.3473C141.026 30.9452 138.797 33.1422 137.135 35.9111L140.565 37.9691ZM145.781 32.8254C148.024 31.567 150.415 30.9421 152.986 30.9421V26.9421C149.729 26.9421 146.665 27.7432 143.824 29.3368L145.781 32.8254ZM152.986 30.9421C158.201 30.9421 162.071 32.6448 164.856 35.9126L167.9 33.3176C164.238 29.0214 159.18 26.9421 152.986 26.9421V30.9421ZM164.856 35.9126C167.63 39.1667 169.214 44.5171 169.214 52.3782H173.214C173.214 44.1192 171.574 37.6275 167.9 33.3176L164.856 35.9126ZM169.214 52.3782C169.214 60.0903 167.42 65.6908 164.125 69.4798L167.143 72.1045C171.289 67.3376 173.214 60.662 173.214 52.3782H169.214ZM164.124 69.4814C160.878 73.2227 156.611 75.1162 151.126 75.1162V79.1162C157.669 79.1162 163.075 76.7936 167.145 72.1029L164.124 69.4814ZM151.126 75.1162C147.945 75.1162 145.267 74.5669 143.039 73.5345L141.357 77.1638C144.214 78.4875 147.488 79.1162 151.126 79.1162V75.1162ZM143.093 73.5603C140.843 72.4356 139.373 71.1375 138.504 69.7374L135.105 71.8469C136.468 74.0428 138.593 75.7827 141.304 77.138L143.093 73.5603ZM134.825 70.5026L134.267 74.3156L138.225 74.8948L138.783 71.0817L134.825 70.5026ZM134.251 74.4721C134.239 74.6536 134.208 74.4664 134.437 74.2372C134.549 74.1251 134.672 74.0582 134.768 74.0246C134.855 73.9941 134.894 74.0002 134.851 74.0002V78.0002C135.64 78.0002 136.549 77.7816 137.265 77.0656C137.959 76.3714 138.192 75.4867 138.242 74.7382L134.251 74.4721ZM134.851 74.0002H123.505V78.0002H134.851V74.0002ZM123.505 74.0002C123.349 74.0002 123.598 73.9623 123.873 74.2372C124.148 74.5121 124.11 74.7619 124.11 74.6052H120.11C120.11 75.3784 120.305 76.3258 121.045 77.0656C121.785 77.8055 122.732 78.0002 123.505 78.0002V74.0002ZM124.11 74.6052V70.0482H120.11V74.6052H124.11ZM124.11 70.0482C124.11 69.8915 124.148 70.1413 123.873 70.4161C123.598 70.691 123.349 70.6532 123.505 70.6532V66.6532C122.732 66.6532 121.785 66.8478 121.045 67.5877C120.305 68.3276 120.11 69.2749 120.11 70.0482H124.11ZM123.505 70.6532H128.434V66.6532H123.505V70.6532ZM136.85 47.9141V64.3752H140.85V47.9141H136.85ZM137.186 65.4846C138.219 67.0342 140.019 68.3114 142.234 69.419L144.023 65.8413C142.022 64.8409 140.969 63.9481 140.514 63.2658L137.186 65.4846ZM142.254 69.4292C144.648 70.5919 147.054 71.2112 149.452 71.2112V67.2112C147.759 67.2112 145.948 66.7764 144.002 65.8311L142.254 69.4292ZM149.452 71.2112C153.736 71.2112 157.212 69.659 159.525 66.3907C161.748 63.2492 162.705 58.7842 162.705 53.3082H158.705C158.705 58.4342 157.787 61.9206 156.259 64.0802C154.821 66.1129 152.67 67.2112 149.452 67.2112V71.2112ZM162.705 53.3082C162.705 45.545 160.992 39.6362 156.49 37.0636L154.505 40.5366C156.947 41.932 158.705 45.6954 158.705 53.3082H162.705ZM156.505 37.0726C154.593 35.9574 152.15 35.4981 149.359 35.4981V39.4981C151.776 39.4981 153.425 39.9068 154.489 40.5277L156.505 37.0726ZM149.359 35.4981C146.213 35.4981 143.344 36.6747 140.8 38.8656L143.41 41.8967C145.33 40.2435 147.297 39.4981 149.359 39.4981V35.4981ZM140.804 38.8626C138.14 41.1458 136.85 44.2381 136.85 47.9141H140.85C140.85 45.2661 141.731 43.3364 143.407 41.8996L140.804 38.8626ZM191.626 8.01712V68.6532H195.626V8.01712H191.626ZM193.626 70.6532H199.485V66.6532H193.626V70.6532ZM199.485 70.6532C199.641 70.6532 199.392 70.691 199.117 70.4161C198.842 70.1413 198.88 69.8915 198.88 70.0482H202.88C202.88 69.2749 202.685 68.3276 201.945 67.5877C201.205 66.8478 200.258 66.6532 199.485 66.6532V70.6532ZM198.88 70.0482V74.6052H202.88V70.0482H198.88ZM198.88 74.6052C198.88 74.7619 198.842 74.512 199.117 74.2372C199.392 73.9623 199.641 74.0002 199.485 74.0002V78.0002C200.258 78.0002 201.205 77.8055 201.945 77.0656C202.685 76.3258 202.88 75.3785 202.88 74.6052H198.88ZM199.485 74.0002H177.351V78.0002H199.485V74.0002ZM177.351 74.0002C177.194 74.0002 177.444 73.9623 177.719 74.2372C177.994 74.5121 177.956 74.7619 177.956 74.6052H173.956C173.956 75.3784 174.15 76.3257 174.89 77.0656C175.63 77.8055 176.577 78.0002 177.351 78.0002V74.0002ZM177.956 74.6052V70.0482H173.956V74.6052H177.956ZM177.956 70.0482C177.956 69.8914 177.994 70.1413 177.719 70.4161C177.444 70.691 177.194 70.6532 177.351 70.6532V66.6532C176.577 66.6532 175.63 66.8478 174.89 67.5877C174.15 68.3276 173.956 69.2749 173.956 70.0482H177.956ZM177.351 70.6532H183.21V66.6532H177.351V70.6532ZM185.21 68.6532V14.2481H181.21V68.6532H185.21ZM183.21 12.2481H178.188V16.2481H183.21V12.2481ZM178.188 12.2481C178.031 12.2481 178.281 12.2103 178.556 12.4852C178.831 12.76 178.793 13.0098 178.793 12.8531H174.793C174.793 13.6264 174.987 14.5737 175.727 15.3136C176.467 16.0534 177.414 16.2481 178.188 16.2481V12.2481ZM178.793 12.8531V8.01712H174.793V12.8531H178.793ZM178.793 8.01712C178.793 7.86041 178.831 8.11023 178.556 8.38508C178.281 8.65994 178.031 8.62212 178.188 8.62212V4.62212C177.414 4.62212 176.467 4.8168 175.727 5.55665C174.987 6.29651 174.793 7.24383 174.793 8.01712H178.793ZM178.188 8.62212H192.231V4.62212H178.188V8.62212ZM192.231 8.62212C192.387 8.62212 192.138 8.65994 191.863 8.38508C191.588 8.11023 191.626 7.86041 191.626 8.01712H195.626C195.626 7.24383 195.431 6.29651 194.691 5.55665C193.951 4.8168 193.004 4.62212 192.231 4.62212V8.62212ZM203.649 48.6801C203.649 44.2291 204.332 40.4731 205.633 37.3618L201.943 35.8185C200.392 39.5272 199.649 43.8311 199.649 48.6801H203.649ZM205.633 37.3617C206.961 34.1867 208.632 31.9362 210.575 30.466L208.161 27.2763C205.516 29.2781 203.467 32.1735 201.943 35.8185L205.633 37.3617ZM210.564 30.4738C214.646 27.4273 219.005 25.9421 223.69 25.9421V21.9421C218.083 21.9421 212.894 23.743 208.172 27.2684L210.564 30.4738ZM223.69 25.9421C227.275 25.9421 230.169 26.5019 232.445 27.5314L234.093 23.8869C231.161 22.5604 227.669 21.9421 223.69 21.9421V25.9421ZM232.445 27.5314C234.886 28.6357 236.651 29.8604 237.842 31.1552L240.786 28.447C239.125 26.6419 236.86 25.1386 234.093 23.8869L232.445 27.5314ZM237.871 31.1862C239.089 32.4544 240.205 34.3934 241.141 37.1417L244.927 35.8526C243.879 32.7729 242.515 30.2478 240.757 28.4161L237.871 31.1862ZM241.153 37.1774C242.111 39.8248 242.615 42.9953 242.615 46.7271H246.615C246.615 42.647 246.065 38.9975 244.915 35.8169L241.153 37.1774ZM242.615 46.7271C242.615 54.7123 240.592 60.46 236.856 64.3056L239.726 67.0928C244.422 62.2584 246.615 55.358 246.615 46.7271H242.615ZM236.856 64.3059C233.115 68.1584 228.319 70.1162 222.295 70.1162V74.1162C229.291 74.1162 235.159 71.796 239.726 67.0924L236.856 64.3059ZM222.295 70.1162C216.209 70.1162 211.703 68.3069 208.503 64.8901L205.583 67.6243C209.699 72.0194 215.361 74.1162 222.295 74.1162V70.1162ZM208.525 64.9141C205.385 61.4493 203.649 56.153 203.649 48.6801H199.649C199.649 56.7073 201.509 63.129 205.561 67.6002L208.525 64.9141ZM261.069 48.6801C261.069 45.2201 261.599 41.7629 262.414 39.0814L258.586 37.9188C257.65 41.0019 257.069 44.8528 257.069 48.6801H261.069ZM260.5 38.5001C262.446 38.9616 262.446 38.962 262.446 38.9625C262.446 38.9626 262.446 38.9631 262.446 38.9634C262.445 38.964 262.445 38.9646 262.445 38.9651C262.445 38.9663 262.445 38.9674 262.444 38.9685C262.444 38.9707 262.443 38.9727 262.443 38.9746C262.442 38.9783 262.441 38.9815 262.441 38.9841C262.439 38.9893 262.438 38.9922 262.438 38.9927C262.438 38.9936 262.44 38.9849 262.446 38.9659C262.457 38.9276 262.482 38.8489 262.525 38.7229C262.611 38.4702 262.772 38.034 263.053 37.3617L259.363 35.8185C259.055 36.5562 258.861 37.0751 258.741 37.4249C258.681 37.6001 258.639 37.7345 258.609 37.834C258.595 37.8839 258.583 37.9253 258.574 37.9591C258.57 37.976 258.566 37.991 258.562 38.0042C258.561 38.0108 258.559 38.017 258.558 38.0227C258.557 38.0256 258.556 38.0283 258.556 38.031C258.555 38.0323 258.555 38.0336 258.555 38.0349C258.555 38.0355 258.555 38.0362 258.554 38.0368C258.554 38.0371 258.554 38.0376 258.554 38.0377C258.554 38.0382 258.554 38.0387 260.5 38.5001ZM263.053 37.3617C264.381 34.1868 266.052 31.9362 267.995 30.466L265.581 27.2763C262.936 29.2781 260.887 32.1735 259.363 35.8185L263.053 37.3617ZM267.985 30.4738C272.066 27.4273 276.425 25.9421 281.11 25.9421V21.9421C275.503 21.9421 270.315 23.743 265.592 27.2684L267.985 30.4738ZM281.11 25.9421C284.695 25.9421 287.589 26.5019 289.865 27.5314L291.514 23.8869C288.581 22.5604 285.089 21.9421 281.11 21.9421V25.9421ZM289.865 27.5314C292.306 28.6357 294.071 29.8604 295.262 31.1553L298.206 28.447C296.545 26.6419 294.28 25.1386 291.514 23.8869L289.865 27.5314ZM295.291 31.1862C296.509 32.4544 297.625 34.3934 298.561 37.1417L302.347 35.8526C301.299 32.7729 299.935 30.2478 298.177 28.4161L295.291 31.1862ZM298.573 37.1774C299.531 39.8248 300.035 42.9953 300.035 46.7271H304.035C304.035 42.647 303.485 38.9975 302.335 35.8169L298.573 37.1774ZM300.035 46.7271C300.035 54.7123 298.012 60.46 294.277 64.3056L297.146 67.0928C301.842 62.2584 304.035 55.3579 304.035 46.7271H300.035ZM294.276 64.3059C290.536 68.1584 285.739 70.1162 279.715 70.1162V74.1162C286.711 74.1162 292.579 71.796 297.146 67.0924L294.276 64.3059ZM279.715 70.1162C273.629 70.1162 269.123 68.3069 265.923 64.8901L263.003 67.6243C267.119 72.0194 272.781 74.1162 279.715 74.1162V70.1162ZM265.945 64.9141C262.805 61.4493 261.069 56.153 261.069 48.6801H257.069C257.069 56.7073 258.929 63.129 262.981 67.6002L265.945 64.9141ZM314.277 86.0432V33.5911H310.277V86.0432H314.277ZM312.277 31.5911H307.255V35.5911H312.277V31.5911ZM307.255 31.5911C307.098 31.5911 307.348 31.5533 307.623 31.8282C307.898 32.103 307.86 32.3528 307.86 32.1961H303.86C303.86 32.9694 304.055 33.9167 304.795 34.6566C305.534 35.3964 306.482 35.5911 307.255 35.5911V31.5911ZM307.86 32.1961V27.3601H303.86V32.1961H307.86ZM307.86 27.3601C307.86 27.2034 307.898 27.4532 307.623 27.7281C307.348 28.0029 307.098 27.9651 307.255 27.9651V23.9651C306.482 23.9651 305.534 24.1598 304.795 24.8997C304.055 25.6395 303.86 26.5868 303.86 27.3601H307.86ZM307.255 27.9651H319.903V23.9651H307.255V27.9651ZM319.903 27.9651C319.88 27.9651 319.8 27.9611 319.691 27.919C319.577 27.8751 319.474 27.8066 319.396 27.7281C319.251 27.5833 319.289 27.5114 319.337 27.7523L323.259 26.9679C323.121 26.2788 322.834 25.5095 322.224 24.8997C321.566 24.2416 320.729 23.9651 319.903 23.9651V27.9651ZM319.325 27.6889L320.255 33.2689L324.201 32.6113L323.271 27.0313L319.325 27.6889ZM323.948 33.9603C326.724 29.2789 330.911 26.9421 336.829 26.9421V22.9421C329.603 22.9421 324.056 25.9373 320.508 31.92L323.948 33.9603ZM336.829 26.9421C342.044 26.9421 345.913 28.6448 348.699 31.9126L351.743 29.3176C348.081 25.0214 343.022 22.9421 336.829 22.9421V26.9421ZM348.71 31.925C351.496 35.1401 353.057 40.107 353.057 47.1691H357.057C357.057 39.5992 355.394 33.5301 351.732 29.3053L348.71 31.925ZM353.057 47.1691C353.057 55.8086 351.205 61.7666 347.895 65.4566L350.873 68.1277C355.127 63.3857 357.057 56.2616 357.057 47.1691H353.057ZM347.895 65.4566C344.514 69.226 340.2 71.1162 334.783 71.1162V75.1162C341.27 75.1162 346.69 72.7903 350.873 68.1277L347.895 65.4566ZM334.783 71.1162C330.254 71.1162 326.702 69.9204 323.964 67.6663L321.422 70.754C325.008 73.7079 329.516 75.1162 334.783 75.1162V71.1162ZM320.693 69.2102V85.9502H324.693V69.2102H320.693ZM322.693 87.9502H332.551V83.9502H322.693V87.9502ZM332.551 87.9502C332.708 87.9502 332.458 87.988 332.183 87.7131C331.908 87.4382 331.946 87.1884 331.946 87.3452H335.946C335.946 86.5719 335.751 85.6246 335.011 84.8847C334.272 84.1448 333.324 83.9502 332.551 83.9502V87.9502ZM331.946 87.3452V91.9952H335.946V87.3452H331.946ZM331.946 91.9952C331.946 92.1519 331.908 91.9021 332.183 91.6272C332.458 91.3523 332.708 91.3902 332.551 91.3902V95.3902C333.324 95.3902 334.272 95.1955 335.011 94.4556C335.751 93.7157 335.946 92.7684 335.946 91.9952H331.946ZM332.551 91.3902H307.348V95.3902H332.551V91.3902ZM307.348 91.3902C307.191 91.3902 307.441 91.3523 307.716 91.6272C307.991 91.902 307.953 92.1518 307.953 91.9952H303.953C303.953 92.7685 304.148 93.7158 304.888 94.4556C305.627 95.1955 306.575 95.3902 307.348 95.3902V91.3902ZM307.953 91.9952V87.4382H303.953V91.9952H307.953ZM307.953 87.4382C307.953 87.2815 307.991 87.5313 307.716 87.8061C307.441 88.081 307.191 88.0432 307.348 88.0432V84.0432C306.575 84.0432 305.627 84.2378 304.888 84.9777C304.148 85.7175 303.953 86.6649 303.953 87.4382H307.953ZM307.348 88.0432H312.277V84.0432H307.348V88.0432ZM320.693 43.7281V61.4912H324.693V43.7281H320.693ZM321.279 62.9054C322.543 64.1701 324.345 65.1933 326.517 66.049L327.983 62.3273C326.063 61.571 324.827 60.7963 324.107 60.0769L321.279 62.9054ZM326.517 66.049C328.771 66.937 331.034 67.3972 333.295 67.3972V63.3972C331.588 63.3972 329.821 63.0513 327.983 62.3273L326.517 66.049ZM333.295 67.3972C337.388 67.3972 340.771 65.9916 343.138 63.0147L340.006 60.5257C338.529 62.3847 336.394 63.3972 333.295 63.3972V67.3972ZM343.134 63.0196C345.556 59.9914 346.548 55.2572 346.548 49.3081H342.548C342.548 55.0151 341.556 58.5889 340.01 60.5208L343.134 63.0196ZM346.548 49.3081C346.548 45.2205 346.104 41.7664 345.13 39.034C344.148 36.2809 342.574 34.1297 340.26 32.9311L338.42 36.4831C339.578 37.0825 340.608 38.2638 341.362 40.3778C342.124 42.5123 342.548 45.4598 342.548 49.3081H346.548ZM340.293 32.9485C338.396 31.9212 335.975 31.4981 333.202 31.4981V35.4981C335.637 35.4981 337.308 35.881 338.387 36.4657L340.293 32.9485ZM333.202 31.4981C330.075 31.4981 327.215 32.6291 324.668 34.7517L327.228 37.8246C329.145 36.2271 331.12 35.4981 333.202 35.4981V31.4981ZM324.672 34.7481C321.984 36.9754 320.693 40.0525 320.693 43.7281H324.693C324.693 41.0797 325.572 39.1969 327.224 37.8282L324.672 34.7481ZM382.956 71.1162C375.962 71.1162 371.207 69.1024 368.233 65.4388L365.128 67.9595C369.098 72.852 375.193 75.1162 382.956 75.1162V71.1162ZM368.361 65.6148C365.357 60.9592 363.566 56.2152 363.566 49.5871H359.566C359.566 57.0951 361.643 62.5811 365 67.7835L368.361 65.6148ZM363.566 49.5871C363.566 42.8106 365.297 37.3831 368.624 33.1537L365.481 30.6805C361.492 35.7511 359.566 42.1037 359.566 49.5871H363.566ZM368.624 33.1537C371.839 29.0678 376.481 26.9421 382.863 26.9421V22.9421C375.48 22.9421 369.582 25.4664 365.481 30.6805L368.624 33.1537ZM382.863 26.9421C386.02 26.9421 388.592 27.5445 390.656 28.6561L392.553 25.1342C389.781 23.6417 386.525 22.9421 382.863 22.9421V26.9421ZM390.71 28.684C392.884 29.7708 394.475 31.2262 395.563 33.0391L398.993 30.9811C397.476 28.454 395.285 26.4995 392.499 25.1063L390.71 28.684ZM395.554 33.0242C397.831 36.8949 398.998 41.4031 398.998 46.6111H402.998C402.998 40.7832 401.684 35.5573 399.001 30.9961L395.554 33.0242ZM398.998 46.6111C398.998 47.8939 398.967 48.8337 398.912 49.4604C398.884 49.7789 398.855 49.9629 398.836 50.0484C398.826 50.0916 398.829 50.0651 398.856 49.9982C398.871 49.9601 398.965 49.7217 399.211 49.4749L402.04 52.3034C402.349 51.9946 402.5 51.6574 402.57 51.4837C402.651 51.2811 402.704 51.0822 402.741 50.9161C402.815 50.5832 402.863 50.2014 402.897 49.8069C402.967 49.0076 402.998 47.9324 402.998 46.6111H398.998ZM399.211 49.4749C399.312 49.3738 399.408 49.3128 399.474 49.2787C399.506 49.2617 399.532 49.251 399.549 49.2446C399.566 49.2383 399.575 49.2358 399.575 49.2357C399.576 49.2355 399.569 49.2374 399.554 49.2401C399.538 49.2429 399.516 49.2462 399.486 49.2495C399.426 49.256 399.342 49.2611 399.231 49.2611V53.2611C400.002 53.2611 401.191 53.1523 402.04 52.3033L399.211 49.4749ZM399.231 49.2611H371.889V53.2611H399.231V49.2611ZM369.893 51.3997C370.219 56.0863 371.371 59.9806 373.544 62.8772L376.744 60.4772C375.196 58.4137 374.178 55.364 373.884 51.1226L369.893 51.3997ZM373.578 62.9217C376.04 66.019 380.058 67.3042 385.002 67.3042V63.3042C380.646 63.3042 378.091 62.1714 376.709 60.4327L373.578 62.9217ZM385.002 67.3042C388.734 67.3042 392.515 66.4207 396.329 64.7112L394.692 61.0611C391.314 62.5756 388.089 63.3042 385.002 63.3042V67.3042ZM396.405 64.675C396.564 64.5954 396.308 64.7733 395.884 64.6036C395.478 64.4415 395.43 64.1632 395.514 64.3729L399.227 62.8874C398.939 62.1672 398.395 61.2998 397.369 60.8897C396.325 60.4721 395.325 60.7429 394.616 61.0973L396.405 64.675ZM395.522 64.3937L397.289 68.6717L400.986 67.1446L399.219 62.8666L395.522 64.3937ZM397.291 68.6774C397.29 68.6746 397.263 68.6073 397.26 68.4884C397.257 68.3617 397.284 68.2284 397.337 68.1104C397.435 67.892 397.54 67.8992 397.308 68.0317L399.293 71.5047C399.929 71.1411 400.607 70.5904 400.985 69.7519C401.393 68.8445 401.309 67.9185 400.984 67.1389L397.291 68.6774ZM397.343 68.0124C393.623 70.0413 388.861 71.1162 382.956 71.1162V75.1162C389.326 75.1162 394.794 73.959 399.258 71.524L397.343 68.0124ZM371.889 46.3791H391.233V42.3791H371.889V46.3791ZM393.232 44.4111C393.298 40.3254 392.545 36.8805 390.621 34.4264C388.627 31.8827 385.658 30.7541 382.119 30.7541V34.7541C384.779 34.7541 386.429 35.5631 387.473 36.8943C388.587 38.3153 389.291 40.6828 389.233 44.3471L393.232 44.4111ZM382.119 30.7541C378.012 30.7541 374.664 32.106 372.636 35.1889L375.977 37.3874C377.049 35.7583 378.909 34.7541 382.119 34.7541V30.7541ZM372.629 35.1997C370.92 37.8339 370.027 40.8897 369.89 44.2992L373.887 44.4591C373.999 41.6686 374.717 39.3303 375.984 37.3765L372.629 35.1997ZM424.252 34.7454C425.154 32.623 426.62 30.7917 428.713 29.2492L426.34 26.029C423.721 27.9585 421.777 30.3432 420.571 33.1808L424.252 34.7454ZM428.74 29.229C430.77 27.6793 432.922 26.9421 435.246 26.9421V22.9421C431.989 22.9421 428.995 24.0029 426.313 26.0492L428.74 29.229ZM435.246 26.9421C437.96 26.9421 439.846 27.1888 441.03 27.5835L442.295 23.7888C440.503 23.1914 438.111 22.9421 435.246 22.9421V26.9421ZM441.03 27.5835C441.05 27.5901 441.026 27.5849 440.98 27.5516C440.931 27.5163 440.878 27.4645 440.835 27.4C440.746 27.2663 440.779 27.2059 440.779 27.3601H444.779C444.779 26.6463 444.625 25.873 444.164 25.1812C443.691 24.4718 443.014 24.0286 442.295 23.7888L441.03 27.5835ZM440.779 27.3601V39.9151H444.779V27.3601H440.779ZM440.779 39.9151C440.779 40.0718 440.741 39.822 441.016 39.5472C441.29 39.2723 441.54 39.3101 441.384 39.3101V43.3101C442.157 43.3101 443.104 43.1154 443.844 42.3756C444.584 41.6357 444.779 40.6884 444.779 39.9151H440.779ZM441.384 39.3101H435.339V43.3101H441.384V39.3101ZM435.339 39.3101C435.169 39.3101 435.47 39.2674 435.778 39.5967C436.084 39.9251 436.021 40.2202 436.032 40.0482L432.041 39.7821C431.99 40.54 432.113 41.5326 432.853 42.326C433.595 43.1204 434.578 43.3101 435.339 43.3101V39.3101ZM436.032 40.0527L436.404 34.6587L432.413 34.3835L432.041 39.7775L436.032 40.0527ZM434.801 32.56C434.278 32.4554 433.575 32.4281 432.828 32.4281V36.4281C433.568 36.4281 433.919 36.4629 434.016 36.4823L434.801 32.56ZM432.828 32.4281C429.327 32.4281 426.406 33.9156 424.19 36.7228L427.329 39.2014C428.833 37.2966 430.624 36.4281 432.828 36.4281V32.4281ZM424.206 36.7025C421.976 39.4533 420.97 43.0463 420.97 47.2621H424.97C424.97 43.666 425.823 41.0589 427.313 39.2217L424.206 36.7025ZM420.97 47.2621V64.6532H424.97V47.2621H420.97ZM422.97 66.6532H433.2V62.6532H422.97V66.6532ZM433.2 66.6532C433.356 66.6532 433.106 66.691 432.832 66.4161C432.557 66.1413 432.595 65.8914 432.595 66.0482H436.595C436.595 65.2749 436.4 64.3276 435.66 63.5877C434.92 62.8478 433.973 62.6532 433.2 62.6532V66.6532ZM432.595 66.0482V70.6052H436.595V66.0482H432.595ZM432.595 70.6052C432.595 70.7619 432.557 70.5121 432.832 70.2372C433.106 69.9623 433.356 70.0002 433.2 70.0002V74.0002C433.973 74.0002 434.92 73.8055 435.66 73.0656C436.4 72.3257 436.595 71.3784 436.595 70.6052H432.595ZM433.2 70.0002H407.625V74.0002H433.2V70.0002ZM407.625 70.0002C407.468 70.0002 407.718 69.9623 407.992 70.2372C408.267 70.512 408.229 70.7618 408.229 70.6052H404.229C404.229 71.3785 404.424 72.3258 405.164 73.0656C405.904 73.8055 406.851 74.0002 407.625 74.0002V70.0002ZM408.229 70.6052V66.0482H404.229V70.6052H408.229ZM408.229 66.0482C408.229 65.8915 408.267 66.1413 407.992 66.4161C407.718 66.691 407.468 66.6532 407.625 66.6532V62.6532C406.851 62.6532 405.904 62.8478 405.164 63.5877C404.424 64.3275 404.229 65.2749 404.229 66.0482H408.229ZM407.625 66.6532H412.554V62.6532H407.625V66.6532ZM414.554 64.6532V33.5911H410.554V64.6532H414.554ZM412.554 31.5911H407.531V35.5911H412.554V31.5911ZM407.531 31.5911C407.375 31.5911 407.625 31.5533 407.899 31.8282C408.174 32.103 408.137 32.3528 408.137 32.1961H404.137C404.137 32.9694 404.331 33.9167 405.071 34.6566C405.811 35.3964 406.758 35.5911 407.531 35.5911V31.5911ZM408.137 32.1961V27.3601H404.137V32.1961H408.137ZM408.137 27.3601C408.137 27.2034 408.174 27.4532 407.899 27.7281C407.625 28.0029 407.375 27.9651 407.531 27.9651V23.9651C406.758 23.9651 405.811 24.1598 405.071 24.8997C404.331 25.6395 404.137 26.5868 404.137 27.3601H408.137ZM407.531 27.9651H419.807V23.9651H407.531V27.9651ZM419.807 27.9651C419.847 27.9651 419.825 27.9705 419.762 27.9497C419.694 27.9269 419.609 27.883 419.531 27.8136C419.368 27.6703 419.39 27.5679 419.427 27.7524L423.35 26.9679C423.201 26.2224 422.866 25.4224 422.177 24.8142C421.468 24.1883 420.61 23.9651 419.807 23.9651V27.9651ZM419.412 27.6663L420.435 34.2693L424.388 33.6569L423.365 27.0539L419.412 27.6663Z" fill="#008470"/>
<path d="M265 36.555C267.237 32.7073 270.613 29.8132 274.566 28.3554L274.892 28.2351L279.72 27.1887C289.061 25.164 297.287 40.1013 287.764 40.1013C280.45 40.1013 278.198 40.1013 278.198 40.1013C278.198 40.1013 278.198 40.1013 278.198 40.1013C273.735 40.1013 270.755 44.0501 270.755 48.9248C270.755 52.0537 270.755 55.8495 270.755 60.0363C270.755 61.0345 270.674 61.8582 270.527 62.5303C268.617 71.24 260.906 54.7993 262.131 45.944L262.365 44.2544C262.744 41.5157 263.642 38.8935 265 36.555Z" fill="white"/>
<path d="M207 36.555C209.237 32.7073 212.613 29.8132 216.566 28.3554L216.892 28.2351L221.72 27.1887C231.061 25.164 239.287 40.1013 229.764 40.1013C222.45 40.1013 220.198 40.1013 220.198 40.1013C220.198 40.1013 220.198 40.1013 220.198 40.1013C215.735 40.1013 212.755 44.0501 212.755 48.9248C212.755 52.0537 212.755 55.8495 212.755 60.0363C212.755 61.0345 212.674 61.8582 212.527 62.5303C210.617 71.24 202.906 54.7993 204.131 45.944L204.365 44.2544C204.744 41.5157 205.642 38.8935 207 36.555Z" fill="white"/>
</g>
</g>
<defs>
<clipPath id="clip0_3_3">
<rect width="445" height="96" fill="white"/>
</clipPath>
</defs>
</svg>
