<svg width="237" height="52" viewBox="0 0 237 52" fill="none" xmlns="http://www.w3.org/2000/svg">
<mask id="path-1-outside-1_72_32" maskUnits="userSpaceOnUse" x="0" y="-1" width="237" height="53" fill="black">
<rect fill="white" y="-1" width="237" height="53"/>
<path d="M10.0842 16.7311L14.5427 34.2223L19.3932 16.6821C19.5239 16.2248 19.8342 15.9962 20.3241 15.9962H24.2438C24.7337 15.9962 25.044 16.2248 25.1747 16.6821L30.1722 34.3203L34.5327 20.0138H32.1809C31.691 20.0138 31.446 19.7688 31.446 19.2788V16.7311C31.446 16.2411 31.691 15.9962 32.1809 15.9962H38.4523C38.8443 15.9962 39.1056 16.1105 39.2362 16.3391C39.3996 16.5351 39.4812 16.7148 39.4812 16.8781C39.4812 17.0414 39.4649 17.1884 39.4322 17.319L32.6709 39.5628C32.5402 40.0201 32.2299 40.2487 31.74 40.2487H27.3304C26.8405 40.2487 26.5302 40.0038 26.3995 39.5138L21.745 22.2185L16.8945 39.5628C16.7638 40.0201 16.4535 40.2487 15.9636 40.2487H11.554C11.0641 40.2487 10.7538 40.0201 10.6231 39.5628L5.28267 20.0138H2.73493C2.24498 20.0138 2 19.7688 2 19.2788V16.7311C2 16.2411 2.24498 15.9962 2.73493 15.9962H9.15328C9.64323 15.9962 9.95353 16.2411 10.0842 16.7311Z"/>
<path d="M53.2611 40.8367C49.3741 40.8367 46.5161 39.7098 44.6869 37.456C42.8904 35.1696 41.9922 32.1646 41.9922 28.4409C41.9922 24.6846 42.9558 21.5816 44.8829 19.1319C46.81 16.6821 49.5864 15.4572 53.2121 15.4572C55.0086 15.4572 56.5437 15.8002 57.8176 16.4861C59.1241 17.1394 60.1204 18.0376 60.8063 19.1808C62.1128 21.402 62.7661 23.966 62.7661 26.8731C62.7661 28.2449 62.7008 28.9962 62.5701 29.1269C62.4395 29.2575 62.1945 29.3229 61.8352 29.3229H47.4307C47.594 31.6746 48.1656 33.5038 49.1455 34.8103C50.158 36.0842 51.8892 36.7211 54.339 36.7211C56.1354 36.7211 57.9809 36.2965 59.8754 35.4472C60.3327 35.2186 60.6593 35.3492 60.8553 35.8392L61.7862 38.0929C61.9495 38.4849 61.8025 38.8115 61.3452 39.0729C59.1895 40.2487 56.4947 40.8367 53.2611 40.8367ZM47.4307 25.6972H57.6216C57.6869 21.6143 56.0864 19.5728 52.8201 19.5728C50.893 19.5728 49.5211 20.1934 48.7045 21.4346C47.9206 22.6432 47.496 24.064 47.4307 25.6972Z"/>
<path d="M68.6091 36.3781V7.765H65.9634C65.4735 7.765 65.2285 7.52003 65.2285 7.03008V4.43334C65.2285 3.94339 65.4735 3.69841 65.9634 3.69841H73.3617C73.8516 3.69841 74.0966 3.94339 74.0966 4.43334V19.6708C74.8805 18.3643 75.9257 17.3354 77.2323 16.5841C78.5715 15.8329 80.0087 15.4572 81.5438 15.4572C84.5489 15.4572 86.9006 16.4535 88.5991 18.4459C90.2976 20.4384 91.1469 23.5578 91.1469 27.804C91.1469 32.0176 90.167 35.2512 88.2072 37.505C86.28 39.7261 83.7323 40.8367 80.5639 40.8367C78.7674 40.8367 77.1996 40.5264 75.8604 39.9058C74.5539 39.2525 73.6066 38.4522 73.0187 37.505L72.7247 39.5138C72.6921 40.0038 72.4471 40.2487 71.9898 40.2487H66.0124C65.5225 40.2487 65.2775 40.0038 65.2775 39.5138V37.1131C65.2775 36.6231 65.5225 36.3781 66.0124 36.3781H68.6091ZM74.0966 25.4522V34.1244C74.4885 34.7123 75.2398 35.2839 76.3504 35.8392C77.4936 36.3945 78.6041 36.6721 79.682 36.6721C83.6343 36.6721 85.6104 33.8794 85.6104 28.294C85.6104 24.2437 84.6958 21.6959 82.8667 20.6507C82.0828 20.1934 81.0049 19.9648 79.633 19.9648C78.2612 19.9648 76.9873 20.471 75.8114 21.4836C74.6682 22.4635 74.0966 23.7864 74.0966 25.4522Z"/>
<path d="M102.954 4.43334V36.3781H106.041C106.531 36.3781 106.776 36.6231 106.776 37.1131V39.5138C106.776 40.0038 106.531 40.2487 106.041 40.2487H94.3798C93.8898 40.2487 93.6448 40.0038 93.6448 39.5138V37.1131C93.6448 36.6231 93.8898 36.3781 94.3798 36.3781H97.4665V7.71601H94.8207C94.3308 7.71601 94.0858 7.47103 94.0858 6.98108V4.43334C94.0858 3.94339 94.3308 3.69841 94.8207 3.69841H102.219C102.709 3.69841 102.954 3.94339 102.954 4.43334Z"/>
<path d="M108.308 19.4864C107.556 21.2829 107.181 23.406 107.181 25.8558C107.181 29.9387 108.128 33.0254 110.022 35.1159C111.95 37.1736 114.628 38.2025 118.058 38.2025C121.487 38.2025 124.296 37.0757 126.485 34.8219C128.706 32.5355 129.816 29.2038 129.816 24.8269C129.816 22.7691 129.539 20.9726 128.984 19.4374C128.461 17.9022 127.808 16.7264 127.024 15.9098C126.272 15.0932 125.211 14.3746 123.839 13.754C122.467 13.1334 120.785 12.8231 118.793 12.8231C116.082 12.8231 113.566 13.6887 111.247 15.4198C110.039 16.3344 109.059 17.6899 108.308 19.4864Z"/>
<path d="M138.185 20.4926C137.724 22.0111 137.431 23.9362 137.431 25.8558C137.431 29.9387 138.379 33.0254 140.273 35.1159C142.2 37.1736 144.879 38.2025 148.308 38.2025C151.738 38.2025 154.547 37.0757 156.735 34.8219C158.957 32.5355 160.067 29.2038 160.067 24.8269C160.067 22.7691 159.789 20.9726 159.234 19.4374C158.712 17.9022 158.058 16.7264 157.274 15.9098C156.523 15.0932 155.462 14.3746 154.09 13.754C152.718 13.1334 151.036 12.8231 149.043 12.8231C146.332 12.8231 143.817 13.6887 141.498 15.4198C140.289 16.3344 139.309 17.6899 138.558 19.4864C138.248 20.2292 138.185 20.4926 138.185 20.4926Z"/>
<path d="M165.463 45.5397V17.9065H162.817C162.327 17.9065 162.082 17.6615 162.082 17.1715V14.6238C162.082 14.1338 162.327 13.8889 162.817 13.8889H169.48C169.872 13.8889 170.117 14.1338 170.215 14.6238L170.705 17.5635C172.371 14.7544 174.935 13.3499 178.397 13.3499C181.402 13.3499 183.754 14.3461 185.453 16.3386C187.151 18.2984 188 21.2055 188 25.0597C188 29.7306 187.004 33.1766 185.012 35.3977C183.019 37.6188 180.455 38.7294 177.32 38.7294C174.739 38.7294 172.616 38.0434 170.95 36.6716V45.4907H176.144C176.634 45.4907 176.879 45.7357 176.879 46.2256V48.6754C176.879 49.1653 176.634 49.4103 176.144 49.4103H162.866C162.376 49.4103 162.131 49.1653 162.131 48.6754V46.2746C162.131 45.7847 162.376 45.5397 162.866 45.5397H165.463ZM170.95 23.2469V32.605C171.473 33.1276 172.273 33.6012 173.351 34.0258C174.429 34.4505 175.49 34.6628 176.536 34.6628C178.43 34.6628 179.884 34.0258 180.896 32.752C181.941 31.4454 182.464 29.257 182.464 26.1866C182.464 22.0057 181.549 19.4416 179.72 18.4944C178.936 18.0698 177.858 17.8575 176.487 17.8575C175.115 17.8575 173.841 18.3474 172.665 19.3273C171.522 20.2745 170.95 21.5811 170.95 23.2469Z"/>
<path d="M202.698 38.7294C198.811 38.7294 195.953 37.6025 194.124 35.3487C192.448 32.752 191.429 30.0572 191.429 26.3336C191.429 22.5773 192.393 19.4743 194.32 17.0245C196.247 14.5748 199.024 13.3499 202.649 13.3499C204.446 13.3499 205.981 13.6929 207.255 14.3788C208.561 15.0321 209.557 15.9303 210.243 17.0735C211.55 19.2946 212.203 21.8587 212.203 24.7658C212.203 26.1376 212.138 26.8889 212.007 27.0195C211.877 27.1502 211.632 27.2155 211.272 27.2155H196.868C197.031 29.5673 197.603 31.3964 198.583 32.703C199.595 33.9768 201.326 34.6138 203.776 34.6138C205.573 34.6138 207.418 34.1892 209.313 33.3399C209.77 33.1113 210.096 33.2419 210.292 33.7319L211.223 35.9856C211.387 36.3776 211.24 36.7042 210.782 36.9655C208.627 38.1414 205.932 38.7294 202.698 38.7294ZM196.868 23.5899H207.059C207.124 19.507 205.524 17.4655 202.257 17.4655C200.33 17.4655 198.958 18.0861 198.142 19.3273C197.358 20.5359 196.933 21.9567 196.868 23.5899Z"/>
<path d="M223.485 18.1024C224.04 16.7959 224.938 15.6853 226.179 14.7708C227.421 13.8235 228.776 13.3499 230.246 13.3499C231.716 13.3499 232.843 13.4806 233.627 13.7419C234.019 13.8725 234.215 14.1665 234.215 14.6238V21.2381C234.215 21.7281 233.97 21.973 233.48 21.973H230.295C229.805 21.973 229.576 21.7281 229.609 21.2381L229.805 18.3964C229.642 18.3637 229.364 18.3474 228.972 18.3474C227.47 18.3474 226.228 18.968 225.249 20.2092C224.269 21.4178 223.779 23.0509 223.779 25.1087V34.2708H229.168C229.658 34.2708 229.903 34.5158 229.903 35.0057V37.4065C229.903 37.8964 229.658 38.1414 229.168 38.1414H215.695C215.205 38.1414 214.96 37.8964 214.96 37.4065V35.0057C214.96 34.5158 215.205 34.2708 215.695 34.2708H218.291V17.9065H215.646C215.156 17.9065 214.911 17.6615 214.911 17.1715V14.6238C214.911 14.1338 215.156 13.8889 215.646 13.8889H222.113C222.57 13.8889 222.848 14.1338 222.946 14.6238L223.485 18.1024Z"/>
</mask>
<path d="M158.432 18.8403C158.102 19.2833 158.194 19.9098 158.637 20.2396C159.08 20.5694 159.707 20.4776 160.036 20.0345L158.432 18.8403ZM133.707 19.7024L133.818 18.7085C133.734 18.6992 133.649 18.7005 133.566 18.7125L133.707 19.7024ZM129.176 19.8074C128.652 19.982 128.369 20.5483 128.544 21.0723C128.718 21.5962 129.285 21.8794 129.809 21.7047L129.176 19.8074ZM170.95 3.69841L171.45 2.83257C171.011 2.57864 170.451 2.69418 170.148 3.10129L170.95 3.69841ZM122.38 1L122.93 0.164403C122.471 -0.136943 121.856 -0.0127738 121.55 0.4427L122.38 1ZM131.863 19.9658L131.722 18.9759C131.662 18.9844 131.604 18.9982 131.547 19.0171L131.863 19.9658ZM136.078 19.9658L136.32 18.9957C136.277 18.9848 136.233 18.9769 136.188 18.9719L136.078 19.9658ZM175.353 7.39748C175.831 7.67379 176.443 7.51014 176.719 7.03195C176.996 6.55375 176.832 5.9421 176.354 5.66579L175.353 7.39748ZM125.935 4.53401C126.397 4.8374 127.017 4.70924 127.32 4.24776C127.624 3.78627 127.496 3.16621 127.034 2.86282L125.935 4.53401ZM160.036 20.0345L171.752 4.29553L170.148 3.10129L158.432 18.8403L160.036 20.0345ZM114.518 14.5084L123.211 1.5573L121.55 0.4427L112.857 13.3938L114.518 14.5084ZM129.809 21.7047L132.179 20.9145L131.547 19.0171L129.176 19.8074L129.809 21.7047ZM132.005 20.9558L133.849 20.6924L133.566 18.7125L131.722 18.9759L132.005 20.9558ZM133.597 20.6963L135.967 20.9597L136.188 18.9719L133.818 18.7085L133.597 20.6963ZM135.835 20.936L136.889 21.1994L137.374 19.2591L136.32 18.9957L135.835 20.936ZM136.889 21.1994L137.943 21.4628L138.428 19.5225L137.374 19.2591L136.889 21.1994ZM176.354 5.66579L171.45 2.83257L170.45 4.56426L175.353 7.39748L176.354 5.66579ZM127.034 2.86282L122.93 0.164403L121.831 1.8356L125.935 4.53401L127.034 2.86282ZM10.0842 16.7311L12.0222 16.2371C12.0204 16.23 12.0185 16.2229 12.0167 16.2158L10.0842 16.7311ZM14.5427 34.2223L12.6047 34.7163C12.8287 35.595 13.6158 36.2131 14.5225 36.2222C15.4293 36.2314 16.2287 35.6294 16.4704 34.7554L14.5427 34.2223ZM19.3932 16.6821L17.4702 16.1327C17.4686 16.1381 17.4671 16.1436 17.4656 16.149L19.3932 16.6821ZM25.1747 16.6821L27.0989 16.1369L27.0977 16.1327L25.1747 16.6821ZM30.1722 34.3203L28.2479 34.8655C28.4898 35.7192 29.2652 36.3115 30.1524 36.3202C31.0396 36.329 31.8266 35.7522 32.0853 34.9034L30.1722 34.3203ZM34.5327 20.0138L36.4458 20.5969C36.6306 19.9906 36.5171 19.3327 36.1399 18.8234C35.7627 18.3141 35.1665 18.0138 34.5327 18.0138V20.0138ZM39.2362 16.3391L37.4998 17.3314C37.5579 17.4331 37.6248 17.5295 37.6998 17.6195L39.2362 16.3391ZM39.4322 17.319L41.3458 17.9007C41.3555 17.8687 41.3644 17.8365 41.3725 17.8041L39.4322 17.319ZM32.6709 39.5628L30.7573 38.9812C30.7541 38.9919 30.7509 39.0026 30.7479 39.0134L32.6709 39.5628ZM26.3995 39.5138L28.332 38.9985L28.3308 38.9941L26.3995 39.5138ZM21.745 22.2185L23.6763 21.6988C23.4422 20.829 22.6556 20.223 21.7548 20.2186C20.8541 20.2142 20.0615 20.8124 19.8189 21.6799L21.745 22.2185ZM16.8945 39.5628L18.8176 40.1123L18.8206 40.1015L16.8945 39.5628ZM10.6231 39.5628L8.69382 40.0899C8.69587 40.0973 8.69795 40.1048 8.70008 40.1122L10.6231 39.5628ZM5.28267 20.0138L7.21197 19.4867C6.97438 18.617 6.18425 18.0138 5.28267 18.0138V20.0138ZM44.6869 37.456L43.1143 38.6917C43.1208 38.6999 43.1274 38.7082 43.134 38.7164L44.6869 37.456ZM44.8829 19.1319L43.311 17.8953L43.311 17.8953L44.8829 19.1319ZM57.8176 16.4861L56.8694 18.2471C56.8872 18.2566 56.9051 18.2659 56.9232 18.275L57.8176 16.4861ZM60.8063 19.1808L62.5302 18.1668C62.5272 18.1618 62.5243 18.1568 62.5213 18.1519L60.8063 19.1808ZM62.5701 29.1269L61.1559 27.7126L61.1559 27.7127L62.5701 29.1269ZM47.4307 29.3229V27.3229C46.8762 27.3229 46.3465 27.5531 45.9683 27.9585C45.59 28.3639 45.397 28.9082 45.4355 29.4614L47.4307 29.3229ZM49.1455 34.8103L47.5455 36.0103C47.5567 36.0253 47.5682 36.0401 47.5798 36.0548L49.1455 34.8103ZM59.8754 35.4472L60.6935 37.2722C60.7192 37.2607 60.7446 37.2487 60.7698 37.2361L59.8754 35.4472ZM60.8553 35.8392L58.9983 36.582C59.0011 36.5889 59.0039 36.5958 59.0068 36.6027L60.8553 35.8392ZM61.7862 38.0929L59.9377 38.8565L59.94 38.8622L61.7862 38.0929ZM61.3452 39.0729L62.3029 40.8286C62.3145 40.8223 62.3261 40.8159 62.3375 40.8093L61.3452 39.0729ZM47.4307 25.6972L45.4323 25.6173C45.4105 26.1611 45.6113 26.6904 45.9885 27.0829C46.3656 27.4753 46.8864 27.6972 47.4307 27.6972V25.6972ZM57.6216 25.6972V27.6972C58.7137 27.6972 59.6039 26.8211 59.6214 25.7292L57.6216 25.6972ZM48.7045 21.4346L47.0337 20.3354L47.0266 20.3462L48.7045 21.4346ZM68.6091 36.3781V38.3781C69.7137 38.3781 70.6091 37.4827 70.6091 36.3781H68.6091ZM68.6091 7.765H70.6091C70.6091 6.66043 69.7137 5.765 68.6091 5.765V7.765ZM74.0966 19.6708H72.0966C72.0966 20.5698 72.6964 21.3583 73.5627 21.5982C74.4291 21.8382 75.3491 21.4706 75.8116 20.6998L74.0966 19.6708ZM77.2323 16.5841L76.2538 14.8398C76.2476 14.8433 76.2415 14.8468 76.2353 14.8503L77.2323 16.5841ZM88.5991 18.4459L87.0771 19.7434L87.0771 19.7434L88.5991 18.4459ZM88.2072 37.505L86.6979 36.1927L86.6965 36.1943L88.2072 37.505ZM75.8604 39.9058L74.966 41.6946C74.9837 41.7035 75.0015 41.7121 75.0195 41.7204L75.8604 39.9058ZM73.0187 37.505L74.718 36.4503C74.2751 35.7367 73.4336 35.3759 72.6114 35.5469C71.7892 35.718 71.1614 36.3844 71.0398 37.2154L73.0187 37.505ZM72.7247 39.5138L70.7458 39.2242C70.7382 39.2762 70.7327 39.3284 70.7292 39.3808L72.7247 39.5138ZM74.0966 34.1244H72.0966C72.0966 34.5192 72.2135 34.9052 72.4325 35.2338L74.0966 34.1244ZM76.3504 35.8392L75.4559 37.628C75.4628 37.6315 75.4697 37.6348 75.4766 37.6382L76.3504 35.8392ZM82.8667 20.6507L81.859 22.3783C81.8641 22.3813 81.8693 22.3842 81.8744 22.3872L82.8667 20.6507ZM75.8114 21.4836L77.113 23.0021L77.1165 22.9991L75.8114 21.4836ZM102.954 36.3781H100.954C100.954 37.4827 101.849 38.3781 102.954 38.3781V36.3781ZM97.4665 36.3781V38.3781C98.571 38.3781 99.4665 37.4827 99.4665 36.3781H97.4665ZM97.4665 7.71601H99.4665C99.4665 6.61144 98.571 5.71601 97.4665 5.71601V7.71601ZM108.308 19.4864L110.153 20.258L110.153 20.258L108.308 19.4864ZM111.247 15.4198L110.051 13.8171L110.04 13.825L111.247 15.4198ZM123.839 13.754L123.015 15.5762L123.015 15.5762L123.839 13.754ZM127.024 15.9098L125.552 17.2639C125.561 17.2743 125.571 17.2846 125.581 17.2948L127.024 15.9098ZM128.984 19.4374L127.09 20.082C127.094 20.0939 127.099 20.1058 127.103 20.1177L128.984 19.4374ZM126.485 34.8219L125.05 33.4283L125.05 33.4286L126.485 34.8219ZM110.022 35.1159L108.54 36.4589C108.548 36.467 108.555 36.475 108.563 36.483L110.022 35.1159ZM138.185 20.4926L140.099 21.074C140.111 21.0344 140.122 20.9944 140.131 20.9541L138.185 20.4926ZM138.558 19.4864L136.713 18.7148L138.558 19.4864ZM141.498 15.4198L140.302 13.8171L140.291 13.825L141.498 15.4198ZM154.09 13.754L154.914 11.9318L154.914 11.9318L154.09 13.754ZM157.274 15.9098L155.802 17.2639C155.812 17.2743 155.822 17.2846 155.832 17.2948L157.274 15.9098ZM159.234 19.4374L157.341 20.082C157.345 20.0939 157.349 20.1058 157.353 20.1177L159.234 19.4374ZM156.735 34.8219L155.301 33.4283L155.301 33.4286L156.735 34.8219ZM140.273 35.1159L138.791 36.4589C138.798 36.467 138.806 36.475 138.813 36.483L140.273 35.1159ZM165.463 45.5397V47.5397C166.567 47.5397 167.463 46.6442 167.463 45.5397H165.463ZM165.463 17.9065H167.463C167.463 16.8019 166.567 15.9065 165.463 15.9065V17.9065ZM170.215 14.6238L172.188 14.295C172.184 14.2738 172.181 14.2526 172.176 14.2316L170.215 14.6238ZM170.705 17.5635L168.732 17.8923C168.871 18.7208 169.512 19.3748 170.337 19.5293C171.163 19.6839 171.997 19.3061 172.425 18.5836L170.705 17.5635ZM185.453 16.3386L183.931 17.6361C183.934 17.6402 183.938 17.6444 183.941 17.6485L185.453 16.3386ZM185.012 35.3977L186.501 36.7332L186.501 36.7332L185.012 35.3977ZM170.95 36.6716L172.222 35.1277C171.624 34.6357 170.797 34.5326 170.097 34.8629C169.397 35.1932 168.95 35.8976 168.95 36.6716H170.95ZM170.95 45.4907H168.95C168.95 46.5952 169.846 47.4907 170.95 47.4907V45.4907ZM170.95 32.605H168.95C168.95 33.1354 169.161 33.6441 169.536 34.0192L170.95 32.605ZM173.351 34.0258L172.618 35.8867L172.618 35.8867L173.351 34.0258ZM180.896 32.752L179.334 31.5026L179.331 31.5075L180.896 32.752ZM179.72 18.4944L178.768 20.253C178.779 20.2589 178.79 20.2647 178.801 20.2704L179.72 18.4944ZM172.665 19.3273L173.941 20.8674L173.945 20.8637L172.665 19.3273ZM194.124 35.3487L192.444 36.4331C192.483 36.494 192.525 36.5527 192.571 36.609L194.124 35.3487ZM194.32 17.0245L192.748 15.788L192.748 15.788L194.32 17.0245ZM207.255 14.3788L206.307 16.1397C206.324 16.1493 206.342 16.1586 206.36 16.1677L207.255 14.3788ZM210.243 17.0735L211.967 16.0595C211.964 16.0545 211.961 16.0495 211.958 16.0445L210.243 17.0735ZM212.007 27.0195L210.593 25.6053L210.593 25.6053L212.007 27.0195ZM196.868 27.2155V25.2155C196.313 25.2155 195.784 25.4457 195.405 25.8512C195.027 26.2566 194.834 26.8009 194.873 27.3541L196.868 27.2155ZM198.583 32.703L196.983 33.903C196.994 33.918 197.005 33.9328 197.017 33.9475L198.583 32.703ZM209.313 33.3399L210.131 35.1649C210.156 35.1534 210.182 35.1414 210.207 35.1288L209.313 33.3399ZM210.292 33.7319L208.435 34.4747C208.438 34.4816 208.441 34.4885 208.444 34.4954L210.292 33.7319ZM211.223 35.9856L209.375 36.7492L209.377 36.7549L211.223 35.9856ZM210.782 36.9655L211.74 38.7213C211.752 38.715 211.763 38.7086 211.775 38.702L210.782 36.9655ZM196.868 23.5899L194.869 23.5099C194.848 24.0538 195.048 24.583 195.426 24.9755C195.803 25.368 196.323 25.5899 196.868 25.5899V23.5899ZM207.059 23.5899V25.5899C208.151 25.5899 209.041 24.7138 209.059 23.6219L207.059 23.5899ZM198.142 19.3273L196.471 18.228L196.464 18.2389L198.142 19.3273ZM223.485 18.1024L221.508 18.4086C221.645 19.2914 222.351 19.9765 223.237 20.0871C224.124 20.1976 224.976 19.7069 225.325 18.8847L223.485 18.1024ZM226.179 14.7708L227.366 16.3809C227.375 16.3742 227.384 16.3675 227.393 16.3607L226.179 14.7708ZM233.627 13.7419L232.994 15.6392L232.994 15.6392L233.627 13.7419ZM229.609 21.2381L227.614 21.1005L227.614 21.1051L229.609 21.2381ZM229.805 18.3964L231.8 18.534C231.87 17.5309 231.183 16.6324 230.197 16.4352L229.805 18.3964ZM225.249 20.2092L226.802 21.4688C226.808 21.4621 226.813 21.4553 226.818 21.4485L225.249 20.2092ZM223.779 34.2708H221.779C221.779 35.3754 222.674 36.2708 223.779 36.2708V34.2708ZM218.291 34.2708V36.2708C219.396 36.2708 220.291 35.3754 220.291 34.2708H218.291ZM218.291 17.9065H220.291C220.291 16.8019 219.396 15.9065 218.291 15.9065V17.9065ZM222.946 14.6238L224.922 14.3176C224.918 14.2888 224.913 14.2601 224.907 14.2315L222.946 14.6238ZM8.14615 17.2251L12.6047 34.7163L16.4808 33.7283L12.0222 16.2371L8.14615 17.2251ZM16.4704 34.7554L21.3209 17.2152L17.4656 16.149L12.6151 33.6893L16.4704 34.7554ZM21.3163 17.2315C21.2892 17.3264 21.188 17.5732 20.9104 17.7778C20.6385 17.9781 20.3895 17.9962 20.3241 17.9962V13.9962C19.7688 13.9962 19.1197 14.1286 18.5376 14.5575C17.9496 14.9908 17.628 15.5805 17.4702 16.1327L21.3163 17.2315ZM20.3241 17.9962H24.2438V13.9962H20.3241V17.9962ZM24.2438 17.9962C24.1784 17.9962 23.9294 17.9781 23.6575 17.7778C23.3799 17.5732 23.2787 17.3264 23.2516 17.2315L27.0977 16.1327C26.9399 15.5805 26.6183 14.9908 26.0303 14.5575C25.4482 14.1286 24.7991 13.9962 24.2438 13.9962V17.9962ZM23.2504 17.2273L28.2479 34.8655L32.0964 33.7751L27.0989 16.1369L23.2504 17.2273ZM32.0853 34.9034L36.4458 20.5969L32.6196 19.4307L28.259 33.7372L32.0853 34.9034ZM34.5327 18.0138H32.1809V22.0138H34.5327V18.0138ZM32.1809 18.0138C32.2443 18.0138 32.6591 18.0309 33.044 18.4158C33.4288 18.8007 33.446 19.2155 33.446 19.2788H29.446C29.446 19.8321 29.5857 20.6144 30.2155 21.2442C30.8454 21.8741 31.6277 22.0138 32.1809 22.0138V18.0138ZM33.446 19.2788V16.7311H29.446V19.2788H33.446ZM33.446 16.7311C33.446 16.7944 33.4288 17.2092 33.044 17.5941C32.6591 17.979 32.2443 17.9962 32.1809 17.9962V13.9962C31.6277 13.9962 30.8454 14.1358 30.2155 14.7657C29.5857 15.3955 29.446 16.1778 29.446 16.7311H33.446ZM32.1809 17.9962H38.4523V13.9962H32.1809V17.9962ZM38.4523 17.9962C38.4692 17.9962 38.3385 18.0008 38.1406 17.9142C37.9121 17.8143 37.6657 17.6218 37.4998 17.3314L40.9727 15.3469C40.3298 14.2217 39.1789 13.9962 38.4523 13.9962V17.9962ZM37.6998 17.6195C37.6984 17.6178 37.6504 17.5611 37.5992 17.4485C37.5461 17.3315 37.4812 17.135 37.4812 16.8781H41.4812C41.4812 16.0469 41.076 15.4228 40.7727 15.0588L37.6998 17.6195ZM37.4812 16.8781C37.4812 16.8935 37.4804 16.8969 37.4812 16.8899C37.482 16.8829 37.4845 16.8635 37.4919 16.834L41.3725 17.8041C41.4522 17.4855 41.4812 17.1716 41.4812 16.8781H37.4812ZM37.5187 16.7374L30.7573 38.9812L34.5845 40.1445L41.3458 17.9007L37.5187 16.7374ZM30.7479 39.0134C30.775 38.9185 30.8761 38.6717 31.1538 38.4671C31.4257 38.2668 31.6746 38.2487 31.74 38.2487V42.2487C32.2953 42.2487 32.9444 42.1163 33.5266 41.6874C34.1145 41.2541 34.4362 40.6644 34.5939 40.1122L30.7479 39.0134ZM31.74 38.2487H27.3304V42.2487H31.74V38.2487ZM27.3304 38.2487C27.4249 38.2487 27.694 38.2777 27.9695 38.4952C28.2383 38.7074 28.3177 38.945 28.332 38.9985L24.4671 40.0291C24.612 40.5726 24.9119 41.1776 25.491 41.6348C26.0768 42.0973 26.746 42.2487 27.3304 42.2487V38.2487ZM28.3308 38.9941L23.6763 21.6988L19.8137 22.7383L24.4682 40.0336L28.3308 38.9941ZM19.8189 21.6799L14.9684 39.0242L18.8206 40.1015L23.6711 22.7572L19.8189 21.6799ZM14.9714 39.0134C14.9986 38.9185 15.0997 38.6717 15.3774 38.4671C15.6492 38.2668 15.8982 38.2487 15.9636 38.2487V42.2487C16.5189 42.2487 17.168 42.1163 17.7502 41.6874C18.3381 41.2541 18.6598 40.6644 18.8175 40.1122L14.9714 39.0134ZM15.9636 38.2487H11.554V42.2487H15.9636V38.2487ZM11.554 38.2487C11.6194 38.2487 11.8684 38.2668 12.1402 38.4671C12.4179 38.6717 12.5191 38.9185 12.5462 39.0134L8.70008 40.1122C8.85785 40.6644 9.1795 41.2541 9.76744 41.6874C10.3496 42.1163 10.9987 42.2487 11.554 42.2487V38.2487ZM12.5524 39.0358L7.21197 19.4867L3.35336 20.5408L8.69382 40.0899L12.5524 39.0358ZM5.28267 18.0138H2.73493V22.0138H5.28267V18.0138ZM2.73493 18.0138C2.79824 18.0138 3.21308 18.0309 3.59795 18.4158C3.98282 18.8007 4 19.2155 4 19.2788H0C0 19.8321 0.13967 20.6144 0.769515 21.2442C1.39936 21.8741 2.18166 22.0138 2.73493 22.0138V18.0138ZM4 19.2788V16.7311H0V19.2788H4ZM4 16.7311C4 16.7944 3.98282 17.2092 3.59795 17.5941C3.21308 17.979 2.79824 17.9962 2.73493 17.9962V13.9962C2.18166 13.9962 1.39936 14.1358 0.769515 14.7657C0.13967 15.3955 0 16.1778 0 16.7311H4ZM2.73493 17.9962H9.15328V13.9962H2.73493V17.9962ZM9.15328 17.9962C9.05877 17.9962 8.78975 17.9672 8.51417 17.7497C8.24544 17.5375 8.16599 17.2999 8.15171 17.2464L12.0167 16.2158C11.8717 15.6723 11.5718 15.0673 10.9928 14.6101C10.4069 14.1476 9.73774 13.9962 9.15328 13.9962V17.9962ZM53.2611 38.8367C49.7586 38.8367 47.5703 37.835 46.2398 36.1957L43.134 38.7164C45.4619 41.5846 48.9897 42.8367 53.2611 42.8367V38.8367ZM46.2596 36.2204C44.8095 34.3748 43.9922 31.8438 43.9922 28.4409H39.9922C39.9922 32.4854 40.9714 35.9643 43.1143 38.6917L46.2596 36.2204ZM43.9922 28.4409C43.9922 25.0381 44.8585 22.3976 46.4548 20.3684L43.311 17.8953C41.053 20.7656 39.9922 24.3312 39.9922 28.4409H43.9922ZM46.4548 20.3684C47.9382 18.4828 50.0871 17.4572 53.2121 17.4572V13.4572C49.0858 13.4572 45.6819 14.8814 43.311 17.8953L46.4548 20.3684ZM53.2121 17.4572C54.7563 17.4572 55.9492 17.7516 56.8694 18.2471L58.7658 14.7252C57.1383 13.8488 55.2608 13.4572 53.2121 13.4572V17.4572ZM56.9232 18.275C57.9233 18.775 58.6196 19.4237 59.0913 20.2098L62.5213 18.1519C61.6211 16.6515 60.325 15.5037 58.712 14.6973L56.9232 18.275ZM59.0824 20.1949C60.1859 22.0708 60.7661 24.276 60.7661 26.8731H64.7661C64.7661 23.6561 64.0398 20.7331 62.5302 18.1668L59.0824 20.1949ZM60.7661 26.8731C60.7661 27.5397 60.7498 28.0028 60.7246 28.2922C60.7116 28.442 60.7005 28.4921 60.7035 28.4787C60.7049 28.4723 60.7195 28.4051 60.7591 28.306C60.7798 28.2543 60.8149 28.1748 60.87 28.0811C60.9235 27.9901 61.0142 27.8544 61.1559 27.7126L63.9843 30.5411C64.2785 30.247 64.4164 29.9332 64.473 29.7916C64.5412 29.6211 64.5823 29.4629 64.6082 29.3464C64.6602 29.1124 64.69 28.8645 64.7096 28.6387C64.7498 28.1768 64.7661 27.5783 64.7661 26.8731H60.7661ZM61.1559 27.7127C61.4151 27.4534 61.6767 27.3671 61.7731 27.3414C61.8724 27.3149 61.9069 27.3229 61.8352 27.3229V31.3229C62.2841 31.3229 63.2527 31.2727 63.9843 30.5411L61.1559 27.7127ZM61.8352 27.3229H47.4307V31.3229H61.8352V27.3229ZM45.4355 29.4614C45.6142 32.0358 46.2532 34.2872 47.5455 36.0103L50.7455 33.6103C50.078 32.7203 49.5737 31.3134 49.4258 29.1843L45.4355 29.4614ZM47.5798 36.0548C49.1324 38.008 51.5952 38.7211 54.339 38.7211V34.7211C52.1832 34.7211 51.1837 34.1604 50.7111 33.5658L47.5798 36.0548ZM54.339 38.7211C56.458 38.7211 58.5815 38.219 60.6935 37.2722L59.0573 33.6222C57.3803 34.3739 55.8129 34.7211 54.339 34.7211V38.7211ZM60.7698 37.2361C60.7236 37.2592 60.2914 37.459 59.7206 37.2307C59.1686 37.0099 59.0024 36.5922 58.9983 36.582L62.7123 35.0964C62.5122 34.5962 62.0847 33.8682 61.2061 33.5168C60.3086 33.1578 59.4844 33.4066 58.981 33.6584L60.7698 37.2361ZM59.0068 36.6027L59.9377 38.8565L63.6347 37.3294L62.7038 35.0757L59.0068 36.6027ZM59.94 38.8622C59.8519 38.6506 59.7793 38.2452 59.9746 37.8112C60.0576 37.6267 60.1619 37.5026 60.2353 37.4312C60.2718 37.3957 60.3022 37.3716 60.3217 37.3573C60.3413 37.343 60.3527 37.3365 60.353 37.3364L62.3375 40.8093C62.7684 40.5631 63.311 40.1444 63.6223 39.4526C63.9646 38.6919 63.8838 37.9272 63.6324 37.3237L59.94 38.8622ZM60.3875 37.3171C58.604 38.2899 56.2626 38.8367 53.2611 38.8367V42.8367C56.7269 42.8367 59.7749 42.2076 62.3029 40.8286L60.3875 37.3171ZM47.4307 27.6972H57.6216V23.6972H47.4307V27.6972ZM59.6214 25.7292C59.6574 23.477 59.2494 21.4072 58.0442 19.8699C56.7687 18.243 54.8929 17.5728 52.8201 17.5728V21.5728C54.0136 21.5728 54.5713 21.9234 54.8963 22.3379C55.2916 22.842 55.6512 23.8344 55.6219 25.6652L59.6214 25.7292ZM52.8201 17.5728C50.4443 17.5728 48.3285 18.3672 47.0337 20.3354L50.3754 22.5339C50.7137 22.0196 51.3417 21.5728 52.8201 21.5728V17.5728ZM47.0266 20.3462C46.022 21.8949 45.51 23.6746 45.4323 25.6173L49.4291 25.7771C49.482 24.4535 49.8192 23.3914 50.3824 22.523L47.0266 20.3462ZM70.6091 36.3781V7.765H66.6091V36.3781H70.6091ZM68.6091 5.765H65.9634V9.765H68.6091V5.765ZM65.9634 5.765C66.0267 5.765 66.4416 5.78218 66.8264 6.16706C67.2113 6.55193 67.2285 6.96676 67.2285 7.03008H63.2285C63.2285 7.58334 63.3682 8.36563 63.998 8.99548C64.6278 9.62533 65.4101 9.765 65.9634 9.765V5.765ZM67.2285 7.03008V4.43334H63.2285V7.03008H67.2285ZM67.2285 4.43334C67.2285 4.49665 67.2113 4.91148 66.8264 5.29635C66.4416 5.68123 66.0267 5.69841 65.9634 5.69841V1.69841C65.4101 1.69841 64.6278 1.83808 63.998 2.46794C63.3682 3.09778 63.2285 3.88008 63.2285 4.43334H67.2285ZM65.9634 5.69841H73.3617V1.69841H65.9634V5.69841ZM73.3617 5.69841C73.2983 5.69841 72.8835 5.68123 72.4986 5.29635C72.1138 4.91147 72.0966 4.49664 72.0966 4.43334H76.0966C76.0966 3.88009 75.9569 3.09779 75.3271 2.46794C74.6972 1.83808 73.9149 1.69841 73.3617 1.69841V5.69841ZM72.0966 4.43334V19.6708H76.0966V4.43334H72.0966ZM75.8116 20.6998C76.4221 19.6822 77.2216 18.8973 78.2292 18.3179L76.2353 14.8503C74.6299 15.7734 73.3389 17.0463 72.3816 18.6418L75.8116 20.6998ZM78.2108 18.3284C79.2512 17.7448 80.3514 17.4572 81.5438 17.4572V13.4572C79.6659 13.4572 77.8918 13.9209 76.2538 14.8398L78.2108 18.3284ZM81.5438 17.4572C84.0595 17.4572 85.817 18.2652 87.0771 19.7434L90.1212 17.1485C87.9843 14.6417 85.0382 13.4572 81.5438 13.4572V17.4572ZM87.0771 19.7434C88.3256 21.208 89.1469 23.7567 89.1469 27.804H93.1469C93.1469 23.3588 92.2696 19.6688 90.1212 17.1485L87.0771 19.7434ZM89.1469 27.804C89.1469 31.7317 88.2326 34.4278 86.698 36.1927L89.7164 38.8174C92.1014 36.0746 93.1469 32.3034 93.1469 27.804H89.1469ZM86.6965 36.1943C85.1813 37.9406 83.2034 38.8367 80.5639 38.8367V42.8367C84.2611 42.8367 87.3787 41.5116 89.7178 38.8157L86.6965 36.1943ZM80.5639 38.8367C78.9961 38.8367 77.7262 38.5661 76.7013 38.0911L75.0195 41.7204C76.6731 42.4867 78.5388 42.8367 80.5639 42.8367V38.8367ZM76.7548 38.1169C75.6789 37.5789 75.0589 36.9996 74.718 36.4503L71.3194 38.5597C72.1543 39.9049 73.4289 40.9261 74.966 41.6946L76.7548 38.1169ZM71.0398 37.2154L70.7458 39.2242L74.7037 39.8034L74.9976 37.7946L71.0398 37.2154ZM70.7292 39.3808C70.7317 39.3422 70.7631 38.99 71.1023 38.6508C71.4632 38.2898 71.864 38.2487 71.9898 38.2487V42.2487C72.5729 42.2487 73.3248 42.0852 73.9307 41.4792C74.5149 40.895 74.6851 40.1753 74.7203 39.6468L70.7292 39.3808ZM71.9898 38.2487H66.0124V42.2487H71.9898V38.2487ZM66.0124 38.2487C66.0757 38.2487 66.4906 38.2659 66.8754 38.6508C67.2603 39.0357 67.2775 39.4505 67.2775 39.5138H63.2775C63.2775 40.0671 63.4171 40.8494 64.047 41.4792C64.6768 42.1091 65.4591 42.2487 66.0124 42.2487V38.2487ZM67.2775 39.5138V37.1131H63.2775V39.5138H67.2775ZM67.2775 37.1131C67.2775 37.1764 67.2603 37.5912 66.8754 37.9761C66.4906 38.3609 66.0757 38.3781 66.0124 38.3781V34.3781C65.4591 34.3781 64.6768 34.5178 64.047 35.1477C63.4171 35.7775 63.2775 36.5598 63.2775 37.1131H67.2775ZM66.0124 38.3781H68.6091V34.3781H66.0124V38.3781ZM72.0966 25.4522V34.1244H76.0966V25.4522H72.0966ZM72.4325 35.2338C73.1136 36.2554 74.2382 37.0192 75.4559 37.628L77.2448 34.0503C76.2414 33.5486 75.8635 33.1692 75.7607 33.015L72.4325 35.2338ZM75.4766 37.6382C76.8436 38.3022 78.2518 38.6721 79.682 38.6721V34.6721C78.9565 34.6721 78.1435 34.4867 77.2242 34.0402L75.4766 37.6382ZM79.682 38.6721C82.1913 38.6721 84.3357 37.747 85.7609 35.7328C87.0964 33.8455 87.6104 31.2617 87.6104 28.294H83.6104C83.6104 30.9117 83.1364 32.5169 82.4957 33.4223C81.9448 34.2009 81.125 34.6721 79.682 34.6721V38.6721ZM87.6104 28.294C87.6104 24.1685 86.7181 20.548 83.859 18.9142L81.8744 22.3872C82.6736 22.8438 83.6104 24.3189 83.6104 28.294H87.6104ZM83.8744 18.9231C82.6668 18.2187 81.1916 17.9648 79.633 17.9648V21.9648C80.8181 21.9648 81.4988 22.1681 81.859 22.3783L83.8744 18.9231ZM79.633 17.9648C77.7192 17.9648 75.9945 18.6866 74.5064 19.9681L77.1165 22.9991C77.9801 22.2554 78.8031 21.9648 79.633 21.9648V17.9648ZM74.5098 19.9651C72.8729 21.3682 72.0966 23.2724 72.0966 25.4522H76.0966C76.0966 24.3004 76.4635 23.5588 77.113 23.0021L74.5098 19.9651ZM100.954 4.43334V36.3781H104.954V4.43334H100.954ZM102.954 38.3781H106.041V34.3781H102.954V38.3781ZM106.041 38.3781C105.977 38.3781 105.562 38.3609 105.178 37.9761C104.793 37.5912 104.776 37.1764 104.776 37.1131H108.776C108.776 36.5598 108.636 35.7775 108.006 35.1476C107.376 34.5178 106.594 34.3781 106.041 34.3781V38.3781ZM104.776 37.1131V39.5138H108.776V37.1131H104.776ZM104.776 39.5138C104.776 39.4505 104.793 39.0357 105.178 38.6508C105.562 38.2659 105.977 38.2487 106.041 38.2487V42.2487C106.594 42.2487 107.376 42.1091 108.006 41.4792C108.636 40.8494 108.776 40.0671 108.776 39.5138H104.776ZM106.041 38.2487H94.3798V42.2487H106.041V38.2487ZM94.3798 38.2487C94.4431 38.2487 94.8579 38.2659 95.2428 38.6508C95.6277 39.0357 95.6448 39.4505 95.6448 39.5138H91.6448C91.6448 40.0671 91.7845 40.8494 92.4144 41.4792C93.0442 42.1091 93.8265 42.2487 94.3798 42.2487V38.2487ZM95.6448 39.5138V37.1131H91.6448V39.5138H95.6448ZM95.6448 37.1131C95.6448 37.1764 95.6277 37.5912 95.2428 37.9761C94.8579 38.3609 94.4431 38.3781 94.3798 38.3781V34.3781C93.8265 34.3781 93.0442 34.5178 92.4144 35.1477C91.7845 35.7775 91.6448 36.5598 91.6448 37.1131H95.6448ZM94.3798 38.3781H97.4665V34.3781H94.3798V38.3781ZM99.4665 36.3781V7.71601H95.4665V36.3781H99.4665ZM97.4665 5.71601H94.8207V9.71601H97.4665V5.71601ZM94.8207 5.71601C94.884 5.71601 95.2989 5.73319 95.6837 6.11806C96.0686 6.50293 96.0858 6.91776 96.0858 6.98108H92.0858C92.0858 7.53435 92.2255 8.31665 92.8553 8.9465C93.4852 9.57634 94.2675 9.71601 94.8207 9.71601V5.71601ZM96.0858 6.98108V4.43334H92.0858V6.98108H96.0858ZM96.0858 4.43334C96.0858 4.49666 96.0686 4.91149 95.6837 5.29636C95.2989 5.68123 94.884 5.69841 94.8207 5.69841V1.69841C94.2675 1.69841 93.4852 1.83808 92.8553 2.46793C92.2255 3.09778 92.0858 3.88007 92.0858 4.43334H96.0858ZM94.8207 5.69841H102.219V1.69841H94.8207V5.69841ZM102.219 5.69841C102.156 5.69841 101.741 5.68123 101.356 5.29636C100.971 4.91149 100.954 4.49666 100.954 4.43334H104.954C104.954 3.88007 104.814 3.09778 104.184 2.46793C103.555 1.83808 102.772 1.69841 102.219 1.69841V5.69841ZM109.181 25.8558C109.181 23.605 109.526 21.7559 110.153 20.258L106.462 18.7148C105.586 20.8099 105.181 23.207 105.181 25.8558H109.181ZM110.153 20.258C110.806 18.6965 111.597 17.6635 112.454 17.0146L110.04 13.825C108.481 15.0053 107.312 16.6833 106.462 18.7148L110.153 20.258ZM112.444 17.0225C114.442 15.5308 116.543 14.8231 118.793 14.8231V10.8231C115.62 10.8231 112.691 11.8465 110.051 13.8171L112.444 17.0225ZM118.793 14.8231C120.588 14.8231 121.971 15.1042 123.015 15.5762L124.663 11.9318C122.963 11.1626 120.982 10.8231 118.793 10.8231V14.8231ZM123.015 15.5762C124.224 16.1232 125.035 16.7024 125.552 17.2639L128.496 14.5557C127.51 13.4839 126.198 12.626 124.663 11.9318L123.015 15.5762ZM125.581 17.2948C126.094 17.8297 126.624 18.7125 127.09 20.082L130.877 18.7929C130.298 17.092 129.521 15.6231 128.467 14.5247L125.581 17.2948ZM127.103 20.1177C127.562 21.3863 127.816 22.9432 127.816 24.8269H131.816C131.816 22.595 131.516 20.5589 130.864 18.7572L127.103 20.1177ZM127.816 24.8269C127.816 28.881 126.791 31.6362 125.05 33.4283L127.919 36.2155C130.621 33.4347 131.816 29.5266 131.816 24.8269H127.816ZM125.05 33.4286C123.275 35.2569 121.002 36.2025 118.058 36.2025V40.2025C121.973 40.2025 125.318 38.8945 127.92 36.2152L125.05 33.4286ZM118.058 36.2025C115.052 36.2025 112.951 35.3174 111.482 33.7487L108.563 36.483C110.948 39.0299 114.204 40.2025 118.058 40.2025V36.2025ZM111.504 33.7728C110.066 32.1856 109.181 29.6616 109.181 25.8558H105.181C105.181 30.2158 106.19 33.8652 108.54 36.4589L111.504 33.7728ZM139.431 25.8558C139.431 24.1198 139.699 22.3916 140.099 21.074L136.271 19.9113C135.749 21.6306 135.431 23.7526 135.431 25.8558H139.431ZM138.185 20.4926C140.131 20.9541 140.131 20.9546 140.131 20.955C140.131 20.9552 140.131 20.9556 140.131 20.9559C140.131 20.9565 140.13 20.9571 140.13 20.9577C140.13 20.9589 140.13 20.9601 140.129 20.9612C140.129 20.9635 140.128 20.9657 140.128 20.9678C140.127 20.972 140.126 20.9759 140.125 20.9795C140.123 20.9866 140.122 20.9923 140.121 20.9967C140.118 21.0053 140.117 21.0085 140.118 21.0058C140.12 21.0002 140.128 20.9718 140.147 20.9171C140.185 20.8069 140.262 20.5967 140.403 20.258L136.713 18.7148C136.544 19.1189 136.435 19.4118 136.363 19.6191C136.328 19.7231 136.301 19.807 136.281 19.874C136.272 19.9075 136.263 19.9371 136.256 19.9631C136.253 19.9761 136.25 19.9882 136.247 19.9995C136.245 20.0052 136.244 20.0107 136.243 20.0159C136.242 20.0186 136.242 20.0212 136.241 20.0237C136.241 20.025 136.24 20.0262 136.24 20.0275C136.24 20.0281 136.24 20.0287 136.24 20.0293C136.239 20.0297 136.239 20.0301 136.239 20.0303C136.239 20.0307 136.239 20.0312 138.185 20.4926ZM140.403 20.258C141.056 18.6965 141.847 17.6635 142.705 17.0146L140.291 13.825C138.731 15.0053 137.563 16.6833 136.713 18.7148L140.403 20.258ZM142.694 17.0225C144.693 15.5308 146.793 14.8231 149.043 14.8231V10.8231C145.871 10.8231 142.941 11.8465 140.302 13.8171L142.694 17.0225ZM149.043 14.8231C150.839 14.8231 152.222 15.1042 153.265 15.5762L154.914 11.9318C153.214 11.1626 151.232 10.8231 149.043 10.8231V14.8231ZM153.265 15.5762C154.474 16.1232 155.286 16.7024 155.802 17.2639L158.746 14.5557C157.76 13.4839 156.449 12.626 154.914 11.9318L153.265 15.5762ZM155.832 17.2948C156.345 17.8297 156.875 18.7125 157.341 20.082L161.127 18.7929C160.548 17.092 159.772 15.6231 158.717 14.5247L155.832 17.2948ZM157.353 20.1177C157.812 21.3863 158.067 22.9432 158.067 24.8269H162.067C162.067 22.595 161.767 20.5589 161.115 18.7572L157.353 20.1177ZM158.067 24.8269C158.067 28.881 157.042 31.6362 155.301 33.4283L158.17 36.2155C160.871 33.4347 162.067 29.5266 162.067 24.8269H158.067ZM155.301 33.4286C153.525 35.2569 151.252 36.2025 148.308 36.2025V40.2025C152.224 40.2025 155.569 38.8945 158.17 36.2152L155.301 33.4286ZM148.308 36.2025C145.303 36.2025 143.202 35.3174 141.733 33.7487L138.813 36.483C141.198 39.0299 144.454 40.2025 148.308 40.2025V36.2025ZM141.755 33.7728C140.317 32.1856 139.431 29.6616 139.431 25.8558H135.431C135.431 30.2158 136.441 33.8652 138.791 36.4589L141.755 33.7728ZM167.463 45.5397V17.9065H163.463V45.5397H167.463ZM165.463 15.9065H162.817V19.9065H165.463V15.9065ZM162.817 15.9065C162.88 15.9065 163.295 15.9236 163.68 16.3085C164.065 16.6934 164.082 17.1082 164.082 17.1715H160.082C160.082 17.7248 160.222 18.5071 160.852 19.1369C161.481 19.7668 162.264 19.9065 162.817 19.9065V15.9065ZM164.082 17.1715V14.6238H160.082V17.1715H164.082ZM164.082 14.6238C164.082 14.6871 164.065 15.1019 163.68 15.4868C163.295 15.8717 162.88 15.8889 162.817 15.8889V11.8889C162.264 11.8889 161.481 12.0285 160.852 12.6584C160.222 13.2882 160.082 14.0705 160.082 14.6238H164.082ZM162.817 15.8889H169.48V11.8889H162.817V15.8889ZM169.48 15.8889C169.222 15.8889 168.847 15.7899 168.544 15.4868C168.415 15.3577 168.341 15.2321 168.302 15.148C168.282 15.1061 168.27 15.0728 168.264 15.0512C168.257 15.0296 168.254 15.0172 168.254 15.016L172.176 14.2316C172.083 13.7625 171.872 13.1582 171.372 12.6584C170.824 12.1103 170.131 11.8889 169.48 11.8889V15.8889ZM168.242 14.9526L168.732 17.8923L172.678 17.2347L172.188 14.295L168.242 14.9526ZM172.425 18.5836C173.705 16.4253 175.59 15.3499 178.397 15.3499V11.3499C174.281 11.3499 171.037 13.0836 168.985 16.5433L172.425 18.5836ZM178.397 15.3499C180.913 15.3499 182.671 16.1579 183.931 17.6361L186.975 15.0411C184.838 12.5344 181.892 11.3499 178.397 11.3499V15.3499ZM183.941 17.6485C185.202 19.1034 186 21.4593 186 25.0597H190C190 20.9516 189.1 17.4934 186.964 15.0287L183.941 17.6485ZM186 25.0597C186 29.5041 185.044 32.3671 183.523 34.0622L186.501 36.7332C188.965 33.9861 190 29.9571 190 25.0597H186ZM183.523 34.0622C181.931 35.8366 179.92 36.7294 177.32 36.7294V40.7294C180.991 40.7294 184.107 39.401 186.501 36.7332L183.523 34.0622ZM177.32 36.7294C175.108 36.7294 173.463 36.1497 172.222 35.1277L169.679 38.2154C171.769 39.9372 174.37 40.7294 177.32 40.7294V36.7294ZM168.95 36.6716V45.4907H172.95V36.6716H168.95ZM170.95 47.4907H176.144V43.4907H170.95V47.4907ZM176.144 47.4907C176.08 47.4907 175.665 47.4735 175.281 47.0886C174.896 46.7037 174.879 46.2889 174.879 46.2256H178.879C178.879 45.6724 178.739 44.8901 178.109 44.2602C177.479 43.6304 176.697 43.4907 176.144 43.4907V47.4907ZM174.879 46.2256V48.6754H178.879V46.2256H174.879ZM174.879 48.6754C174.879 48.6121 174.896 48.1972 175.281 47.8123C175.665 47.4275 176.08 47.4103 176.144 47.4103V51.4103C176.697 51.4103 177.479 51.2706 178.109 50.6408C178.739 50.0109 178.879 49.2286 178.879 48.6754H174.879ZM176.144 47.4103H162.866V51.4103H176.144V47.4103ZM162.866 47.4103C162.929 47.4103 163.344 47.4275 163.729 47.8123C164.114 48.1972 164.131 48.612 164.131 48.6754H160.131C160.131 49.2286 160.271 50.0109 160.901 50.6408C161.53 51.2706 162.313 51.4103 162.866 51.4103V47.4103ZM164.131 48.6754V46.2746H160.131V48.6754H164.131ZM164.131 46.2746C164.131 46.3379 164.114 46.7528 163.729 47.1376C163.344 47.5225 162.929 47.5397 162.866 47.5397V43.5397C162.313 43.5397 161.53 43.6793 160.901 44.3092C160.271 44.939 160.131 45.7213 160.131 46.2746H164.131ZM162.866 47.5397H165.463V43.5397H162.866V47.5397ZM168.95 23.2469V32.605H172.95V23.2469H168.95ZM169.536 34.0192C170.331 34.8145 171.414 35.4124 172.618 35.8867L174.084 32.165C173.132 31.7901 172.614 31.4407 172.364 31.1908L169.536 34.0192ZM172.618 35.8867C173.904 36.3933 175.214 36.6628 176.536 36.6628V32.6628C175.767 32.6628 174.954 32.5076 174.084 32.165L172.618 35.8867ZM176.536 36.6628C178.927 36.6628 181.005 35.8293 182.462 33.9965L179.331 31.5075C178.762 32.2224 177.933 32.6628 176.536 32.6628V36.6628ZM182.458 34.0014C183.942 32.1467 184.464 29.378 184.464 26.1866H180.464C180.464 29.1359 179.941 30.7442 179.334 31.5026L182.458 34.0014ZM184.464 26.1866C184.464 23.9765 184.226 22.037 183.662 20.456C183.091 18.8544 182.133 17.4916 180.64 16.7184L178.801 20.2704C179.137 20.4444 179.551 20.8373 179.894 21.7998C180.245 22.7829 180.464 24.2158 180.464 26.1866H184.464ZM180.673 16.7358C179.48 16.0898 178.028 15.8575 176.487 15.8575V19.8575C177.689 19.8575 178.392 20.0497 178.768 20.253L180.673 16.7358ZM176.487 15.8575C174.592 15.8575 172.876 16.5484 171.385 17.7909L173.945 20.8637C174.806 20.1464 175.637 19.8575 176.487 19.8575V15.8575ZM171.389 17.7873C169.728 19.1638 168.95 21.0675 168.95 23.2469H172.95C172.95 22.0947 173.316 21.3853 173.941 20.8673L171.389 17.7873ZM202.698 36.7294C199.196 36.7294 197.007 35.7277 195.677 34.0884L192.571 36.609C194.899 39.4773 198.427 40.7294 202.698 40.7294V36.7294ZM195.805 34.2643C194.305 31.941 193.429 29.6173 193.429 26.3336H189.429C189.429 30.4972 190.592 33.5629 192.444 36.4331L195.805 34.2643ZM193.429 26.3336C193.429 22.9308 194.296 20.2903 195.892 18.2611L192.748 15.788C190.49 18.6583 189.429 22.2238 189.429 26.3336H193.429ZM195.892 18.2611C197.375 16.3755 199.524 15.3499 202.649 15.3499V11.3499C198.523 11.3499 195.119 12.7741 192.748 15.788L195.892 18.2611ZM202.649 15.3499C204.193 15.3499 205.386 15.6443 206.307 16.1397L208.203 12.6179C206.575 11.7415 204.698 11.3499 202.649 11.3499V15.3499ZM206.36 16.1677C207.36 16.6677 208.057 17.3164 208.528 18.1025L211.958 16.0445C211.058 14.5442 209.762 13.3964 208.149 12.59L206.36 16.1677ZM208.52 18.0876C209.623 19.9635 210.203 22.1686 210.203 24.7658H214.203C214.203 21.5488 213.477 18.6258 211.967 16.0595L208.52 18.0876ZM210.203 24.7658C210.203 25.4324 210.187 25.8955 210.162 26.1849C210.149 26.3346 210.138 26.3848 210.141 26.3713C210.142 26.365 210.157 26.2977 210.196 26.1987C210.217 26.1469 210.252 26.0674 210.307 25.9737C210.361 25.8828 210.451 25.747 210.593 25.6053L213.421 28.4338C213.716 28.1396 213.854 27.8258 213.91 27.6842C213.978 27.5137 214.019 27.3556 214.045 27.239C214.097 27.0051 214.127 26.7572 214.147 26.5313C214.187 26.0694 214.203 25.471 214.203 24.7658H210.203ZM210.593 25.6053C210.852 25.3461 211.114 25.2597 211.21 25.234C211.31 25.2076 211.344 25.2155 211.272 25.2155V29.2155C211.721 29.2155 212.69 29.1654 213.421 28.4337L210.593 25.6053ZM211.272 25.2155H196.868V29.2155H211.272V25.2155ZM194.873 27.3541C195.051 29.9284 195.69 32.1799 196.983 33.903L200.183 31.503C199.515 30.613 199.011 29.2061 198.863 27.077L194.873 27.3541ZM197.017 33.9475C198.569 35.9007 201.032 36.6138 203.776 36.6138V32.6138C201.62 32.6138 200.621 32.053 200.148 31.4585L197.017 33.9475ZM203.776 36.6138C205.895 36.6138 208.019 36.1117 210.131 35.1649L208.494 31.5149C206.817 32.2666 205.25 32.6138 203.776 32.6138V36.6138ZM210.207 35.1288C210.161 35.1519 209.729 35.3517 209.158 35.1234C208.606 34.9026 208.44 34.4849 208.435 34.4747L212.149 32.9891C211.949 32.4889 211.522 31.7609 210.643 31.4095C209.746 31.0505 208.922 31.2993 208.418 31.5511L210.207 35.1288ZM208.444 34.4954L209.375 36.7492L213.072 35.2221L212.141 32.9684L208.444 34.4954ZM209.377 36.7549C209.289 36.5433 209.216 36.1379 209.412 35.7039C209.495 35.5194 209.599 35.3953 209.672 35.3239C209.709 35.2884 209.739 35.2643 209.759 35.25C209.778 35.2357 209.79 35.2292 209.79 35.2291L211.775 38.702C212.206 38.4558 212.748 38.0371 213.059 37.3453C213.402 36.5846 213.321 35.8199 213.069 35.2164L209.377 36.7549ZM209.825 35.2098C208.041 36.1826 205.7 36.7294 202.698 36.7294V40.7294C206.164 40.7294 209.212 40.1002 211.74 38.7213L209.825 35.2098ZM196.868 25.5899H207.059V21.5899H196.868V25.5899ZM209.059 23.6219C209.095 21.3697 208.687 19.2999 207.481 17.7626C206.206 16.1357 204.33 15.4655 202.257 15.4655V19.4655C203.451 19.4655 204.008 19.816 204.333 20.2306C204.729 20.7347 205.088 21.7271 205.059 23.5579L209.059 23.6219ZM202.257 15.4655C199.881 15.4655 197.766 16.2599 196.471 18.2281L199.812 20.4265C200.151 19.9123 200.779 19.4655 202.257 19.4655V15.4655ZM196.464 18.2389C195.459 19.7876 194.947 21.5673 194.869 23.5099L198.866 23.6698C198.919 22.3461 199.256 21.2841 199.82 20.4157L196.464 18.2389ZM225.325 18.8847C225.729 17.9358 226.387 17.1019 227.366 16.3809L224.993 13.1607C223.489 14.2687 222.351 15.656 221.644 17.3202L225.325 18.8847ZM227.393 16.3607C228.309 15.6617 229.243 15.3499 230.246 15.3499V11.3499C228.309 11.3499 226.533 11.9853 224.966 13.1809L227.393 16.3607ZM230.246 15.3499C231.641 15.3499 232.514 15.4793 232.994 15.6392L234.259 11.8445C233.171 11.4818 231.791 11.3499 230.246 11.3499V15.3499ZM232.994 15.6392C232.843 15.5887 232.593 15.4532 232.404 15.1697C232.226 14.904 232.215 14.6749 232.215 14.6238H236.215C236.215 14.1154 236.105 13.5107 235.732 12.9509C235.347 12.3735 234.803 12.0257 234.259 11.8445L232.994 15.6392ZM232.215 14.6238V21.2381H236.215V14.6238H232.215ZM232.215 21.2381C232.215 21.1748 232.232 20.76 232.617 20.3751C233.002 19.9902 233.416 19.973 233.48 19.973V23.973C234.033 23.973 234.815 23.8334 235.445 23.2035C236.075 22.5737 236.215 21.7914 236.215 21.2381H232.215ZM233.48 19.973H230.295V23.973H233.48V19.973ZM230.295 19.973C230.346 19.973 230.808 19.9853 231.218 20.4247C231.627 20.8631 231.608 21.3232 231.605 21.3712L227.614 21.1051C227.578 21.643 227.656 22.4706 228.294 23.1539C228.933 23.8383 229.754 23.973 230.295 23.973V19.973ZM231.604 21.3757L231.8 18.534L227.81 18.2588L227.614 21.1005L231.604 21.3757ZM230.197 16.4352C229.821 16.36 229.367 16.3474 228.972 16.3474V20.3474C229.143 20.3474 229.269 20.3511 229.357 20.3562C229.4 20.3587 229.427 20.3612 229.44 20.3627C229.455 20.3644 229.444 20.3637 229.413 20.3576L230.197 16.4352ZM228.972 16.3474C226.821 16.3474 225.015 17.2775 223.679 18.9699L226.818 21.4485C227.442 20.6585 228.118 20.3474 228.972 20.3474V16.3474ZM223.695 18.9496C222.345 20.615 221.779 22.7411 221.779 25.1087H225.779C225.779 23.3608 226.193 22.2205 226.802 21.4688L223.695 18.9496ZM221.779 25.1087V34.2708H225.779V25.1087H221.779ZM223.779 36.2708H229.168V32.2708H223.779V36.2708ZM229.168 36.2708C229.105 36.2708 228.69 36.2536 228.305 35.8687C227.92 35.4839 227.903 35.069 227.903 35.0057H231.903C231.903 34.4525 231.763 33.6702 231.134 33.0403C230.504 32.4105 229.721 32.2708 229.168 32.2708V36.2708ZM227.903 35.0057V37.4065H231.903V35.0057H227.903ZM227.903 37.4065C227.903 37.3432 227.92 36.9284 228.305 36.5435C228.69 36.1586 229.105 36.1414 229.168 36.1414V40.1414C229.721 40.1414 230.504 40.0017 231.134 39.3719C231.763 38.742 231.903 37.9597 231.903 37.4065H227.903ZM229.168 36.1414H215.695V40.1414H229.168V36.1414ZM215.695 36.1414C215.758 36.1414 216.173 36.1586 216.558 36.5435C216.942 36.9283 216.96 37.3432 216.96 37.4065H212.96C212.96 37.9598 213.099 38.7421 213.729 39.3719C214.359 40.0017 215.141 40.1414 215.695 40.1414V36.1414ZM216.96 37.4065V35.0057H212.96V37.4065H216.96ZM216.96 35.0057C216.96 35.0691 216.942 35.4839 216.558 35.8688C216.173 36.2536 215.758 36.2708 215.695 36.2708V32.2708C215.141 32.2708 214.359 32.4105 213.729 33.0403C213.099 33.6702 212.96 34.4525 212.96 35.0057H216.96ZM215.695 36.2708H218.291V32.2708H215.695V36.2708ZM220.291 34.2708V17.9065H216.291V34.2708H220.291ZM218.291 15.9065H215.646V19.9065H218.291V15.9065ZM215.646 15.9065C215.709 15.9065 216.124 15.9236 216.509 16.3085C216.893 16.6934 216.911 17.1082 216.911 17.1715H212.911C212.911 17.7248 213.05 18.5071 213.68 19.1369C214.31 19.7668 215.092 19.9065 215.646 19.9065V15.9065ZM216.911 17.1715V14.6238H212.911V17.1715H216.911ZM216.911 14.6238C216.911 14.6871 216.893 15.1019 216.509 15.4868C216.124 15.8717 215.709 15.8889 215.646 15.8889V11.8889C215.092 11.8889 214.31 12.0285 213.68 12.6584C213.05 13.2882 212.911 14.0705 212.911 14.6238H216.911ZM215.646 15.8889H222.113V11.8889H215.646V15.8889ZM222.113 15.8889C221.973 15.8889 221.648 15.8432 221.341 15.5723C221.054 15.319 220.992 15.0515 220.985 15.016L224.907 14.2315C224.802 13.7061 224.552 13.0712 223.987 12.5729C223.403 12.057 222.71 11.8889 222.113 11.8889V15.8889ZM220.969 14.93L221.508 18.4086L225.461 17.7962L224.922 14.3176L220.969 14.93Z" fill="#005F51" mask="url(#path-1-outside-1_72_32)"/>
</svg>
